<svg width="43" height="43" viewBox="0 0 43 43" fill="none" xmlns="http://www.w3.org/2000/svg">
<path d="M10.0643 23.9626C10.2131 24.7888 10.5106 25.6399 10.9568 26.5157C11.403 27.375 11.973 28.2014 12.667 28.9946C13.3776 29.7713 14.1712 30.4735 15.0471 31.1015C16.3525 32.0269 17.6826 32.6385 19.0377 32.936V33.977C18.1288 34.1588 17.1868 34.5307 16.2118 35.0926C15.2534 35.6544 14.3612 36.3239 13.5349 37.1006C12.7087 37.8607 12.0311 38.6621 11.5023 39.5049C10.7256 40.7442 10.2461 41.9093 10.0643 43H9.0234C8.84157 41.9258 8.36212 40.7692 7.58545 39.5298C6.80874 38.2739 5.70152 37.1088 4.26378 36.0347C2.84256 34.9604 1.42122 34.2744 0 33.977V32.936C1.40469 32.6055 2.75165 31.9939 4.04066 31.1015C5.34617 30.1925 6.43687 29.1019 7.31274 27.8294C8.20508 26.5239 8.77551 25.235 9.0234 23.9626H10.0643ZM34.0266 23.9626C34.1754 24.7888 34.473 25.6399 34.9191 26.5157C35.3653 27.375 35.9353 28.2014 36.6294 28.9946C37.34 29.7713 38.1335 30.4735 39.0094 31.1015C40.3149 32.0269 41.6449 32.6385 43 32.936V33.977C42.0911 34.1588 41.1492 34.5307 40.1742 35.0926C39.2157 35.6544 38.3235 36.3239 37.4972 37.1006C36.671 37.8607 35.9934 38.6621 35.4646 39.5049C34.6879 40.7442 34.2085 41.9093 34.0266 43H32.9857C32.8039 41.9258 32.3245 40.7692 31.5478 39.5298C30.7711 38.2739 29.6638 37.1088 28.2261 36.0347C26.8049 34.9604 25.3836 34.2744 23.9623 33.977V32.936C25.367 32.6055 26.714 31.9939 28.003 31.1015C29.3085 30.1925 30.3992 29.1019 31.2751 27.8294C32.1674 26.5239 32.7378 25.235 32.9857 23.9626H34.0266ZM10.0643 0C10.2131 0.826245 10.5106 1.67731 10.9568 2.55312C11.403 3.41244 11.973 4.2388 12.667 5.03201C13.3776 5.80872 14.1712 6.51091 15.0471 7.13889C16.3525 8.0643 17.6826 8.67597 19.0377 8.97348V10.0144C18.1288 10.1962 17.1868 10.5681 16.2118 11.13C15.2534 11.6919 14.3612 12.3613 13.5349 13.138C12.7087 13.8982 12.0311 14.6995 11.5023 15.5423C10.7256 16.7816 10.2461 17.9468 10.0643 19.0375H9.0234C8.84157 17.9633 8.36212 16.8066 7.58545 15.5673C6.80874 14.3113 5.70152 13.1462 4.26378 12.0721C2.84256 10.9979 1.42122 10.3119 0 10.0144V8.97348C1.40469 8.64296 2.75165 8.03129 4.04066 7.13889C5.34617 6.22997 6.43687 5.1393 7.31274 3.86681C8.20508 2.56131 8.77551 1.27244 9.0234 0H10.0643ZM34.0266 0C34.1754 0.826245 34.473 1.67731 34.9191 2.55312C35.3653 3.41244 35.9353 4.2388 36.6294 5.03201C37.34 5.80872 38.1335 6.51091 39.0094 7.13889C40.3149 8.0643 41.6449 8.67597 43 8.97348V10.0144C42.0911 10.1962 41.1492 10.5681 40.1742 11.13C39.2157 11.6919 38.3235 12.3613 37.4972 13.138C36.671 13.8982 35.9934 14.6995 35.4646 15.5423C34.6879 16.7816 34.2085 17.9468 34.0266 19.0375H32.9857C32.8039 17.9633 32.3245 16.8066 31.5478 15.5673C30.7711 14.3113 29.6638 13.1462 28.2261 12.0721C26.8049 10.9979 25.3836 10.3119 23.9623 10.0144V8.97348C25.367 8.64296 26.714 8.03129 28.003 7.13889C29.3085 6.22997 30.3992 5.1393 31.2751 3.86681C32.1674 2.56131 32.7378 1.27244 32.9857 0H34.0266Z" fill="black"/>
<path d="M33.6211 24.4629C33.7962 25.2117 34.0812 25.9719 34.4736 26.7422L34.4756 26.7461C34.9417 27.6438 35.5348 28.5035 36.2529 29.3242L36.2607 29.332C36.9035 30.0346 37.6108 30.6781 38.3828 31.2617L38.7178 31.5078L38.7207 31.5098C39.9481 32.3798 41.2082 32.9883 42.5 33.3281V33.5791C41.6566 33.7941 40.7978 34.1561 39.9248 34.6592L39.9209 34.6611C38.931 35.2415 38.01 35.9323 37.1582 36.7324C36.4105 37.4204 35.7759 38.1459 35.2568 38.9092L35.041 39.2393C34.3346 40.3664 33.8541 41.4542 33.6162 42.5H33.3945C33.1899 41.6146 32.8077 40.6942 32.2578 39.7402L31.9717 39.2646C31.1558 37.9461 30.0011 36.737 28.5244 35.6338C27.1874 34.6237 25.833 33.934 24.4619 33.5811V33.3213C25.7926 32.9587 27.0686 32.3562 28.2871 31.5127L28.2891 31.5117C29.6421 30.5696 30.7757 29.4365 31.6865 28.1133L31.6875 28.1113C32.5179 26.8964 33.0888 25.6801 33.3867 24.4629H33.6211ZM9.6582 24.4629C9.83329 25.2118 10.1193 25.9718 10.5117 26.7422L10.5127 26.7461C10.9789 27.6439 11.5729 28.5035 12.291 29.3242L12.2979 29.332C12.9407 30.0347 13.6488 30.678 14.4209 31.2617L14.7559 31.5078L14.7578 31.5098C15.9854 32.38 17.246 32.9883 18.5381 33.3281V33.5791C17.6945 33.7941 16.8352 34.1559 15.9619 34.6592L15.959 34.6611C14.9691 35.2415 14.0481 35.9323 13.1963 36.7324C12.3415 37.5189 11.6344 38.3543 11.0791 39.2393H11.0781C10.3718 40.3664 9.89214 41.4542 9.6543 42.5H9.43164C9.19335 41.4689 8.71381 40.3904 8.00977 39.2666H8.01074C7.19478 37.9472 6.03992 36.7376 4.5625 35.6338C3.22552 34.6237 1.87105 33.934 0.5 33.5811V33.3213C1.83066 32.9587 3.10672 32.3562 4.3252 31.5127L4.32617 31.5117C5.67943 30.5696 6.81367 29.4367 7.72461 28.1133L7.72559 28.1113C8.55591 26.8965 9.12589 25.68 9.42383 24.4629H9.6582ZM33.6211 0.5C33.7962 1.24905 34.0811 2.0097 34.4736 2.78027L34.4756 2.7832C34.8835 3.56872 35.3883 4.32524 35.9893 5.05176L36.2529 5.36133L36.2607 5.36914C36.9953 6.17201 37.8146 6.89735 38.7178 7.54492L38.7207 7.54688C39.9482 8.41695 41.2081 9.02638 42.5 9.36621V9.61621C41.6567 9.83122 40.7978 10.1932 39.9248 10.6963L39.9209 10.6982C38.9295 11.2795 38.0072 11.9718 37.1543 12.7734C36.3014 13.5588 35.5954 14.3928 35.041 15.2764C34.3347 16.4034 33.8541 17.4914 33.6162 18.5371H33.3945C33.1561 17.5055 32.6754 16.4262 31.9707 15.3018C31.1551 13.9838 30.0022 12.7756 28.5264 11.6729H28.5273C27.1894 10.6617 25.8339 9.9713 24.4619 9.61816V9.3584C25.7926 8.99583 27.0686 8.39338 28.2871 7.5498L28.2891 7.54883C29.6421 6.60672 30.7757 5.47363 31.6865 4.15039L31.6875 4.14941C32.518 2.93442 33.0888 1.71729 33.3867 0.5H33.6211ZM9.6582 0.5C9.8333 1.24909 10.1192 2.00966 10.5117 2.78027L10.5127 2.7832C10.9206 3.56879 11.4263 4.32518 12.0273 5.05176L12.291 5.36133L12.2979 5.36914C13.0325 6.17209 13.8526 6.8973 14.7559 7.54492L14.7578 7.54688C15.9855 8.41716 17.246 9.02637 18.5381 9.36621V9.61621C17.6945 9.83124 16.8352 10.193 15.9619 10.6963L15.959 10.6982C14.9676 11.2794 14.0453 11.9718 13.1924 12.7734C12.3394 13.5588 11.6336 14.3928 11.0791 15.2764H11.0781C10.3718 16.4034 9.89218 17.4915 9.6543 18.5371H9.43164C9.19319 17.5055 8.71342 16.4262 8.00879 15.3018C7.1932 13.9838 6.04019 12.7756 4.56445 11.6729H4.56543C3.22757 10.6616 1.87198 9.97135 0.5 9.61816V9.3584C1.83067 8.9958 3.10671 8.39338 4.3252 7.5498L4.32617 7.54883C5.67948 6.60662 6.81366 5.47385 7.72461 4.15039L7.72559 4.14941C8.55609 2.93439 9.12689 1.71732 9.4248 0.5H9.6582Z" fill="black" stroke="black"/>
<rect x="9" y="9" width="25" height="25" fill="#D9D9D9"/>
</svg>
