<svg width="3272" height="653" viewBox="0 0 3272 653" fill="none" xmlns="http://www.w3.org/2000/svg">
<mask id="path-1-outside-1_6838_7" maskUnits="userSpaceOnUse" x="0" y="0" width="3272" height="653" fill="black">
<rect fill="white" width="3272" height="653"/>
<path d="M1756.81 228.4C1770.41 228.4 1781.61 232.4 1790.41 240.4C1799.21 248.4 1803.61 258.801 1803.61 271.601C1803.61 281.2 1801.21 289 1796.41 295C1792.01 301 1786.01 304 1778.41 304C1772.01 304 1766.41 302.4 1761.61 299.2C1756.81 295.6 1754.41 290 1754.41 282.4C1754.41 273.6 1757.81 267.2 1764.61 263.2C1767.01 261.6 1768.61 260.2 1769.41 259C1770.61 257.4 1771.21 255.2 1771.21 252.4C1771.21 249.2 1769.61 246.8 1766.41 245.2C1763.21 243.6 1759.41 242.8 1755.01 242.8C1747.81 242.8 1741.21 245.8 1735.21 251.8C1731.51 255.493 1728.86 259.622 1727.26 264.185C1725.63 268.812 1727.27 273.753 1729.78 277.97C1738.2 292.141 1742.41 308.418 1742.41 326.8C1742.41 346.8 1737.61 364.401 1728.01 379.601C1718.41 394.4 1705.41 405.8 1689.01 413.8C1673.01 421.4 1655.21 425.2 1635.61 425.2C1612.81 425.2 1592.41 428.4 1574.41 434.8C1556.81 440.8 1548.01 451 1548.01 465.4C1548.01 473 1551.41 478.2 1558.21 481C1565.01 483.8 1574.41 485.2 1586.41 485.2C1594.81 485.2 1601.61 485.001 1606.81 484.601C1611.61 484.201 1617.81 484 1625.41 484H1687.21C1712.81 484 1734.21 491 1751.41 505C1768.61 518.6 1777.21 538.801 1777.21 565.601C1777.21 593.6 1765.21 615 1741.21 629.8C1717.61 644.6 1686.41 652 1647.61 652C1612.41 652 1582.01 646.4 1556.41 635.2C1530.81 624 1518.01 606.4 1518.01 582.4C1518.01 567.601 1523.81 554.6 1535.41 543.4C1546.78 532.415 1560.28 525.663 1575.89 523.143C1576.41 523.058 1576.81 522.605 1576.81 522.071C1576.81 521.563 1576.44 521.122 1575.95 521.012C1541.32 513.358 1524.01 498.62 1524.01 476.8C1524.01 460.4 1530.21 447.6 1542.61 438.4C1555.18 428.974 1570.44 422.633 1588.41 419.377C1588.99 419.273 1589.41 418.774 1589.41 418.191C1589.41 417.711 1589.12 417.278 1588.68 417.086C1572.19 409.888 1558.03 399.192 1546.21 385C1534.61 370.2 1528.81 350.8 1528.81 326.8C1528.81 306.4 1533.81 288.8 1543.81 274C1553.81 259.2 1566.81 248 1582.81 240.4C1599.21 232.4 1616.81 228.4 1635.61 228.4C1647.21 228.4 1658.61 230.4 1669.81 234.4C1681.41 238 1691.21 242.401 1699.21 247.601C1706.7 251.882 1719.64 248.514 1725.57 242.239C1727.74 239.939 1730.15 237.926 1732.81 236.2C1740.81 231 1748.81 228.4 1756.81 228.4ZM1639.21 524.8C1613.61 524.8 1591.41 529 1572.61 537.4C1553.81 546.2 1544.41 560.8 1544.41 581.2C1544.41 600 1555.01 614 1576.21 623.2C1597.41 632.8 1621.21 637.601 1647.61 637.601C1676.41 637.601 1701.61 632.4 1723.21 622C1744.81 612 1755.61 594.8 1755.61 570.4C1755.61 558 1751.81 547.2 1744.21 538C1737.01 529.2 1724.21 524.8 1705.81 524.8H1639.21ZM1267.1 436C1267.1 453.6 1270.5 468.6 1277.3 481C1284.5 493.4 1296.5 499.601 1313.3 499.601C1327.3 499.601 1339.7 494.8 1350.5 485.2C1361.7 475.2 1370.3 461.8 1376.3 445C1382.7 427.8 1385.9 408.8 1385.9 388V263.2C1385.9 258.4 1384.9 255 1382.9 253C1380.9 251 1377.5 250 1372.7 250H1354.7C1350.72 250 1347.5 246.777 1347.5 242.8C1347.5 238.824 1350.72 235.601 1354.7 235.601H1409.1C1420.14 235.601 1429.1 244.555 1429.1 255.601V481.601C1429.1 486.4 1430.1 489.8 1432.1 491.8C1434.1 493.8 1437.5 494.8 1442.3 494.8H1460.3C1464.28 494.8 1467.5 498.023 1467.5 502C1467.5 505.977 1464.28 509.2 1460.3 509.2H1405.9C1394.85 509.2 1385.9 500.246 1385.9 489.2V461.209C1385.9 460.499 1385.41 459.879 1384.73 459.707C1384.01 459.528 1383.27 459.879 1382.95 460.54C1373.84 479.171 1362.63 493.191 1349.3 502.601C1335.7 511.801 1320.7 516.4 1304.3 516.4C1275.1 516.4 1254.3 507.4 1241.9 489.4C1229.9 471.4 1223.9 449.8 1223.9 424.601V263.2C1223.9 258.4 1222.9 255 1220.9 253C1218.9 251 1215.5 250 1210.7 250H1192.7C1188.72 250 1185.5 246.777 1185.5 242.8C1185.5 238.824 1188.72 235.601 1192.7 235.601H1247.1C1258.14 235.601 1267.1 244.555 1267.1 255.601V436ZM2400.97 215.601C2400.97 226.646 2409.93 235.601 2420.97 235.601H2466.97C2471.61 235.601 2475.37 239.361 2475.37 244C2475.37 248.64 2471.61 252.4 2466.97 252.4H2420.97C2409.93 252.4 2400.97 261.355 2400.97 272.4V448C2400.97 460 2403.37 470 2408.17 478C2412.97 486 2421.17 490 2432.77 490C2460.08 490 2474.26 467.804 2475.31 423.412C2475.38 420.43 2477.79 418 2480.77 418C2483.75 418 2486.18 420.419 2486.12 423.401C2485.61 447.929 2481.63 469.329 2474.17 487.601C2466.57 506.8 2448.57 516.4 2420.17 516.4C2402.17 516.4 2387.17 510 2375.17 497.2C2363.57 484.4 2357.77 467 2357.77 445V272.4C2357.77 261.355 2348.82 252.4 2337.77 252.4H2321.77C2317.13 252.4 2313.37 248.64 2313.37 244C2313.37 239.361 2317.13 235.601 2321.77 235.601H2326.57C2344.57 235.601 2358.57 226 2368.57 206.8C2378.97 187.2 2384.17 165.6 2384.17 142V128.801C2384.17 124.161 2387.93 120.4 2392.57 120.4C2397.21 120.4 2400.97 124.161 2400.97 128.801V215.601ZM2816.86 228.4C2838.86 228.4 2859.06 235 2877.46 248.2C2895.86 261 2910.26 278.4 2920.66 300.4C2931.46 322.4 2936.86 346.4 2936.86 372.4C2936.86 398.4 2931.46 422.4 2920.66 444.4C2910.26 466.4 2895.86 484 2877.46 497.2C2859.06 510 2838.86 516.4 2816.86 516.4C2794.86 516.4 2774.66 510 2756.26 497.2C2737.86 484 2723.26 466.4 2712.46 444.4C2702.06 422.4 2696.86 398.4 2696.86 372.4C2696.86 346.4 2702.06 322.4 2712.46 300.4C2723.26 278.4 2737.86 261 2756.26 248.2C2774.66 235 2794.86 228.4 2816.86 228.4ZM361.601 128.601C361.601 139.646 370.555 148.601 381.601 148.601H489.2C500.246 148.601 509.2 157.555 509.2 168.601V489.2C509.2 500.246 500.246 509.2 489.2 509.2H168.601C157.555 509.2 148.601 500.246 148.601 489.2V381.601C148.601 370.555 139.646 361.601 128.601 361.601H21C9.9543 361.601 1 352.646 1 341.601V21C1 9.9543 9.95431 1 21 1H341.601C352.646 1 361.601 9.95431 361.601 21V128.601ZM1083.7 463.601C1087.7 473.6 1092.5 480.601 1098.1 484.601C1103.7 488.2 1110.9 490 1119.7 490H1143.7C1149 490 1153.3 494.298 1153.3 499.6C1153.3 504.902 1149 509.2 1143.7 509.2H976.896C971.594 509.2 967.296 504.902 967.296 499.6C967.296 494.298 971.594 490 976.896 490H1006.9C1012.9 490 1017.9 488.6 1021.9 485.8C1025.9 482.6 1027.9 479 1027.9 475C1027.9 469.8 1027.1 465.4 1025.5 461.8L1002.01 395.336C999.184 387.344 991.628 382 983.152 382H870.976C862.531 382 854.995 387.305 852.147 395.256L842.496 422.2C836.896 438.2 834.096 449.8 834.096 457C834.096 465.8 836.295 473.6 840.695 480.4C845.095 486.8 852.696 490 863.496 490H890.496C895.798 490 900.096 494.298 900.096 499.6C900.096 504.902 895.798 509.2 890.496 509.2H745.295C739.993 509.2 735.695 504.902 735.695 499.6C735.695 494.298 739.993 490 745.295 490H757.896C781.496 490 798.696 475.4 809.496 446.2L936.007 89.0262C937.499 84.8148 941.482 82 945.95 82C950.463 82 954.476 84.8708 955.933 89.1418L1083.7 463.601ZM1996.83 228.4C2026.03 228.4 2046.63 237.4 2058.63 255.4C2071.03 273.4 2077.23 295 2077.23 320.2V481.601C2077.23 486.4 2078.23 489.8 2080.23 491.8C2082.23 493.8 2085.63 494.8 2090.43 494.8H2108.43C2112.41 494.8 2115.63 498.023 2115.63 502C2115.63 505.977 2112.41 509.2 2108.43 509.2H2002.83C1998.85 509.2 1995.63 505.977 1995.63 502C1995.63 498.023 1998.85 494.8 2002.83 494.8H2020.83C2025.63 494.8 2029.03 493.8 2031.03 491.8C2033.03 489.8 2034.03 486.4 2034.03 481.601V308.8C2034.03 291.2 2030.43 276.2 2023.23 263.8C2016.43 251.4 2004.63 245.2 1987.83 245.2C1973.83 245.2 1961.23 250.2 1950.03 260.2C1939.23 269.8 1930.63 283.2 1924.23 300.4C1918.23 317.2 1915.23 336 1915.23 356.8V481.601C1915.23 486.4 1916.23 489.8 1918.23 491.8C1920.23 493.8 1923.63 494.8 1928.43 494.8H1946.43C1950.41 494.8 1953.63 498.023 1953.63 502C1953.63 505.977 1950.41 509.2 1946.43 509.2H1840.83C1836.85 509.2 1833.63 505.977 1833.63 502C1833.63 498.023 1836.85 494.8 1840.83 494.8H1858.83C1863.63 494.8 1867.03 493.8 1869.03 491.8C1871.03 489.8 1872.03 486.4 1872.03 481.601V263.2C1872.03 258.4 1871.03 255 1869.03 253C1867.03 251 1863.63 250 1858.83 250H1840.83C1836.85 250 1833.63 246.777 1833.63 242.8C1833.63 238.824 1836.85 235.601 1840.83 235.601H1895.23C1906.28 235.601 1915.23 244.555 1915.23 255.601V283.591C1915.23 284.301 1915.71 284.921 1916.4 285.093C1917.12 285.272 1917.86 284.921 1918.18 284.26C1927.28 265.637 1938.5 251.817 1951.83 242.8C1965.43 233.2 1980.43 228.4 1996.83 228.4ZM2239.25 481.601C2239.25 486.4 2240.25 489.8 2242.25 491.8C2244.25 493.8 2247.65 494.8 2252.45 494.8H2270.45C2274.43 494.8 2277.65 498.023 2277.65 502C2277.65 505.977 2274.43 509.2 2270.45 509.2H2164.85C2160.88 509.2 2157.65 505.977 2157.65 502C2157.65 498.023 2160.88 494.8 2164.85 494.8H2182.85C2187.65 494.8 2191.05 493.8 2193.05 491.8C2195.05 489.8 2196.05 486.4 2196.05 481.601V263.2C2196.05 258.4 2195.05 255 2193.05 253C2191.05 251 2187.65 250 2182.85 250H2164.85C2160.88 250 2157.65 246.777 2157.65 242.8C2157.65 238.824 2160.88 235.601 2164.85 235.601H2219.25C2230.3 235.601 2239.25 244.555 2239.25 255.601V481.601ZM2610.74 481.601C2610.74 486.4 2611.74 489.8 2613.74 491.8C2615.74 493.8 2619.14 494.8 2623.94 494.8H2641.94C2645.91 494.8 2649.14 498.023 2649.14 502C2649.14 505.977 2645.91 509.2 2641.94 509.2H2536.34C2532.36 509.2 2529.14 505.977 2529.14 502C2529.14 498.023 2532.36 494.8 2536.34 494.8H2554.34C2559.14 494.8 2562.54 493.8 2564.54 491.8C2566.54 489.8 2567.54 486.4 2567.54 481.601V263.2C2567.54 258.4 2566.54 255 2564.54 253C2562.54 251 2559.14 250 2554.34 250H2536.34C2532.36 250 2529.14 246.777 2529.14 242.8C2529.14 238.824 2532.36 235.601 2536.34 235.601H2590.74C2601.78 235.601 2610.74 244.555 2610.74 255.601V481.601ZM3151.71 228.4C3180.91 228.4 3201.51 237.4 3213.51 255.4C3225.91 273.4 3232.11 295 3232.11 320.2V481.601C3232.11 486.4 3233.11 489.8 3235.11 491.8C3237.11 493.8 3240.51 494.8 3245.31 494.8H3263.31C3267.29 494.8 3270.51 498.023 3270.51 502C3270.51 505.977 3267.29 509.2 3263.31 509.2H3157.71C3153.74 509.2 3150.51 505.977 3150.51 502C3150.51 498.023 3153.74 494.8 3157.71 494.8H3175.71C3180.51 494.8 3183.91 493.8 3185.91 491.8C3187.91 489.8 3188.91 486.4 3188.91 481.601V308.8C3188.91 291.2 3185.31 276.2 3178.11 263.8C3171.31 251.4 3159.51 245.2 3142.71 245.2C3128.71 245.2 3116.11 250.2 3104.91 260.2C3094.11 269.8 3085.51 283.2 3079.11 300.4C3073.11 317.2 3070.11 336 3070.11 356.8V481.601C3070.11 486.4 3071.11 489.8 3073.11 491.8C3075.11 493.8 3078.51 494.8 3083.31 494.8H3101.31C3105.29 494.8 3108.51 498.023 3108.51 502C3108.51 505.977 3105.29 509.2 3101.31 509.2H2995.71C2991.74 509.2 2988.51 505.977 2988.51 502C2988.51 498.023 2991.74 494.8 2995.71 494.8H3013.71C3018.51 494.8 3021.91 493.8 3023.91 491.8C3025.91 489.8 3026.91 486.4 3026.91 481.601V263.2C3026.91 258.4 3025.91 255 3023.91 253C3021.91 251 3018.51 250 3013.71 250H2995.71C2991.74 250 2988.51 246.777 2988.51 242.8C2988.51 238.824 2991.74 235.601 2995.71 235.601H3050.11C3061.16 235.601 3070.11 244.555 3070.11 255.601V283.591C3070.11 284.301 3070.6 284.921 3071.29 285.093C3072 285.272 3072.74 284.921 3073.06 284.26C3082.17 265.637 3093.38 251.817 3106.71 242.8C3120.31 233.2 3135.31 228.4 3151.71 228.4ZM2816.86 242.8C2792.86 242.8 2775.66 254.2 2765.26 277C2754.86 299.4 2749.66 331.2 2749.66 372.4C2749.66 413.6 2754.86 445.6 2765.26 468.4C2775.66 490.8 2792.86 502 2816.86 502C2840.86 502 2858.06 490.8 2868.46 468.4C2878.86 445.6 2884.06 413.6 2884.06 372.4C2884.06 331.2 2878.86 299.4 2868.46 277C2858.06 254.2 2840.86 242.8 2816.86 242.8ZM361.601 341.601C361.601 352.646 352.646 361.601 341.601 361.601H207.601C196.555 361.601 187.601 370.555 187.601 381.601V450.2C187.601 461.246 196.555 470.2 207.601 470.2H450.2C461.246 470.2 470.2 461.246 470.2 450.2V207.601C470.2 196.555 461.246 187.601 450.2 187.601H381.601C370.555 187.601 361.601 196.555 361.601 207.601V341.601ZM1635.61 242.8C1617.21 242.8 1602.81 250.2 1592.41 265C1582.01 279.8 1576.81 300.4 1576.81 326.8C1576.81 353.2 1582.01 373.801 1592.41 388.601C1602.81 403.4 1617.21 410.8 1635.61 410.8C1654.01 410.8 1668.41 403.4 1678.81 388.601C1689.21 373.801 1694.41 353.2 1694.41 326.8C1694.41 300.4 1689.21 279.8 1678.81 265C1668.41 250.2 1654.01 242.8 1635.61 242.8ZM872.942 336.124C868.333 349.14 877.987 362.8 891.795 362.8H962.745C976.454 362.8 986.099 349.321 981.675 336.345L946.869 234.27C940.749 216.321 915.416 216.173 909.086 234.049L872.942 336.124ZM40 302.601C40 313.646 48.9543 322.601 60 322.601H128.601C139.646 322.601 148.601 313.646 148.601 302.601V168.601C148.601 157.555 157.555 148.601 168.601 148.601H302.601C313.646 148.601 322.601 139.646 322.601 128.601V60C322.601 48.9543 313.646 40 302.601 40H60C48.9543 40 40 48.9543 40 60V302.601ZM187.601 302.601C187.601 313.646 196.555 322.601 207.601 322.601H302.601C313.646 322.601 322.601 313.646 322.601 302.601V207.601C322.601 196.555 313.646 187.601 302.601 187.601H207.601C196.555 187.601 187.601 196.555 187.601 207.601V302.601ZM2214.05 98.7998C2223.25 98.7998 2230.65 101.8 2236.25 107.8C2242.25 113.4 2245.25 120.8 2245.25 130C2245.25 138.8 2242.25 146.2 2236.25 152.2C2230.65 158.2 2223.25 161.2 2214.05 161.2C2205.25 161.2 2197.85 158.2 2191.85 152.2C2185.85 146.2 2182.85 138.8 2182.85 130C2182.85 120.8 2185.85 113.4 2191.85 107.8C2197.85 101.8 2205.25 98.7998 2214.05 98.7998ZM2585.54 98.7998C2594.74 98.7998 2602.14 101.8 2607.74 107.8C2613.74 113.4 2616.74 120.8 2616.74 130C2616.74 138.8 2613.74 146.2 2607.74 152.2C2602.14 158.2 2594.74 161.2 2585.54 161.2C2576.74 161.2 2569.34 158.2 2563.34 152.2C2557.34 146.2 2554.34 138.8 2554.34 130C2554.34 120.8 2557.34 113.4 2563.34 107.8C2569.34 101.8 2576.74 98.7998 2585.54 98.7998Z"/>
</mask>
<path d="M1756.81 228.4C1770.41 228.4 1781.61 232.4 1790.41 240.4C1799.21 248.4 1803.61 258.801 1803.61 271.601C1803.61 281.2 1801.21 289 1796.41 295C1792.01 301 1786.01 304 1778.41 304C1772.01 304 1766.41 302.4 1761.61 299.2C1756.81 295.6 1754.41 290 1754.41 282.4C1754.41 273.6 1757.81 267.2 1764.61 263.2C1767.01 261.6 1768.61 260.2 1769.41 259C1770.61 257.4 1771.21 255.2 1771.21 252.4C1771.21 249.2 1769.61 246.8 1766.41 245.2C1763.21 243.6 1759.41 242.8 1755.01 242.8C1747.81 242.8 1741.21 245.8 1735.21 251.8C1731.51 255.493 1728.86 259.622 1727.26 264.185C1725.63 268.812 1727.27 273.753 1729.78 277.97C1738.2 292.141 1742.41 308.418 1742.41 326.8C1742.41 346.8 1737.61 364.401 1728.01 379.601C1718.41 394.4 1705.41 405.8 1689.01 413.8C1673.01 421.4 1655.21 425.2 1635.61 425.2C1612.81 425.2 1592.41 428.4 1574.41 434.8C1556.81 440.8 1548.01 451 1548.01 465.4C1548.01 473 1551.41 478.2 1558.21 481C1565.01 483.8 1574.41 485.2 1586.41 485.2C1594.81 485.2 1601.61 485.001 1606.81 484.601C1611.61 484.201 1617.81 484 1625.41 484H1687.21C1712.81 484 1734.21 491 1751.41 505C1768.61 518.6 1777.21 538.801 1777.21 565.601C1777.21 593.6 1765.21 615 1741.21 629.8C1717.61 644.6 1686.41 652 1647.61 652C1612.41 652 1582.01 646.4 1556.41 635.2C1530.81 624 1518.01 606.4 1518.01 582.4C1518.01 567.601 1523.81 554.6 1535.41 543.4C1546.78 532.415 1560.28 525.663 1575.89 523.143C1576.41 523.058 1576.81 522.605 1576.81 522.071C1576.81 521.563 1576.44 521.122 1575.95 521.012C1541.32 513.358 1524.01 498.62 1524.01 476.8C1524.01 460.4 1530.21 447.6 1542.61 438.4C1555.18 428.974 1570.44 422.633 1588.41 419.377C1588.99 419.273 1589.41 418.774 1589.41 418.191C1589.41 417.711 1589.12 417.278 1588.68 417.086C1572.19 409.888 1558.03 399.192 1546.21 385C1534.61 370.2 1528.81 350.8 1528.81 326.8C1528.81 306.4 1533.81 288.8 1543.81 274C1553.81 259.2 1566.81 248 1582.81 240.4C1599.21 232.4 1616.81 228.4 1635.61 228.4C1647.21 228.4 1658.61 230.4 1669.81 234.4C1681.41 238 1691.21 242.401 1699.21 247.601C1706.7 251.882 1719.64 248.514 1725.57 242.239C1727.74 239.939 1730.15 237.926 1732.81 236.2C1740.81 231 1748.81 228.4 1756.81 228.4ZM1639.21 524.8C1613.61 524.8 1591.41 529 1572.61 537.4C1553.81 546.2 1544.41 560.8 1544.41 581.2C1544.41 600 1555.01 614 1576.21 623.2C1597.41 632.8 1621.21 637.601 1647.61 637.601C1676.41 637.601 1701.61 632.4 1723.21 622C1744.81 612 1755.61 594.8 1755.61 570.4C1755.61 558 1751.81 547.2 1744.21 538C1737.01 529.2 1724.21 524.8 1705.81 524.8H1639.21ZM1267.1 436C1267.1 453.6 1270.5 468.6 1277.3 481C1284.5 493.4 1296.5 499.601 1313.3 499.601C1327.3 499.601 1339.7 494.8 1350.5 485.2C1361.7 475.2 1370.3 461.8 1376.3 445C1382.7 427.8 1385.9 408.8 1385.9 388V263.2C1385.9 258.4 1384.9 255 1382.9 253C1380.9 251 1377.5 250 1372.7 250H1354.7C1350.72 250 1347.5 246.777 1347.5 242.8C1347.5 238.824 1350.72 235.601 1354.7 235.601H1409.1C1420.14 235.601 1429.1 244.555 1429.1 255.601V481.601C1429.1 486.4 1430.1 489.8 1432.1 491.8C1434.1 493.8 1437.5 494.8 1442.3 494.8H1460.3C1464.28 494.8 1467.5 498.023 1467.5 502C1467.5 505.977 1464.28 509.2 1460.3 509.2H1405.9C1394.85 509.2 1385.9 500.246 1385.9 489.2V461.209C1385.9 460.499 1385.41 459.879 1384.73 459.707C1384.01 459.528 1383.27 459.879 1382.95 460.54C1373.84 479.171 1362.63 493.191 1349.3 502.601C1335.7 511.801 1320.7 516.4 1304.3 516.4C1275.1 516.4 1254.3 507.4 1241.9 489.4C1229.9 471.4 1223.9 449.8 1223.9 424.601V263.2C1223.9 258.4 1222.9 255 1220.9 253C1218.9 251 1215.5 250 1210.7 250H1192.7C1188.72 250 1185.5 246.777 1185.5 242.8C1185.5 238.824 1188.72 235.601 1192.7 235.601H1247.1C1258.14 235.601 1267.1 244.555 1267.1 255.601V436ZM2400.97 215.601C2400.97 226.646 2409.93 235.601 2420.97 235.601H2466.97C2471.61 235.601 2475.37 239.361 2475.37 244C2475.37 248.64 2471.61 252.4 2466.97 252.4H2420.97C2409.93 252.4 2400.97 261.355 2400.97 272.4V448C2400.97 460 2403.37 470 2408.17 478C2412.97 486 2421.17 490 2432.77 490C2460.08 490 2474.26 467.804 2475.31 423.412C2475.38 420.43 2477.79 418 2480.77 418C2483.75 418 2486.18 420.419 2486.12 423.401C2485.61 447.929 2481.63 469.329 2474.17 487.601C2466.57 506.8 2448.57 516.4 2420.17 516.4C2402.17 516.4 2387.17 510 2375.17 497.2C2363.57 484.4 2357.77 467 2357.77 445V272.4C2357.77 261.355 2348.82 252.4 2337.77 252.4H2321.77C2317.13 252.4 2313.37 248.64 2313.37 244C2313.37 239.361 2317.13 235.601 2321.77 235.601H2326.57C2344.57 235.601 2358.57 226 2368.57 206.8C2378.97 187.2 2384.17 165.6 2384.17 142V128.801C2384.17 124.161 2387.93 120.4 2392.57 120.4C2397.21 120.4 2400.97 124.161 2400.97 128.801V215.601ZM2816.86 228.4C2838.86 228.4 2859.06 235 2877.46 248.2C2895.86 261 2910.26 278.4 2920.66 300.4C2931.46 322.4 2936.86 346.4 2936.86 372.4C2936.86 398.4 2931.46 422.4 2920.66 444.4C2910.26 466.4 2895.86 484 2877.46 497.2C2859.06 510 2838.86 516.4 2816.86 516.4C2794.86 516.4 2774.66 510 2756.26 497.2C2737.86 484 2723.26 466.4 2712.46 444.4C2702.06 422.4 2696.86 398.4 2696.86 372.4C2696.86 346.4 2702.06 322.4 2712.46 300.4C2723.26 278.4 2737.86 261 2756.26 248.2C2774.66 235 2794.86 228.4 2816.86 228.4ZM361.601 128.601C361.601 139.646 370.555 148.601 381.601 148.601H489.2C500.246 148.601 509.2 157.555 509.2 168.601V489.2C509.2 500.246 500.246 509.2 489.2 509.2H168.601C157.555 509.2 148.601 500.246 148.601 489.2V381.601C148.601 370.555 139.646 361.601 128.601 361.601H21C9.9543 361.601 1 352.646 1 341.601V21C1 9.9543 9.95431 1 21 1H341.601C352.646 1 361.601 9.95431 361.601 21V128.601ZM1083.7 463.601C1087.7 473.6 1092.5 480.601 1098.1 484.601C1103.7 488.2 1110.9 490 1119.7 490H1143.7C1149 490 1153.3 494.298 1153.3 499.6C1153.3 504.902 1149 509.2 1143.7 509.2H976.896C971.594 509.2 967.296 504.902 967.296 499.6C967.296 494.298 971.594 490 976.896 490H1006.9C1012.9 490 1017.9 488.6 1021.9 485.8C1025.9 482.6 1027.9 479 1027.9 475C1027.9 469.8 1027.1 465.4 1025.5 461.8L1002.01 395.336C999.184 387.344 991.628 382 983.152 382H870.976C862.531 382 854.995 387.305 852.147 395.256L842.496 422.2C836.896 438.2 834.096 449.8 834.096 457C834.096 465.8 836.295 473.6 840.695 480.4C845.095 486.8 852.696 490 863.496 490H890.496C895.798 490 900.096 494.298 900.096 499.6C900.096 504.902 895.798 509.2 890.496 509.2H745.295C739.993 509.2 735.695 504.902 735.695 499.6C735.695 494.298 739.993 490 745.295 490H757.896C781.496 490 798.696 475.4 809.496 446.2L936.007 89.0262C937.499 84.8148 941.482 82 945.95 82C950.463 82 954.476 84.8708 955.933 89.1418L1083.7 463.601ZM1996.83 228.4C2026.03 228.4 2046.63 237.4 2058.63 255.4C2071.03 273.4 2077.23 295 2077.23 320.2V481.601C2077.23 486.4 2078.23 489.8 2080.23 491.8C2082.23 493.8 2085.63 494.8 2090.43 494.8H2108.43C2112.41 494.8 2115.63 498.023 2115.63 502C2115.63 505.977 2112.41 509.2 2108.43 509.2H2002.83C1998.85 509.2 1995.63 505.977 1995.63 502C1995.63 498.023 1998.85 494.8 2002.83 494.8H2020.83C2025.63 494.8 2029.03 493.8 2031.03 491.8C2033.03 489.8 2034.03 486.4 2034.03 481.601V308.8C2034.03 291.2 2030.43 276.2 2023.23 263.8C2016.43 251.4 2004.63 245.2 1987.83 245.2C1973.83 245.2 1961.23 250.2 1950.03 260.2C1939.23 269.8 1930.63 283.2 1924.23 300.4C1918.23 317.2 1915.23 336 1915.23 356.8V481.601C1915.23 486.4 1916.23 489.8 1918.23 491.8C1920.23 493.8 1923.63 494.8 1928.43 494.8H1946.43C1950.41 494.8 1953.63 498.023 1953.63 502C1953.63 505.977 1950.41 509.2 1946.43 509.2H1840.83C1836.85 509.2 1833.63 505.977 1833.63 502C1833.63 498.023 1836.85 494.8 1840.83 494.8H1858.83C1863.63 494.8 1867.03 493.8 1869.03 491.8C1871.03 489.8 1872.03 486.4 1872.03 481.601V263.2C1872.03 258.4 1871.03 255 1869.03 253C1867.03 251 1863.63 250 1858.83 250H1840.83C1836.85 250 1833.63 246.777 1833.63 242.8C1833.63 238.824 1836.85 235.601 1840.83 235.601H1895.23C1906.28 235.601 1915.23 244.555 1915.23 255.601V283.591C1915.23 284.301 1915.71 284.921 1916.4 285.093C1917.12 285.272 1917.86 284.921 1918.18 284.26C1927.28 265.637 1938.5 251.817 1951.83 242.8C1965.43 233.2 1980.43 228.4 1996.83 228.4ZM2239.25 481.601C2239.25 486.4 2240.25 489.8 2242.25 491.8C2244.25 493.8 2247.65 494.8 2252.45 494.8H2270.45C2274.43 494.8 2277.65 498.023 2277.65 502C2277.65 505.977 2274.43 509.2 2270.45 509.2H2164.85C2160.88 509.2 2157.65 505.977 2157.65 502C2157.65 498.023 2160.88 494.8 2164.85 494.8H2182.85C2187.65 494.8 2191.05 493.8 2193.05 491.8C2195.05 489.8 2196.05 486.4 2196.05 481.601V263.2C2196.05 258.4 2195.05 255 2193.05 253C2191.05 251 2187.65 250 2182.85 250H2164.85C2160.88 250 2157.65 246.777 2157.65 242.8C2157.65 238.824 2160.88 235.601 2164.85 235.601H2219.25C2230.3 235.601 2239.25 244.555 2239.25 255.601V481.601ZM2610.74 481.601C2610.74 486.4 2611.74 489.8 2613.74 491.8C2615.74 493.8 2619.14 494.8 2623.94 494.8H2641.94C2645.91 494.8 2649.14 498.023 2649.14 502C2649.14 505.977 2645.91 509.2 2641.94 509.2H2536.34C2532.36 509.2 2529.14 505.977 2529.14 502C2529.14 498.023 2532.36 494.8 2536.34 494.8H2554.34C2559.14 494.8 2562.54 493.8 2564.54 491.8C2566.54 489.8 2567.54 486.4 2567.54 481.601V263.2C2567.54 258.4 2566.54 255 2564.54 253C2562.54 251 2559.14 250 2554.34 250H2536.34C2532.36 250 2529.14 246.777 2529.14 242.8C2529.14 238.824 2532.36 235.601 2536.34 235.601H2590.74C2601.78 235.601 2610.74 244.555 2610.74 255.601V481.601ZM3151.71 228.4C3180.91 228.4 3201.51 237.4 3213.51 255.4C3225.91 273.4 3232.11 295 3232.11 320.2V481.601C3232.11 486.4 3233.11 489.8 3235.11 491.8C3237.11 493.8 3240.51 494.8 3245.31 494.8H3263.31C3267.29 494.8 3270.51 498.023 3270.51 502C3270.51 505.977 3267.29 509.2 3263.31 509.2H3157.71C3153.74 509.2 3150.51 505.977 3150.51 502C3150.51 498.023 3153.74 494.8 3157.71 494.8H3175.71C3180.51 494.8 3183.91 493.8 3185.91 491.8C3187.91 489.8 3188.91 486.4 3188.91 481.601V308.8C3188.91 291.2 3185.31 276.2 3178.11 263.8C3171.31 251.4 3159.51 245.2 3142.71 245.2C3128.71 245.2 3116.11 250.2 3104.91 260.2C3094.11 269.8 3085.51 283.2 3079.11 300.4C3073.11 317.2 3070.11 336 3070.11 356.8V481.601C3070.11 486.4 3071.11 489.8 3073.11 491.8C3075.11 493.8 3078.51 494.8 3083.31 494.8H3101.31C3105.29 494.8 3108.51 498.023 3108.51 502C3108.51 505.977 3105.29 509.2 3101.31 509.2H2995.71C2991.74 509.2 2988.51 505.977 2988.51 502C2988.51 498.023 2991.74 494.8 2995.71 494.8H3013.71C3018.51 494.8 3021.91 493.8 3023.91 491.8C3025.91 489.8 3026.91 486.4 3026.91 481.601V263.2C3026.91 258.4 3025.91 255 3023.91 253C3021.91 251 3018.51 250 3013.71 250H2995.71C2991.74 250 2988.51 246.777 2988.51 242.8C2988.51 238.824 2991.74 235.601 2995.71 235.601H3050.11C3061.16 235.601 3070.11 244.555 3070.11 255.601V283.591C3070.11 284.301 3070.6 284.921 3071.29 285.093C3072 285.272 3072.74 284.921 3073.06 284.26C3082.17 265.637 3093.38 251.817 3106.71 242.8C3120.31 233.2 3135.31 228.4 3151.71 228.4ZM2816.86 242.8C2792.86 242.8 2775.66 254.2 2765.26 277C2754.86 299.4 2749.66 331.2 2749.66 372.4C2749.66 413.6 2754.86 445.6 2765.26 468.4C2775.66 490.8 2792.86 502 2816.86 502C2840.86 502 2858.06 490.8 2868.46 468.4C2878.86 445.6 2884.06 413.6 2884.06 372.4C2884.06 331.2 2878.86 299.4 2868.46 277C2858.06 254.2 2840.86 242.8 2816.86 242.8ZM361.601 341.601C361.601 352.646 352.646 361.601 341.601 361.601H207.601C196.555 361.601 187.601 370.555 187.601 381.601V450.2C187.601 461.246 196.555 470.2 207.601 470.2H450.2C461.246 470.2 470.2 461.246 470.2 450.2V207.601C470.2 196.555 461.246 187.601 450.2 187.601H381.601C370.555 187.601 361.601 196.555 361.601 207.601V341.601ZM1635.61 242.8C1617.21 242.8 1602.81 250.2 1592.41 265C1582.01 279.8 1576.81 300.4 1576.81 326.8C1576.81 353.2 1582.01 373.801 1592.41 388.601C1602.81 403.4 1617.21 410.8 1635.61 410.8C1654.01 410.8 1668.41 403.4 1678.81 388.601C1689.21 373.801 1694.41 353.2 1694.41 326.8C1694.41 300.4 1689.21 279.8 1678.81 265C1668.41 250.2 1654.01 242.8 1635.61 242.8ZM872.942 336.124C868.333 349.14 877.987 362.8 891.795 362.8H962.745C976.454 362.8 986.099 349.321 981.675 336.345L946.869 234.27C940.749 216.321 915.416 216.173 909.086 234.049L872.942 336.124ZM40 302.601C40 313.646 48.9543 322.601 60 322.601H128.601C139.646 322.601 148.601 313.646 148.601 302.601V168.601C148.601 157.555 157.555 148.601 168.601 148.601H302.601C313.646 148.601 322.601 139.646 322.601 128.601V60C322.601 48.9543 313.646 40 302.601 40H60C48.9543 40 40 48.9543 40 60V302.601ZM187.601 302.601C187.601 313.646 196.555 322.601 207.601 322.601H302.601C313.646 322.601 322.601 313.646 322.601 302.601V207.601C322.601 196.555 313.646 187.601 302.601 187.601H207.601C196.555 187.601 187.601 196.555 187.601 207.601V302.601ZM2214.05 98.7998C2223.25 98.7998 2230.65 101.8 2236.25 107.8C2242.25 113.4 2245.25 120.8 2245.25 130C2245.25 138.8 2242.25 146.2 2236.25 152.2C2230.65 158.2 2223.25 161.2 2214.05 161.2C2205.25 161.2 2197.85 158.2 2191.85 152.2C2185.85 146.2 2182.85 138.8 2182.85 130C2182.85 120.8 2185.85 113.4 2191.85 107.8C2197.85 101.8 2205.25 98.7998 2214.05 98.7998ZM2585.54 98.7998C2594.74 98.7998 2602.14 101.8 2607.74 107.8C2613.74 113.4 2616.74 120.8 2616.74 130C2616.74 138.8 2613.74 146.2 2607.74 152.2C2602.14 158.2 2594.74 161.2 2585.54 161.2C2576.74 161.2 2569.34 158.2 2563.34 152.2C2557.34 146.2 2554.34 138.8 2554.34 130C2554.34 120.8 2557.34 113.4 2563.34 107.8C2569.34 101.8 2576.74 98.7998 2585.54 98.7998Z" fill="black"/>
<path d="M1756.81 228.4L1756.81 227.4L1756.81 227.4L1756.81 228.4ZM1790.41 240.4L1791.08 239.66L1791.08 239.66L1790.41 240.4ZM1803.61 271.601L1804.61 271.601V271.601H1803.61ZM1796.41 295L1795.63 294.375L1795.61 294.392L1795.6 294.409L1796.41 295ZM1778.41 304L1778.41 305H1778.41V304ZM1761.61 299.2L1761.01 300L1761.03 300.017L1761.05 300.032L1761.61 299.2ZM1754.41 282.4L1753.41 282.4L1753.41 282.4L1754.41 282.4ZM1764.61 263.2L1765.11 264.062L1765.14 264.048L1765.16 264.032L1764.61 263.2ZM1769.41 259L1768.61 258.4L1768.59 258.422L1768.57 258.445L1769.41 259ZM1771.21 252.4L1772.21 252.4V252.4H1771.21ZM1766.41 245.2L1766.85 244.306L1766.85 244.306L1766.41 245.2ZM1755.01 242.8L1755.01 241.8H1755.01V242.8ZM1735.21 251.8L1734.5 251.093L1734.5 251.093L1735.21 251.8ZM1742.41 326.8L1743.41 326.8L1743.41 326.8L1742.41 326.8ZM1728.01 379.601L1728.85 380.145L1728.85 380.135L1728.01 379.601ZM1689.01 413.8L1689.44 414.703L1689.45 414.699L1689.01 413.8ZM1635.61 425.2L1635.61 424.2L1635.61 424.2L1635.61 425.2ZM1574.41 434.8L1574.73 435.746L1574.74 435.742L1574.41 434.8ZM1548.01 465.4L1547.01 465.4L1547.01 465.4L1548.01 465.4ZM1558.21 481L1557.83 481.925L1557.83 481.925L1558.21 481ZM1586.41 485.2L1586.41 486.2H1586.41V485.2ZM1606.81 484.601L1606.88 485.598L1606.89 485.597L1606.81 484.601ZM1625.41 484L1625.41 483L1625.41 483L1625.41 484ZM1687.21 484L1687.21 483H1687.21V484ZM1751.41 505L1750.77 505.776L1750.78 505.78L1750.79 505.784L1751.41 505ZM1777.21 565.601L1778.21 565.601V565.601H1777.21ZM1741.21 629.8L1740.68 628.949L1740.68 628.953L1741.21 629.8ZM1647.61 652L1647.61 653H1647.61V652ZM1556.41 635.2L1556.01 636.116L1556.01 636.116L1556.41 635.2ZM1518.01 582.4L1517.01 582.4L1517.01 582.4L1518.01 582.4ZM1535.41 543.4L1534.71 542.681L1534.71 542.681L1535.41 543.4ZM1524.01 476.8L1523.01 476.8V476.8H1524.01ZM1542.61 438.4L1543.2 439.203L1543.21 439.2L1542.61 438.4ZM1546.21 385L1545.42 385.617L1545.43 385.629L1545.44 385.64L1546.21 385ZM1528.81 326.8L1527.81 326.8V326.8H1528.81ZM1543.81 274L1542.98 273.44L1542.98 273.44L1543.81 274ZM1582.81 240.4L1583.24 241.304L1583.25 241.299L1582.81 240.4ZM1635.61 228.4L1635.61 227.4L1635.61 227.4L1635.61 228.4ZM1669.81 234.4L1669.47 235.342L1669.49 235.349L1669.51 235.355L1669.81 234.4ZM1699.21 247.601L1698.66 248.439L1698.69 248.455L1698.71 248.469L1699.21 247.601ZM1732.81 236.2L1733.35 237.039L1733.35 237.039L1732.81 236.2ZM1572.61 537.4L1572.2 536.487L1572.19 536.491L1572.18 536.495L1572.61 537.4ZM1544.41 581.2L1543.41 581.2V581.2H1544.41ZM1576.21 623.2L1576.62 622.289L1576.61 622.286L1576.61 622.283L1576.21 623.2ZM1647.61 637.601L1647.61 638.601H1647.61V637.601ZM1723.21 622L1722.79 621.093L1722.78 621.096L1722.77 621.099L1723.21 622ZM1755.61 570.4L1756.61 570.4V570.4H1755.61ZM1744.21 538L1743.43 538.633L1743.44 538.637L1744.21 538ZM1277.3 481L1276.42 481.481L1276.43 481.492L1276.43 481.502L1277.3 481ZM1313.3 499.601L1313.3 500.601H1313.3V499.601ZM1350.5 485.2L1351.16 485.948L1351.17 485.946L1350.5 485.2ZM1376.3 445L1375.36 444.651L1375.36 444.664L1376.3 445ZM1382.9 253L1383.61 252.293L1383.61 252.293L1382.9 253ZM1372.7 250L1372.7 249H1372.7V250ZM1429.1 481.601L1428.1 481.601L1428.1 481.601L1429.1 481.601ZM1432.1 491.8L1431.39 492.507L1431.39 492.507L1432.1 491.8ZM1442.3 494.8L1442.3 495.8H1442.3V494.8ZM1349.3 502.601L1349.86 503.429L1349.87 503.423L1349.88 503.418L1349.3 502.601ZM1304.3 516.4L1304.3 517.4H1304.3V516.4ZM1241.9 489.4L1241.07 489.955L1241.07 489.961L1241.07 489.968L1241.9 489.4ZM1223.9 424.601L1222.9 424.601L1222.9 424.601L1223.9 424.601ZM1220.9 253L1221.61 252.293L1221.61 252.293L1220.9 253ZM1210.7 250L1210.7 249H1210.7V250ZM2408.17 478L2407.31 478.514L2407.31 478.514L2408.17 478ZM2432.77 490L2432.77 491L2432.77 491L2432.77 490ZM2474.17 487.601L2473.25 487.223L2473.24 487.233L2474.17 487.601ZM2420.17 516.4L2420.17 517.4H2420.17V516.4ZM2375.17 497.2L2374.43 497.872L2374.44 497.878L2374.44 497.884L2375.17 497.2ZM2368.57 206.8L2367.69 206.331L2367.69 206.338L2368.57 206.8ZM2816.86 228.4L2816.86 227.4L2816.86 227.4L2816.86 228.4ZM2877.46 248.2L2876.87 249.013L2876.88 249.017L2876.89 249.021L2877.46 248.2ZM2920.66 300.4L2919.75 300.828L2919.76 300.834L2919.76 300.841L2920.66 300.4ZM2936.86 372.4L2937.86 372.4V372.4H2936.86ZM2920.66 444.4L2919.76 443.96L2919.76 443.966L2919.75 443.973L2920.66 444.4ZM2877.46 497.2L2878.03 498.021L2878.03 498.017L2878.04 498.013L2877.46 497.2ZM2816.86 516.4L2816.86 517.4H2816.86V516.4ZM2756.26 497.2L2755.67 498.013L2755.68 498.017L2755.69 498.021L2756.26 497.2ZM2712.46 444.4L2711.55 444.828L2711.56 444.834L2711.56 444.841L2712.46 444.4ZM2696.86 372.4L2695.86 372.4L2695.86 372.4L2696.86 372.4ZM2712.46 300.4L2711.56 299.96L2711.56 299.966L2711.55 299.973L2712.46 300.4ZM2756.26 248.2L2756.83 249.021L2756.83 249.017L2756.84 249.013L2756.26 248.2ZM1083.7 463.601L1082.75 463.924L1082.76 463.948L1082.77 463.972L1083.7 463.601ZM1098.1 484.601L1097.51 485.414L1097.53 485.429L1097.55 485.442L1098.1 484.601ZM1119.7 490L1119.7 491H1119.7V490ZM1021.9 485.8L1022.47 486.619L1022.5 486.601L1022.52 486.581L1021.9 485.8ZM1027.9 475L1028.9 475L1028.9 475L1027.9 475ZM1025.5 461.8L1024.55 462.133L1024.57 462.17L1024.58 462.206L1025.5 461.8ZM842.496 422.2L841.555 421.863L841.552 421.87L842.496 422.2ZM834.096 457L833.096 457V457H834.096ZM840.695 480.4L839.856 480.944L839.863 480.955L839.871 480.967L840.695 480.4ZM809.496 446.2L810.434 446.547L810.439 446.534L809.496 446.2ZM1996.83 228.4L1996.83 227.4L1996.83 228.4ZM2058.63 255.4L2057.8 255.955L2057.8 255.961L2057.81 255.968L2058.63 255.4ZM2077.23 481.601L2076.23 481.601L2076.23 481.601L2077.23 481.601ZM2080.23 491.8L2079.52 492.507L2079.52 492.507L2080.23 491.8ZM2090.43 494.8L2090.43 495.8H2090.43V494.8ZM2031.03 491.8L2031.74 492.507L2031.74 492.507L2031.03 491.8ZM2034.03 481.601L2035.03 481.601V481.601H2034.03ZM2034.03 308.8L2035.03 308.8L2035.03 308.8L2034.03 308.8ZM2023.23 263.8L2022.35 264.281L2022.36 264.291L2022.37 264.302L2023.23 263.8ZM1987.83 245.2L1987.83 244.2L1987.83 244.2L1987.83 245.2ZM1950.03 260.2L1950.69 260.948L1950.7 260.946L1950.03 260.2ZM1924.23 300.4L1923.29 300.052L1923.29 300.064L1924.23 300.4ZM1915.23 356.8L1914.23 356.8V356.8H1915.23ZM1915.23 481.601L1914.23 481.601L1914.23 481.601L1915.23 481.601ZM1918.23 491.8L1917.52 492.507L1917.52 492.507L1918.23 491.8ZM1928.43 494.8L1928.43 495.8H1928.43V494.8ZM1869.03 491.8L1869.74 492.507L1869.74 492.507L1869.03 491.8ZM1872.03 481.601L1873.03 481.601V481.601H1872.03ZM1869.03 253L1869.74 252.293L1869.74 252.293L1869.03 253ZM1951.83 242.8L1952.39 243.628L1952.4 243.623L1952.41 243.617L1951.83 242.8ZM2239.25 481.601L2238.25 481.601L2238.25 481.601L2239.25 481.601ZM2242.25 491.8L2241.55 492.507L2241.55 492.507L2242.25 491.8ZM2252.45 494.8L2252.45 495.8H2252.45V494.8ZM2193.05 491.8L2193.76 492.507L2193.76 492.507L2193.05 491.8ZM2196.05 481.601L2197.05 481.601V481.601H2196.05ZM2193.05 253L2193.76 252.293L2193.76 252.293L2193.05 253ZM2610.74 481.601L2609.74 481.601L2609.74 481.601L2610.74 481.601ZM2613.74 491.8L2613.03 492.507L2613.03 492.507L2613.74 491.8ZM2623.94 494.8L2623.94 495.8H2623.94V494.8ZM2564.54 491.8L2565.25 492.507L2565.25 492.507L2564.54 491.8ZM2567.54 481.601L2568.54 481.601V481.601H2567.54ZM2564.54 253L2565.25 252.293L2565.25 252.293L2564.54 253ZM3151.71 228.4L3151.71 227.4L3151.71 228.4ZM3213.51 255.4L3212.68 255.955L3212.68 255.961L3212.69 255.968L3213.51 255.4ZM3232.11 481.601L3231.11 481.601L3231.11 481.601L3232.11 481.601ZM3235.11 491.8L3234.41 492.507L3234.41 492.507L3235.11 491.8ZM3245.31 494.8L3245.31 495.8H3245.31V494.8ZM3185.91 491.8L3186.62 492.507L3186.62 492.507L3185.91 491.8ZM3188.91 481.601L3189.91 481.601V481.601H3188.91ZM3188.91 308.8L3189.91 308.8L3189.91 308.8L3188.91 308.8ZM3178.11 263.8L3177.24 264.281L3177.24 264.291L3177.25 264.302L3178.11 263.8ZM3142.71 245.2L3142.71 244.2L3142.71 244.2L3142.71 245.2ZM3104.91 260.2L3105.58 260.948L3105.58 260.946L3104.91 260.2ZM3079.11 300.4L3078.18 300.052L3078.17 300.064L3079.11 300.4ZM3070.11 356.8L3069.11 356.8V356.8H3070.11ZM3070.11 481.601L3069.11 481.601L3069.11 481.601L3070.11 481.601ZM3073.11 491.8L3072.41 492.507L3072.41 492.507L3073.11 491.8ZM3083.31 494.8L3083.31 495.8H3083.31V494.8ZM3023.91 491.8L3024.62 492.507L3024.62 492.507L3023.91 491.8ZM3026.91 481.601L3027.91 481.601V481.601H3026.91ZM3023.91 253L3024.62 252.293L3024.62 252.293L3023.91 253ZM3106.71 242.8L3107.27 243.628L3107.28 243.623L3107.29 243.617L3106.71 242.8ZM2816.86 242.8L2816.86 241.8L2816.86 241.8L2816.86 242.8ZM2765.26 277L2766.16 277.421L2766.17 277.415L2765.26 277ZM2749.66 372.4L2748.66 372.4V372.4L2749.66 372.4ZM2765.26 468.4L2764.35 468.815L2764.35 468.822L2765.26 468.4ZM2816.86 502L2816.86 503H2816.86V502ZM2868.46 468.4L2869.36 468.822L2869.37 468.815L2868.46 468.4ZM2884.06 372.4L2885.06 372.4V372.4H2884.06ZM2868.46 277L2867.55 277.415L2867.55 277.421L2868.46 277ZM1635.61 242.8L1635.61 241.8L1635.61 241.8L1635.61 242.8ZM1592.41 265L1591.59 264.425L1591.59 264.425L1592.41 265ZM1576.81 326.8L1575.81 326.8V326.8H1576.81ZM1592.41 388.601L1591.59 389.176L1591.59 389.176L1592.41 388.601ZM1635.61 410.8L1635.61 411.8H1635.61V410.8ZM1678.81 388.601L1679.62 389.176L1679.62 389.176L1678.81 388.601ZM1694.41 326.8L1695.41 326.8L1695.41 326.8L1694.41 326.8ZM1678.81 265L1679.62 264.425L1679.62 264.425L1678.81 265ZM2214.05 98.7998L2214.05 97.7998H2214.05V98.7998ZM2236.25 107.8L2235.52 108.482L2235.55 108.507L2235.57 108.531L2236.25 107.8ZM2245.25 130L2246.25 130L2246.25 130L2245.25 130ZM2236.25 152.2L2235.55 151.493L2235.53 151.505L2235.52 151.518L2236.25 152.2ZM2214.05 161.2L2214.05 162.2L2214.05 162.2L2214.05 161.2ZM2191.85 152.2L2191.15 152.907L2191.15 152.907L2191.85 152.2ZM2182.85 130L2181.85 130V130H2182.85ZM2191.85 107.8L2192.54 108.531L2192.55 108.519L2192.56 108.507L2191.85 107.8ZM2585.54 98.7998L2585.54 97.7998H2585.54V98.7998ZM2607.74 107.8L2607.01 108.482L2607.03 108.507L2607.06 108.531L2607.74 107.8ZM2616.74 130L2617.74 130L2617.74 130L2616.74 130ZM2607.74 152.2L2607.03 151.493L2607.02 151.505L2607.01 151.518L2607.74 152.2ZM2585.54 161.2L2585.54 162.2L2585.54 162.2L2585.54 161.2ZM2563.34 152.2L2562.63 152.907L2562.63 152.907L2563.34 152.2ZM2554.34 130L2553.34 130V130H2554.34ZM2563.34 107.8L2564.02 108.531L2564.03 108.519L2564.04 108.507L2563.34 107.8ZM1727.26 264.185L1728.2 264.517L1727.26 264.185ZM1729.78 277.97L1728.92 278.48L1729.78 277.97ZM1916.4 285.093L1916.65 284.123L1916.4 285.093ZM1918.18 284.26L1917.28 283.821L1918.18 284.26ZM946.869 234.27L945.923 234.593L946.869 234.27ZM909.086 234.049L910.029 234.383L909.086 234.049ZM1384.73 459.707L1384.97 458.737L1384.73 459.707ZM1382.95 460.54L1383.85 460.979L1382.95 460.54ZM3071.29 285.093L3071.04 286.063L3071.29 285.093ZM3073.06 284.26L3073.96 284.699L3073.06 284.26ZM955.933 89.1418L954.986 89.4647L955.933 89.1418ZM936.007 89.0262L936.95 89.3601L936.007 89.0262ZM1002.01 395.336L1001.07 395.669L1002.01 395.336ZM2475.31 423.412L2476.31 423.435L2475.31 423.412ZM1575.95 521.012L1575.73 521.989L1575.95 521.012ZM1588.41 419.377L1588.59 420.361L1588.41 419.377ZM981.675 336.345L980.728 336.668L981.675 336.345ZM1575.89 523.143L1576.05 524.13L1575.89 523.143ZM872.942 336.124L871.999 335.79L872.942 336.124ZM1588.68 417.086L1589.08 416.17L1588.68 417.086ZM2486.12 423.401L2487.12 423.422L2486.12 423.401ZM852.147 395.256L851.206 394.919L852.147 395.256ZM1725.57 242.239L1726.29 242.925L1725.57 242.239ZM1756.81 228.4V229.4C1770.2 229.4 1781.14 233.332 1789.73 241.14L1790.41 240.4L1791.08 239.66C1782.07 231.469 1770.62 227.4 1756.81 227.4V228.4ZM1790.41 240.4L1789.73 241.14C1798.31 248.935 1802.61 259.058 1802.61 271.601H1803.61H1804.61C1804.61 258.543 1800.1 247.866 1791.08 239.66L1790.41 240.4ZM1803.61 271.601L1802.61 271.601C1802.61 281.031 1800.25 288.593 1795.63 294.375L1796.41 295L1797.19 295.625C1802.16 289.407 1804.61 281.37 1804.61 271.601L1803.61 271.601ZM1796.41 295L1795.6 294.409C1791.39 300.145 1785.7 303 1778.41 303V304V305C1786.32 305 1792.62 301.855 1797.21 295.591L1796.41 295ZM1778.41 304L1778.41 303C1772.18 303 1766.78 301.447 1762.16 298.368L1761.61 299.2L1761.05 300.032C1766.03 303.354 1771.83 305 1778.41 305L1778.41 304ZM1761.61 299.2L1762.21 298.4C1757.72 295.039 1755.41 289.778 1755.41 282.4L1754.41 282.4L1753.41 282.4C1753.41 290.222 1755.89 296.162 1761.01 300L1761.61 299.2ZM1754.41 282.4H1755.41C1755.41 273.906 1758.66 267.859 1765.11 264.062L1764.61 263.2L1764.1 262.338C1756.95 266.542 1753.41 273.295 1753.41 282.4H1754.41ZM1764.61 263.2L1765.16 264.032C1767.58 262.417 1769.32 260.927 1770.24 259.555L1769.41 259L1768.57 258.445C1767.89 259.473 1766.43 260.783 1764.05 262.368L1764.61 263.2ZM1769.41 259L1770.21 259.6C1771.58 257.77 1772.21 255.333 1772.21 252.4L1771.21 252.4L1770.21 252.4C1770.21 255.068 1769.63 257.03 1768.61 258.4L1769.41 259ZM1771.21 252.4H1772.21C1772.21 250.625 1771.76 249.028 1770.84 247.646C1769.92 246.27 1768.57 245.165 1766.85 244.306L1766.41 245.2L1765.96 246.095C1767.44 246.835 1768.49 247.731 1769.17 248.755C1769.85 249.773 1770.21 250.975 1770.21 252.4H1771.21ZM1766.41 245.2L1766.85 244.306C1763.49 242.622 1759.53 241.8 1755.01 241.8L1755.01 242.8L1755.01 243.8C1759.29 243.8 1762.93 244.578 1765.96 246.095L1766.41 245.2ZM1755.01 242.8V241.8C1747.49 241.8 1740.65 244.941 1734.5 251.093L1735.21 251.8L1735.91 252.507C1741.76 246.659 1748.12 243.8 1755.01 243.8V242.8ZM1735.21 251.8L1734.5 251.093C1730.71 254.883 1727.97 259.138 1726.32 263.853L1727.26 264.185L1728.2 264.517C1729.75 260.106 1732.32 256.103 1735.91 252.507L1735.21 251.8ZM1729.78 277.97L1728.92 278.48C1737.23 292.48 1741.41 308.576 1741.41 326.8L1742.41 326.8L1743.41 326.8C1743.41 308.259 1739.16 291.802 1730.64 277.459L1729.78 277.97ZM1742.41 326.8H1741.41C1741.41 346.633 1736.65 364.044 1727.16 379.067L1728.01 379.601L1728.85 380.135C1738.56 364.757 1743.41 346.967 1743.41 326.8H1742.41ZM1728.01 379.601L1727.17 379.056C1717.67 393.698 1704.81 404.978 1688.57 412.901L1689.01 413.8L1689.45 414.699C1706 406.622 1719.14 395.102 1728.85 380.145L1728.01 379.601ZM1689.01 413.8L1688.58 412.897C1672.73 420.426 1655.07 424.2 1635.61 424.2V425.2V426.2C1655.34 426.2 1673.29 422.373 1689.44 414.703L1689.01 413.8ZM1635.61 425.2L1635.61 424.2C1612.71 424.2 1592.2 427.413 1574.07 433.858L1574.41 434.8L1574.74 435.742C1592.62 429.387 1612.9 426.2 1635.61 426.2L1635.61 425.2ZM1574.41 434.8L1574.08 433.853C1565.18 436.89 1558.4 441.02 1553.85 446.297C1549.28 451.592 1547.01 457.979 1547.01 465.4H1548.01H1549.01C1549.01 458.422 1551.13 452.509 1555.36 447.603C1559.61 442.68 1566.04 438.71 1574.73 435.746L1574.41 434.8ZM1548.01 465.4L1547.01 465.4C1547.01 469.351 1547.89 472.752 1549.72 475.547C1551.55 478.345 1554.27 480.462 1557.83 481.925L1558.21 481L1558.59 480.075C1555.34 478.738 1552.96 476.855 1551.39 474.453C1549.82 472.049 1549.01 469.05 1549.01 465.4L1548.01 465.4ZM1558.21 481L1557.83 481.925C1564.8 484.796 1574.35 486.2 1586.41 486.2L1586.41 485.2L1586.41 484.2C1574.47 484.2 1565.21 482.804 1558.59 480.075L1558.21 481ZM1586.41 485.2V486.2C1594.82 486.2 1601.65 486 1606.88 485.598L1606.81 484.601L1606.73 483.604C1601.57 484.001 1594.79 484.2 1586.41 484.2V485.2ZM1606.81 484.601L1606.89 485.597C1611.65 485.2 1617.82 485 1625.41 485L1625.41 484L1625.41 483C1617.79 483 1611.56 483.201 1606.72 483.604L1606.81 484.601ZM1625.41 484V485H1687.21V484V483H1625.41V484ZM1687.21 484L1687.21 485C1712.61 485 1733.78 491.943 1750.77 505.776L1751.41 505L1752.04 504.224C1734.63 490.058 1713 483 1687.21 483L1687.21 484ZM1751.41 505L1750.79 505.784C1767.69 519.153 1776.21 539.031 1776.21 565.601H1777.21H1778.21C1778.21 538.57 1769.52 518.047 1752.03 504.216L1751.41 505ZM1777.21 565.601L1776.21 565.601C1776.21 593.25 1764.39 614.329 1740.68 628.949L1741.21 629.8L1741.73 630.651C1766.02 615.671 1778.21 593.95 1778.21 565.601L1777.21 565.601ZM1741.21 629.8L1740.68 628.953C1717.29 643.621 1686.29 651 1647.61 651V652V653C1686.52 653 1717.93 645.579 1741.74 630.647L1741.21 629.8ZM1647.61 652L1647.61 651C1612.51 651 1582.25 645.416 1556.81 634.284L1556.41 635.2L1556.01 636.116C1581.76 647.384 1612.3 653 1647.61 653L1647.61 652ZM1556.41 635.2L1556.81 634.284C1544.12 628.735 1534.69 621.633 1528.42 613.012C1522.15 604.401 1519.01 594.212 1519.01 582.4L1518.01 582.4L1517.01 582.4C1517.01 594.589 1520.26 605.2 1526.8 614.188C1533.33 623.167 1543.09 630.465 1556.01 636.116L1556.41 635.2ZM1518.01 582.4H1519.01C1519.01 567.898 1524.68 555.15 1536.1 544.12L1535.41 543.4L1534.71 542.681C1522.94 554.051 1517.01 567.303 1517.01 582.4H1518.01ZM1535.41 543.4L1536.1 544.12C1547.33 533.277 1560.64 526.617 1576.05 524.13L1575.89 523.143L1575.73 522.156C1559.92 524.708 1546.24 531.554 1534.71 542.681L1535.41 543.4ZM1575.95 521.012L1576.16 520.036C1558.93 516.226 1546.12 510.677 1537.64 503.457C1529.2 496.269 1525.01 487.403 1525.01 476.8H1524.01H1523.01C1523.01 488.017 1527.47 497.43 1536.34 504.98C1545.18 512.498 1558.34 518.144 1575.73 521.989L1575.95 521.012ZM1524.01 476.8L1525.01 476.8C1525.01 460.694 1531.07 448.201 1543.2 439.203L1542.61 438.4L1542.01 437.597C1529.34 446.999 1523.01 460.106 1523.01 476.8L1524.01 476.8ZM1542.61 438.4L1543.21 439.2C1555.63 429.881 1570.75 423.593 1588.59 420.361L1588.41 419.377L1588.23 418.393C1570.14 421.672 1554.72 428.067 1542.01 437.6L1542.61 438.4ZM1588.68 417.086L1589.08 416.17C1572.74 409.035 1558.71 398.436 1546.98 384.36L1546.21 385L1545.44 385.64C1557.36 399.948 1571.64 410.74 1588.28 418.003L1588.68 417.086ZM1546.21 385L1546.99 384.383C1535.57 369.803 1529.81 350.639 1529.81 326.8H1528.81H1527.81C1527.81 350.961 1533.65 370.597 1545.42 385.617L1546.21 385ZM1528.81 326.8L1529.81 326.8C1529.81 306.57 1534.76 289.172 1544.64 274.56L1543.81 274L1542.98 273.44C1532.85 288.428 1527.81 306.23 1527.81 326.8L1528.81 326.8ZM1543.81 274L1544.64 274.56C1554.54 259.907 1567.4 248.826 1583.24 241.304L1582.81 240.4L1582.38 239.497C1566.21 247.174 1553.08 258.493 1542.98 273.44L1543.81 274ZM1582.81 240.4L1583.25 241.299C1599.5 233.368 1616.95 229.4 1635.61 229.4L1635.61 228.4L1635.61 227.4C1616.66 227.4 1598.91 231.433 1582.37 239.502L1582.81 240.4ZM1635.61 228.4V229.4C1647.09 229.4 1658.38 231.38 1669.47 235.342L1669.81 234.4L1670.14 233.459C1658.84 229.421 1647.32 227.4 1635.61 227.4V228.4ZM1669.81 234.4L1669.51 235.355C1681.05 238.935 1690.76 243.301 1698.66 248.439L1699.21 247.601L1699.75 246.762C1691.66 241.501 1681.77 237.066 1670.1 233.445L1669.81 234.4ZM1725.57 242.239L1726.29 242.925C1728.41 240.684 1730.76 238.722 1733.35 237.039L1732.81 236.2L1732.26 235.362C1729.54 237.131 1727.06 239.195 1724.84 241.552L1725.57 242.239ZM1732.81 236.2L1733.35 237.039C1741.22 231.923 1749.03 229.4 1756.81 229.4L1756.81 228.4L1756.81 227.4C1748.58 227.4 1740.39 230.077 1732.26 235.362L1732.81 236.2ZM1639.21 524.8V523.8C1613.5 523.8 1591.15 528.018 1572.2 536.487L1572.61 537.4L1573.01 538.313C1591.66 529.983 1613.71 525.8 1639.21 525.8V524.8ZM1572.61 537.4L1572.18 536.495C1562.65 540.959 1555.44 546.922 1550.62 554.409C1545.79 561.897 1543.41 570.842 1543.41 581.2L1544.41 581.2L1545.41 581.2C1545.41 571.158 1547.72 562.604 1552.3 555.492C1556.88 548.379 1563.77 542.642 1573.03 538.306L1572.61 537.4ZM1544.41 581.2H1543.41C1543.41 590.802 1546.12 599.217 1551.56 606.404C1556.99 613.578 1565.1 619.47 1575.81 624.118L1576.21 623.2L1576.61 622.283C1566.11 617.73 1558.32 612.023 1553.15 605.197C1547.99 598.383 1545.41 590.399 1545.41 581.2H1544.41ZM1576.21 623.2L1575.79 624.111C1597.14 633.777 1621.08 638.601 1647.61 638.601L1647.61 637.601L1647.61 636.601C1621.33 636.601 1597.67 631.823 1576.62 622.289L1576.21 623.2ZM1647.61 637.601V638.601C1676.53 638.601 1701.88 633.378 1723.64 622.901L1723.21 622L1722.77 621.099C1701.33 631.422 1676.29 636.601 1647.61 636.601V637.601ZM1723.21 622L1723.63 622.907C1734.57 617.84 1742.83 610.922 1748.35 602.132C1753.87 593.343 1756.61 582.75 1756.61 570.4L1755.61 570.4L1754.61 570.4C1754.61 582.45 1751.94 592.657 1746.66 601.068C1741.38 609.478 1733.44 616.16 1722.79 621.093L1723.21 622ZM1755.61 570.4H1756.61C1756.61 557.778 1752.73 546.75 1744.98 537.363L1744.21 538L1743.44 538.637C1750.88 547.65 1754.61 558.223 1754.61 570.4H1755.61ZM1744.21 538L1744.98 537.367C1737.5 528.223 1724.32 523.8 1705.81 523.8V524.8V525.8C1724.09 525.8 1736.51 530.177 1743.43 538.633L1744.21 538ZM1705.81 524.8V523.8H1639.21V524.8V525.8H1705.81V524.8ZM1267.1 436H1266.1C1266.1 453.728 1269.52 468.902 1276.42 481.481L1277.3 481L1278.18 480.519C1271.47 468.298 1268.1 453.472 1268.1 436H1267.1ZM1277.3 481L1276.43 481.502C1283.85 494.268 1296.22 500.601 1313.3 500.601L1313.3 499.601L1313.3 498.601C1296.78 498.601 1285.15 492.532 1278.16 480.498L1277.3 481ZM1313.3 499.601V500.601C1327.55 500.601 1340.19 495.705 1351.16 485.948L1350.5 485.2L1349.83 484.453C1339.21 493.896 1327.05 498.601 1313.3 498.601V499.601ZM1350.5 485.2L1351.17 485.946C1362.51 475.816 1371.19 462.264 1377.24 445.336L1376.3 445L1375.36 444.664C1369.4 461.336 1360.89 474.585 1349.83 484.454L1350.5 485.2ZM1376.3 445L1377.24 445.349C1383.68 428.023 1386.9 408.903 1386.9 388H1385.9H1384.9C1384.9 408.697 1381.71 427.577 1375.36 444.651L1376.3 445ZM1385.9 388H1386.9V263.2H1385.9H1384.9V388H1385.9ZM1385.9 263.2H1386.9C1386.9 258.308 1385.89 254.575 1383.61 252.293L1382.9 253L1382.19 253.707C1383.91 255.425 1384.9 258.492 1384.9 263.2H1385.9ZM1382.9 253L1383.61 252.293C1381.32 250.011 1377.59 249 1372.7 249L1372.7 250L1372.7 251C1377.41 251 1380.47 251.989 1382.19 253.707L1382.9 253ZM1372.7 250V249H1354.7V250V251H1372.7V250ZM1354.7 235.601V236.601H1409.1V235.601V234.601H1354.7V235.601ZM1429.1 255.601H1428.1V481.601H1429.1H1430.1V255.601H1429.1ZM1429.1 481.601L1428.1 481.601C1428.1 486.492 1429.11 490.225 1431.39 492.507L1432.1 491.8L1432.81 491.093C1431.09 489.375 1430.1 486.308 1430.1 481.601L1429.1 481.601ZM1432.1 491.8L1431.39 492.507C1433.67 494.789 1437.41 495.8 1442.3 495.8L1442.3 494.8L1442.3 493.8C1437.59 493.8 1434.52 492.811 1432.81 491.093L1432.1 491.8ZM1442.3 494.8V495.8H1460.3V494.8V493.8H1442.3V494.8ZM1460.3 509.2V508.2H1405.9V509.2V510.2H1460.3V509.2ZM1385.9 489.2H1386.9V461.209H1385.9H1384.9V489.2H1385.9ZM1382.95 460.54L1382.05 460.101C1373 478.621 1361.88 492.494 1348.72 501.784L1349.3 502.601L1349.88 503.418C1363.37 493.889 1374.69 479.721 1383.85 460.979L1382.95 460.54ZM1349.3 502.601L1348.74 501.772C1335.3 510.86 1320.5 515.4 1304.3 515.4V516.4V517.4C1320.9 517.4 1336.09 512.741 1349.86 503.429L1349.3 502.601ZM1304.3 516.4L1304.3 515.4C1275.31 515.4 1254.88 506.475 1242.72 488.833L1241.9 489.4L1241.07 489.968C1253.72 508.325 1274.89 517.4 1304.3 517.4L1304.3 516.4ZM1241.9 489.4L1242.73 488.846C1230.86 471.036 1224.9 449.636 1224.9 424.601L1223.9 424.601L1222.9 424.601C1222.9 449.964 1228.94 471.765 1241.07 489.955L1241.9 489.4ZM1223.9 424.601H1224.9V263.2H1223.9H1222.9V424.601H1223.9ZM1223.9 263.2H1224.9C1224.9 258.308 1223.89 254.575 1221.61 252.293L1220.9 253L1220.19 253.707C1221.91 255.425 1222.9 258.492 1222.9 263.2H1223.9ZM1220.9 253L1221.61 252.293C1219.32 250.011 1215.59 249 1210.7 249L1210.7 250L1210.7 251C1215.41 251 1218.47 251.989 1220.19 253.707L1220.9 253ZM1210.7 250V249H1192.7V250V251H1210.7V250ZM1192.7 235.601V236.601H1247.1V235.601V234.601H1192.7V235.601ZM1267.1 255.601H1266.1V436H1267.1H1268.1V255.601H1267.1ZM2420.97 235.601V236.601H2466.97V235.601V234.601H2420.97V235.601ZM2466.97 252.4V251.4H2420.97V252.4V253.4H2466.97V252.4ZM2400.97 272.4H2399.97V448H2400.97H2401.97V272.4H2400.97ZM2400.97 448H2399.97C2399.97 460.13 2402.4 470.321 2407.31 478.514L2408.17 478L2409.03 477.486C2404.35 469.68 2401.97 459.87 2401.97 448H2400.97ZM2408.17 478L2407.31 478.514C2412.34 486.892 2420.92 491 2432.77 491V490V489C2421.42 489 2413.6 485.108 2409.03 477.486L2408.17 478ZM2432.77 490L2432.77 491C2446.75 491 2457.45 485.289 2464.73 473.891C2471.97 462.567 2475.78 445.703 2476.31 423.435L2475.31 423.412L2474.31 423.388C2473.79 445.512 2469.99 461.943 2463.05 472.814C2456.15 483.612 2446.1 489 2432.77 489L2432.77 490ZM2486.12 423.401L2485.12 423.38C2484.61 447.815 2480.65 469.089 2473.25 487.223L2474.17 487.601L2475.1 487.978C2482.61 469.57 2486.61 448.044 2487.12 423.422L2486.12 423.401ZM2474.17 487.601L2473.24 487.233C2469.53 496.615 2463.29 503.631 2454.5 508.318C2445.69 513.016 2434.27 515.4 2420.17 515.4V516.4V517.4C2434.48 517.4 2446.25 514.984 2455.44 510.083C2464.65 505.17 2471.22 497.786 2475.1 487.969L2474.17 487.601ZM2420.17 516.4L2420.17 515.4C2402.44 515.4 2387.71 509.109 2375.9 496.516L2375.17 497.2L2374.44 497.884C2386.64 510.892 2401.9 517.4 2420.17 517.4L2420.17 516.4ZM2375.17 497.2L2375.91 496.529C2364.52 483.959 2358.77 466.822 2358.77 445H2357.77H2356.77C2356.77 467.178 2362.62 484.842 2374.43 497.872L2375.17 497.2ZM2357.77 445H2358.77V272.4H2357.77H2356.77V445H2357.77ZM2337.77 252.4V251.4H2321.77V252.4V253.4H2337.77V252.4ZM2321.77 235.601V236.601H2326.57V235.601V234.601H2321.77V235.601ZM2326.57 235.601V236.601C2345.03 236.601 2359.33 226.712 2369.46 207.262L2368.57 206.8L2367.69 206.338C2357.82 225.288 2344.12 234.601 2326.57 234.601V235.601ZM2368.57 206.8L2369.46 207.269C2379.94 187.515 2385.17 165.753 2385.17 142H2384.17H2383.17C2383.17 165.447 2378.01 186.885 2367.69 206.331L2368.57 206.8ZM2384.17 142H2385.17V128.801H2384.17H2383.17V142H2384.17ZM2400.97 128.801H2399.97V215.601H2400.97H2401.97V128.801H2400.97ZM2816.86 228.4V229.4C2838.64 229.4 2858.64 235.931 2876.87 249.013L2877.46 248.2L2878.04 247.388C2859.48 234.07 2839.07 227.4 2816.86 227.4V228.4ZM2877.46 248.2L2876.89 249.021C2895.13 261.713 2909.42 278.972 2919.75 300.828L2920.66 300.4L2921.56 299.973C2911.09 277.829 2896.58 260.288 2878.03 247.379L2877.46 248.2ZM2920.66 300.4L2919.76 300.841C2930.49 322.696 2935.86 346.544 2935.86 372.4H2936.86H2937.86C2937.86 346.257 2932.43 322.105 2921.55 299.96L2920.66 300.4ZM2936.86 372.4L2935.86 372.4C2935.86 398.257 2930.49 422.105 2919.76 443.96L2920.66 444.4L2921.55 444.841C2932.43 422.696 2937.86 398.544 2937.86 372.4L2936.86 372.4ZM2920.66 444.4L2919.75 443.973C2909.42 465.831 2895.13 483.294 2876.87 496.388L2877.46 497.2L2878.04 498.013C2896.59 484.706 2911.09 466.969 2921.56 444.828L2920.66 444.4ZM2877.46 497.2L2876.89 496.379C2858.65 509.065 2838.65 515.4 2816.86 515.4V516.4V517.4C2839.06 517.4 2859.46 510.935 2878.03 498.021L2877.46 497.2ZM2816.86 516.4L2816.86 515.4C2795.06 515.4 2775.06 509.065 2756.83 496.379L2756.26 497.2L2755.69 498.021C2774.25 510.935 2794.65 517.4 2816.86 517.4L2816.86 516.4ZM2756.26 497.2L2756.84 496.388C2738.58 483.292 2724.09 465.824 2713.35 443.96L2712.46 444.4L2711.56 444.841C2722.43 466.976 2737.13 484.709 2755.67 498.013L2756.26 497.2ZM2712.46 444.4L2713.36 443.973C2703.03 422.116 2697.86 398.263 2697.86 372.4L2696.86 372.4L2695.86 372.4C2695.86 398.538 2701.09 422.685 2711.55 444.828L2712.46 444.4ZM2696.86 372.4H2697.86C2697.86 346.538 2703.03 322.685 2713.36 300.828L2712.46 300.4L2711.55 299.973C2701.09 322.116 2695.86 346.263 2695.86 372.4H2696.86ZM2712.46 300.4L2713.35 300.841C2724.09 278.979 2738.58 261.715 2756.83 249.021L2756.26 248.2L2755.69 247.379C2737.13 260.285 2722.43 277.822 2711.56 299.96L2712.46 300.4ZM2756.26 248.2L2756.84 249.013C2775.08 235.931 2795.07 229.4 2816.86 229.4L2816.86 228.4L2816.86 227.4C2794.64 227.4 2774.24 234.07 2755.67 247.388L2756.26 248.2ZM381.601 148.601V149.601H489.2V148.601V147.601H381.601V148.601ZM509.2 168.601H508.2V489.2H509.2H510.2V168.601H509.2ZM489.2 509.2V508.2H168.601V509.2V510.2H489.2V509.2ZM148.601 489.2H149.601V381.601H148.601H147.601V489.2H148.601ZM128.601 361.601V360.601H21V361.601V362.601H128.601V361.601ZM1 341.601H2V21H1H0V341.601H1ZM21 1V2H341.601V1V0H21V1ZM361.601 21H360.601V128.601H361.601H362.601V21H361.601ZM1083.7 463.601L1082.77 463.972C1086.8 474.057 1091.69 481.257 1097.51 485.414L1098.1 484.601L1098.68 483.787C1093.3 479.944 1088.59 473.144 1084.62 463.229L1083.7 463.601ZM1098.1 484.601L1097.55 485.442C1103.36 489.174 1110.76 491 1119.7 491L1119.7 490L1119.7 489C1111.03 489 1104.03 487.227 1098.64 483.759L1098.1 484.601ZM1119.7 490V491H1143.7V490V489H1119.7V490ZM1143.7 509.2V508.2H976.896V509.2V510.2H1143.7V509.2ZM976.896 490V491H1006.9V490V489H976.896V490ZM1006.9 490V491C1013.05 491 1018.27 489.561 1022.47 486.619L1021.9 485.8L1021.32 484.981C1017.53 487.638 1012.74 489 1006.9 489V490ZM1021.9 485.8L1022.52 486.581C1026.68 483.249 1028.9 479.386 1028.9 475H1027.9H1026.9C1026.9 478.614 1025.11 481.951 1021.27 485.019L1021.9 485.8ZM1027.9 475L1028.9 475C1028.9 469.703 1028.08 465.155 1026.41 461.394L1025.5 461.8L1024.58 462.206C1026.11 465.644 1026.9 469.897 1026.9 475L1027.9 475ZM1025.5 461.8L1026.44 461.467L1002.95 395.003L1002.01 395.336L1001.07 395.669L1024.55 462.133L1025.5 461.8ZM983.152 382V381H870.976V382V383H983.152V382ZM852.147 395.256L851.206 394.919L841.555 421.863L842.496 422.2L843.438 422.537L853.089 395.593L852.147 395.256ZM842.496 422.2L841.552 421.87C835.952 437.871 833.096 449.614 833.096 457L834.096 457L835.096 457C835.096 449.986 837.84 438.529 843.44 422.531L842.496 422.2ZM834.096 457H833.096C833.096 465.975 835.342 473.968 839.856 480.944L840.695 480.4L841.535 479.857C837.249 473.233 835.096 465.625 835.096 457H834.096ZM840.695 480.4L839.871 480.967C844.525 487.736 852.506 491 863.496 491V490V489C852.886 489 845.666 485.865 841.519 479.834L840.695 480.4ZM863.496 490V491H890.496V490V489H863.496V490ZM890.496 509.2V508.2H745.295V509.2V510.2H890.496V509.2ZM745.295 490V491H757.896V490V489H745.295V490ZM757.896 490V491C769.921 491 780.353 487.273 789.143 479.812C797.915 472.367 804.996 461.25 810.434 446.547L809.496 446.2L808.558 445.853C803.196 460.35 796.277 471.133 787.849 478.288C779.438 485.427 769.47 489 757.896 489V490ZM809.496 446.2L810.439 446.534L936.95 89.3601L936.007 89.0262L935.065 88.6923L808.553 445.866L809.496 446.2ZM955.933 89.1418L954.986 89.4647L1082.75 463.924L1083.7 463.601L1084.64 463.278L956.879 88.8189L955.933 89.1418ZM1996.83 228.4V229.4C2025.82 229.4 2046.04 238.326 2057.8 255.955L2058.63 255.4L2059.46 254.846C2047.21 236.475 2026.24 227.4 1996.83 227.4V228.4ZM2058.63 255.4L2057.81 255.968C2070.07 273.776 2076.23 295.171 2076.23 320.2H2077.23H2078.23C2078.23 294.83 2071.99 273.024 2059.45 254.833L2058.63 255.4ZM2077.23 320.2H2076.23V481.601H2077.23H2078.23V320.2H2077.23ZM2077.23 481.601L2076.23 481.601C2076.23 486.492 2077.24 490.225 2079.52 492.507L2080.23 491.8L2080.94 491.093C2079.22 489.375 2078.23 486.309 2078.23 481.601L2077.23 481.601ZM2080.23 491.8L2079.52 492.507C2081.81 494.789 2085.54 495.8 2090.43 495.8L2090.43 494.8L2090.43 493.8C2085.72 493.8 2082.66 492.81 2080.94 491.093L2080.23 491.8ZM2090.43 494.8V495.8H2108.43V494.8V493.8H2090.43V494.8ZM2108.43 509.2V508.2H2002.83V509.2V510.2H2108.43V509.2ZM2002.83 494.8V495.8H2020.83V494.8V493.8H2002.83V494.8ZM2020.83 494.8V495.8C2025.72 495.8 2029.46 494.789 2031.74 492.507L2031.03 491.8L2030.32 491.093C2028.61 492.811 2025.54 493.8 2020.83 493.8V494.8ZM2031.03 491.8L2031.74 492.507C2034.02 490.225 2035.03 486.492 2035.03 481.601L2034.03 481.601L2033.03 481.601C2033.03 486.308 2032.04 489.375 2030.32 491.093L2031.03 491.8ZM2034.03 481.601H2035.03V308.8H2034.03H2033.03V481.601H2034.03ZM2034.03 308.8L2035.03 308.8C2035.03 291.063 2031.4 275.881 2024.1 263.298L2023.23 263.8L2022.37 264.302C2029.46 276.518 2033.03 291.336 2033.03 308.8L2034.03 308.8ZM2023.23 263.8L2024.11 263.319C2017.1 250.533 2004.91 244.2 1987.83 244.2V245.2V246.2C2004.35 246.2 2015.77 252.267 2022.35 264.281L2023.23 263.8ZM1987.83 245.2L1987.83 244.2C1973.57 244.2 1960.73 249.304 1949.36 259.454L1950.03 260.2L1950.7 260.946C1961.73 251.097 1974.09 246.2 1987.83 246.2L1987.83 245.2ZM1950.03 260.2L1949.37 259.453C1938.42 269.187 1929.74 282.739 1923.29 300.052L1924.23 300.4L1925.17 300.749C1931.53 283.662 1940.05 270.414 1950.69 260.948L1950.03 260.2ZM1924.23 300.4L1923.29 300.064C1917.24 316.988 1914.23 335.904 1914.23 356.8L1915.23 356.8L1916.23 356.8C1916.23 336.096 1919.22 317.412 1925.17 300.737L1924.23 300.4ZM1915.23 356.8H1914.23V481.601H1915.23H1916.23V356.8H1915.23ZM1915.23 481.601L1914.23 481.601C1914.23 486.492 1915.24 490.225 1917.52 492.507L1918.23 491.8L1918.94 491.093C1917.22 489.375 1916.23 486.309 1916.23 481.601L1915.23 481.601ZM1918.23 491.8L1917.52 492.507C1919.81 494.789 1923.54 495.8 1928.43 495.8L1928.43 494.8L1928.43 493.8C1923.72 493.8 1920.66 492.81 1918.94 491.093L1918.23 491.8ZM1928.43 494.8V495.8H1946.43V494.8V493.8H1928.43V494.8ZM1946.43 509.2V508.2H1840.83V509.2V510.2H1946.43V509.2ZM1840.83 494.8V495.8H1858.83V494.8V493.8H1840.83V494.8ZM1858.83 494.8V495.8C1863.72 495.8 1867.46 494.789 1869.74 492.507L1869.03 491.8L1868.32 491.093C1866.61 492.811 1863.54 493.8 1858.83 493.8V494.8ZM1869.03 491.8L1869.74 492.507C1872.02 490.225 1873.03 486.492 1873.03 481.601L1872.03 481.601L1871.03 481.601C1871.03 486.308 1870.04 489.375 1868.32 491.093L1869.03 491.8ZM1872.03 481.601H1873.03V263.2H1872.03H1871.03V481.601H1872.03ZM1872.03 263.2H1873.03C1873.03 258.308 1872.02 254.575 1869.74 252.293L1869.03 253L1868.32 253.707C1870.04 255.425 1871.03 258.492 1871.03 263.2H1872.03ZM1869.03 253L1869.74 252.293C1867.46 250.011 1863.72 249 1858.83 249V250V251C1863.54 251 1866.61 251.989 1868.32 253.707L1869.03 253ZM1858.83 250V249H1840.83V250V251H1858.83V250ZM1840.83 235.601V236.601H1895.23V235.601V234.601H1840.83V235.601ZM1915.23 255.601H1914.23V283.591H1915.23H1916.23V255.601H1915.23ZM1918.18 284.26L1919.08 284.699C1928.13 266.189 1939.24 252.523 1952.39 243.628L1951.83 242.8L1951.27 241.972C1937.76 251.111 1926.44 265.085 1917.28 283.821L1918.18 284.26ZM1951.83 242.8L1952.41 243.617C1965.84 234.134 1980.64 229.4 1996.83 229.4L1996.83 228.4L1996.83 227.4C1980.22 227.4 1965.02 232.266 1951.25 241.983L1951.83 242.8ZM2239.25 481.601L2238.25 481.601C2238.25 486.492 2239.26 490.225 2241.55 492.507L2242.25 491.8L2242.96 491.093C2241.24 489.375 2240.25 486.309 2240.25 481.601L2239.25 481.601ZM2242.25 491.8L2241.55 492.507C2243.83 494.789 2247.56 495.8 2252.45 495.8L2252.45 494.8L2252.45 493.8C2247.75 493.8 2244.68 492.81 2242.96 491.093L2242.25 491.8ZM2252.45 494.8V495.8H2270.45V494.8V493.8H2252.45V494.8ZM2270.45 509.2V508.2H2164.85V509.2V510.2H2270.45V509.2ZM2164.85 494.8V495.8H2182.85V494.8V493.8H2164.85V494.8ZM2182.85 494.8V495.8C2187.75 495.8 2191.48 494.789 2193.76 492.507L2193.05 491.8L2192.35 491.093C2190.63 492.811 2187.56 493.8 2182.85 493.8V494.8ZM2193.05 491.8L2193.76 492.507C2196.04 490.225 2197.05 486.492 2197.05 481.601L2196.05 481.601L2195.05 481.601C2195.05 486.308 2194.06 489.375 2192.35 491.093L2193.05 491.8ZM2196.05 481.601H2197.05V263.2H2196.05H2195.05V481.601H2196.05ZM2196.05 263.2H2197.05C2197.05 258.308 2196.04 254.575 2193.76 252.293L2193.05 253L2192.35 253.707C2194.06 255.425 2195.05 258.492 2195.05 263.2H2196.05ZM2193.05 253L2193.76 252.293C2191.48 250.011 2187.75 249 2182.85 249V250V251C2187.56 251 2190.63 251.989 2192.35 253.707L2193.05 253ZM2182.85 250V249H2164.85V250V251H2182.85V250ZM2164.85 235.601V236.601H2219.25V235.601V234.601H2164.85V235.601ZM2239.25 255.601H2238.25V481.601H2239.25H2240.25V255.601H2239.25ZM2610.74 481.601L2609.74 481.601C2609.74 486.492 2610.75 490.225 2613.03 492.507L2613.74 491.8L2614.45 491.093C2612.73 489.375 2611.74 486.309 2611.74 481.601L2610.74 481.601ZM2613.74 491.8L2613.03 492.507C2615.31 494.789 2619.05 495.8 2623.94 495.8L2623.94 494.8L2623.94 493.8C2619.23 493.8 2616.16 492.81 2614.45 491.093L2613.74 491.8ZM2623.94 494.8V495.8H2641.94V494.8V493.8H2623.94V494.8ZM2641.94 509.2V508.2H2536.34V509.2V510.2H2641.94V509.2ZM2536.34 494.8V495.8H2554.34V494.8V493.8H2536.34V494.8ZM2554.34 494.8V495.8C2559.23 495.8 2562.96 494.789 2565.25 492.507L2564.54 491.8L2563.83 491.093C2562.11 492.811 2559.05 493.8 2554.34 493.8V494.8ZM2564.54 491.8L2565.25 492.507C2567.53 490.225 2568.54 486.492 2568.54 481.601L2567.54 481.601L2566.54 481.601C2566.54 486.308 2565.55 489.375 2563.83 491.093L2564.54 491.8ZM2567.54 481.601H2568.54V263.2H2567.54H2566.54V481.601H2567.54ZM2567.54 263.2H2568.54C2568.54 258.308 2567.53 254.575 2565.25 252.293L2564.54 253L2563.83 253.707C2565.55 255.425 2566.54 258.492 2566.54 263.2H2567.54ZM2564.54 253L2565.25 252.293C2562.96 250.011 2559.23 249 2554.34 249V250V251C2559.05 251 2562.11 251.989 2563.83 253.707L2564.54 253ZM2554.34 250V249H2536.34V250V251H2554.34V250ZM2536.34 235.601V236.601H2590.74V235.601V234.601H2536.34V235.601ZM2610.74 255.601H2609.74V481.601H2610.74H2611.74V255.601H2610.74ZM3151.71 228.4V229.4C3180.71 229.4 3200.93 238.326 3212.68 255.955L3213.51 255.4L3214.34 254.846C3202.1 236.475 3181.12 227.4 3151.71 227.4V228.4ZM3213.51 255.4L3212.69 255.968C3224.96 273.776 3231.11 295.171 3231.11 320.2H3232.11H3233.11C3233.11 294.83 3226.87 273.024 3214.34 254.833L3213.51 255.4ZM3232.11 320.2H3231.11V481.601H3232.11H3233.11V320.2H3232.11ZM3232.11 481.601L3231.11 481.601C3231.11 486.492 3232.12 490.225 3234.41 492.507L3235.11 491.8L3235.82 491.093C3234.1 489.375 3233.11 486.309 3233.11 481.601L3232.11 481.601ZM3235.11 491.8L3234.41 492.507C3236.69 494.789 3240.42 495.8 3245.31 495.8L3245.31 494.8L3245.31 493.8C3240.6 493.8 3237.54 492.81 3235.82 491.093L3235.11 491.8ZM3245.31 494.8V495.8H3263.31V494.8V493.8H3245.31V494.8ZM3263.31 509.2V508.2H3157.71V509.2V510.2H3263.31V509.2ZM3157.71 494.8V495.8H3175.71V494.8V493.8H3157.71V494.8ZM3175.71 494.8V495.8C3180.6 495.8 3184.34 494.789 3186.62 492.507L3185.91 491.8L3185.21 491.093C3183.49 492.811 3180.42 493.8 3175.71 493.8V494.8ZM3185.91 491.8L3186.62 492.507C3188.9 490.225 3189.91 486.492 3189.91 481.601L3188.91 481.601L3187.91 481.601C3187.91 486.308 3186.92 489.375 3185.21 491.093L3185.91 491.8ZM3188.91 481.601H3189.91V308.8H3188.91H3187.91V481.601H3188.91ZM3188.91 308.8L3189.91 308.8C3189.91 291.063 3186.28 275.881 3178.98 263.298L3178.11 263.8L3177.25 264.302C3184.34 276.518 3187.91 291.336 3187.91 308.8L3188.91 308.8ZM3178.11 263.8L3178.99 263.319C3171.98 250.533 3159.8 244.2 3142.71 244.2V245.2V246.2C3159.23 246.2 3170.65 252.267 3177.24 264.281L3178.11 263.8ZM3142.71 245.2L3142.71 244.2C3128.45 244.2 3115.62 249.304 3104.25 259.454L3104.91 260.2L3105.58 260.946C3116.61 251.097 3128.98 246.2 3142.71 246.2L3142.71 245.2ZM3104.91 260.2L3104.25 259.453C3093.3 269.187 3084.62 282.739 3078.18 300.052L3079.11 300.4L3080.05 300.749C3086.41 283.662 3094.93 270.414 3105.58 260.948L3104.91 260.2ZM3079.11 300.4L3078.17 300.064C3072.13 316.988 3069.11 335.904 3069.11 356.8L3070.11 356.8L3071.11 356.8C3071.11 336.096 3074.1 317.412 3080.06 300.737L3079.11 300.4ZM3070.11 356.8H3069.11V481.601H3070.11H3071.11V356.8H3070.11ZM3070.11 481.601L3069.11 481.601C3069.11 486.492 3070.12 490.225 3072.41 492.507L3073.11 491.8L3073.82 491.093C3072.1 489.375 3071.11 486.309 3071.11 481.601L3070.11 481.601ZM3073.11 491.8L3072.41 492.507C3074.69 494.789 3078.42 495.8 3083.31 495.8L3083.31 494.8L3083.31 493.8C3078.6 493.8 3075.54 492.81 3073.82 491.093L3073.11 491.8ZM3083.31 494.8V495.8H3101.31V494.8V493.8H3083.31V494.8ZM3101.31 509.2V508.2H2995.71V509.2V510.2H3101.31V509.2ZM2995.71 494.8V495.8H3013.71V494.8V493.8H2995.71V494.8ZM3013.71 494.8V495.8C3018.6 495.8 3022.34 494.789 3024.62 492.507L3023.91 491.8L3023.21 491.093C3021.49 492.811 3018.42 493.8 3013.71 493.8V494.8ZM3023.91 491.8L3024.62 492.507C3026.9 490.225 3027.91 486.492 3027.91 481.601L3026.91 481.601L3025.91 481.601C3025.91 486.308 3024.92 489.375 3023.21 491.093L3023.91 491.8ZM3026.91 481.601H3027.91V263.2H3026.91H3025.91V481.601H3026.91ZM3026.91 263.2H3027.91C3027.91 258.308 3026.9 254.575 3024.62 252.293L3023.91 253L3023.21 253.707C3024.92 255.425 3025.91 258.492 3025.91 263.2H3026.91ZM3023.91 253L3024.62 252.293C3022.34 250.011 3018.6 249 3013.71 249V250V251C3018.42 251 3021.49 251.989 3023.21 253.707L3023.91 253ZM3013.71 250V249H2995.71V250V251H3013.71V250ZM2995.71 235.601V236.601H3050.11V235.601V234.601H2995.71V235.601ZM3070.11 255.601H3069.11V283.591H3070.11H3071.11V255.601H3070.11ZM3073.06 284.26L3073.96 284.699C3083.01 266.189 3094.12 252.523 3107.27 243.628L3106.71 242.8L3106.15 241.972C3092.64 251.111 3081.32 265.085 3072.17 283.821L3073.06 284.26ZM3106.71 242.8L3107.29 243.617C3120.72 234.134 3135.52 229.4 3151.71 229.4L3151.71 228.4L3151.71 227.4C3135.1 227.4 3119.9 232.266 3106.14 241.983L3106.71 242.8ZM2816.86 242.8L2816.86 241.8C2804.69 241.8 2794.19 244.691 2785.4 250.516C2776.62 256.34 2769.61 265.052 2764.35 276.585L2765.26 277L2766.17 277.415C2771.31 266.149 2778.1 257.76 2786.51 252.184C2794.92 246.609 2805.02 243.8 2816.86 243.8L2816.86 242.8ZM2765.26 277L2764.35 276.579C2753.86 299.171 2748.66 331.14 2748.66 372.4H2749.66H2750.66C2750.66 331.261 2755.85 299.629 2766.16 277.421L2765.26 277ZM2749.66 372.4L2748.66 372.4C2748.66 413.663 2753.86 445.828 2764.35 468.815L2765.26 468.4L2766.17 467.985C2755.85 445.373 2750.66 413.538 2750.66 372.4L2749.66 372.4ZM2765.26 468.4L2764.35 468.822C2769.61 480.157 2776.62 488.717 2785.41 494.438C2794.2 500.161 2804.7 503 2816.86 503L2816.86 502L2816.86 501C2805.02 501 2794.91 498.239 2786.5 492.762C2778.09 487.284 2771.3 479.044 2766.16 467.979L2765.26 468.4ZM2816.86 502V503C2829.02 503 2839.51 500.161 2848.3 494.438C2857.09 488.717 2864.1 480.157 2869.36 468.822L2868.46 468.4L2867.55 467.979C2862.41 479.044 2855.62 487.284 2847.21 492.762C2838.8 498.239 2828.7 501 2816.86 501V502ZM2868.46 468.4L2869.37 468.815C2879.85 445.828 2885.06 413.663 2885.06 372.4L2884.06 372.4L2883.06 372.4C2883.06 413.538 2877.86 445.373 2867.55 467.985L2868.46 468.4ZM2884.06 372.4H2885.06C2885.06 331.14 2879.85 299.171 2869.36 276.579L2868.46 277L2867.55 277.421C2877.86 299.629 2883.06 331.261 2883.06 372.4H2884.06ZM2868.46 277L2869.37 276.585C2864.11 265.051 2857.1 256.34 2848.31 250.516C2839.52 244.691 2829.02 241.8 2816.86 241.8V242.8V243.8C2828.69 243.8 2838.79 246.609 2847.2 252.183C2855.62 257.76 2862.41 266.149 2867.55 277.415L2868.46 277ZM341.601 361.601V360.601H207.601V361.601V362.601H341.601V361.601ZM187.601 381.601H186.601V450.2H187.601H188.601V381.601H187.601ZM207.601 470.2V471.2H450.2V470.2V469.2H207.601V470.2ZM470.2 450.2H471.2V207.601H470.2H469.2V450.2H470.2ZM450.2 187.601V186.601H381.601V187.601V188.601H450.2V187.601ZM361.601 207.601H360.601V341.601H361.601H362.601V207.601H361.601ZM1635.61 242.8L1635.61 241.8C1616.89 241.8 1602.18 249.353 1591.59 264.425L1592.41 265L1593.22 265.575C1603.43 251.047 1617.53 243.8 1635.61 243.8L1635.61 242.8ZM1592.41 265L1591.59 264.425C1581.03 279.455 1575.81 300.284 1575.81 326.8L1576.81 326.8L1577.81 326.8C1577.81 300.516 1582.99 280.145 1593.22 265.575L1592.41 265ZM1576.81 326.8H1575.81C1575.81 353.315 1581.03 374.146 1591.59 389.176L1592.41 388.601L1593.22 388.026C1582.99 373.455 1577.81 353.084 1577.81 326.8H1576.81ZM1592.41 388.601L1591.59 389.176C1602.18 404.247 1616.89 411.8 1635.61 411.8L1635.61 410.8L1635.61 409.8C1617.53 409.8 1603.43 402.554 1593.22 388.026L1592.41 388.601ZM1635.61 410.8V411.8C1654.33 411.8 1669.03 404.247 1679.62 389.176L1678.81 388.601L1677.99 388.026C1667.78 402.554 1653.69 409.8 1635.61 409.8V410.8ZM1678.81 388.601L1679.62 389.176C1690.19 374.146 1695.41 353.315 1695.41 326.8H1694.41H1693.41C1693.41 353.084 1688.23 373.455 1677.99 388.026L1678.81 388.601ZM1694.41 326.8L1695.41 326.8C1695.41 300.284 1690.19 279.455 1679.62 264.425L1678.81 265L1677.99 265.575C1688.23 280.145 1693.41 300.516 1693.41 326.8L1694.41 326.8ZM1678.81 265L1679.62 264.425C1669.03 249.353 1654.33 241.8 1635.61 241.8V242.8V243.8C1653.69 243.8 1667.78 251.047 1677.99 265.575L1678.81 265ZM891.795 362.8V363.8H962.745V362.8V361.8H891.795V362.8ZM981.675 336.345L982.621 336.022L947.816 233.947L946.869 234.27L945.923 234.593L980.728 336.668L981.675 336.345ZM909.086 234.049L908.144 233.715L871.999 335.79L872.942 336.124L873.885 336.458L910.029 234.383L909.086 234.049ZM60 322.601V323.601H128.601V322.601V321.601H60V322.601ZM148.601 302.601H149.601V168.601H148.601H147.601V302.601H148.601ZM168.601 148.601V149.601H302.601V148.601V147.601H168.601V148.601ZM322.601 128.601H323.601V60H322.601H321.601V128.601H322.601ZM302.601 40V39H60V40V41H302.601V40ZM40 60H39V302.601H40H41V60H40ZM207.601 322.601V323.601H302.601V322.601V321.601H207.601V322.601ZM322.601 302.601H323.601V207.601H322.601H321.601V302.601H322.601ZM302.601 187.601V186.601H207.601V187.601V188.601H302.601V187.601ZM187.601 207.601H186.601V302.601H187.601H188.601V207.601H187.601ZM2214.05 98.7998L2214.05 99.7998C2223.01 99.7998 2230.14 102.71 2235.52 108.482L2236.25 107.8L2236.98 107.117C2231.17 100.889 2223.49 97.7998 2214.05 97.7998L2214.05 98.7998ZM2236.25 107.8L2235.57 108.531C2241.34 113.918 2244.25 121.04 2244.25 130L2245.25 130L2246.25 130C2246.25 120.56 2243.16 112.882 2236.94 107.069L2236.25 107.8ZM2245.25 130H2244.25C2244.25 138.546 2241.35 145.688 2235.55 151.493L2236.25 152.2L2236.96 152.907C2243.16 146.712 2246.25 139.054 2246.25 130H2245.25ZM2236.25 152.2L2235.52 151.518C2230.14 157.29 2223.01 160.2 2214.05 160.2L2214.05 161.2L2214.05 162.2C2223.49 162.2 2231.17 159.111 2236.98 152.883L2236.25 152.2ZM2214.05 161.2V160.2C2205.51 160.2 2198.37 157.298 2192.56 151.493L2191.85 152.2L2191.15 152.907C2197.34 159.102 2205 162.2 2214.05 162.2V161.2ZM2191.85 152.2L2192.56 151.493C2186.76 145.688 2183.85 138.546 2183.85 130H2182.85H2181.85C2181.85 139.054 2184.95 146.712 2191.15 152.907L2191.85 152.2ZM2182.85 130L2183.85 130C2183.85 121.04 2186.76 113.918 2192.54 108.531L2191.85 107.8L2191.17 107.069C2184.94 112.882 2181.85 120.56 2181.85 130L2182.85 130ZM2191.85 107.8L2192.56 108.507C2198.37 102.702 2205.51 99.7998 2214.05 99.7998V98.7998V97.7998C2205 97.7998 2197.34 100.898 2191.15 107.093L2191.85 107.8ZM2585.54 98.7998L2585.54 99.7998C2594.5 99.7998 2601.62 102.71 2607.01 108.482L2607.74 107.8L2608.47 107.117C2602.66 100.889 2594.98 97.7998 2585.54 97.7998L2585.54 98.7998ZM2607.74 107.8L2607.06 108.531C2612.83 113.918 2615.74 121.04 2615.74 130L2616.74 130L2617.74 130C2617.74 120.56 2614.65 112.882 2608.42 107.069L2607.74 107.8ZM2616.74 130H2615.74C2615.74 138.546 2612.84 145.688 2607.03 151.493L2607.74 152.2L2608.45 152.907C2614.64 146.712 2617.74 139.054 2617.74 130H2616.74ZM2607.74 152.2L2607.01 151.518C2601.62 157.29 2594.5 160.2 2585.54 160.2L2585.54 161.2L2585.54 162.2C2594.98 162.2 2602.66 159.111 2608.47 152.883L2607.74 152.2ZM2585.54 161.2V160.2C2576.99 160.2 2569.85 157.298 2564.04 151.493L2563.34 152.2L2562.63 152.907C2568.83 159.102 2576.48 162.2 2585.54 162.2V161.2ZM2563.34 152.2L2564.04 151.493C2558.24 145.688 2555.34 138.546 2555.34 130H2554.34H2553.34C2553.34 139.054 2556.44 146.712 2562.63 152.907L2563.34 152.2ZM2554.34 130L2555.34 130C2555.34 121.04 2558.25 113.918 2564.02 108.531L2563.34 107.8L2562.66 107.069C2556.43 112.882 2553.34 120.56 2553.34 130L2554.34 130ZM2563.34 107.8L2564.04 108.507C2569.85 102.702 2576.99 99.7998 2585.54 99.7998V98.7998V97.7998C2576.48 97.7998 2568.83 100.898 2562.63 107.093L2563.34 107.8ZM207.601 187.601V186.601C196.003 186.601 186.601 196.003 186.601 207.601H187.601H188.601C188.601 197.107 197.107 188.601 207.601 188.601V187.601ZM322.601 207.601H323.601C323.601 196.003 314.199 186.601 302.601 186.601V187.601V188.601C313.094 188.601 321.601 197.107 321.601 207.601H322.601ZM302.601 322.601V323.601C314.199 323.601 323.601 314.199 323.601 302.601H322.601H321.601C321.601 313.094 313.094 321.601 302.601 321.601V322.601ZM322.601 60H323.601C323.601 48.402 314.199 39 302.601 39V40V41C313.094 41 321.601 49.5066 321.601 60H322.601ZM302.601 148.601V149.601C314.199 149.601 323.601 140.199 323.601 128.601H322.601H321.601C321.601 139.094 313.094 147.601 302.601 147.601V148.601ZM148.601 168.601H149.601C149.601 158.107 158.107 149.601 168.601 149.601V148.601V147.601C157.003 147.601 147.601 157.003 147.601 168.601H148.601ZM1405.9 509.2V508.2C1395.41 508.2 1386.9 499.694 1386.9 489.2H1385.9H1384.9C1384.9 500.798 1394.3 510.2 1405.9 510.2V509.2ZM187.601 450.2H186.601C186.601 461.798 196.003 471.2 207.601 471.2V470.2V469.2C197.107 469.2 188.601 460.694 188.601 450.2H187.601ZM2995.71 250V249C2992.29 249 2989.51 246.224 2989.51 242.8H2988.51H2987.51C2987.51 247.329 2991.18 251 2995.71 251V250ZM2995.71 509.2V508.2C2992.29 508.2 2989.51 505.424 2989.51 502H2988.51H2987.51C2987.51 506.529 2991.18 510.2 2995.71 510.2V509.2ZM3108.51 502H3107.51C3107.51 505.424 3104.74 508.2 3101.31 508.2V509.2V510.2C3105.84 510.2 3109.51 506.529 3109.51 502H3108.51ZM2529.14 502H2530.14C2530.14 498.576 2532.91 495.8 2536.34 495.8V494.8V493.8C2531.81 493.8 2528.14 497.471 2528.14 502H2529.14ZM2536.34 509.2V508.2C2532.91 508.2 2530.14 505.424 2530.14 502H2529.14H2528.14C2528.14 506.529 2531.81 510.2 2536.34 510.2V509.2ZM1727.26 264.185L1726.32 263.853C1724.54 268.904 1726.36 274.18 1728.92 278.48L1729.78 277.97L1730.64 277.459C1728.18 273.327 1726.72 268.72 1728.2 264.517L1727.26 264.185ZM2649.14 502H2648.14C2648.14 505.424 2645.36 508.2 2641.94 508.2V509.2V510.2C2646.47 510.2 2650.14 506.529 2650.14 502H2649.14ZM2641.94 494.8V495.8C2645.36 495.8 2648.14 498.576 2648.14 502H2649.14H2650.14C2650.14 497.471 2646.47 493.8 2641.94 493.8V494.8ZM2219.25 235.601V236.601C2229.75 236.601 2238.25 245.107 2238.25 255.601H2239.25H2240.25C2240.25 244.003 2230.85 234.601 2219.25 234.601V235.601ZM2157.65 242.8H2158.65C2158.65 239.376 2161.43 236.601 2164.85 236.601V235.601V234.601C2160.32 234.601 2156.65 238.272 2156.65 242.8H2157.65ZM2164.85 509.2V508.2C2161.43 508.2 2158.65 505.424 2158.65 502H2157.65H2156.65C2156.65 506.529 2160.32 510.2 2164.85 510.2V509.2ZM2277.65 502H2276.65C2276.65 505.424 2273.88 508.2 2270.45 508.2V509.2V510.2C2274.98 510.2 2278.65 506.529 2278.65 502H2277.65ZM2270.45 494.8V495.8C2273.88 495.8 2276.65 498.576 2276.65 502H2277.65H2278.65C2278.65 497.471 2274.98 493.8 2270.45 493.8V494.8ZM1916.4 285.093L1916.16 286.063C1917.34 286.358 1918.55 285.779 1919.08 284.699L1918.18 284.26L1917.28 283.821C1917.16 284.064 1916.9 284.186 1916.65 284.123L1916.4 285.093ZM2466.97 235.601V236.601C2471.06 236.601 2474.37 239.914 2474.37 244H2475.37H2476.37C2476.37 238.809 2472.16 234.601 2466.97 234.601V235.601ZM946.869 234.27L947.816 233.947C941.389 215.101 914.79 214.945 908.144 233.715L909.086 234.049L910.029 234.383C916.042 217.4 940.108 217.541 945.923 234.593L946.869 234.27ZM1915.23 283.591H1914.23C1914.23 284.76 1915.03 285.78 1916.16 286.063L1916.4 285.093L1916.65 284.123C1916.4 284.062 1916.23 283.843 1916.23 283.591H1915.23ZM1833.63 502H1834.63C1834.63 498.576 1837.41 495.8 1840.83 495.8V494.8V493.8C1836.3 493.8 1832.63 497.471 1832.63 502H1833.63ZM381.601 187.601V186.601C370.003 186.601 360.601 196.003 360.601 207.601H361.601H362.601C362.601 197.107 371.107 188.601 381.601 188.601V187.601ZM1840.83 509.2V508.2C1837.41 508.2 1834.63 505.424 1834.63 502H1833.63H1832.63C1832.63 506.529 1836.3 510.2 1840.83 510.2V509.2ZM1384.73 459.707L1384.97 458.737C1383.79 458.442 1382.58 459.022 1382.05 460.101L1382.95 460.54L1383.85 460.979C1383.96 460.737 1384.23 460.615 1384.48 460.677L1384.73 459.707ZM470.2 207.601H471.2C471.2 196.003 461.798 186.601 450.2 186.601V187.601V188.601C460.694 188.601 469.2 197.107 469.2 207.601H470.2ZM1953.63 502H1952.63C1952.63 505.424 1949.85 508.2 1946.43 508.2V509.2V510.2C1950.96 510.2 1954.63 506.529 1954.63 502H1953.63ZM1385.9 461.209H1386.9C1386.9 460.04 1386.1 459.02 1384.97 458.737L1384.73 459.707L1384.48 460.677C1384.73 460.738 1384.9 460.958 1384.9 461.209H1385.9ZM450.2 470.2V471.2C461.798 471.2 471.2 461.798 471.2 450.2H470.2H469.2C469.2 460.694 460.694 469.2 450.2 469.2V470.2ZM1946.43 494.8V495.8C1949.85 495.8 1952.63 498.576 1952.63 502H1953.63H1954.63C1954.63 497.471 1950.96 493.8 1946.43 493.8V494.8ZM3071.29 285.093L3071.04 286.063C3072.22 286.358 3073.44 285.779 3073.96 284.699L3073.06 284.26L3072.17 283.821C3072.05 284.064 3071.78 284.186 3071.53 284.123L3071.29 285.093ZM1995.63 502H1996.63C1996.63 498.576 1999.41 495.8 2002.83 495.8V494.8V493.8C1998.3 493.8 1994.63 497.471 1994.63 502H1995.63ZM3070.11 283.591H3069.11C3069.11 284.76 3069.91 285.78 3071.04 286.063L3071.29 285.093L3071.53 284.123C3071.28 284.062 3071.11 283.843 3071.11 283.591H3070.11ZM2002.83 509.2V508.2C1999.41 508.2 1996.63 505.424 1996.63 502H1995.63H1994.63C1994.63 506.529 1998.3 510.2 2002.83 510.2V509.2ZM3050.11 235.601V236.601C3060.61 236.601 3069.11 245.107 3069.11 255.601H3070.11H3071.11C3071.11 244.003 3061.71 234.601 3050.11 234.601V235.601ZM2115.63 502H2114.63C2114.63 505.424 2111.85 508.2 2108.43 508.2V509.2V510.2C2112.96 510.2 2116.63 506.529 2116.63 502H2115.63ZM2988.51 242.8H2989.51C2989.51 239.376 2992.29 236.601 2995.71 236.601V235.601V234.601C2991.18 234.601 2987.51 238.272 2987.51 242.8H2988.51ZM2108.43 494.8V495.8C2111.85 495.8 2114.63 498.576 2114.63 502H2115.63H2116.63C2116.63 497.471 2112.96 493.8 2108.43 493.8V494.8ZM945.95 82V83C950.035 83 953.667 85.5987 954.986 89.4647L955.933 89.1418L956.879 88.8189C955.284 84.143 950.891 81 945.95 81V82ZM2988.51 502H2989.51C2989.51 498.576 2992.29 495.8 2995.71 495.8V494.8V493.8C2991.18 493.8 2987.51 497.471 2987.51 502H2988.51ZM936.007 89.0262L936.95 89.3601C938.3 85.5479 941.906 83 945.95 83V82V81C941.059 81 936.698 84.0816 935.065 88.6923L936.007 89.0262ZM900.096 499.6H899.096C899.096 504.35 895.245 508.2 890.496 508.2V509.2V510.2C896.35 510.2 901.096 505.454 901.096 499.6H900.096ZM890.496 490V491C895.245 491 899.096 494.85 899.096 499.6H900.096H901.096C901.096 493.746 896.35 489 890.496 489V490ZM1002.01 395.336L1002.95 395.003C999.986 386.611 992.052 381 983.152 381V382V383C991.204 383 998.383 388.077 1001.07 395.669L1002.01 395.336ZM1 21H2C2 10.5066 10.5066 2 21 2V1V0C9.40202 0 0 9.40202 0 21H1ZM2590.74 235.601V236.601C2601.23 236.601 2609.74 245.107 2609.74 255.601H2610.74H2611.74C2611.74 244.003 2602.34 234.601 2590.74 234.601V235.601ZM21 361.601V360.601C10.5066 360.601 2 352.094 2 341.601H1H0C0 353.199 9.40202 362.601 21 362.601V361.601ZM2529.14 242.8H2530.14C2530.14 239.376 2532.91 236.601 2536.34 236.601V235.601V234.601C2531.81 234.601 2528.14 238.272 2528.14 242.8H2529.14ZM148.601 381.601H149.601C149.601 370.003 140.199 360.601 128.601 360.601V361.601V362.601C139.094 362.601 147.601 371.107 147.601 381.601H148.601ZM2164.85 250V249C2161.43 249 2158.65 246.224 2158.65 242.8H2157.65H2156.65C2156.65 247.329 2160.32 251 2164.85 251V250ZM2392.57 120.4V121.4C2396.66 121.4 2399.97 124.714 2399.97 128.801H2400.97H2401.97C2401.97 123.609 2397.76 119.4 2392.57 119.4V120.4ZM2384.17 128.801H2385.17C2385.17 124.714 2388.49 121.4 2392.57 121.4V120.4V119.4C2387.38 119.4 2383.17 123.609 2383.17 128.801H2384.17ZM2313.37 244H2314.37C2314.37 239.914 2317.69 236.601 2321.77 236.601V235.601V234.601C2316.58 234.601 2312.37 238.809 2312.37 244H2313.37ZM3101.31 494.8V495.8C3104.74 495.8 3107.51 498.576 3107.51 502H3108.51H3109.51C3109.51 497.471 3105.84 493.8 3101.31 493.8V494.8ZM735.695 499.6H736.695C736.695 494.85 740.546 491 745.295 491V490V489C739.441 489 734.695 493.746 734.695 499.6H735.695ZM2321.77 252.4V251.4C2317.69 251.4 2314.37 248.087 2314.37 244H2313.37H2312.37C2312.37 249.192 2316.58 253.4 2321.77 253.4V252.4ZM745.295 509.2V508.2C740.546 508.2 736.695 504.35 736.695 499.6H735.695H734.695C734.695 505.454 739.441 510.2 745.295 510.2V509.2ZM2157.65 502H2158.65C2158.65 498.576 2161.43 495.8 2164.85 495.8V494.8V493.8C2160.32 493.8 2156.65 497.471 2156.65 502H2157.65ZM2357.77 272.4H2358.77C2358.77 260.802 2349.37 251.4 2337.77 251.4V252.4V253.4C2348.27 253.4 2356.77 261.907 2356.77 272.4H2357.77ZM60 40V39C48.402 39 39 48.402 39 60H40H41C41 49.5066 49.5066 41 60 41V40ZM2475.31 423.412L2476.31 423.435C2476.37 420.978 2478.35 419 2480.77 419V418V417C2477.23 417 2474.39 419.882 2474.31 423.388L2475.31 423.412ZM1840.83 250V249C1837.41 249 1834.63 246.224 1834.63 242.8H1833.63H1832.63C1832.63 247.329 1836.3 251 1840.83 251V250ZM1576.81 522.071H1577.81C1577.81 521.081 1577.1 520.244 1576.16 520.036L1575.95 521.012L1575.73 521.989C1575.75 521.994 1575.77 522.006 1575.79 522.024C1575.8 522.042 1575.81 522.058 1575.81 522.071H1576.81ZM3157.71 509.2V508.2C3154.29 508.2 3151.51 505.424 3151.51 502H3150.51H3149.51C3149.51 506.529 3153.18 510.2 3157.71 510.2V509.2ZM1588.41 419.377L1588.59 420.361C1589.63 420.172 1590.41 419.264 1590.41 418.191H1589.41H1588.41C1588.41 418.285 1588.34 418.374 1588.23 418.393L1588.41 419.377ZM967.296 499.6H968.296C968.296 494.85 972.146 491 976.896 491V490V489C971.042 489 966.296 493.746 966.296 499.6H967.296ZM962.745 362.8V363.8C977.139 363.8 987.267 349.647 982.621 336.022L981.675 336.345L980.728 336.668C984.931 348.994 975.769 361.8 962.745 361.8V362.8ZM2420.97 235.601V234.601C2410.48 234.601 2401.97 226.094 2401.97 215.601H2400.97H2399.97C2399.97 227.199 2409.37 236.601 2420.97 236.601V235.601ZM1575.89 523.143L1576.05 524.13C1577.05 523.968 1577.81 523.104 1577.81 522.071H1576.81H1575.81C1575.81 522.106 1575.78 522.148 1575.73 522.156L1575.89 523.143ZM3270.51 502H3269.51C3269.51 505.424 3266.74 508.2 3263.31 508.2V509.2V510.2C3267.84 510.2 3271.51 506.529 3271.51 502H3270.51ZM976.896 509.2V508.2C972.146 508.2 968.296 504.35 968.296 499.6H967.296H966.296C966.296 505.454 971.042 510.2 976.896 510.2V509.2ZM891.795 362.8V361.8C878.677 361.8 869.506 348.823 873.885 336.458L872.942 336.124L871.999 335.79C867.16 349.457 877.297 363.8 891.795 363.8V362.8ZM1247.1 235.601V236.601C1257.59 236.601 1266.1 245.107 1266.1 255.601H1267.1H1268.1C1268.1 244.003 1258.7 234.601 1247.1 234.601V235.601ZM3263.31 494.8V495.8C3266.74 495.8 3269.51 498.576 3269.51 502H3270.51H3271.51C3271.51 497.471 3267.84 493.8 3263.31 493.8V494.8ZM1153.3 499.6H1152.3C1152.3 504.35 1148.45 508.2 1143.7 508.2V509.2V510.2C1149.55 510.2 1154.3 505.454 1154.3 499.6H1153.3ZM3150.51 502H3151.51C3151.51 498.576 3154.29 495.8 3157.71 495.8V494.8V493.8C3153.18 493.8 3149.51 497.471 3149.51 502H3150.51ZM1589.41 418.191H1590.41C1590.41 417.31 1589.88 416.519 1589.08 416.17L1588.68 417.086L1588.28 418.003C1588.36 418.037 1588.41 418.113 1588.41 418.191H1589.41ZM1185.5 242.8H1186.5C1186.5 239.376 1189.27 236.601 1192.7 236.601V235.601V234.601C1188.17 234.601 1184.5 238.272 1184.5 242.8H1185.5ZM2536.34 250V249C2532.91 249 2530.14 246.224 2530.14 242.8H2529.14H2528.14C2528.14 247.329 2531.81 251 2536.34 251V250ZM168.601 509.2V508.2C158.107 508.2 149.601 499.694 149.601 489.2H148.601H147.601C147.601 500.798 157.003 510.2 168.601 510.2V509.2ZM1467.5 502H1466.5C1466.5 505.424 1463.72 508.2 1460.3 508.2V509.2V510.2C1464.83 510.2 1468.5 506.529 1468.5 502H1467.5ZM207.601 361.601V360.601C196.003 360.601 186.601 370.003 186.601 381.601H187.601H188.601C188.601 371.107 197.107 362.601 207.601 362.601V361.601ZM509.2 489.2H508.2C508.2 499.694 499.694 508.2 489.2 508.2V509.2V510.2C500.798 510.2 510.2 500.798 510.2 489.2H509.2ZM1460.3 494.8V495.8C1463.72 495.8 1466.5 498.576 1466.5 502H1467.5H1468.5C1468.5 497.471 1464.83 493.8 1460.3 493.8V494.8ZM341.601 361.601V362.601C353.199 362.601 362.601 353.199 362.601 341.601H361.601H360.601C360.601 352.094 352.094 360.601 341.601 360.601V361.601ZM489.2 148.601V149.601C499.694 149.601 508.2 158.107 508.2 168.601H509.2H510.2C510.2 157.003 500.798 147.601 489.2 147.601V148.601ZM381.601 148.601V147.601C371.107 147.601 362.601 139.094 362.601 128.601H361.601H360.601C360.601 140.199 370.003 149.601 381.601 149.601V148.601ZM207.601 322.601V321.601C197.107 321.601 188.601 313.094 188.601 302.601H187.601H186.601C186.601 314.199 196.003 323.601 207.601 323.601V322.601ZM2480.77 418V419C2483.21 419 2485.17 420.972 2485.12 423.38L2486.12 423.401L2487.12 423.422C2487.19 419.866 2484.3 417 2480.77 417V418ZM1409.1 235.601V236.601C1419.59 236.601 1428.1 245.107 1428.1 255.601H1429.1H1430.1C1430.1 244.003 1420.7 234.601 1409.1 234.601V235.601ZM870.976 382V381C862.108 381 854.196 386.57 851.206 394.919L852.147 395.256L853.089 395.593C855.794 388.04 862.953 383 870.976 383V382ZM1699.21 247.601L1698.71 248.469C1702.75 250.779 1708.14 250.976 1713.19 249.855C1718.25 248.731 1723.16 246.241 1726.29 242.925L1725.57 242.239L1724.84 241.552C1722.05 244.511 1717.53 246.843 1712.76 247.902C1707.98 248.964 1703.15 248.704 1699.7 246.732L1699.21 247.601ZM1143.7 490V491C1148.45 491 1152.3 494.85 1152.3 499.6H1153.3H1154.3C1154.3 493.746 1149.55 489 1143.7 489V490ZM1192.7 250V249C1189.27 249 1186.5 246.224 1186.5 242.8H1185.5H1184.5C1184.5 247.329 1188.17 251 1192.7 251V250ZM1833.63 242.8H1834.63C1834.63 239.376 1837.41 236.601 1840.83 236.601V235.601V234.601C1836.3 234.601 1832.63 238.272 1832.63 242.8H1833.63ZM60 322.601V321.601C49.5066 321.601 41 313.094 41 302.601H40H39C39 314.199 48.402 323.601 60 323.601V322.601ZM2475.37 244H2474.37C2474.37 248.087 2471.06 251.4 2466.97 251.4V252.4V253.4C2472.16 253.4 2476.37 249.192 2476.37 244H2475.37ZM1354.7 250V249C1351.27 249 1348.5 246.224 1348.5 242.8H1347.5H1346.5C1346.5 247.329 1350.17 251 1354.7 251V250ZM341.601 1V2C352.094 2 360.601 10.5066 360.601 21H361.601H362.601C362.601 9.40202 353.199 0 341.601 0V1ZM1895.23 235.601V236.601C1905.72 236.601 1914.23 245.107 1914.23 255.601H1915.23H1916.23C1916.23 244.003 1906.83 234.601 1895.23 234.601V235.601ZM128.601 322.601V323.601C140.199 323.601 149.601 314.199 149.601 302.601H148.601H147.601C147.601 313.094 139.094 321.601 128.601 321.601V322.601ZM2420.97 252.4V251.4C2409.37 251.4 2399.97 260.802 2399.97 272.4H2400.97H2401.97C2401.97 261.907 2410.48 253.4 2420.97 253.4V252.4ZM1347.5 242.8H1348.5C1348.5 239.376 1351.27 236.601 1354.7 236.601V235.601V234.601C1350.17 234.601 1346.5 238.272 1346.5 242.8H1347.5Z" fill="black" mask="url(#path-1-outside-1_6838_7)"/>
</svg>
