<svg width="65" height="16" viewBox="0 0 65 16" fill="none" xmlns="http://www.w3.org/2000/svg">
<path d="M0 13H10V3H0V13Z" fill="#1A1A1A"/>
<circle cx="5" cy="5" r="5" transform="matrix(1 0 0 -1 0 13)" fill="url(#paint0_radial_6623_11)"/>
<path d="M13.324 13V12.88H13.48C13.664 12.88 13.828 12.86 13.972 12.82C14.124 12.78 14.244 12.7 14.332 12.58C14.42 12.452 14.464 12.264 14.464 12.016V6.688H13.372V6.568H14.464V6.208C14.464 5.712 14.564 5.276 14.764 4.9C14.972 4.524 15.288 4.232 15.712 4.024C16.136 3.808 16.676 3.7 17.332 3.7C17.708 3.7 18.036 3.724 18.316 3.772C18.596 3.82 18.828 3.888 19.012 3.976C19.196 4.064 19.336 4.168 19.432 4.288C19.528 4.408 19.576 4.544 19.576 4.696C19.576 4.928 19.476 5.12 19.276 5.272C19.076 5.416 18.812 5.488 18.484 5.488C18.484 5.184 18.444 4.908 18.364 4.66C18.284 4.412 18.144 4.212 17.944 4.06C17.752 3.908 17.48 3.832 17.128 3.832C16.72 3.832 16.404 3.932 16.18 4.132C15.956 4.332 15.8 4.612 15.712 4.972C15.632 5.324 15.592 5.74 15.592 6.22V6.568H19.66V12.016C19.66 12.264 19.704 12.452 19.792 12.58C19.88 12.7 20 12.78 20.152 12.82C20.304 12.86 20.468 12.88 20.644 12.88H20.8V13H17.512V12.88H17.548C17.724 12.88 17.884 12.864 18.028 12.832C18.18 12.792 18.3 12.716 18.388 12.604C18.484 12.484 18.532 12.308 18.532 12.076V6.688H15.592V12.016C15.592 12.264 15.636 12.452 15.724 12.58C15.812 12.7 15.932 12.78 16.084 12.82C16.236 12.86 16.4 12.88 16.576 12.88H16.792V13H13.324ZM23.729 15.88C22.897 15.88 22.273 15.728 21.857 15.424C21.441 15.128 21.233 14.732 21.233 14.236C21.233 13.956 21.297 13.712 21.425 13.504C21.553 13.304 21.749 13.144 22.013 13.024C22.277 12.904 22.609 12.844 23.009 12.844C22.697 12.748 22.461 12.592 22.301 12.376C22.149 12.16 22.073 11.932 22.073 11.692C22.073 11.46 22.149 11.24 22.301 11.032C22.461 10.816 22.705 10.652 23.033 10.54C22.649 10.404 22.341 10.18 22.109 9.868C21.885 9.548 21.773 9.148 21.773 8.668C21.773 7.98 21.961 7.44 22.337 7.048C22.713 6.648 23.277 6.448 24.029 6.448C24.309 6.448 24.561 6.484 24.785 6.556C25.009 6.62 25.209 6.716 25.385 6.844C25.465 6.756 25.561 6.664 25.673 6.568C25.793 6.464 25.929 6.376 26.081 6.304C26.233 6.232 26.397 6.196 26.573 6.196C26.805 6.196 26.977 6.26 27.089 6.388C27.209 6.508 27.269 6.656 27.269 6.832C27.269 6.992 27.217 7.124 27.113 7.228C27.017 7.332 26.857 7.384 26.633 7.384C26.633 7.128 26.589 6.94 26.501 6.82C26.421 6.7 26.289 6.64 26.105 6.64C26.001 6.64 25.905 6.66 25.817 6.7C25.729 6.732 25.617 6.804 25.481 6.916C25.713 7.108 25.889 7.352 26.009 7.648C26.129 7.944 26.189 8.272 26.189 8.632C26.189 9.224 26.009 9.716 25.649 10.108C25.297 10.5 24.757 10.696 24.029 10.696C23.877 10.696 23.729 10.688 23.585 10.672C23.449 10.648 23.317 10.62 23.189 10.588C22.997 10.668 22.865 10.764 22.793 10.876C22.721 10.988 22.685 11.112 22.685 11.248C22.685 11.456 22.757 11.608 22.901 11.704C23.053 11.8 23.277 11.848 23.573 11.848H24.929C25.409 11.848 25.793 11.928 26.081 12.088C26.369 12.24 26.577 12.452 26.705 12.724C26.841 12.988 26.909 13.292 26.909 13.636C26.909 14.324 26.649 14.868 26.129 15.268C25.617 15.676 24.817 15.88 23.729 15.88ZM23.825 15.76C24.329 15.76 24.745 15.696 25.073 15.568C25.401 15.448 25.645 15.268 25.805 15.028C25.965 14.788 26.045 14.488 26.045 14.128C26.045 13.712 25.933 13.404 25.709 13.204C25.493 13.012 25.157 12.916 24.701 12.916H23.405C23.189 12.916 22.981 12.956 22.781 13.036C22.589 13.116 22.429 13.256 22.301 13.456C22.181 13.656 22.121 13.932 22.121 14.284C22.121 14.612 22.189 14.884 22.325 15.1C22.461 15.324 22.653 15.488 22.901 15.592C23.157 15.704 23.465 15.76 23.825 15.76ZM23.993 10.576C24.257 10.576 24.465 10.508 24.617 10.372C24.777 10.236 24.889 10.024 24.953 9.736C25.025 9.448 25.061 9.08 25.061 8.632C25.061 8.16 25.025 7.772 24.953 7.468C24.881 7.164 24.765 6.94 24.605 6.796C24.453 6.644 24.245 6.568 23.981 6.568C23.725 6.568 23.517 6.648 23.357 6.808C23.197 6.96 23.081 7.188 23.009 7.492C22.937 7.796 22.901 8.18 22.901 8.644C22.901 9.084 22.937 9.448 23.009 9.736C23.089 10.024 23.209 10.236 23.369 10.372C23.529 10.508 23.737 10.576 23.993 10.576ZM30.8101 13.12C30.1061 13.12 29.5781 12.936 29.2261 12.568C28.8821 12.192 28.7101 11.592 28.7101 10.768V7.768C28.7101 7.496 28.6781 7.284 28.6141 7.132C28.5581 6.972 28.4581 6.86 28.3141 6.796C28.1701 6.724 27.9741 6.688 27.7261 6.688H27.6901V6.568H29.8381V10.828C29.8381 11.34 29.8741 11.752 29.9461 12.064C30.0181 12.368 30.1381 12.592 30.3061 12.736C30.4821 12.88 30.7141 12.952 31.0021 12.952C31.3621 12.952 31.6581 12.86 31.8901 12.676C32.1301 12.484 32.3101 12.208 32.4301 11.848C32.5501 11.48 32.6101 11.04 32.6101 10.528V7.768C32.6101 7.496 32.5781 7.284 32.5141 7.132C32.4581 6.972 32.3581 6.86 32.2141 6.796C32.0701 6.724 31.8741 6.688 31.6261 6.688H31.5901V6.568H33.7381V11.812C33.7381 12.084 33.7661 12.3 33.8221 12.46C33.8861 12.612 33.9901 12.72 34.1341 12.784C34.2781 12.848 34.4741 12.88 34.7221 12.88H34.7581V13H32.6941V11.356H32.6701C32.6061 11.764 32.5021 12.088 32.3581 12.328C32.2221 12.56 32.0621 12.732 31.8781 12.844C31.7021 12.956 31.5181 13.028 31.3261 13.06C31.1421 13.1 30.9701 13.12 30.8101 13.12ZM35.3073 13V12.88H35.4633C35.7033 12.88 35.8953 12.848 36.0393 12.784C36.1833 12.72 36.2873 12.62 36.3513 12.484C36.4153 12.348 36.4473 12.172 36.4473 11.956V7.624C36.4473 7.4 36.4153 7.22 36.3513 7.084C36.2873 6.948 36.1833 6.848 36.0393 6.784C35.8953 6.72 35.7033 6.688 35.4633 6.688H35.4272V6.568H37.5633V7.768H37.5873C37.6433 7.56 37.7273 7.356 37.8393 7.156C37.9513 6.956 38.1193 6.788 38.3433 6.652C38.5753 6.516 38.8833 6.448 39.2673 6.448C39.6673 6.448 39.9713 6.528 40.1793 6.688C40.3953 6.84 40.5033 7.056 40.5033 7.336C40.5033 7.576 40.4153 7.776 40.2393 7.936C40.0713 8.096 39.7873 8.176 39.3873 8.176C39.3873 7.84 39.3473 7.58 39.2673 7.396C39.1953 7.204 39.0953 7.068 38.9673 6.988C38.8473 6.908 38.7153 6.868 38.5713 6.868C38.3393 6.868 38.1553 6.952 38.0193 7.12C37.8833 7.28 37.7833 7.492 37.7193 7.756C37.6553 8.012 37.6153 8.28 37.5993 8.56C37.5833 8.832 37.5753 9.084 37.5753 9.316V11.896C37.5753 12.136 37.6073 12.328 37.6713 12.472C37.7353 12.616 37.8393 12.72 37.9833 12.784C38.1353 12.848 38.3273 12.88 38.5592 12.88H38.7153V13H35.3073ZM43.0253 13.12C42.6173 13.12 42.2653 13.048 41.9693 12.904C41.6733 12.76 41.4453 12.556 41.2853 12.292C41.1253 12.028 41.0453 11.712 41.0453 11.344C41.0453 10.728 41.2693 10.268 41.7173 9.964C42.1733 9.66 42.8613 9.492 43.7813 9.46L44.7773 9.424V8.524C44.7773 8.076 44.7533 7.708 44.7053 7.42C44.6573 7.132 44.5533 6.92 44.3933 6.784C44.2333 6.64 43.9893 6.568 43.6613 6.568C43.3573 6.568 43.1253 6.632 42.9653 6.76C42.8053 6.888 42.6973 7.084 42.6413 7.348C42.5933 7.604 42.5693 7.94 42.5693 8.356C42.2333 8.356 41.9773 8.3 41.8013 8.188C41.6333 8.076 41.5493 7.892 41.5493 7.636C41.5493 7.348 41.6453 7.12 41.8373 6.952C42.0373 6.776 42.3013 6.648 42.6293 6.568C42.9573 6.488 43.3173 6.448 43.7093 6.448C44.4453 6.448 44.9933 6.604 45.3533 6.916C45.7213 7.228 45.9053 7.764 45.9053 8.524V12.112C45.9053 12.304 45.9293 12.456 45.9773 12.568C46.0253 12.68 46.1053 12.76 46.2173 12.808C46.3293 12.856 46.4733 12.88 46.6493 12.88H46.6853V13H44.8733V11.74H44.8493C44.7693 12.06 44.6413 12.324 44.4653 12.532C44.2893 12.732 44.0773 12.88 43.8293 12.976C43.5893 13.072 43.3213 13.12 43.0253 13.12ZM43.2653 12.952C43.5613 12.952 43.8213 12.876 44.0453 12.724C44.2773 12.572 44.4573 12.368 44.5853 12.112C44.7133 11.856 44.7773 11.58 44.7773 11.284V9.556L44.0093 9.592C43.5533 9.608 43.1933 9.68 42.9293 9.808C42.6733 9.936 42.4893 10.136 42.3773 10.408C42.2653 10.672 42.2093 11.028 42.2093 11.476C42.2093 11.796 42.2453 12.068 42.3173 12.292C42.3973 12.508 42.5173 12.672 42.6773 12.784C42.8373 12.896 43.0333 12.952 43.2653 12.952ZM51.503 13.12C50.983 13.12 50.571 12.972 50.267 12.676C49.963 12.38 49.755 11.924 49.643 11.308H49.619V13H47.423V12.88H47.519C47.759 12.88 47.951 12.848 48.095 12.784C48.239 12.72 48.343 12.62 48.407 12.484C48.471 12.348 48.503 12.172 48.503 11.956V4.936C48.503 4.712 48.471 4.532 48.407 4.396C48.343 4.26 48.239 4.16 48.095 4.096C47.951 4.032 47.759 4 47.519 4H47.483V3.88H49.631V6.088C49.631 6.224 49.631 6.408 49.631 6.64C49.631 6.864 49.627 7.116 49.619 7.396C49.619 7.668 49.615 7.948 49.607 8.236H49.631C49.743 7.628 49.951 7.18 50.255 6.892C50.567 6.596 50.991 6.448 51.527 6.448C52.311 6.448 52.903 6.728 53.303 7.288C53.711 7.848 53.915 8.676 53.915 9.772C53.915 10.5 53.823 11.116 53.639 11.62C53.455 12.116 53.183 12.492 52.823 12.748C52.471 12.996 52.031 13.12 51.503 13.12ZM51.299 12.94C51.651 12.94 51.931 12.836 52.139 12.628C52.355 12.412 52.511 12.072 52.607 11.608C52.703 11.136 52.751 10.52 52.751 9.76C52.751 9.008 52.703 8.404 52.607 7.948C52.511 7.484 52.355 7.148 52.139 6.94C51.923 6.732 51.639 6.628 51.287 6.628C50.703 6.628 50.279 6.892 50.015 7.42C49.759 7.948 49.631 8.732 49.631 9.772C49.631 10.484 49.691 11.076 49.811 11.548C49.931 12.02 50.115 12.372 50.363 12.604C50.611 12.828 50.923 12.94 51.299 12.94ZM54.7341 13V12.88H54.8901C55.1301 12.88 55.3221 12.848 55.4661 12.784C55.6101 12.72 55.7141 12.62 55.7781 12.484C55.8421 12.348 55.8741 12.172 55.8741 11.956V4.936C55.8741 4.712 55.8421 4.532 55.7781 4.396C55.7141 4.26 55.6101 4.16 55.4661 4.096C55.3221 4.032 55.1301 4 54.8901 4H54.7341V3.88H57.0021V11.896C57.0021 12.136 57.0341 12.328 57.0981 12.472C57.1621 12.616 57.2661 12.72 57.4101 12.784C57.5541 12.848 57.7461 12.88 57.9861 12.88H58.1421V13H54.7341ZM61.797 13.12C60.901 13.12 60.201 12.832 59.697 12.256C59.201 11.68 58.953 10.872 58.953 9.832C58.953 8.712 59.185 7.868 59.649 7.3C60.113 6.732 60.769 6.448 61.617 6.448C62.393 6.448 63.001 6.688 63.441 7.168C63.889 7.648 64.113 8.364 64.113 9.316V9.604H60.117C60.125 10.42 60.185 11.076 60.297 11.572C60.409 12.068 60.589 12.432 60.837 12.664C61.093 12.888 61.425 13 61.833 13C62.137 13 62.405 12.944 62.637 12.832C62.877 12.72 63.077 12.556 63.237 12.34C63.397 12.116 63.505 11.844 63.561 11.524C63.657 11.54 63.729 11.588 63.777 11.668C63.825 11.748 63.849 11.832 63.849 11.92C63.849 12.08 63.773 12.256 63.621 12.448C63.469 12.632 63.241 12.792 62.937 12.928C62.641 13.056 62.261 13.12 61.797 13.12ZM62.901 9.484C62.901 8.78 62.857 8.216 62.769 7.792C62.681 7.368 62.541 7.06 62.349 6.868C62.157 6.668 61.905 6.568 61.593 6.568C61.265 6.568 60.997 6.668 60.789 6.868C60.581 7.06 60.425 7.368 60.321 7.792C60.217 8.216 60.149 8.78 60.117 9.484H62.901Z" fill="black"/>
<defs>
<radialGradient id="paint0_radial_6623_11" cx="0" cy="0" r="1" gradientUnits="userSpaceOnUse" gradientTransform="translate(5 5) rotate(90) scale(5)">
<stop/>
<stop offset="0.5" stop-color="#3A3A3A"/>
<stop offset="0.9999" stop-color="#181818"/>
</radialGradient>
</defs>
</svg>
