<svg width="134" height="134" viewBox="0 0 134 134" fill="none" xmlns="http://www.w3.org/2000/svg">
<path d="M13.5 133.5H0V120H13.5V133.5ZM73.5 133.5H60V120H73.5V133.5ZM133.5 133.5H120V120H133.5V133.5ZM43.5 103.5H30V90H43.5V103.5ZM73.5 103.5H60V90H73.5V103.5ZM103.5 103.5H90V90H103.5V103.5ZM13.5 73.5H0V60H13.5V73.5ZM43.5 73.5H30V60H43.5V73.5ZM73.5 73.5H60V60H73.5V73.5ZM103.5 73.5H90V60H103.5V73.5ZM133.5 73.5H120V60H133.5V73.5ZM43.5 43.5H30V30H43.5V43.5ZM73.5 43.5H60V30H73.5V43.5ZM103.5 43.5H90V30H103.5V43.5ZM13.5 13.5H0V0H13.5V13.5ZM73.5 13.5H60V0H73.5V13.5ZM133.5 13.5H120V0H133.5V13.5Z" fill="black"/>
</svg>
