<svg width="114" height="23" viewBox="0 0 114 23" fill="none" xmlns="http://www.w3.org/2000/svg">
<path d="M98.9482 5.85547C99.4921 5.85547 99.94 6.01607 100.292 6.33594C100.644 6.65594 100.82 7.07198 100.82 7.58398C100.82 7.96788 100.724 8.27957 100.532 8.51953C100.356 8.75952 100.116 8.87987 99.8125 8.87988C99.5565 8.87988 99.3326 8.8155 99.1406 8.6875C98.9487 8.5435 98.8525 8.31959 98.8525 8.01562C98.8526 7.66376 98.9888 7.40801 99.2607 7.24805C99.3565 7.1842 99.4201 7.128 99.4521 7.08008C99.5001 7.01608 99.5244 6.92743 99.5244 6.81543C99.5243 6.68766 99.4599 6.59224 99.332 6.52832C99.2041 6.46437 99.0519 6.43164 98.876 6.43164C98.5882 6.43177 98.3239 6.55212 98.084 6.79199C97.8602 7.01593 97.7322 7.28011 97.7002 7.58398C98.1482 8.20798 98.3721 8.94399 98.3721 9.79199C98.3721 10.592 98.1809 11.2963 97.7969 11.9043C97.4129 12.4962 96.8923 12.9515 96.2363 13.2715C95.5964 13.5755 94.8845 13.7275 94.1006 13.7275C93.1886 13.7275 92.3723 13.8563 91.6523 14.1123C90.9485 14.3523 90.5967 14.76 90.5967 15.3359C90.5967 15.6399 90.7329 15.848 91.0049 15.96C91.2769 16.0718 91.6531 16.1279 92.1328 16.1279C92.4686 16.1279 92.7403 16.1195 92.9482 16.1035C93.1402 16.0875 93.3884 16.0801 93.6924 16.0801H96.1641C97.1881 16.0801 98.0444 16.3599 98.7324 16.9199C99.4204 17.4639 99.7646 18.2718 99.7646 19.3438C99.7646 20.4638 99.2842 21.3201 98.3242 21.9121C97.3802 22.504 96.1319 22.7998 94.5801 22.7998C93.1723 22.7998 91.9565 22.5758 90.9326 22.1279C89.9086 21.6799 89.3965 20.9756 89.3965 20.0156C89.3966 19.4237 89.6288 18.904 90.0928 18.4561C90.5567 18.0082 91.1082 17.7357 91.748 17.6396V17.5684C90.3403 17.2644 89.6368 16.6719 89.6367 15.792C89.6367 15.136 89.8849 14.6239 90.3809 14.2559C90.8927 13.8721 91.5163 13.6163 92.252 13.4883V13.416C91.5802 13.128 91.0043 12.696 90.5244 12.1201C90.0604 11.5281 89.8281 10.7519 89.8281 9.79199C89.8281 8.97599 90.0287 8.27169 90.4287 7.67969C90.8287 7.08786 91.3484 6.63989 91.9883 6.33594C92.6443 6.01594 93.3486 5.85547 94.1006 5.85547C94.5645 5.85549 95.0208 5.93572 95.4688 6.0957C95.9326 6.23969 96.3246 6.41606 96.6445 6.62402C96.9801 6.81576 97.1958 6.97561 97.292 7.10352C97.436 6.68768 97.6684 6.37594 97.9883 6.16797C98.3082 5.96001 98.6283 5.85551 98.9482 5.85547ZM94.2441 17.7119C93.2203 17.7119 92.332 17.8799 91.5801 18.2158C90.8283 18.5678 90.4522 19.1519 90.4521 19.9678C90.4521 20.7198 90.8766 21.2795 91.7246 21.6475C92.5725 22.0314 93.5242 22.2236 94.5801 22.2236C95.7321 22.2236 96.7405 22.0156 97.6045 21.5996C98.4683 21.1996 98.9003 20.5119 98.9004 19.5361C98.9004 19.0402 98.7483 18.6082 98.4443 18.2402C98.1563 17.8882 97.6442 17.7119 96.9082 17.7119H94.2441ZM44.4365 5.85547C45.3164 5.8555 46.1245 6.1196 46.8604 6.64746C47.5964 7.15946 48.1719 7.85633 48.5879 8.73633C49.0198 9.61628 49.2363 10.5763 49.2363 11.6162C49.2363 12.6561 49.0198 13.6162 48.5879 14.4961C48.1719 15.3758 47.5962 16.0795 46.8604 16.6074C46.1244 17.1194 45.3165 17.3759 44.4365 17.376C43.5565 17.376 42.7487 17.1194 42.0127 16.6074C41.2768 16.0795 40.6927 15.3759 40.2607 14.4961C39.8448 13.6162 39.6368 12.6561 39.6367 11.6162C39.6367 10.5763 39.8448 9.61627 40.2607 8.73633C40.6927 7.85633 41.2767 7.15946 42.0127 6.64746C42.7486 6.11966 43.5567 5.85547 44.4365 5.85547ZM66.042 5.85547C67.0179 5.85547 67.8184 6.11958 68.4424 6.64746C69.0664 7.17546 69.5141 7.84806 69.7861 8.66406C70.0741 9.46399 70.2187 10.2878 70.2188 11.1357C70.2188 11.3116 70.1626 11.4321 70.0508 11.4961C69.9388 11.5441 69.7465 11.5683 69.4746 11.5684H63.498C63.4981 13.168 63.722 14.4399 64.1699 15.3838C64.6339 16.3278 65.3868 16.7998 66.4268 16.7998C67.1626 16.7997 67.8504 16.5198 68.4902 15.96C69.1462 15.4 69.5623 14.5278 69.7383 13.3438H70.3145C70.2185 14.5117 69.8107 15.4801 69.0908 16.248C68.3868 17 67.4661 17.376 66.3301 17.376C64.8423 17.3759 63.6424 16.872 62.7305 15.8643C61.8345 14.8563 61.3867 13.456 61.3867 11.6641C61.3867 10.6401 61.5863 9.68762 61.9863 8.80762C62.3863 7.91172 62.9386 7.19983 63.6426 6.67188C64.3624 6.12802 65.1622 5.85555 66.042 5.85547ZM75.7373 5.85547C76.2012 5.85547 76.6333 5.93577 77.0332 6.0957C77.4492 6.2397 77.7934 6.41602 78.0654 6.62402C78.4174 6.87999 78.6814 7.0078 78.8574 7.00781C79.0653 7.00781 79.1932 6.86396 79.2412 6.57617L79.2891 6.0957H79.7217V9.74414H79.2891L78.9531 8.9043C78.5851 7.99234 78.0972 7.35238 77.4893 6.98438C76.8974 6.61646 76.3057 6.43173 75.7139 6.43164C75.1219 6.43164 74.633 6.58369 74.249 6.8877C73.8651 7.17569 73.6738 7.58438 73.6738 8.1123C73.6739 8.57611 73.8577 8.95976 74.2256 9.26367C74.6095 9.55162 75.1293 9.83156 75.7852 10.1035L78.377 11.1836C79.145 11.5036 79.7215 11.8964 80.1055 12.3604C80.4893 12.8083 80.6816 13.44 80.6816 14.2559C80.6816 15.3278 80.3775 16.1198 79.7695 16.6318C79.1615 17.1278 78.3611 17.376 77.3691 17.376C76.7774 17.3759 76.2976 17.2957 75.9297 17.1357C75.5618 16.9758 75.2015 16.7602 74.8496 16.4883C74.7056 16.3763 74.561 16.2802 74.417 16.2002C74.2731 16.1203 74.1451 16.0801 74.0332 16.0801C73.6494 16.0802 73.3852 16.3518 73.2412 16.8955L73.1455 17.376H72.7139V12.624H73.1455L74.0332 14.5195C74.8972 16.0395 76.0176 16.7998 77.3936 16.7998C78.1295 16.7998 78.6734 16.6235 79.0254 16.2715C79.3932 15.9036 79.5771 15.4079 79.5771 14.7842C79.5771 14.4162 79.4335 14.0878 79.1455 13.7998C78.8735 13.4958 78.505 13.2561 78.041 13.0801L75.3057 11.9756C74.4418 11.6236 73.7616 11.2 73.2656 10.7041C72.7696 10.2081 72.5215 9.57562 72.5215 8.80762C72.5215 7.83175 72.8257 7.09556 73.4336 6.59961C74.0415 6.10376 74.8095 5.85549 75.7373 5.85547ZM38.9756 6H38.376C38.376 5.68004 38.3041 5.13601 38.1602 4.36816C38.0322 3.60016 37.7682 2.91171 37.3682 2.30371C36.6962 1.27978 35.752 0.767615 34.5361 0.767578H30.7197C30.4959 0.767624 30.3278 0.823647 30.2158 0.935547C30.1198 1.03155 30.0723 1.19202 30.0723 1.41602V7.87207H31.9199C32.7358 7.87207 33.3199 7.43998 33.6719 6.57617C34.0399 5.69617 34.2236 4.77543 34.2236 3.81543H34.8477V12.6963H34.2236C34.2236 11.7363 34.0399 10.824 33.6719 9.95996C33.3199 9.07996 32.7359 8.63965 31.9199 8.63965H30.0723V15.5283C30.0723 15.7679 30.12 15.9596 30.2158 16.1035C30.3278 16.2475 30.4959 16.3203 30.7197 16.3203H32.832V17.0879H25.4883V16.3203H27.2158C27.6478 16.3203 27.8643 16.1039 27.8643 15.6719V1.41602C27.8643 1.2199 27.8212 1.07261 27.7354 0.974609L27.6572 0.896484C27.5592 0.810669 27.4119 0.767578 27.2158 0.767578H25.4883V0H38.8799L38.9756 6ZM57.6865 5.85547C58.2945 5.85547 58.7908 6.03179 59.1748 6.38379C59.5588 6.73578 59.751 7.21624 59.751 7.82422C59.7509 8.17608 59.6221 8.51959 59.3662 8.85547C59.1262 9.19146 58.8146 9.36034 58.4307 9.36035C58.1269 9.36035 57.871 9.27991 57.6631 9.12012C57.4552 8.96018 57.3507 8.73607 57.3506 8.44824C57.3506 8.11224 57.5111 7.82398 57.8311 7.58398C57.9748 7.48816 58.0786 7.40019 58.1426 7.32031C58.2226 7.24031 58.2627 7.13581 58.2627 7.00781C58.2627 6.86391 58.1907 6.75185 58.0469 6.67188C57.9189 6.57587 57.7341 6.52832 57.4941 6.52832C56.9983 6.52848 56.5185 6.7682 56.0547 7.24805C55.6067 7.72804 55.2466 8.35215 54.9746 9.12012C54.7027 9.88794 54.5664 10.6877 54.5664 11.5195V15.9844C54.5665 16.176 54.6067 16.3116 54.6865 16.3916C54.7665 16.4716 54.9027 16.5117 55.0947 16.5117H56.1025V17.0879H51.3027V16.5117H52.3105C52.5025 16.5117 52.6388 16.4716 52.7188 16.3916C52.7985 16.3116 52.8388 16.176 52.8389 15.9844V7.24805C52.8389 7.05608 52.7987 6.91985 52.7188 6.83984C52.6388 6.75984 52.5025 6.71973 52.3105 6.71973H51.3027V6.14355H54.5664V8.54395L54.6631 8.56836C54.9991 7.73636 55.431 7.07961 55.959 6.59961C56.5029 6.10384 57.0787 5.8555 57.6865 5.85547ZM85.8555 15.9844C85.8555 16.176 85.8958 16.3116 85.9756 16.3916C86.0556 16.4716 86.1918 16.5117 86.3838 16.5117H87.3916V17.0879H82.5918V16.5117H83.5996C83.7916 16.5117 83.9278 16.4716 84.0078 16.3916C84.0876 16.3116 84.1279 16.176 84.1279 15.9844V7.24805C84.1279 7.05608 84.0878 6.91985 84.0078 6.83984C83.9278 6.75984 83.7916 6.71973 83.5996 6.71973H82.5918V6.14355H85.8555V15.9844ZM108.55 5.85547C109.717 5.85556 110.542 6.21576 111.021 6.93555C111.517 7.65555 111.766 8.52032 111.766 9.52832V15.9844C111.766 16.1761 111.806 16.3117 111.886 16.3916C111.966 16.4715 112.101 16.5117 112.293 16.5117H113.302V17.0879H108.501V16.5117H109.51C109.702 16.5117 109.837 16.4715 109.917 16.3916C109.997 16.3117 110.037 16.1761 110.037 15.9844V9.07227C110.037 8.36827 109.893 7.76748 109.605 7.27148C109.333 6.77568 108.861 6.52834 108.189 6.52832C107.63 6.52832 107.126 6.72804 106.678 7.12793C106.246 7.51193 105.902 8.04833 105.646 8.73633C105.406 9.40824 105.285 10.1603 105.285 10.9922V15.9844C105.285 16.176 105.325 16.3116 105.405 16.3916C105.485 16.4716 105.621 16.5117 105.813 16.5117H106.821V17.0879H102.021V16.5117H103.029C103.221 16.5117 103.358 16.4716 103.438 16.3916C103.517 16.3116 103.558 16.176 103.558 15.9844V7.24805C103.558 7.05608 103.517 6.91985 103.438 6.83984C103.358 6.75984 103.221 6.71973 103.029 6.71973H102.021V6.14355H105.285V8.1123L105.382 8.13574C105.75 7.36795 106.205 6.7996 106.749 6.43164C107.293 6.04764 107.894 5.85547 108.55 5.85547ZM44.4365 6.43164C43.4765 6.43164 42.7881 6.8878 42.3721 7.7998C41.9561 8.6958 41.748 9.96824 41.748 11.6162C41.7481 13.2641 41.9561 14.5441 42.3721 15.4561C42.7881 16.352 43.4765 16.7998 44.4365 16.7998C45.3963 16.7998 46.084 16.3518 46.5 15.4561C46.916 14.5441 47.124 13.2641 47.124 11.6162C47.124 9.96821 46.916 8.6958 46.5 7.7998C46.084 6.88799 45.3964 6.43169 44.4365 6.43164ZM94.1006 6.43164C93.3646 6.43164 92.7881 6.72831 92.3721 7.32031C91.9563 7.91228 91.748 8.73626 91.748 9.79199C91.7481 10.8478 91.9562 11.6717 92.3721 12.2637C92.7881 12.8557 93.3646 13.1523 94.1006 13.1523C94.8365 13.1523 95.4122 12.8556 95.8281 12.2637C96.2441 11.6717 96.4521 10.8479 96.4521 9.79199C96.4521 8.73607 96.2441 7.9123 95.8281 7.32031C95.4122 6.72835 94.8365 6.43168 94.1006 6.43164ZM65.9941 6.43164C65.1783 6.43173 64.554 6.88045 64.1221 7.77637C63.7062 8.65627 63.498 9.72843 63.498 10.9922H68.1543C68.1543 9.71222 67.9864 8.63194 67.6504 7.75195C67.3144 6.87195 66.7621 6.43164 65.9941 6.43164ZM84.8477 0.671875C85.2157 0.671875 85.5114 0.792227 85.7354 1.03223C85.9754 1.25623 86.0957 1.55192 86.0957 1.91992C86.0957 2.27191 85.9753 2.56762 85.7354 2.80762C85.5114 3.0476 85.2156 3.16797 84.8477 3.16797C84.4957 3.16796 84.2 3.04761 83.96 2.80762C83.72 2.56762 83.5996 2.27191 83.5996 1.91992C83.5996 1.55193 83.72 1.25622 83.96 1.03223C84.2 0.792234 84.4957 0.671882 84.8477 0.671875Z" fill="black"/>
<path d="M1.7191 17.0879H0V15.3688H1.7191V17.0879ZM9.35955 17.0879H7.64045V15.3688H9.35955V17.0879ZM17 17.0879H15.2809V15.3688H17V17.0879ZM5.53933 13.2677H3.82022V11.5486H5.53933V13.2677ZM9.35955 13.2677H7.64045V11.5486H9.35955V13.2677ZM13.1798 13.2677H11.4607V11.5486H13.1798V13.2677ZM1.7191 9.44744H0V7.72834H1.7191V9.44744ZM5.53933 9.44744H3.82022V7.72834H5.53933V9.44744ZM9.35955 9.44744H7.64045V7.72834H9.35955V9.44744ZM13.1798 9.44744H11.4607V7.72834H13.1798V9.44744ZM17 9.44744H15.2809V7.72834H17V9.44744ZM5.53933 5.62722H3.82022V3.90812H5.53933V5.62722ZM9.35955 5.62722H7.64045V3.90812H9.35955V5.62722ZM13.1798 5.62722H11.4607V3.90812H13.1798V5.62722ZM1.7191 1.80699H0V0.0878906H1.7191V1.80699ZM9.35955 1.80699H7.64045V0.0878906H9.35955V1.80699ZM17 1.80699H15.2809V0.0878906H17V1.80699Z" fill="black"/>
</svg>
