<svg width="9" height="10" viewBox="0 0 9 10" fill="none" xmlns="http://www.w3.org/2000/svg">
<path d="M2.56836 0C2.64806 0.000111445 2.6884 0.0403869 2.68848 0.120117V1.4248C2.68848 1.97709 3.13619 2.4248 3.68848 2.4248H5.19824C5.75053 2.4248 6.19824 1.97709 6.19824 1.4248V0.120117C6.19832 0.0403892 6.23867 0.00011376 6.31836 0H6.51074C6.59064 1.34363e-05 6.63078 0.0402889 6.63086 0.120117V1.4248C6.63086 1.97709 7.07857 2.4248 7.63086 2.4248H8.75488C8.83463 2.42486 8.87486 2.46428 8.875 2.54395V2.71191C8.875 2.79185 8.83476 2.83197 8.75488 2.83203H7.63086C7.07857 2.83203 6.63086 3.27975 6.63086 3.83203V5.36914C6.63086 5.92143 7.07857 6.36914 7.63086 6.36914H8.75488C8.83476 6.3692 8.875 6.40932 8.875 6.48926V6.65723C8.8749 6.73696 8.83466 6.77728 8.75488 6.77734H7.63086C7.07857 6.77734 6.63086 7.22506 6.63086 7.77734V9.06934C6.63072 9.14904 6.59058 9.18846 6.51074 9.18848H6.31836C6.23873 9.18836 6.19838 9.14894 6.19824 9.06934V7.77734C6.19824 7.22506 5.75053 6.77734 5.19824 6.77734H3.68848C3.13619 6.77734 2.68848 7.22506 2.68848 7.77734V9.06934C2.68834 9.14894 2.648 9.18836 2.56836 9.18848H2.37598C2.29615 9.18846 2.256 9.14904 2.25586 9.06934V7.77734C2.25586 7.22506 1.80814 6.77734 1.25586 6.77734H0.120117C0.0402209 6.77734 0.000103594 6.73702 0 6.65723V6.48926C0 6.40926 0.0401172 6.36914 0.120117 6.36914H1.25586C1.80814 6.36914 2.25586 5.92143 2.25586 5.36914V3.83203C2.25586 3.27975 1.80814 2.83203 1.25586 2.83203H0.120117C0.0401172 2.83203 0 2.79191 0 2.71191V2.54395C0.000136404 2.46422 0.0402538 2.4248 0.120117 2.4248H1.25586C1.80814 2.4248 2.25586 1.97709 2.25586 1.4248V0.120117C2.25594 0.0402912 2.29609 1.57547e-05 2.37598 0H2.56836ZM2.68848 5.36914C2.68848 5.92143 3.13619 6.36914 3.68848 6.36914H5.19824C5.75053 6.36914 6.19824 5.92143 6.19824 5.36914V3.83203C6.19824 3.27975 5.75053 2.83203 5.19824 2.83203H3.68848C3.13619 2.83203 2.68848 3.27975 2.68848 3.83203V5.36914Z" fill="black"/>
</svg>
