<svg width="133" height="10" viewBox="0 0 133 10" fill="none" xmlns="http://www.w3.org/2000/svg">
<path d="M3.08008 9.87793H0V9.19629H2.32129V0.682617H0V0H3.08008V9.87793ZM18.1094 0.682617H15.7891V9.19629H18.1094V9.87793H15.0293V0H18.1094V0.682617ZM26.9014 0C27.2823 6.26362e-05 27.6418 0.0866849 27.9795 0.259766C28.3174 0.43305 28.5949 0.620066 28.8115 0.819336C29.0191 1.00962 29.1581 1.10509 29.2275 1.10547C29.2969 1.10547 29.3451 1.08337 29.3711 1.04004C29.4057 0.996693 29.44 0.927227 29.4746 0.832031L29.7217 0.104492H30.0469L30.0986 4.13379H29.7354C29.5447 3.3107 29.2974 2.62194 28.9941 2.06738C28.6909 1.50415 28.3571 1.08801 27.9932 0.819336C27.6378 0.55067 27.2821 0.416016 26.9268 0.416016C26.329 0.416055 25.8654 0.598131 25.5361 0.961914C25.2068 1.31722 24.9767 1.81577 24.8467 2.45703C24.7253 3.09836 24.665 3.9003 24.665 4.8623C24.665 5.82427 24.7253 6.62626 24.8467 7.26758C24.9767 7.90878 25.2068 8.41144 25.5361 8.77539C25.8654 9.13057 26.3289 9.30856 26.9268 9.30859C27.2473 9.30859 27.5551 9.19581 27.8496 8.9707C28.1443 8.7367 28.3834 8.44127 28.5654 8.08594C28.7559 7.73075 28.8506 7.37973 28.8506 7.0332V5.86328C28.8506 5.74197 28.8204 5.65552 28.7598 5.60352C28.7078 5.54286 28.6213 5.5127 28.5 5.5127H27.0566V5.09668H31.3467V5.5127H30.3984C30.2771 5.5127 30.1857 5.54285 30.125 5.60352C30.0731 5.65553 30.0469 5.74204 30.0469 5.86328V9.65918H29.6309V8.47656C29.6309 8.32935 29.6137 8.22071 29.5791 8.15137C29.5445 8.07343 29.4881 8.03425 29.4102 8.03418C29.3148 8.03418 29.2324 8.06934 29.1631 8.13867C29.0939 8.20792 29.0243 8.30276 28.9551 8.42383C28.7558 8.74443 28.4742 9.044 28.1104 9.32129C27.7464 9.58996 27.3514 9.72461 26.9268 9.72461C26.1815 9.72457 25.5312 9.50751 24.9766 9.07422C24.4307 8.63224 24.0104 8.03819 23.7158 7.29297C23.4299 6.53904 23.2871 5.70273 23.2871 4.78418C23.2871 3.90887 23.4339 3.10689 23.7285 2.37891C24.0232 1.65097 24.4443 1.07503 24.9902 0.650391C25.5362 0.217108 26.1734 0 26.9014 0ZM34.8799 3.40625C35.4083 3.40634 35.8418 3.54905 36.1797 3.83496C36.5175 4.12085 36.7599 4.48499 36.9072 4.92676C37.0632 5.36009 37.1416 5.80727 37.1416 6.2666C37.1415 6.36152 37.1111 6.42626 37.0508 6.46094C36.9901 6.48694 36.8856 6.5 36.7383 6.5H33.501C33.501 7.36667 33.6226 8.05605 33.8652 8.56738C34.1165 9.07853 34.5239 9.33384 35.0869 9.33398C35.4856 9.33398 35.8584 9.18223 36.2051 8.87891C36.5604 8.57557 36.7865 8.10325 36.8818 7.46191H37.1934C37.1414 8.09458 36.9203 8.61916 36.5303 9.03516C36.1489 9.44248 35.6505 9.64648 35.0352 9.64648C34.2293 9.64643 33.5789 9.37309 33.085 8.82715C32.5998 8.28117 32.3574 7.52227 32.3574 6.55176C32.3575 5.99727 32.466 5.48141 32.6826 5.00488C32.8992 4.51989 33.198 4.13453 33.5791 3.84863C33.9691 3.55397 34.4032 3.40625 34.8799 3.40625ZM47.8799 3.40625C48.4083 3.40634 48.8418 3.54905 49.1797 3.83496C49.5175 4.12085 49.7599 4.48499 49.9072 4.92676C50.0632 5.36009 50.1416 5.80727 50.1416 6.2666C50.1415 6.36152 50.1111 6.42626 50.0508 6.46094C49.9901 6.48694 49.8856 6.5 49.7383 6.5H46.501C46.501 7.36667 46.6226 8.05605 46.8652 8.56738C47.1165 9.07853 47.5239 9.33384 48.0869 9.33398C48.4856 9.33398 48.8584 9.18223 49.2051 8.87891C49.5604 8.57557 49.7865 8.10325 49.8818 7.46191H50.1934C50.1414 8.09458 49.9203 8.61916 49.5303 9.03516C49.1489 9.44248 48.6505 9.64648 48.0352 9.64648C47.2293 9.64643 46.5789 9.37309 46.085 8.82715C45.5998 8.28117 45.3574 7.52227 45.3574 6.55176C45.3575 5.99727 45.466 5.48141 45.6826 5.00488C45.8992 4.51989 46.198 4.13453 46.5791 3.84863C46.9691 3.55397 47.4032 3.40625 47.8799 3.40625ZM58.8789 3.40625C59.4509 3.40625 59.9453 3.55799 60.3613 3.86133C60.7771 4.15596 60.9853 4.61959 60.9854 5.25195V8.4502C60.9854 8.88341 61.1192 9.10046 61.3877 9.10059C61.6042 9.10059 61.7601 8.97463 61.8555 8.72363C61.9508 8.4723 61.999 8.1638 61.999 7.7998H62.2334C62.2334 8.3198 62.155 8.75795 61.999 9.11328C61.8517 9.46848 61.5831 9.64635 61.1934 9.64648C60.8207 9.64648 60.5383 9.53796 60.3477 9.32129C60.1657 9.096 60.0662 8.78829 60.0488 8.39844L59.9844 8.37207C59.8544 8.6754 59.6413 8.96583 59.3467 9.24316C59.0607 9.51175 58.7229 9.64646 58.333 9.64648C57.8737 9.64648 57.4747 9.53392 57.1367 9.30859C56.8074 9.08327 56.6426 8.68427 56.6426 8.1123C56.6426 7.67045 56.7553 7.32358 56.9805 7.07227C57.2058 6.82096 57.4661 6.64307 57.7607 6.53906C58.064 6.42642 58.428 6.33092 58.8525 6.25293L60.0488 6.03223V4.92676C60.0487 4.12108 59.6457 3.71777 58.8398 3.71777C58.5453 3.71779 58.2768 3.79626 58.0342 3.95215C57.7916 4.09942 57.67 4.26842 57.6699 4.45898C57.6699 4.54565 57.683 4.61096 57.709 4.6543C57.7263 4.68027 57.7525 4.70645 57.7871 4.73242C57.8304 4.75835 57.8697 4.77553 57.9043 4.78418C58.06 4.82746 58.1769 4.88798 58.2549 4.96582C58.3415 5.04378 58.3847 5.15245 58.3848 5.29102C58.3848 5.47302 58.3285 5.60364 58.2158 5.68164C58.1119 5.75951 57.977 5.79785 57.8125 5.79785C57.622 5.79774 57.4489 5.72437 57.293 5.57715C57.137 5.42985 57.0586 5.21766 57.0586 4.94043C57.0586 4.61976 57.146 4.3424 57.3193 4.1084C57.5013 3.87445 57.7305 3.70054 58.0078 3.58789C58.2938 3.46657 58.5843 3.40625 58.8789 3.40625ZM84.0146 3.5625H85.627V3.92578H84.0146V8.16406C84.0146 8.42406 84.0669 8.64112 84.1709 8.81445C84.2749 8.98769 84.4528 9.07422 84.7041 9.07422C85.3192 9.07412 85.6269 8.55428 85.627 7.51465H85.8613C85.8613 8.09514 85.7739 8.5979 85.6006 9.02246C85.4358 9.43825 85.0458 9.64648 84.4307 9.64648C84.0409 9.64642 83.716 9.50761 83.4561 9.23047C83.2048 8.95321 83.0792 8.5761 83.0791 8.09961V3.92578H82.1172V3.5625H82.4033C82.793 3.56236 83.0959 3.35409 83.3125 2.93848C83.5378 2.51381 83.6514 2.04551 83.6514 1.53418V1.06641H84.0146V3.5625ZM89.4443 3.40625C89.9728 3.40634 90.4062 3.54905 90.7441 3.83496C91.082 4.12085 91.3243 4.48499 91.4717 4.92676C91.6277 5.36009 91.7061 5.80727 91.7061 6.2666C91.706 6.36152 91.6755 6.42626 91.6152 6.46094C91.5546 6.48694 91.4501 6.5 91.3027 6.5H88.0654C88.0654 7.36667 88.187 8.05605 88.4297 8.56738C88.681 9.07853 89.0883 9.33384 89.6514 9.33398C90.05 9.33398 90.4229 9.18223 90.7695 8.87891C91.1249 8.57557 91.351 8.10325 91.4463 7.46191H91.7578C91.7058 8.09458 91.4847 8.61916 91.0947 9.03516C90.7134 9.44248 90.2149 9.64648 89.5996 9.64648C88.7937 9.64643 88.1434 9.37309 87.6494 8.82715C87.1642 8.28117 86.9219 7.52227 86.9219 6.55176C86.9219 5.99727 87.0305 5.48141 87.2471 5.00488C87.4637 4.51989 87.7625 4.13453 88.1436 3.84863C88.5336 3.55397 88.9677 3.40625 89.4443 3.40625ZM102.432 3.40625C102.96 3.40634 103.394 3.54905 103.731 3.83496C104.069 4.12085 104.312 4.48499 104.459 4.92676C104.615 5.36009 104.693 5.80727 104.693 6.2666C104.693 6.36152 104.663 6.42626 104.603 6.46094C104.542 6.48694 104.437 6.5 104.29 6.5H101.053C101.053 7.36667 101.174 8.05605 101.417 8.56738C101.668 9.07853 102.076 9.33384 102.639 9.33398C103.037 9.33398 103.41 9.18223 103.757 8.87891C104.112 8.57557 104.338 8.10325 104.434 7.46191H104.745C104.693 8.09458 104.472 8.61916 104.082 9.03516C103.701 9.44248 103.202 9.64648 102.587 9.64648C101.781 9.64643 101.131 9.37309 100.637 8.82715C100.152 8.28117 99.9092 7.52227 99.9092 6.55176C99.9092 5.99727 100.018 5.48141 100.234 5.00488C100.451 4.51989 100.75 4.13453 101.131 3.84863C101.521 3.55397 101.955 3.40625 102.432 3.40625ZM108.437 3.40625C108.835 3.40625 109.182 3.49274 109.477 3.66602C109.771 3.83068 109.996 4.04774 110.152 4.31641C110.308 4.57641 110.387 4.84071 110.387 5.10938C110.387 5.37791 110.317 5.59013 110.179 5.74609C110.04 5.89337 109.871 5.96674 109.672 5.9668C109.499 5.9668 109.351 5.91052 109.229 5.79785C109.117 5.68531 109.061 5.55127 109.061 5.39551C109.061 5.23951 109.104 5.10888 109.19 5.00488C109.277 4.90094 109.382 4.83153 109.503 4.79688C109.641 4.75355 109.711 4.67592 109.711 4.56348C109.711 4.45948 109.663 4.34191 109.567 4.21191C109.481 4.08206 109.342 3.96927 109.151 3.87402C108.961 3.77013 108.722 3.71777 108.437 3.71777C107.891 3.71781 107.518 3.95206 107.318 4.41992C107.128 4.88792 107.032 5.59037 107.032 6.52637C107.032 7.46201 107.128 8.16386 107.318 8.63184C107.509 9.0998 107.882 9.33395 108.437 9.33398C108.965 9.33398 109.372 9.14785 109.658 8.77539C109.944 8.40272 110.118 7.96458 110.179 7.46191H110.49C110.464 7.81715 110.374 8.16404 110.218 8.50195C110.062 8.83129 109.832 9.10462 109.528 9.32129C109.225 9.53784 108.861 9.64648 108.437 9.64648C107.934 9.64646 107.488 9.50772 107.098 9.23047C106.716 8.95316 106.417 8.57621 106.2 8.09961C105.992 7.62298 105.889 7.09832 105.889 6.52637C105.889 5.95437 105.997 5.42979 106.214 4.95312C106.43 4.47663 106.729 4.09955 107.11 3.82227C107.5 3.54496 107.943 3.40627 108.437 3.40625ZM113.188 3.5625H114.801V3.92578H113.188V8.16406C113.188 8.42406 113.241 8.64112 113.345 8.81445C113.449 8.98769 113.627 9.07422 113.878 9.07422C114.493 9.07412 114.801 8.55428 114.801 7.51465H115.035C115.035 8.09514 114.948 8.5979 114.774 9.02246C114.61 9.43825 114.22 9.64648 113.604 9.64648C113.215 9.64642 112.89 9.50761 112.63 9.23047C112.379 8.95321 112.253 8.5761 112.253 8.09961V3.92578H111.291V3.5625H111.577C111.967 3.56236 112.27 3.35409 112.486 2.93848C112.712 2.51381 112.825 2.04551 112.825 1.53418V1.06641H113.188V3.5625ZM122.199 3.40625C122.676 3.40625 123.114 3.54899 123.513 3.83496C123.911 4.1122 124.223 4.48938 124.448 4.96582C124.682 5.44249 124.8 5.96303 124.8 6.52637C124.8 7.08961 124.682 7.60934 124.448 8.08594C124.223 8.5626 123.911 8.94447 123.513 9.23047C123.114 9.50779 122.676 9.64648 122.199 9.64648C121.723 9.64641 121.285 9.50764 120.887 9.23047C120.488 8.94447 120.172 8.5626 119.938 8.08594C119.712 7.60938 119.6 7.08954 119.6 6.52637C119.6 5.96303 119.712 5.44249 119.938 4.96582C120.171 4.4893 120.488 4.11224 120.887 3.83496C121.285 3.54914 121.723 3.40632 122.199 3.40625ZM41.7432 3.40625C42.3757 3.40631 42.8221 3.60127 43.082 3.99121C43.3507 4.3812 43.4854 4.84953 43.4854 5.39551V8.89258C43.4854 8.99638 43.5065 9.06999 43.5498 9.11328C43.5931 9.15656 43.6667 9.17866 43.7705 9.17871H44.3164V9.49023H41.7168V9.17871H42.2627C42.3667 9.17871 42.441 9.15661 42.4844 9.11328C42.5275 9.06997 42.5488 8.99622 42.5488 8.89258V5.14844C42.5488 4.7671 42.4705 4.44152 42.3145 4.17285C42.1671 3.9045 41.9116 3.77051 41.5479 3.77051C41.2445 3.77052 40.9712 3.87905 40.7285 4.0957C40.4948 4.30361 40.3085 4.59357 40.1699 4.96582C40.0399 5.32982 39.9746 5.73781 39.9746 6.18848V8.89258C39.9747 8.9964 39.9968 9.07 40.04 9.11328C40.0834 9.15653 40.1569 9.17869 40.2607 9.17871H40.8066V9.49023H38.207V9.17871H38.7529C38.8568 9.17871 38.9303 9.15651 38.9736 9.11328C39.0169 9.07 39.039 8.9964 39.0391 8.89258V4.16016C39.0391 4.0562 39.017 3.98278 38.9736 3.93945C38.9303 3.89614 38.8569 3.87403 38.7529 3.87402H38.207V3.5625H39.9746V4.62793L40.0273 4.6416C40.2267 4.2256 40.4729 3.91711 40.7676 3.71777C41.0622 3.50978 41.3878 3.40625 41.7432 3.40625ZM54.665 3.40625C54.9943 3.40628 55.2627 3.50176 55.4707 3.69238C55.6787 3.88305 55.7832 4.14332 55.7832 4.47266C55.7831 4.66313 55.7137 4.84943 55.5752 5.03125C55.4453 5.21311 55.2761 5.30455 55.0684 5.30469C54.9037 5.30469 54.765 5.26045 54.6523 5.17383C54.5398 5.08722 54.4825 4.9664 54.4824 4.81055C54.4824 4.62855 54.5698 4.4718 54.7432 4.3418C54.821 4.2899 54.8775 4.24248 54.9121 4.19922C54.9554 4.15591 54.9766 4.09953 54.9766 4.03027C54.9766 3.95245 54.938 3.89195 54.8604 3.84863C54.791 3.79663 54.6905 3.77051 54.5605 3.77051C54.2921 3.77062 54.0324 3.90041 53.7812 4.16016C53.5387 4.42005 53.3436 4.75805 53.1963 5.17383C53.049 5.58983 52.9746 6.02394 52.9746 6.47461V8.89258C52.9747 8.9964 52.9968 9.07 53.04 9.11328C53.0834 9.15653 53.1569 9.17869 53.2607 9.17871H53.8066V9.49023H51.207V9.17871H51.7529C51.8568 9.17871 51.9303 9.15651 51.9736 9.11328C52.0169 9.07 52.039 8.9964 52.0391 8.89258V4.16016C52.0391 4.0562 52.017 3.98278 51.9736 3.93945C51.9303 3.89614 51.8569 3.87403 51.7529 3.87402H51.207V3.5625H52.9746V4.8623L53.0273 4.875C53.2092 4.4247 53.4428 4.06947 53.7285 3.80957C54.0232 3.5409 54.3357 3.40625 54.665 3.40625ZM64.7305 8.89258C64.7305 8.9964 64.7526 9.07 64.7959 9.11328C64.8392 9.15653 64.9128 9.17869 65.0166 9.17871H65.6924V9.49023H62.833V9.17871H63.5088C63.6126 9.17871 63.6861 9.15651 63.7295 9.11328C63.7728 9.07 63.7949 8.9964 63.7949 8.89258V0.832031C63.7949 0.728138 63.7728 0.654633 63.7295 0.611328C63.6862 0.568055 63.6127 0.545904 63.5088 0.545898H62.833V0.234375H64.7305V8.89258ZM74.1924 0.650391H73.2559C73.1348 0.650449 73.044 0.680673 72.9834 0.741211C72.9314 0.793174 72.9053 0.879778 72.9053 1.00098V8.72363C72.9054 8.95725 73.0222 9.0741 73.2559 9.07422H74.1924V9.49023H70.4219V9.07422H71.3584C71.5921 9.07416 71.7089 8.9573 71.709 8.72363V1.00098C71.7089 0.879778 71.6788 0.793174 71.6182 0.741211C71.5662 0.6806 71.4796 0.650422 71.3584 0.650391H70.4219V0.234375H74.1924V0.650391ZM78.7627 3.40625C79.3952 3.40631 79.8416 3.60127 80.1016 3.99121C80.3702 4.3812 80.5049 4.84953 80.5049 5.39551V8.89258C80.5049 8.99638 80.5261 9.06999 80.5693 9.11328C80.6126 9.15656 80.6862 9.17866 80.79 9.17871H81.3359V9.49023H78.7363V9.17871H79.2822C79.3862 9.17871 79.4606 9.15661 79.5039 9.11328C79.547 9.06997 79.5683 8.99622 79.5684 8.89258V5.14844C79.5684 4.7671 79.49 4.44152 79.334 4.17285C79.1866 3.9045 78.9312 3.77051 78.5674 3.77051C78.2641 3.77052 77.9907 3.87905 77.748 4.0957C77.5143 4.30361 77.328 4.59357 77.1895 4.96582C77.0595 5.32982 76.9941 5.73781 76.9941 6.18848V8.89258C76.9942 8.9964 77.0163 9.07 77.0596 9.11328C77.1029 9.15653 77.1764 9.17869 77.2803 9.17871H77.8262V9.49023H75.2266V9.17871H75.7725C75.8763 9.17871 75.9498 9.15651 75.9932 9.11328C76.0364 9.07 76.0585 8.9964 76.0586 8.89258V4.16016C76.0586 4.0562 76.0365 3.98278 75.9932 3.93945C75.9498 3.89614 75.8764 3.87403 75.7725 3.87402H75.2266V3.5625H76.9941V4.62793L77.0469 4.6416C77.2462 4.2256 77.4924 3.91711 77.7871 3.71777C78.0818 3.50978 78.4074 3.40625 78.7627 3.40625ZM94.5391 8.89258C94.5391 8.9964 94.5612 9.07 94.6045 9.11328C94.6478 9.15653 94.7214 9.17869 94.8252 9.17871H95.501V9.49023H92.6416V9.17871H93.3174C93.4212 9.17871 93.4947 9.15651 93.5381 9.11328C93.5814 9.07 93.6035 8.9964 93.6035 8.89258V0.832031C93.6035 0.728138 93.5814 0.654633 93.5381 0.611328C93.4947 0.568055 93.4213 0.545904 93.3174 0.545898H92.6416V0.234375H94.5391V8.89258ZM98.043 8.89258C98.043 8.9964 98.0651 9.07 98.1084 9.11328C98.1517 9.15653 98.2253 9.17869 98.3291 9.17871H99.0049V9.49023H96.1455V9.17871H96.8213C96.9251 9.17871 96.9986 9.15651 97.042 9.11328C97.0853 9.07 97.1074 8.9964 97.1074 8.89258V0.832031C97.1074 0.728138 97.0853 0.654633 97.042 0.611328C96.9987 0.568055 96.9252 0.545904 96.8213 0.545898H96.1455V0.234375H98.043V8.89258ZM117.733 8.89258C117.733 8.9964 117.756 9.07 117.799 9.11328C117.842 9.15653 117.916 9.17869 118.02 9.17871H118.565V9.49023H115.966V9.17871H116.512C116.616 9.17871 116.689 9.15651 116.732 9.11328C116.776 9.07 116.798 8.9964 116.798 8.89258V4.16016C116.798 4.0562 116.776 3.98278 116.732 3.93945C116.689 3.89614 116.616 3.87403 116.512 3.87402H115.966V3.5625H117.733V8.89258ZM129.455 3.40625C130.088 3.40631 130.534 3.60127 130.794 3.99121C131.063 4.3812 131.197 4.84953 131.197 5.39551V8.89258C131.197 8.99638 131.218 9.06999 131.262 9.11328C131.305 9.15656 131.379 9.17866 131.482 9.17871H132.028V9.49023H129.429V9.17871H129.975C130.079 9.17871 130.153 9.15661 130.196 9.11328C130.239 9.06997 130.261 8.99622 130.261 8.89258V5.14844C130.261 4.7671 130.182 4.44152 130.026 4.17285C129.879 3.9045 129.624 3.77051 129.26 3.77051C128.956 3.77052 128.683 3.87905 128.44 4.0957C128.207 4.30361 128.02 4.59357 127.882 4.96582C127.752 5.32982 127.687 5.73781 127.687 6.18848V8.89258C127.687 8.9964 127.709 9.07 127.752 9.11328C127.795 9.15653 127.869 9.17869 127.973 9.17871H128.519V9.49023H125.919V9.17871H126.465C126.569 9.17871 126.642 9.15651 126.686 9.11328C126.729 9.07 126.751 8.9964 126.751 8.89258V4.16016C126.751 4.0562 126.729 3.98278 126.686 3.93945C126.642 3.89614 126.569 3.87403 126.465 3.87402H125.919V3.5625H127.687V4.62793L127.739 4.6416C127.939 4.2256 128.185 3.91711 128.479 3.71777C128.774 3.50978 129.1 3.40625 129.455 3.40625ZM122.199 3.71777C121.68 3.71789 121.307 3.96535 121.082 4.45898C120.857 4.94432 120.743 5.6337 120.743 6.52637C120.743 7.41897 120.857 8.11247 121.082 8.60645C121.307 9.09144 121.68 9.33387 122.199 9.33398C122.719 9.33398 123.092 9.09161 123.317 8.60645C123.543 8.11247 123.655 7.41897 123.655 6.52637C123.655 5.6337 123.543 4.94432 123.317 4.45898C123.092 3.96517 122.719 3.71777 122.199 3.71777ZM58.918 6.55176C58.502 6.63842 58.1985 6.81227 58.0078 7.07227C57.8258 7.3236 57.7354 7.68341 57.7354 8.15137C57.7354 8.54994 57.8168 8.82338 57.9814 8.9707C58.1461 9.10937 58.333 9.17871 58.541 9.17871C58.9309 9.17869 59.2345 9.02684 59.4512 8.72363C59.6765 8.41163 59.8755 8.01671 60.0488 7.54004V6.30566L58.918 6.55176ZM10.7646 2.34375L9.5332 4.47754H11.9971V5.03809H9.5332L10.7646 7.17188L10.2812 7.44727L9.04883 5.31348L7.82812 7.44727L7.34375 7.17188L8.56445 5.03809H6.11133V4.47754H8.56445L7.34375 2.34375L7.82812 2.06836L9.04883 4.19141L10.2812 2.06836L10.7646 2.34375ZM34.8535 3.71777C34.4116 3.71777 34.0738 3.96104 33.8398 4.44629C33.6145 4.92296 33.501 5.50381 33.501 6.18848H36.0234C36.0234 5.49523 35.932 4.91023 35.75 4.43359C35.568 3.95697 35.2695 3.71782 34.8535 3.71777ZM47.8535 3.71777C47.4116 3.71777 47.0738 3.96104 46.8398 4.44629C46.6145 4.92296 46.501 5.50381 46.501 6.18848H49.0234C49.0234 5.49523 48.932 4.91023 48.75 4.43359C48.568 3.95697 48.2695 3.71782 47.8535 3.71777ZM89.418 3.71777C88.976 3.71777 88.6383 3.96104 88.4043 4.44629C88.179 4.92296 88.0654 5.50381 88.0654 6.18848H90.5879C90.5879 5.49523 90.4964 4.91023 90.3145 4.43359C90.1325 3.95697 89.8339 3.71782 89.418 3.71777ZM102.405 3.71777C101.963 3.71777 101.626 3.96104 101.392 4.44629C101.166 4.92296 101.053 5.50381 101.053 6.18848H103.575C103.575 5.49523 103.484 4.91023 103.302 4.43359C103.12 3.95697 102.821 3.71782 102.405 3.71777ZM117.188 0.598633C117.387 0.598633 117.548 0.662975 117.669 0.792969C117.799 0.914301 117.863 1.07509 117.863 1.27441C117.863 1.46485 117.799 1.62498 117.669 1.75488C117.548 1.88488 117.387 1.9502 117.188 1.9502C116.997 1.95015 116.837 1.88484 116.707 1.75488C116.577 1.62492 116.512 1.465 116.512 1.27441C116.512 1.07508 116.577 0.914302 116.707 0.792969C116.837 0.663215 116.997 0.598674 117.188 0.598633Z" fill="black"/>
<path d="M3.08008 9.67793C3.08008 9.78839 2.99054 9.87793 2.88008 9.87793H0.2C0.0895431 9.87793 0 9.78839 0 9.67793V9.39629C0 9.28583 0.089543 9.19629 0.2 9.19629H2.12129C2.23175 9.19629 2.32129 9.10675 2.32129 8.99629V0.882617C2.32129 0.77216 2.23175 0.682617 2.12129 0.682617H0.2C0.0895431 0.682617 0 0.593074 0 0.482617V0.2C0 0.089543 0.0895431 0 0.2 0H2.88008C2.99054 0 3.08008 0.0895431 3.08008 0.2V9.67793ZM18.1094 0.482617C18.1094 0.593074 18.0198 0.682617 17.9094 0.682617H15.9891C15.8786 0.682617 15.7891 0.77216 15.7891 0.882617V8.99629C15.7891 9.10675 15.8786 9.19629 15.9891 9.19629H17.9094C18.0198 9.19629 18.1094 9.28583 18.1094 9.39629V9.67793C18.1094 9.78839 18.0198 9.87793 17.9094 9.87793H15.2293C15.1188 9.87793 15.0293 9.78839 15.0293 9.67793V0.2C15.0293 0.0895431 15.1188 0 15.2293 0H17.9094C18.0198 0 18.1094 0.0895431 18.1094 0.2V0.482617ZM26.9014 0C27.2823 6.26362e-05 27.6418 0.0866849 27.9795 0.259766C28.3174 0.43305 28.5949 0.620066 28.8115 0.819336C29.0191 1.00962 29.1581 1.10509 29.2275 1.10547C29.2969 1.10547 29.3451 1.08337 29.3711 1.04004C29.4057 0.996693 29.44 0.927227 29.4746 0.832031L29.6777 0.233988C29.704 0.156568 29.7767 0.104492 29.8584 0.104492C29.9629 0.104492 30.048 0.188462 30.0493 0.292913L30.096 3.93122C30.0975 4.04267 30.0065 4.13379 29.8951 4.13379C29.802 4.13379 29.7207 4.06953 29.6985 3.97914C29.5132 3.22407 29.2782 2.58685 28.9941 2.06738C28.6909 1.50415 28.3571 1.08801 27.9932 0.819336C27.6378 0.55067 27.2821 0.416016 26.9268 0.416016C26.329 0.416055 25.8654 0.598131 25.5361 0.961914C25.2068 1.31722 24.9767 1.81577 24.8467 2.45703C24.7253 3.09836 24.665 3.9003 24.665 4.8623C24.665 5.82427 24.7253 6.62626 24.8467 7.26758C24.9767 7.90878 25.2068 8.41144 25.5361 8.77539C25.8654 9.13057 26.3289 9.30856 26.9268 9.30859C27.2473 9.30859 27.5551 9.19581 27.8496 8.9707C28.1443 8.7367 28.3834 8.44127 28.5654 8.08594C28.7559 7.73075 28.8506 7.37973 28.8506 7.0332V5.86328C28.8506 5.74974 28.8242 5.66674 28.7711 5.61394C28.7638 5.60673 28.7566 5.59948 28.7493 5.59223C28.6965 5.53912 28.6135 5.5127 28.5 5.5127H27.2566C27.1462 5.5127 27.0566 5.42315 27.0566 5.3127V5.29668C27.0566 5.18622 27.1462 5.09668 27.2566 5.09668H31.1467C31.2571 5.09668 31.3467 5.18622 31.3467 5.29668V5.3127C31.3467 5.42315 31.2571 5.5127 31.1467 5.5127H30.3984C30.2771 5.5127 30.1857 5.54285 30.125 5.60352C30.0731 5.65553 30.0469 5.74204 30.0469 5.86328V9.45918C30.0469 9.56964 29.9573 9.65918 29.8469 9.65918H29.8309C29.7204 9.65918 29.6309 9.56964 29.6309 9.45918V8.47656C29.6309 8.32935 29.6137 8.22071 29.5791 8.15137C29.5445 8.07343 29.4881 8.03425 29.4102 8.03418C29.3148 8.03418 29.2324 8.06934 29.1631 8.13867C29.0939 8.20792 29.0243 8.30276 28.9551 8.42383C28.7558 8.74443 28.4742 9.044 28.1104 9.32129C27.7464 9.58996 27.3514 9.72461 26.9268 9.72461C26.1815 9.72457 25.5312 9.50751 24.9766 9.07422C24.4307 8.63224 24.0104 8.03819 23.7158 7.29297C23.4299 6.53904 23.2871 5.70273 23.2871 4.78418C23.2871 3.90887 23.4339 3.10689 23.7285 2.37891C24.0232 1.65097 24.4443 1.07503 24.9902 0.650391C25.5362 0.217108 26.1734 0 26.9014 0ZM34.8799 3.40625C35.4083 3.40634 35.8418 3.54905 36.1797 3.83496C36.5175 4.12085 36.7599 4.48499 36.9072 4.92676C37.0632 5.36009 37.1416 5.80727 37.1416 6.2666C37.1415 6.36152 37.1111 6.42626 37.0508 6.46094C36.9901 6.48694 36.8856 6.5 36.7383 6.5H33.701C33.5905 6.5 33.5007 6.58968 33.5032 6.70011C33.5207 7.47342 33.6415 8.09604 33.8652 8.56738C34.1165 9.07853 34.5239 9.33384 35.0869 9.33398C35.4856 9.33398 35.8584 9.18223 36.2051 8.87891C36.5348 8.59745 36.7532 8.1705 36.8592 7.59803C36.8736 7.52011 36.9405 7.46191 37.0197 7.46191C37.1132 7.46191 37.1872 7.54186 37.1746 7.6345C37.0991 8.19059 36.8842 8.65759 36.5303 9.03516C36.1489 9.44248 35.6505 9.64648 35.0352 9.64648C34.2293 9.64643 33.5789 9.37309 33.085 8.82715C32.5998 8.28117 32.3574 7.52227 32.3574 6.55176C32.3575 5.99727 32.466 5.48141 32.6826 5.00488C32.8992 4.51989 33.198 4.13453 33.5791 3.84863C33.9691 3.55397 34.4032 3.40625 34.8799 3.40625ZM47.8799 3.40625C48.4083 3.40634 48.8418 3.54905 49.1797 3.83496C49.5175 4.12085 49.7599 4.48499 49.9072 4.92676C50.0632 5.36009 50.1416 5.80727 50.1416 6.2666C50.1415 6.36152 50.1111 6.42626 50.0508 6.46094C49.9901 6.48694 49.8856 6.5 49.7383 6.5H46.701C46.5905 6.5 46.5007 6.58968 46.5032 6.70011C46.5207 7.47342 46.6415 8.09604 46.8652 8.56738C47.1165 9.07853 47.5239 9.33384 48.0869 9.33398C48.4856 9.33398 48.8584 9.18223 49.2051 8.87891C49.5348 8.59745 49.7532 8.1705 49.8592 7.59803C49.8736 7.52011 49.9405 7.46191 50.0197 7.46191C50.1132 7.46191 50.1872 7.54186 50.1746 7.6345C50.0991 8.19059 49.8842 8.65759 49.5303 9.03516C49.1489 9.44248 48.6505 9.64648 48.0352 9.64648C47.2293 9.64643 46.5789 9.37309 46.085 8.82715C45.5998 8.28117 45.3574 7.52227 45.3574 6.55176C45.3575 5.99727 45.466 5.48141 45.6826 5.00488C45.8992 4.51989 46.198 4.13453 46.5791 3.84863C46.9691 3.55397 47.4032 3.40625 47.8799 3.40625ZM58.8789 3.40625C59.4509 3.40625 59.9453 3.55799 60.3613 3.86133C60.7771 4.15596 60.9853 4.61959 60.9854 5.25195V8.4502C60.9854 8.88341 61.1192 9.10046 61.3877 9.10059C61.6042 9.10059 61.7601 8.97463 61.8555 8.72363C61.9404 8.49973 61.9879 8.23047 61.9973 7.91702C61.9992 7.85232 62.0515 7.7998 62.1162 7.7998C62.1809 7.7998 62.2336 7.85234 62.232 7.91704C62.221 8.38598 62.1432 8.78498 61.999 9.11328C61.8517 9.46848 61.5831 9.64635 61.1934 9.64648C60.8207 9.64648 60.5383 9.53796 60.3477 9.32129C60.17 9.10132 60.0709 8.80276 60.0502 8.42588C60.0493 8.40918 60.0389 8.39438 60.0234 8.38805C60.0018 8.37918 59.977 8.38934 59.9674 8.41067C59.8361 8.70006 59.6288 8.97761 59.3467 9.24316C59.0607 9.51175 58.7229 9.64646 58.333 9.64648C57.8737 9.64648 57.4747 9.53392 57.1367 9.30859C56.8074 9.08327 56.6426 8.68427 56.6426 8.1123C56.6426 7.67045 56.7553 7.32358 56.9805 7.07227C57.2058 6.82096 57.4661 6.64307 57.7607 6.53906C58.064 6.42642 58.428 6.33092 58.8525 6.25293L59.8851 6.06243C59.98 6.04493 60.0488 5.96221 60.0488 5.86575V4.92676C60.0487 4.12108 59.6457 3.71777 58.8398 3.71777C58.5453 3.71779 58.2768 3.79626 58.0342 3.95215C57.7916 4.09942 57.67 4.26842 57.6699 4.45898C57.6699 4.54565 57.683 4.61096 57.709 4.6543C57.7263 4.68027 57.7525 4.70645 57.7871 4.73242C57.8304 4.75835 57.8697 4.77553 57.9043 4.78418C58.06 4.82746 58.1769 4.88798 58.2549 4.96582C58.3415 5.04378 58.3847 5.15245 58.3848 5.29102C58.3848 5.47302 58.3285 5.60364 58.2158 5.68164C58.1119 5.75951 57.977 5.79785 57.8125 5.79785C57.622 5.79774 57.4489 5.72437 57.293 5.57715C57.137 5.42985 57.0586 5.21766 57.0586 4.94043C57.0586 4.61976 57.146 4.3424 57.3193 4.1084C57.5013 3.87445 57.7305 3.70054 58.0078 3.58789C58.2938 3.46657 58.5843 3.40625 58.8789 3.40625ZM84.0146 3.3625C84.0146 3.47296 84.1042 3.5625 84.2146 3.5625H85.4453C85.5456 3.5625 85.627 3.64382 85.627 3.74414C85.627 3.84446 85.5456 3.92578 85.4453 3.92578H84.2146C84.1042 3.92578 84.0146 4.01532 84.0146 4.12578V8.16406C84.0146 8.42406 84.0669 8.64112 84.1709 8.81445C84.2749 8.98769 84.4528 9.07422 84.7041 9.07422C85.2956 9.07413 85.6028 8.59342 85.6256 7.63208C85.6271 7.56738 85.6794 7.51465 85.7441 7.51465C85.8089 7.51465 85.8615 7.56716 85.8601 7.63187C85.849 8.16308 85.7621 8.62674 85.6006 9.02246C85.4358 9.43825 85.0458 9.64648 84.4307 9.64648C84.0409 9.64642 83.716 9.50761 83.4561 9.23047C83.2048 8.95321 83.0792 8.5761 83.0791 8.09961V4.12578C83.0791 4.01532 82.9896 3.92578 82.8791 3.92578H82.2988C82.1985 3.92578 82.1172 3.84446 82.1172 3.74414C82.1172 3.64382 82.1985 3.5625 82.2988 3.5625H82.4033C82.793 3.56236 83.0959 3.35409 83.3125 2.93848C83.5378 2.51381 83.6514 2.04551 83.6514 1.53418V1.24805C83.6514 1.14773 83.7327 1.06641 83.833 1.06641C83.9333 1.06641 84.0146 1.14773 84.0146 1.24805V3.3625ZM89.4443 3.40625C89.9728 3.40634 90.4062 3.54905 90.7441 3.83496C91.082 4.12085 91.3243 4.48499 91.4717 4.92676C91.6277 5.36009 91.7061 5.80727 91.7061 6.2666C91.706 6.36152 91.6755 6.42626 91.6152 6.46094C91.5546 6.48694 91.4501 6.5 91.3027 6.5H88.2654C88.155 6.5 88.0652 6.58968 88.0677 6.70011C88.0852 7.47342 88.206 8.09604 88.4297 8.56738C88.681 9.07853 89.0883 9.33384 89.6514 9.33398C90.05 9.33398 90.4229 9.18223 90.7695 8.87891C91.0992 8.59745 91.3177 8.1705 91.4236 7.59803C91.438 7.52011 91.505 7.46191 91.5842 7.46191C91.6777 7.46191 91.7517 7.54186 91.7391 7.6345C91.6635 8.19059 91.4487 8.65759 91.0947 9.03516C90.7134 9.44248 90.2149 9.64648 89.5996 9.64648C88.7937 9.64643 88.1434 9.37309 87.6494 8.82715C87.1642 8.28117 86.9219 7.52227 86.9219 6.55176C86.9219 5.99727 87.0305 5.48141 87.2471 5.00488C87.4637 4.51989 87.7625 4.13453 88.1436 3.84863C88.5336 3.55397 88.9677 3.40625 89.4443 3.40625ZM102.432 3.40625C102.96 3.40634 103.394 3.54905 103.731 3.83496C104.069 4.12085 104.312 4.48499 104.459 4.92676C104.615 5.36009 104.693 5.80727 104.693 6.2666C104.693 6.36152 104.663 6.42626 104.603 6.46094C104.542 6.48694 104.437 6.5 104.29 6.5H101.253C101.142 6.5 101.052 6.58968 101.055 6.70011C101.072 7.47342 101.193 8.09604 101.417 8.56738C101.668 9.07853 102.076 9.33384 102.639 9.33398C103.037 9.33398 103.41 9.18223 103.757 8.87891C104.087 8.59745 104.305 8.1705 104.411 7.59803C104.425 7.52011 104.492 7.46191 104.572 7.46191C104.665 7.46191 104.739 7.54186 104.726 7.6345C104.651 8.19059 104.436 8.65759 104.082 9.03516C103.701 9.44248 103.202 9.64648 102.587 9.64648C101.781 9.64643 101.131 9.37309 100.637 8.82715C100.152 8.28117 99.9092 7.52227 99.9092 6.55176C99.9092 5.99727 100.018 5.48141 100.234 5.00488C100.451 4.51989 100.75 4.13453 101.131 3.84863C101.521 3.55397 101.955 3.40625 102.432 3.40625ZM108.437 3.40625C108.835 3.40625 109.182 3.49274 109.477 3.66602C109.771 3.83068 109.996 4.04774 110.152 4.31641C110.308 4.57641 110.387 4.84071 110.387 5.10938C110.387 5.37791 110.317 5.59013 110.179 5.74609C110.04 5.89337 109.871 5.96674 109.672 5.9668C109.499 5.9668 109.351 5.91052 109.229 5.79785C109.117 5.68531 109.061 5.55127 109.061 5.39551C109.061 5.23951 109.104 5.10888 109.19 5.00488C109.277 4.90094 109.382 4.83153 109.503 4.79688C109.641 4.75355 109.711 4.67592 109.711 4.56348C109.711 4.45948 109.663 4.34191 109.567 4.21191C109.481 4.08206 109.342 3.96927 109.151 3.87402C108.961 3.77013 108.722 3.71777 108.437 3.71777C107.891 3.71781 107.518 3.95206 107.318 4.41992C107.128 4.88792 107.032 5.59037 107.032 6.52637C107.032 7.46201 107.128 8.16386 107.318 8.63184C107.509 9.0998 107.882 9.33395 108.437 9.33398C108.965 9.33398 109.372 9.14785 109.658 8.77539C109.917 8.43757 110.085 8.04594 110.159 7.60122C110.172 7.522 110.239 7.46191 110.319 7.46191C110.412 7.46191 110.485 7.54035 110.473 7.63178C110.434 7.92792 110.349 8.21811 110.218 8.50195C110.062 8.83129 109.832 9.10462 109.528 9.32129C109.225 9.53784 108.861 9.64648 108.437 9.64648C107.934 9.64646 107.488 9.50772 107.098 9.23047C106.716 8.95316 106.417 8.57621 106.2 8.09961C105.992 7.62298 105.889 7.09832 105.889 6.52637C105.889 5.95437 105.997 5.42979 106.214 4.95312C106.43 4.47663 106.729 4.09955 107.11 3.82227C107.5 3.54496 107.943 3.40627 108.437 3.40625ZM113.188 3.3625C113.188 3.47296 113.278 3.5625 113.388 3.5625H114.619C114.719 3.5625 114.801 3.64382 114.801 3.74414C114.801 3.84446 114.719 3.92578 114.619 3.92578H113.388C113.278 3.92578 113.188 4.01532 113.188 4.12578V8.16406C113.188 8.42406 113.241 8.64112 113.345 8.81445C113.449 8.98769 113.627 9.07422 113.878 9.07422C114.469 9.07413 114.777 8.59342 114.799 7.63208C114.801 7.56738 114.853 7.51465 114.918 7.51465C114.983 7.51465 115.035 7.56716 115.034 7.63187C115.023 8.16308 114.936 8.62674 114.774 9.02246C114.61 9.43825 114.22 9.64648 113.604 9.64648C113.215 9.64642 112.89 9.50761 112.63 9.23047C112.379 8.95321 112.253 8.5761 112.253 8.09961V4.12578C112.253 4.01532 112.163 3.92578 112.053 3.92578H111.473C111.372 3.92578 111.291 3.84446 111.291 3.74414C111.291 3.64382 111.372 3.5625 111.473 3.5625H111.577C111.967 3.56236 112.27 3.35409 112.486 2.93848C112.712 2.51381 112.825 2.04551 112.825 1.53418V1.24805C112.825 1.14773 112.907 1.06641 113.007 1.06641C113.107 1.06641 113.188 1.14773 113.188 1.24805V3.3625ZM122.199 3.40625C122.676 3.40625 123.114 3.54899 123.513 3.83496C123.911 4.1122 124.223 4.48938 124.448 4.96582C124.682 5.44249 124.8 5.96303 124.8 6.52637C124.8 7.08961 124.682 7.60934 124.448 8.08594C124.223 8.5626 123.911 8.94447 123.513 9.23047C123.114 9.50779 122.676 9.64648 122.199 9.64648C121.723 9.64641 121.285 9.50764 120.887 9.23047C120.488 8.94447 120.172 8.5626 119.938 8.08594C119.712 7.60938 119.6 7.08954 119.6 6.52637C119.6 5.96303 119.712 5.44249 119.938 4.96582C120.171 4.4893 120.488 4.11224 120.887 3.83496C121.285 3.54914 121.723 3.40632 122.199 3.40625ZM41.7432 3.40625C42.3757 3.40631 42.8221 3.60127 43.082 3.99121C43.3507 4.3812 43.4854 4.84953 43.4854 5.39551V8.89258C43.4854 8.99638 43.5065 9.06999 43.5498 9.11328C43.5931 9.15656 43.6667 9.17866 43.7705 9.17871H44.1606C44.2467 9.17871 44.3164 9.24845 44.3164 9.33447C44.3164 9.4205 44.2467 9.49023 44.1606 9.49023H41.8726C41.7865 9.49023 41.7168 9.4205 41.7168 9.33447C41.7168 9.24845 41.7865 9.17871 41.8726 9.17871H42.2627C42.3667 9.17871 42.441 9.15661 42.4844 9.11328C42.5275 9.06997 42.5488 8.99622 42.5488 8.89258V5.14844C42.5488 4.7671 42.4705 4.44152 42.3145 4.17285C42.1671 3.9045 41.9116 3.77051 41.5479 3.77051C41.2445 3.77052 40.9712 3.87905 40.7285 4.0957C40.4948 4.30361 40.3085 4.59357 40.1699 4.96582C40.0399 5.32982 39.9746 5.73781 39.9746 6.18848V8.89258C39.9747 8.9964 39.9968 9.07 40.04 9.11328C40.0834 9.15653 40.1569 9.17869 40.2607 9.17871H40.6509C40.7369 9.17871 40.8066 9.24845 40.8066 9.33447C40.8066 9.4205 40.7369 9.49023 40.6509 9.49023H38.3628C38.2768 9.49023 38.207 9.4205 38.207 9.33447C38.207 9.24845 38.2768 9.17871 38.3628 9.17871H38.7529C38.8568 9.17871 38.9303 9.15651 38.9736 9.11328C39.0169 9.07 39.039 8.9964 39.0391 8.89258V4.16016C39.0391 4.0562 39.017 3.98278 38.9736 3.93945C38.9303 3.89614 38.8569 3.87403 38.7529 3.87402H38.3628C38.2768 3.87402 38.207 3.80429 38.207 3.71826C38.207 3.63224 38.2768 3.5625 38.3628 3.5625H39.7746C39.8851 3.5625 39.9746 3.65204 39.9746 3.7625V4.60154C39.9746 4.61708 39.9851 4.63065 40.0002 4.63455C40.016 4.63865 40.0324 4.63093 40.0396 4.61628C40.2367 4.21306 40.4789 3.91304 40.7676 3.71777C41.0622 3.50978 41.3878 3.40625 41.7432 3.40625ZM54.665 3.40625C54.9943 3.40628 55.2627 3.50176 55.4707 3.69238C55.6787 3.88305 55.7832 4.14332 55.7832 4.47266C55.7831 4.66313 55.7137 4.84943 55.5752 5.03125C55.4453 5.21311 55.2761 5.30455 55.0684 5.30469C54.9037 5.30469 54.765 5.26045 54.6523 5.17383C54.5398 5.08722 54.4825 4.9664 54.4824 4.81055C54.4824 4.62855 54.5698 4.4718 54.7432 4.3418C54.821 4.2899 54.8775 4.24248 54.9121 4.19922C54.9554 4.15591 54.9766 4.09953 54.9766 4.03027C54.9766 3.95245 54.938 3.89195 54.8604 3.84863C54.791 3.79663 54.6905 3.77051 54.5605 3.77051C54.2921 3.77062 54.0324 3.90041 53.7812 4.16016C53.5387 4.42005 53.3436 4.75805 53.1963 5.17383C53.049 5.58983 52.9746 6.02394 52.9746 6.47461V8.89258C52.9747 8.9964 52.9968 9.07 53.04 9.11328C53.0834 9.15653 53.1569 9.17869 53.2607 9.17871H53.6509C53.7369 9.17871 53.8066 9.24845 53.8066 9.33447C53.8066 9.4205 53.7369 9.49023 53.6509 9.49023H51.3628C51.2768 9.49023 51.207 9.4205 51.207 9.33447C51.207 9.24845 51.2768 9.17871 51.3628 9.17871H51.7529C51.8568 9.17871 51.9303 9.15651 51.9736 9.11328C52.0169 9.07 52.039 8.9964 52.0391 8.89258V4.16016C52.0391 4.0562 52.017 3.98278 51.9736 3.93945C51.9303 3.89614 51.8569 3.87403 51.7529 3.87402H51.3628C51.2768 3.87402 51.207 3.80429 51.207 3.71826C51.207 3.63224 51.2768 3.5625 51.3628 3.5625H52.7746C52.8851 3.5625 52.9746 3.65204 52.9746 3.7625V4.83641C52.9746 4.8516 52.985 4.86481 52.9998 4.86837C53.0156 4.87218 53.0319 4.86377 53.0381 4.84871C53.2184 4.41085 53.4483 4.06439 53.7285 3.80957C54.0232 3.5409 54.3357 3.40625 54.665 3.40625ZM64.7305 8.89258C64.7305 8.9964 64.7526 9.07 64.7959 9.11328C64.8392 9.15653 64.9128 9.17869 65.0166 9.17871H65.5366C65.6226 9.17871 65.6924 9.24845 65.6924 9.33447C65.6924 9.4205 65.6226 9.49023 65.5366 9.49023H62.9888C62.9027 9.49023 62.833 9.4205 62.833 9.33447C62.833 9.24845 62.9027 9.17871 62.9888 9.17871H63.5088C63.6126 9.17871 63.6861 9.15651 63.7295 9.11328C63.7728 9.07 63.7949 8.9964 63.7949 8.89258V0.832031C63.7949 0.728138 63.7728 0.654633 63.7295 0.611328C63.6862 0.568055 63.6127 0.545904 63.5088 0.545898H62.9888C62.9027 0.545898 62.833 0.476162 62.833 0.390137C62.833 0.304112 62.9027 0.234375 62.9888 0.234375H64.5305C64.6409 0.234375 64.7305 0.323918 64.7305 0.434375V8.89258ZM74.1924 0.450391C74.1924 0.560848 74.1028 0.650391 73.9924 0.650391H73.2559C73.1348 0.650449 73.044 0.680673 72.9834 0.741211C72.9314 0.793174 72.9053 0.879778 72.9053 1.00098V8.72363C72.9054 8.95725 73.0222 9.0741 73.2559 9.07422H73.9924C74.1028 9.07422 74.1924 9.16376 74.1924 9.27422V9.29023C74.1924 9.40069 74.1028 9.49023 73.9924 9.49023H70.6219C70.5114 9.49023 70.4219 9.40069 70.4219 9.29023V9.27422C70.4219 9.16376 70.5114 9.07422 70.6219 9.07422H71.3584C71.5921 9.07416 71.7089 8.9573 71.709 8.72363V1.00098C71.7089 0.887547 71.6825 0.804419 71.6294 0.751631C71.6222 0.74442 71.615 0.73718 71.6077 0.72993C71.5549 0.676855 71.4718 0.65042 71.3584 0.650391H70.6219C70.5114 0.650391 70.4219 0.560848 70.4219 0.450391V0.434375C70.4219 0.323918 70.5114 0.234375 70.6219 0.234375H73.9924C74.1028 0.234375 74.1924 0.323918 74.1924 0.434375V0.450391ZM78.7627 3.40625C79.3952 3.40631 79.8416 3.60127 80.1016 3.99121C80.3702 4.3812 80.5049 4.84953 80.5049 5.39551V8.89258C80.5049 8.99638 80.5261 9.06999 80.5693 9.11328C80.6126 9.15656 80.6862 9.17866 80.79 9.17871H81.1802C81.2662 9.17871 81.3359 9.24845 81.3359 9.33447C81.3359 9.4205 81.2662 9.49023 81.1802 9.49023H78.8921C78.8061 9.49023 78.7363 9.4205 78.7363 9.33447C78.7363 9.24845 78.8061 9.17871 78.8921 9.17871H79.2822C79.3862 9.17871 79.4606 9.15661 79.5039 9.11328C79.547 9.06997 79.5683 8.99622 79.5684 8.89258V5.14844C79.5684 4.7671 79.49 4.44152 79.334 4.17285C79.1866 3.9045 78.9312 3.77051 78.5674 3.77051C78.2641 3.77052 77.9907 3.87905 77.748 4.0957C77.5143 4.30361 77.328 4.59357 77.1895 4.96582C77.0595 5.32982 76.9941 5.73781 76.9941 6.18848V8.89258C76.9942 8.9964 77.0163 9.07 77.0596 9.11328C77.1029 9.15653 77.1764 9.17869 77.2803 9.17871H77.6704C77.7564 9.17871 77.8262 9.24845 77.8262 9.33447C77.8262 9.4205 77.7564 9.49023 77.6704 9.49023H75.3823C75.2963 9.49023 75.2266 9.4205 75.2266 9.33447C75.2266 9.24845 75.2963 9.17871 75.3823 9.17871H75.7725C75.8763 9.17871 75.9498 9.15651 75.9932 9.11328C76.0364 9.07 76.0585 8.9964 76.0586 8.89258V4.16016C76.0586 4.0562 76.0365 3.98278 75.9932 3.93945C75.9498 3.89614 75.8764 3.87403 75.7725 3.87402H75.3823C75.2963 3.87402 75.2266 3.80429 75.2266 3.71826C75.2266 3.63224 75.2963 3.5625 75.3823 3.5625H76.7941C76.9046 3.5625 76.9941 3.65204 76.9941 3.7625V4.60154C76.9941 4.61708 77.0046 4.63065 77.0197 4.63455C77.0355 4.63865 77.052 4.63093 77.0591 4.61628C77.2563 4.21306 77.4985 3.91304 77.7871 3.71777C78.0818 3.50978 78.4074 3.40625 78.7627 3.40625ZM94.5391 8.89258C94.5391 8.9964 94.5612 9.07 94.6045 9.11328C94.6478 9.15653 94.7214 9.17869 94.8252 9.17871H95.3452C95.4312 9.17871 95.501 9.24845 95.501 9.33447C95.501 9.4205 95.4312 9.49023 95.3452 9.49023H92.7974C92.7113 9.49023 92.6416 9.4205 92.6416 9.33447C92.6416 9.24845 92.7113 9.17871 92.7974 9.17871H93.3174C93.4212 9.17871 93.4947 9.15651 93.5381 9.11328C93.5814 9.07 93.6035 8.9964 93.6035 8.89258V0.832031C93.6035 0.728138 93.5814 0.654633 93.5381 0.611328C93.4947 0.568055 93.4213 0.545904 93.3174 0.545898H92.7974C92.7113 0.545898 92.6416 0.476162 92.6416 0.390137C92.6416 0.304112 92.7113 0.234375 92.7974 0.234375H94.3391C94.4495 0.234375 94.5391 0.323918 94.5391 0.434375V8.89258ZM98.043 8.89258C98.043 8.9964 98.0651 9.07 98.1084 9.11328C98.1517 9.15653 98.2253 9.17869 98.3291 9.17871H98.8491C98.9351 9.17871 99.0049 9.24845 99.0049 9.33447C99.0049 9.4205 98.9351 9.49023 98.8491 9.49023H96.3013C96.2152 9.49023 96.1455 9.4205 96.1455 9.33447C96.1455 9.24845 96.2152 9.17871 96.3013 9.17871H96.8213C96.9251 9.17871 96.9986 9.15651 97.042 9.11328C97.0853 9.07 97.1074 8.9964 97.1074 8.89258V0.832031C97.1074 0.728138 97.0853 0.654633 97.042 0.611328C96.9987 0.568055 96.9252 0.545904 96.8213 0.545898H96.3013C96.2152 0.545898 96.1455 0.476162 96.1455 0.390137C96.1455 0.304112 96.2152 0.234375 96.3013 0.234375H97.843C97.9534 0.234375 98.043 0.323918 98.043 0.434375V8.89258ZM117.733 8.89258C117.733 8.9964 117.756 9.07 117.799 9.11328C117.842 9.15653 117.916 9.17869 118.02 9.17871H118.41C118.496 9.17871 118.565 9.24845 118.565 9.33447C118.565 9.4205 118.496 9.49023 118.41 9.49023H116.122C116.036 9.49023 115.966 9.4205 115.966 9.33447C115.966 9.24845 116.036 9.17871 116.122 9.17871H116.512C116.616 9.17871 116.689 9.15651 116.732 9.11328C116.776 9.07 116.798 8.9964 116.798 8.89258V4.16016C116.798 4.0562 116.776 3.98278 116.732 3.93945C116.689 3.89614 116.616 3.87403 116.512 3.87402H116.122C116.036 3.87402 115.966 3.80429 115.966 3.71826C115.966 3.63224 116.036 3.5625 116.122 3.5625H117.533C117.644 3.5625 117.733 3.65204 117.733 3.7625V8.89258ZM129.455 3.40625C130.088 3.40631 130.534 3.60127 130.794 3.99121C131.063 4.3812 131.197 4.84953 131.197 5.39551V8.89258C131.197 8.99638 131.218 9.06999 131.262 9.11328C131.305 9.15656 131.379 9.17866 131.482 9.17871H131.873C131.959 9.17871 132.028 9.24845 132.028 9.33447C132.028 9.4205 131.959 9.49023 131.873 9.49023H129.584C129.498 9.49023 129.429 9.4205 129.429 9.33447C129.429 9.24845 129.498 9.17871 129.584 9.17871H129.975C130.079 9.17871 130.153 9.15661 130.196 9.11328C130.239 9.06997 130.261 8.99622 130.261 8.89258V5.14844C130.261 4.7671 130.182 4.44152 130.026 4.17285C129.879 3.9045 129.624 3.77051 129.26 3.77051C128.956 3.77052 128.683 3.87905 128.44 4.0957C128.207 4.30361 128.02 4.59357 127.882 4.96582C127.752 5.32982 127.687 5.73781 127.687 6.18848V8.89258C127.687 8.9964 127.709 9.07 127.752 9.11328C127.795 9.15653 127.869 9.17869 127.973 9.17871H128.363C128.449 9.17871 128.519 9.24845 128.519 9.33447C128.519 9.4205 128.449 9.49023 128.363 9.49023H126.075C125.989 9.49023 125.919 9.4205 125.919 9.33447C125.919 9.24845 125.989 9.17871 126.075 9.17871H126.465C126.569 9.17871 126.642 9.15651 126.686 9.11328C126.729 9.07 126.751 8.9964 126.751 8.89258V4.16016C126.751 4.0562 126.729 3.98278 126.686 3.93945C126.642 3.89614 126.569 3.87403 126.465 3.87402H126.075C125.989 3.87402 125.919 3.80429 125.919 3.71826C125.919 3.63224 125.989 3.5625 126.075 3.5625H127.487C127.597 3.5625 127.687 3.65204 127.687 3.7625V4.60154C127.687 4.61708 127.697 4.63065 127.712 4.63455C127.728 4.63865 127.744 4.63093 127.752 4.61628C127.949 4.21306 128.191 3.91304 128.479 3.71777C128.774 3.50978 129.1 3.40625 129.455 3.40625ZM122.199 3.71777C121.68 3.71789 121.307 3.96535 121.082 4.45898C120.857 4.94432 120.743 5.6337 120.743 6.52637C120.743 7.41897 120.857 8.11247 121.082 8.60645C121.307 9.09144 121.68 9.33387 122.199 9.33398C122.719 9.33398 123.092 9.09161 123.317 8.60645C123.543 8.11247 123.655 7.41897 123.655 6.52637C123.655 5.6337 123.543 4.94432 123.317 4.45898C123.092 3.96517 122.719 3.71777 122.199 3.71777ZM58.918 6.55176C58.502 6.63842 58.1985 6.81227 58.0078 7.07227C57.8258 7.3236 57.7354 7.68341 57.7354 8.15137C57.7354 8.54994 57.8168 8.82338 57.9814 8.9707C58.1461 9.10937 58.333 9.17871 58.541 9.17871C58.9309 9.17869 59.2345 9.02684 59.4512 8.72363C59.6713 8.41889 59.8662 8.03503 60.0367 7.57316C60.0448 7.55129 60.0488 7.52811 60.0488 7.5048V6.55387C60.0488 6.42628 59.931 6.33131 59.8063 6.35844L58.918 6.55176ZM10.5899 2.24419C10.6863 2.29909 10.7195 2.4219 10.6641 2.51794L9.70632 4.17757C9.62937 4.3109 9.7256 4.47754 9.87954 4.47754H11.7971C11.9075 4.47754 11.9971 4.56708 11.9971 4.67754V4.83809C11.9971 4.94854 11.9075 5.03809 11.7971 5.03809H9.87954C9.7256 5.03809 9.62937 5.20472 9.70632 5.33806L10.6641 6.99768C10.7195 7.09373 10.6863 7.21654 10.5899 7.27143L10.454 7.34885C10.3584 7.4033 10.2368 7.37035 10.1818 7.2751L9.22284 5.61477C9.14567 5.48115 8.95268 5.48155 8.87606 5.61548L7.92717 7.27413C7.87243 7.36982 7.75057 7.40317 7.65472 7.34868L7.51808 7.27099C7.42187 7.21629 7.38838 7.09387 7.44333 6.99781L8.39322 5.3374C8.4695 5.20407 8.37323 5.03809 8.21962 5.03809H6.31133C6.20087 5.03809 6.11133 4.94854 6.11133 4.83809V4.67754C6.11133 4.56708 6.20087 4.47754 6.31133 4.47754H8.21962C8.37323 4.47754 8.4695 4.31156 8.39322 4.17823L7.44333 2.51781C7.38838 2.42176 7.42187 2.29933 7.51808 2.24464L7.6551 2.16673C7.7508 2.11233 7.87246 2.14548 7.92733 2.2409L8.87627 3.8913C8.95299 4.02472 9.14536 4.02512 9.22262 3.89201L10.1817 2.23993C10.2368 2.14495 10.3582 2.1122 10.4536 2.16656L10.5899 2.24419ZM34.8535 3.71777C34.4116 3.71777 34.0738 3.96104 33.8398 4.44629C33.6368 4.87584 33.5245 5.38999 33.5043 5.98847C33.5006 6.09887 33.5905 6.18848 33.701 6.18848H35.8234C35.9339 6.18848 36.0238 6.09888 36.0208 5.98847C36.0047 5.382 35.9142 4.86368 35.75 4.43359C35.568 3.95697 35.2695 3.71782 34.8535 3.71777ZM47.8535 3.71777C47.4116 3.71777 47.0738 3.96104 46.8398 4.44629C46.6368 4.87584 46.5245 5.38999 46.5043 5.98847C46.5006 6.09887 46.5905 6.18848 46.701 6.18848H48.8234C48.9339 6.18848 49.0238 6.09888 49.0208 5.98847C49.0047 5.382 48.9142 4.86368 48.75 4.43359C48.568 3.95697 48.2695 3.71782 47.8535 3.71777ZM89.418 3.71777C88.976 3.71777 88.6383 3.96104 88.4043 4.44629C88.2012 4.87584 88.089 5.38999 88.0688 5.98847C88.065 6.09887 88.155 6.18848 88.2654 6.18848H90.3879C90.4983 6.18848 90.5882 6.09888 90.5853 5.98847C90.5692 5.382 90.4786 4.86368 90.3145 4.43359C90.1325 3.95697 89.8339 3.71782 89.418 3.71777ZM102.405 3.71777C101.963 3.71777 101.626 3.96104 101.392 4.44629C101.189 4.87584 101.076 5.38999 101.056 5.98847C101.052 6.09887 101.142 6.18848 101.253 6.18848H103.375C103.486 6.18848 103.576 6.09888 103.573 5.98847C103.556 5.382 103.466 4.86368 103.302 4.43359C103.12 3.95697 102.821 3.71782 102.405 3.71777ZM117.188 0.598633C117.387 0.598633 117.548 0.662975 117.669 0.792969C117.799 0.914301 117.863 1.07509 117.863 1.27441C117.863 1.46485 117.799 1.62498 117.669 1.75488C117.548 1.88488 117.387 1.9502 117.188 1.9502C116.997 1.95015 116.837 1.88484 116.707 1.75488C116.577 1.62492 116.512 1.465 116.512 1.27441C116.512 1.07508 116.577 0.914302 116.707 0.792969C116.837 0.663215 116.997 0.598674 117.188 0.598633Z" fill="black"/>
</svg>
