<svg width="257" height="257" viewBox="0 0 257 257" fill="none" xmlns="http://www.w3.org/2000/svg">
<path d="M80.9413 257H70.3774V246.435H80.9413V257ZM186.621 257H176.058V246.435H186.621V257ZM98.557 239.397H87.9934V228.819H98.557V239.397ZM169.006 239.397H158.442V228.819H169.006V239.397ZM116.173 221.783H105.609V211.218H116.173V221.783ZM133.789 221.783H123.225V211.218H133.789V221.783ZM151.404 221.783H140.827V211.218H151.404V221.783ZM10.5638 186.621H0V176.058H10.5638V186.621ZM257 186.621H246.435V176.058H257V186.621ZM28.1796 169.006H17.6015V158.442H28.1796V169.006ZM98.557 169.006H87.9934V158.442H98.557V169.006ZM169.006 169.006H158.442V158.442H169.006V169.006ZM239.397 169.006H228.819V158.442H239.397V169.006ZM45.7812 151.404H35.2173V140.827H45.7812V151.404ZM116.173 151.404H105.609V140.827H116.173V151.404ZM151.391 151.404H140.827V140.827H151.391V151.404ZM221.783 151.404H211.218V140.827H221.783V151.404ZM45.7812 133.789H35.2173V123.225H45.7812V133.789ZM98.557 133.789H87.9934V123.225H98.557V133.789ZM116.173 133.789H105.609V123.225H116.173V133.789ZM133.789 133.789H123.211V123.225H133.789V133.789ZM151.391 133.789H140.827V123.225H151.391V133.789ZM169.006 133.789H158.442V123.225H169.006V133.789ZM221.783 133.789H211.218V123.225H221.783V133.789ZM45.7812 116.173H35.2173V105.609H45.7812V116.173ZM116.173 116.173H105.609V105.609H116.173V116.173ZM151.391 116.173H140.827V105.609H151.391V116.173ZM221.783 116.173H211.218V105.609H221.783V116.173ZM28.1796 98.557H17.6015V87.9934H28.1796V98.557ZM98.557 98.557H87.9934V87.9934H98.557V98.557ZM169.006 98.557H158.442V87.9934H169.006V98.557ZM239.397 98.557H228.819V87.9934H239.397V98.557ZM10.5638 80.9413H0V70.3774H10.5638V80.9413ZM257 80.9413H246.435V70.3774H257V80.9413ZM116.173 45.7812H105.609V35.2173H116.173V45.7812ZM133.789 45.7812H123.225V35.2173H133.789V45.7812ZM151.404 45.7812H140.827V35.2173H151.404V45.7812ZM98.557 28.1796H87.9934V17.6015H98.557V28.1796ZM169.006 28.1796H158.442V17.6015H169.006V28.1796ZM80.9413 10.5638H70.3774V0H80.9413V10.5638ZM186.621 10.5638H176.058V0H186.621V10.5638Z" fill="black"/>
</svg>
