<svg width="125" height="18" viewBox="0 0 125 18" fill="none" xmlns="http://www.w3.org/2000/svg">
<path d="M27.0322 3.95215C27.3842 3.95215 27.7163 4.03238 28.0283 4.19238C28.3403 4.35237 28.5969 4.52403 28.7969 4.70801C28.9887 4.88384 29.1167 4.97168 29.1807 4.97168C29.2445 4.97163 29.2885 4.95198 29.3125 4.91211C29.3445 4.87211 29.3762 4.80773 29.4082 4.71973L29.6367 4.04785H29.9365L29.9844 7.76758H29.6484C29.4725 7.00797 29.2447 6.37219 28.9648 5.86035C28.6848 5.34035 28.376 4.95601 28.04 4.70801C27.7122 4.46016 27.3845 4.33599 27.0566 4.33594C26.5047 4.33594 26.0765 4.50387 25.7725 4.83984C25.4685 5.1678 25.2567 5.62784 25.1367 6.21973C25.0247 6.81162 24.9688 7.55166 24.9688 8.43945C24.9688 9.32745 25.0247 10.0682 25.1367 10.6602C25.2567 11.252 25.4685 11.7158 25.7725 12.0518C26.0765 12.3798 26.5046 12.5439 27.0566 12.5439C27.3526 12.5439 27.6363 12.4394 27.9082 12.2314C28.1801 12.0155 28.4004 11.7439 28.5684 11.416C28.7443 11.0882 28.832 10.7642 28.832 10.4443V9.36426C28.832 9.25226 28.804 9.17202 28.748 9.12402C28.7001 9.06817 28.6205 9.0401 28.5088 9.04004H27.1768V8.65625H31.1367V9.04004H30.2607C30.1488 9.04004 30.0648 9.0681 30.0088 9.12402C29.9608 9.17202 29.9365 9.25226 29.9365 9.36426V12.8682H29.5527V11.7764C29.5527 11.6404 29.5369 11.5396 29.5049 11.4756C29.4729 11.4037 29.4205 11.3682 29.3486 11.3682C29.2606 11.3682 29.1841 11.3999 29.1201 11.4639C29.0562 11.5278 28.9926 11.6158 28.9287 11.7275C28.7447 12.0235 28.4844 12.2997 28.1484 12.5557C27.8125 12.8036 27.4486 12.9277 27.0566 12.9277C26.3688 12.9277 25.7688 12.7279 25.2568 12.3281C24.7528 11.9201 24.3648 11.3716 24.0928 10.6836C23.8288 9.98771 23.6963 9.216 23.6963 8.36816C23.6963 7.56016 23.8325 6.81946 24.1045 6.14746C24.3765 5.47565 24.7647 4.94368 25.2686 4.55176C25.7725 4.15188 26.3604 3.95219 27.0322 3.95215ZM34.3975 7.0957C34.8852 7.09576 35.2848 7.22832 35.5967 7.49219C35.9087 7.75619 36.1335 8.092 36.2695 8.5C36.4135 8.89994 36.4854 9.3124 36.4854 9.73633C36.4853 9.82405 36.4572 9.88405 36.4014 9.91602C36.3454 9.94001 36.2492 9.95214 36.1133 9.95215H33.125C33.125 10.752 33.237 11.3884 33.4609 11.8604C33.6929 12.3321 34.0691 12.5683 34.5889 12.5684C34.9569 12.5684 35.3011 12.4275 35.6211 12.1475C35.949 11.8675 36.1571 11.4317 36.2451 10.8398H36.5332C36.4852 11.4238 36.2809 11.908 35.9209 12.292C35.5689 12.6679 35.1089 12.8555 34.541 12.8555C33.7971 12.8554 33.1972 12.6036 32.7412 12.0996C32.2933 11.5956 32.0694 10.8959 32.0693 10C32.0693 9.48812 32.1692 9.01218 32.3691 8.57227C32.5691 8.12427 32.8453 7.76791 33.1973 7.50391C33.5572 7.23194 33.9575 7.0957 34.3975 7.0957ZM46.3975 7.0957C46.8852 7.09576 47.2848 7.22832 47.5967 7.49219C47.9087 7.75619 48.1335 8.092 48.2695 8.5C48.4135 8.89994 48.4854 9.3124 48.4854 9.73633C48.4853 9.82405 48.4572 9.88405 48.4014 9.91602C48.3454 9.94001 48.2492 9.95214 48.1133 9.95215H45.125C45.125 10.752 45.237 11.3884 45.4609 11.8604C45.6929 12.3321 46.0691 12.5683 46.5889 12.5684C46.9569 12.5684 47.3011 12.4275 47.6211 12.1475C47.949 11.8675 48.1571 11.4317 48.2451 10.8398H48.5332C48.4852 11.4238 48.2809 11.908 47.9209 12.292C47.5689 12.6679 47.1089 12.8555 46.541 12.8555C45.7971 12.8554 45.1972 12.6036 44.7412 12.0996C44.2933 11.5956 44.0694 10.8959 44.0693 10C44.0693 9.48812 44.1692 9.01218 44.3691 8.57227C44.5691 8.12427 44.8453 7.76791 45.1973 7.50391C45.5572 7.23194 45.9575 7.0957 46.3975 7.0957ZM56.5508 7.0957C57.0787 7.09574 57.535 7.23566 57.9189 7.51562C58.3028 7.78761 58.4941 8.21592 58.4941 8.7998V11.752C58.4941 12.1517 58.6185 12.3514 58.8662 12.3516C59.0662 12.3516 59.2108 12.2359 59.2988 12.0039C59.3868 11.772 59.4306 11.4881 59.4307 11.1523H59.6465C59.6464 11.6322 59.5746 12.0364 59.4307 12.3643C59.2946 12.6921 59.0464 12.8555 58.6865 12.8555C58.3425 12.8555 58.0822 12.7557 57.9062 12.5557C57.7384 12.3477 57.6469 12.0638 57.6309 11.7041L57.5703 11.6797C57.4503 11.9597 57.2544 12.2284 56.9824 12.4844C56.7186 12.7321 56.4066 12.8554 56.0469 12.8555C55.6229 12.8555 55.2544 12.7519 54.9424 12.5439C54.6385 12.3359 54.4863 11.9674 54.4863 11.4395C54.4864 11.0317 54.5909 10.7114 54.7988 10.4795C55.0067 10.2477 55.2467 10.0842 55.5186 9.98828C55.7985 9.88429 56.1344 9.79563 56.5264 9.72363L57.6309 9.51953V8.5C57.6309 7.75603 57.2586 7.38382 56.5146 7.38379C56.2427 7.38379 55.9945 7.45565 55.7705 7.59961C55.5465 7.73561 55.4346 7.89236 55.4346 8.06836C55.4346 8.14814 55.4467 8.20812 55.4707 8.24805C55.4867 8.272 55.511 8.29636 55.543 8.32031C55.5827 8.34413 55.6185 8.36019 55.6504 8.36816C55.7944 8.40816 55.9026 8.46413 55.9746 8.53613C56.0545 8.60812 56.0947 8.70801 56.0947 8.83594C56.0947 9.00393 56.0425 9.12429 55.9385 9.19629C55.8425 9.26817 55.7183 9.30371 55.5664 9.30371C55.3905 9.30367 55.2309 9.23555 55.0869 9.09961C54.9429 8.96361 54.8701 8.76772 54.8701 8.51172C54.8702 8.21592 54.9505 7.96004 55.1104 7.74414C55.2783 7.52823 55.4902 7.36768 55.7461 7.26367C56.0101 7.15167 56.2788 7.0957 56.5508 7.0957ZM79.7529 7.24023H81.2412V7.57617H79.7529V11.4883C79.753 11.7281 79.8015 11.928 79.8975 12.0879C79.9934 12.2477 80.1569 12.328 80.3887 12.3281C80.9567 12.3281 81.2412 11.8477 81.2412 10.8877H81.457C81.457 11.4237 81.3768 11.8883 81.2168 12.2803C81.0647 12.664 80.7045 12.8555 80.1367 12.8555C79.7769 12.8554 79.4772 12.7276 79.2373 12.4717C79.0053 12.2157 78.8887 11.8677 78.8887 11.4277V7.57617H78.001V7.24023H78.2646C78.6246 7.24023 78.9055 7.04806 79.1055 6.66406C79.3134 6.27215 79.417 5.84004 79.417 5.36816V4.93555H79.7529V7.24023ZM84.7646 7.0957C85.2524 7.09576 85.652 7.22832 85.9639 7.49219C86.2759 7.75619 86.5007 8.092 86.6367 8.5C86.7807 8.89994 86.8525 9.3124 86.8525 9.73633C86.8525 9.82405 86.8244 9.88405 86.7686 9.91602C86.7126 9.94001 86.6164 9.95214 86.4805 9.95215H83.4922C83.4922 10.752 83.6041 11.3884 83.8281 11.8604C84.0601 12.3321 84.4363 12.5683 84.9561 12.5684C85.3241 12.5684 85.6683 12.4275 85.9883 12.1475C86.3162 11.8675 86.5243 11.4317 86.6123 10.8398H86.9004C86.8524 11.4238 86.6481 11.908 86.2881 12.292C85.9361 12.6679 85.4761 12.8555 84.9082 12.8555C84.1643 12.8554 83.5644 12.6036 83.1084 12.0996C82.6605 11.5956 82.4365 10.8959 82.4365 10C82.4365 9.48812 82.5364 9.01218 82.7363 8.57227C82.9363 8.12427 83.2125 7.76791 83.5645 7.50391C83.9244 7.23194 84.3247 7.0957 84.7646 7.0957ZM96.7529 7.0957C97.2407 7.09576 97.6402 7.22832 97.9521 7.49219C98.2641 7.75619 98.489 8.092 98.625 8.5C98.769 8.89994 98.8408 9.3124 98.8408 9.73633C98.8407 9.82405 98.8127 9.88405 98.7568 9.91602C98.7009 9.94001 98.6047 9.95214 98.4688 9.95215H95.4805C95.4805 10.752 95.5924 11.3884 95.8164 11.8604C96.0484 12.3321 96.4246 12.5683 96.9443 12.5684C97.3123 12.5684 97.6566 12.4275 97.9766 12.1475C98.3045 11.8675 98.5126 11.4317 98.6006 10.8398H98.8887C98.8407 11.4238 98.6364 11.908 98.2764 12.292C97.9244 12.6679 97.4644 12.8555 96.8965 12.8555C96.1526 12.8554 95.5526 12.6036 95.0967 12.0996C94.6488 11.5956 94.4248 10.8959 94.4248 10C94.4248 9.48812 94.5247 9.01218 94.7246 8.57227C94.9246 8.12427 95.2007 7.76791 95.5527 7.50391C95.9127 7.23194 96.313 7.0957 96.7529 7.0957ZM102.296 7.0957C102.664 7.0957 102.984 7.17602 103.256 7.33594C103.528 7.48786 103.736 7.68773 103.88 7.93555C104.024 8.17555 104.096 8.41997 104.096 8.66797C104.096 8.91589 104.032 9.11188 103.904 9.25586C103.776 9.39177 103.62 9.45987 103.437 9.45996C103.277 9.45996 103.14 9.40771 103.028 9.30371C102.924 9.19972 102.872 9.07563 102.872 8.93164C102.872 8.78786 102.912 8.66817 102.992 8.57227C103.072 8.47627 103.168 8.41188 103.28 8.37988C103.408 8.3399 103.472 8.26795 103.472 8.16406C103.472 8.06806 103.428 7.95984 103.34 7.83984C103.26 7.71994 103.132 7.61626 102.956 7.52832C102.78 7.43232 102.56 7.38379 102.296 7.38379C101.792 7.38387 101.449 7.6003 101.265 8.03223C101.089 8.46417 101 9.11182 101 9.97559C101 10.8396 101.089 11.4879 101.265 11.9199C101.441 12.3517 101.784 12.5683 102.296 12.5684C102.784 12.5684 103.16 12.3957 103.424 12.0518C103.688 11.7078 103.848 11.3038 103.904 10.8398H104.192C104.168 11.1678 104.084 11.4879 103.94 11.7998C103.796 12.1038 103.584 12.3557 103.304 12.5557C103.024 12.7556 102.688 12.8555 102.296 12.8555C101.832 12.8554 101.42 12.7276 101.061 12.4717C100.709 12.2157 100.432 11.8677 100.232 11.4277C100.04 10.9877 99.9443 10.5036 99.9443 9.97559C99.9444 9.44771 100.044 8.96335 100.244 8.52344C100.444 8.08362 100.72 7.73542 101.072 7.47949C101.432 7.22367 101.84 7.09575 102.296 7.0957ZM106.683 7.24023H108.171V7.57617H106.683V11.4883C106.683 11.7281 106.731 11.928 106.827 12.0879C106.923 12.2477 107.087 12.328 107.318 12.3281C107.886 12.3281 108.171 11.8477 108.171 10.8877H108.387C108.387 11.4237 108.306 11.8883 108.146 12.2803C107.994 12.664 107.634 12.8555 107.066 12.8555C106.707 12.8554 106.407 12.7276 106.167 12.4717C105.935 12.2157 105.818 11.8677 105.818 11.4277V7.57617H104.931V7.24023H105.194C105.554 7.24023 105.835 7.04806 106.035 6.66406C106.243 6.27215 106.347 5.84004 106.347 5.36816V4.93555H106.683V7.24023ZM115 7.0957C115.44 7.0957 115.845 7.22819 116.213 7.49219C116.581 7.74816 116.868 8.09631 117.076 8.53613C117.292 8.97602 117.4 9.45574 117.4 9.97559C117.4 10.4956 117.292 10.976 117.076 11.416C116.868 11.8558 116.581 12.2077 116.213 12.4717C115.845 12.7277 115.44 12.8555 115 12.8555C114.56 12.8554 114.156 12.7276 113.788 12.4717C113.42 12.2077 113.128 11.8559 112.912 11.416C112.704 10.976 112.601 10.4956 112.601 9.97559C112.601 9.45583 112.704 8.97596 112.912 8.53613C113.128 8.09627 113.42 7.74816 113.788 7.49219C114.156 7.22827 114.56 7.09579 115 7.0957ZM40.7324 7.0957C41.3164 7.0957 41.7287 7.2758 41.9688 7.63574C42.2167 7.99568 42.3408 8.42776 42.3408 8.93164V12.1602C42.3409 12.256 42.3604 12.3243 42.4004 12.3643C42.4404 12.4042 42.5086 12.4238 42.6045 12.4238H43.1084V12.7119H40.709V12.4238H41.2129C41.3088 12.4238 41.377 12.4042 41.417 12.3643C41.457 12.3243 41.4765 12.256 41.4766 12.1602V8.7041C41.4766 8.3521 41.4047 8.05171 41.2607 7.80371C41.1247 7.55581 40.8887 7.43165 40.5527 7.43164C40.2729 7.43164 40.0208 7.53164 39.7969 7.73145C39.5809 7.92345 39.4083 8.19213 39.2803 8.53613C39.1604 8.87205 39.1006 9.2482 39.1006 9.66406V12.1602C39.1006 12.256 39.1212 12.3243 39.1611 12.3643C39.2011 12.4039 39.2688 12.4238 39.3643 12.4238H39.8691V12.7119H37.4688V12.4238H37.9727C38.0685 12.4238 38.1367 12.4042 38.1768 12.3643C38.2167 12.3243 38.2363 12.256 38.2363 12.1602V7.79199C38.2363 7.69601 38.2167 7.62789 38.1768 7.58789C38.1368 7.54789 38.0687 7.52832 37.9727 7.52832H37.4688V7.24023H39.1006V8.22363L39.1484 8.23633C39.3324 7.85233 39.561 7.56779 39.833 7.38379C40.1049 7.19197 40.4046 7.09576 40.7324 7.0957ZM52.6611 7.0957C52.9649 7.09579 53.2124 7.18444 53.4043 7.36035C53.5963 7.53635 53.6924 7.77608 53.6924 8.08008C53.6923 8.25593 53.6288 8.42784 53.501 8.5957C53.381 8.7637 53.2242 8.84766 53.0322 8.84766C52.8804 8.84757 52.7523 8.80746 52.6484 8.72754C52.5447 8.64756 52.4932 8.53544 52.4932 8.3916C52.4933 8.2238 52.5727 8.07986 52.7324 7.95996C52.8043 7.91202 52.8567 7.86809 52.8887 7.82812C52.9287 7.78812 52.9482 7.73587 52.9482 7.67188C52.9482 7.59992 52.9127 7.5439 52.8408 7.50391C52.7768 7.45591 52.6845 7.43164 52.5645 7.43164C52.3165 7.43172 52.0767 7.55207 51.8447 7.79199C51.6208 8.03192 51.4407 8.3437 51.3047 8.72754C51.1687 9.11148 51.1006 9.5118 51.1006 9.92773V12.1602C51.1006 12.256 51.1212 12.3243 51.1611 12.3643C51.2011 12.4039 51.2688 12.4238 51.3643 12.4238H51.8691V12.7119H49.4688V12.4238H49.9727C50.0685 12.4238 50.1367 12.4042 50.1768 12.3643C50.2167 12.3243 50.2363 12.256 50.2363 12.1602V7.79199C50.2363 7.69601 50.2167 7.62789 50.1768 7.58789C50.1368 7.54789 50.0687 7.52832 49.9727 7.52832H49.4688V7.24023H51.1006V8.43945L51.1484 8.45215C51.3164 8.03615 51.5329 7.70777 51.7969 7.46777C52.0688 7.21988 52.3572 7.0957 52.6611 7.0957ZM61.9521 12.1602C61.9522 12.256 61.9727 12.3243 62.0127 12.3643C62.0527 12.4039 62.1204 12.4238 62.2158 12.4238H62.8398V12.7119H60.2002V12.4238H60.8242C60.9201 12.4238 60.9883 12.4042 61.0283 12.3643C61.0683 12.3243 61.0879 12.256 61.0879 12.1602V4.71973C61.0879 4.62383 61.0683 4.5556 61.0283 4.51562C60.9883 4.4757 60.9201 4.45605 60.8242 4.45605H60.2002V4.16797H61.9521V12.1602ZM70.6855 4.55176H69.8223C69.7105 4.55176 69.6263 4.57993 69.5703 4.63574C69.5223 4.68374 69.498 4.76398 69.498 4.87598V12.0039C69.498 12.2199 69.6063 12.3281 69.8223 12.3281H70.6855V12.7119H67.2061V12.3281H68.0703C68.286 12.328 68.3936 12.2198 68.3936 12.0039V4.87598C68.3936 4.76398 68.3656 4.68374 68.3096 4.63574C68.2616 4.57999 68.1819 4.55182 68.0703 4.55176H67.2061V4.16797H70.6855V4.55176ZM74.9043 7.0957C75.4882 7.0957 75.9006 7.2758 76.1406 7.63574C76.3886 7.99568 76.5127 8.42776 76.5127 8.93164V12.1602C76.5127 12.256 76.5323 12.3243 76.5723 12.3643C76.6122 12.4042 76.6805 12.4238 76.7764 12.4238H77.2803V12.7119H74.8809V12.4238H75.3848C75.4806 12.4238 75.5489 12.4042 75.5889 12.3643C75.6288 12.3243 75.6484 12.256 75.6484 12.1602V8.7041C75.6484 8.3521 75.5766 8.05171 75.4326 7.80371C75.2966 7.55581 75.0605 7.43165 74.7246 7.43164C74.4447 7.43164 74.1927 7.53164 73.9688 7.73145C73.7528 7.92345 73.5801 8.19213 73.4521 8.53613C73.3322 8.87205 73.2725 9.2482 73.2725 9.66406V12.1602C73.2725 12.256 73.293 12.3243 73.333 12.3643C73.373 12.4039 73.4407 12.4238 73.5361 12.4238H74.041V12.7119H71.6406V12.4238H72.1445C72.2404 12.4238 72.3086 12.4042 72.3486 12.3643C72.3886 12.3243 72.4082 12.256 72.4082 12.1602V7.79199C72.4082 7.69601 72.3886 7.62789 72.3486 7.58789C72.3086 7.54789 72.2405 7.52832 72.1445 7.52832H71.6406V7.24023H73.2725V8.22363L73.3203 8.23633C73.5043 7.85233 73.7329 7.56779 74.0049 7.38379C74.2767 7.19197 74.5765 7.09576 74.9043 7.0957ZM89.4678 12.1602C89.4678 12.256 89.4884 12.3243 89.5283 12.3643C89.5683 12.4039 89.636 12.4238 89.7314 12.4238H90.3555V12.7119H87.7158V12.4238H88.3398C88.4357 12.4238 88.5039 12.4042 88.5439 12.3643C88.5839 12.3243 88.6035 12.256 88.6035 12.1602V4.71973C88.6035 4.62383 88.5839 4.5556 88.5439 4.51562C88.5039 4.4757 88.4358 4.45605 88.3398 4.45605H87.7158V4.16797H89.4678V12.1602ZM92.7021 12.1602C92.7022 12.256 92.7227 12.3243 92.7627 12.3643C92.8027 12.4039 92.8704 12.4238 92.9658 12.4238H93.5898V12.7119H90.9502V12.4238H91.5742C91.6701 12.4238 91.7383 12.4042 91.7783 12.3643C91.8183 12.3243 91.8379 12.256 91.8379 12.1602V4.71973C91.8379 4.62383 91.8183 4.5556 91.7783 4.51562C91.7383 4.4757 91.6701 4.45605 91.5742 4.45605H90.9502V4.16797H92.7021V12.1602ZM110.878 12.1602C110.878 12.256 110.899 12.3243 110.938 12.3643C110.978 12.4039 111.046 12.4238 111.142 12.4238H111.646V12.7119H109.246V12.4238H109.75C109.846 12.4238 109.914 12.4042 109.954 12.3643C109.994 12.3243 110.014 12.256 110.014 12.1602V7.79199C110.014 7.69601 109.994 7.62789 109.954 7.58789C109.914 7.54789 109.846 7.52832 109.75 7.52832H109.246V7.24023H110.878V12.1602ZM121.697 7.0957C122.281 7.0957 122.694 7.2758 122.934 7.63574C123.182 7.99568 123.306 8.42776 123.306 8.93164V12.1602C123.306 12.256 123.325 12.3243 123.365 12.3643C123.405 12.4042 123.473 12.4238 123.569 12.4238H124.073V12.7119H121.674V12.4238H122.178C122.274 12.4238 122.342 12.4042 122.382 12.3643C122.422 12.3243 122.441 12.256 122.441 12.1602V8.7041C122.441 8.3521 122.37 8.05171 122.226 7.80371C122.09 7.55581 121.853 7.43165 121.518 7.43164C121.238 7.43164 120.986 7.53164 120.762 7.73145C120.546 7.92345 120.373 8.19213 120.245 8.53613C120.125 8.87205 120.065 9.2482 120.065 9.66406V12.1602C120.065 12.256 120.086 12.3243 120.126 12.3643C120.166 12.4039 120.234 12.4238 120.329 12.4238H120.834V12.7119H118.434V12.4238H118.938C119.033 12.4238 119.102 12.4042 119.142 12.3643C119.182 12.3243 119.201 12.256 119.201 12.1602V7.79199C119.201 7.69601 119.182 7.62789 119.142 7.58789C119.102 7.54789 119.034 7.52832 118.938 7.52832H118.434V7.24023H120.065V8.22363L120.113 8.23633C120.297 7.85233 120.526 7.56779 120.798 7.38379C121.07 7.19197 121.369 7.09576 121.697 7.0957ZM115 7.38379C114.52 7.38392 114.177 7.61249 113.969 8.06836C113.761 8.51629 113.656 9.15189 113.656 9.97559C113.656 10.7995 113.761 11.4395 113.969 11.8955C114.177 12.3434 114.52 12.5682 115 12.5684C115.48 12.5684 115.824 12.3435 116.032 11.8955C116.24 11.4395 116.345 10.7994 116.345 9.97559C116.345 9.15193 116.24 8.51628 116.032 8.06836C115.824 7.61236 115.48 7.38379 115 7.38379ZM56.5869 10C56.2029 10.08 55.9221 10.2395 55.7461 10.4795C55.5781 10.7114 55.4942 11.0437 55.4941 11.4756C55.4941 11.8434 55.5708 12.0954 55.7227 12.2314C55.8746 12.3594 56.0464 12.4238 56.2383 12.4238C56.5982 12.4238 56.8781 12.2838 57.0781 12.0039C57.2861 11.7159 57.4709 11.3521 57.6309 10.9121V9.77148L56.5869 10ZM34.373 7.38379C33.9652 7.38383 33.6535 7.60793 33.4375 8.05566C33.2295 8.49566 33.125 9.03206 33.125 9.66406H35.4531C35.4531 9.02408 35.3692 8.48394 35.2012 8.04395C35.0332 7.60395 34.757 7.38379 34.373 7.38379ZM46.373 7.38379C45.9652 7.38383 45.6535 7.60793 45.4375 8.05566C45.2295 8.49566 45.125 9.03206 45.125 9.66406H47.4531C47.4531 9.02408 47.3692 8.48394 47.2012 8.04395C47.0332 7.60395 46.757 7.38379 46.373 7.38379ZM84.7402 7.38379C84.3324 7.38383 84.0207 7.60793 83.8047 8.05566C83.5967 8.49566 83.4922 9.03206 83.4922 9.66406H85.8203C85.8203 9.02408 85.7364 8.48394 85.5684 8.04395C85.4004 7.60395 85.1242 7.38379 84.7402 7.38379ZM96.7285 7.38379C96.3207 7.38383 96.0089 7.60793 95.793 8.05566C95.585 8.49566 95.4805 9.03206 95.4805 9.66406H97.8086C97.8086 9.02408 97.7246 8.48394 97.5566 8.04395C97.3886 7.60395 97.1125 7.38379 96.7285 7.38379ZM110.374 4.50391C110.558 4.50391 110.706 4.5636 110.818 4.68359C110.938 4.79559 110.998 4.94394 110.998 5.12793C110.998 5.30392 110.938 5.45227 110.818 5.57227C110.706 5.69225 110.558 5.75195 110.374 5.75195C110.198 5.75195 110.05 5.69226 109.93 5.57227C109.81 5.45227 109.75 5.30392 109.75 5.12793C109.75 4.94394 109.81 4.79559 109.93 4.68359C110.05 4.5636 110.198 4.50391 110.374 4.50391Z" fill="black"/>
<path d="M5.51465 17.5098H4.79492V16.79H5.51465V17.5098ZM12.7148 17.5098H11.9951V16.79H12.7148V17.5098ZM6.71484 16.3105H5.99512V15.5898H6.71484V16.3105ZM11.5146 16.3105H10.7949V15.5898H11.5146V16.3105ZM7.91504 15.1104H7.19531V14.3906H7.91504V15.1104ZM9.11523 15.1104H8.39551V14.3906H9.11523V15.1104ZM10.3154 15.1104H9.59473V14.3906H10.3154V15.1104ZM0.719727 12.7148H0V11.9951H0.719727V12.7148ZM17.5098 12.7148H16.79V11.9951H17.5098V12.7148ZM1.91992 11.5146H1.19922V10.7949H1.91992V11.5146ZM6.71484 11.5146H5.99512V10.7949H6.71484V11.5146ZM11.5146 11.5146H10.7949V10.7949H11.5146V11.5146ZM16.3105 11.5146H15.5898V10.7949H16.3105V11.5146ZM3.11914 10.3154H2.39941V9.59473H3.11914V10.3154ZM7.91504 10.3154H7.19531V9.59473H7.91504V10.3154ZM10.3145 10.3154H9.59473V9.59473H10.3145V10.3154ZM15.1104 10.3154H14.3906V9.59473H15.1104V10.3154ZM3.11914 9.11523H2.39941V8.39551H3.11914V9.11523ZM6.71484 9.11523H5.99512V8.39551H6.71484V9.11523ZM7.91504 9.11523H7.19531V8.39551H7.91504V9.11523ZM9.11523 9.11523H8.39453V8.39551H9.11523V9.11523ZM10.3145 9.11523H9.59473V8.39551H10.3145V9.11523ZM11.5146 9.11523H10.7949V8.39551H11.5146V9.11523ZM15.1104 9.11523H14.3906V8.39551H15.1104V9.11523ZM3.11914 7.91504H2.39941V7.19531H3.11914V7.91504ZM7.91504 7.91504H7.19531V7.19531H7.91504V7.91504ZM10.3145 7.91504H9.59473V7.19531H10.3145V7.91504ZM15.1104 7.91504H14.3906V7.19531H15.1104V7.91504ZM1.91992 6.71484H1.19922V5.99512H1.91992V6.71484ZM6.71484 6.71484H5.99512V5.99512H6.71484V6.71484ZM11.5146 6.71484H10.7949V5.99512H11.5146V6.71484ZM16.3105 6.71484H15.5898V5.99512H16.3105V6.71484ZM0.719727 5.51465H0V4.79492H0.719727V5.51465ZM17.5098 5.51465H16.79V4.79492H17.5098V5.51465ZM7.91504 3.11914H7.19531V2.39941H7.91504V3.11914ZM9.11523 3.11914H8.39551V2.39941H9.11523V3.11914ZM10.3154 3.11914H9.59473V2.39941H10.3154V3.11914ZM6.71484 1.91992H5.99512V1.19922H6.71484V1.91992ZM11.5146 1.91992H10.7949V1.19922H11.5146V1.91992ZM5.51465 0.719727H4.79492V0H5.51465V0.719727ZM12.7148 0.719727H11.9951V0H12.7148V0.719727Z" fill="black"/>
</svg>
