<svg width="91" height="34" viewBox="0 0 91 34" fill="none" xmlns="http://www.w3.org/2000/svg">
<path d="M28.752 15.332C27.9307 15.332 27.2213 15.2013 26.624 14.94C26.0267 14.6787 25.728 14.268 25.728 13.708C25.728 13.3627 25.8633 13.0593 26.134 12.798C26.4047 12.5367 26.7267 12.378 27.1 12.322V12.28C26.2787 12.1027 25.868 11.7573 25.868 11.244C25.868 10.8613 26.0127 10.5627 26.302 10.348C26.6007 10.124 26.9647 9.97467 27.394 9.9V9.858C27.002 9.69 26.666 9.438 26.386 9.102C26.1153 8.75667 25.98 8.304 25.98 7.744C25.98 7.268 26.0967 6.85733 26.33 6.512C26.5633 6.16667 26.8667 5.90533 27.24 5.728C27.6227 5.54133 28.0333 5.448 28.472 5.448C28.7427 5.448 29.0087 5.49467 29.27 5.588C29.5407 5.672 29.7693 5.77467 29.956 5.896C30.152 6.008 30.278 6.10133 30.334 6.176C30.418 5.93333 30.5533 5.75133 30.74 5.63C30.9267 5.50867 31.1133 5.448 31.3 5.448C31.6173 5.448 31.8787 5.54133 32.084 5.728C32.2893 5.91467 32.392 6.15733 32.392 6.456C32.392 6.68 32.336 6.862 32.224 7.002C32.1213 7.142 31.9813 7.212 31.804 7.212C31.6547 7.212 31.524 7.17467 31.412 7.1C31.3 7.016 31.244 6.88533 31.244 6.708C31.244 6.50267 31.3233 6.35333 31.482 6.26C31.538 6.22267 31.5753 6.19 31.594 6.162C31.622 6.12467 31.636 6.07333 31.636 6.008C31.636 5.93333 31.5987 5.87733 31.524 5.84C31.4493 5.80267 31.3607 5.784 31.258 5.784C31.09 5.784 30.936 5.854 30.796 5.994C30.6653 6.12467 30.5907 6.27867 30.572 6.456C30.8333 6.82 30.964 7.24933 30.964 7.744C30.964 8.21067 30.852 8.62133 30.628 8.976C30.404 9.32133 30.1007 9.58733 29.718 9.774C29.3447 9.95133 28.9293 10.04 28.472 10.04C27.94 10.04 27.464 10.1147 27.044 10.264C26.6333 10.404 26.428 10.642 26.428 10.978C26.428 11.1553 26.5073 11.2767 26.666 11.342C26.8247 11.4073 27.044 11.44 27.324 11.44C27.52 11.44 27.6787 11.4353 27.8 11.426C27.912 11.4167 28.0567 11.412 28.234 11.412H29.676C30.2733 11.412 30.7727 11.5753 31.174 11.902C31.5753 12.2193 31.776 12.6907 31.776 13.316C31.776 13.9693 31.496 14.4687 30.936 14.814C30.3853 15.1593 29.6573 15.332 28.752 15.332ZM28.472 9.704C28.9013 9.704 29.2373 9.53133 29.48 9.186C29.7227 8.84067 29.844 8.36 29.844 7.744C29.844 7.128 29.7227 6.64733 29.48 6.302C29.2373 5.95667 28.9013 5.784 28.472 5.784C28.0427 5.784 27.7067 5.95667 27.464 6.302C27.2213 6.64733 27.1 7.128 27.1 7.744C27.1 8.36 27.2213 8.84067 27.464 9.186C27.7067 9.53133 28.0427 9.704 28.472 9.704ZM28.752 14.996C29.424 14.996 30.012 14.8747 30.516 14.632C31.02 14.3987 31.272 13.9973 31.272 13.428C31.272 13.1387 31.1833 12.8867 31.006 12.672C30.838 12.4667 30.5393 12.364 30.11 12.364H28.556C27.9587 12.364 27.4407 12.462 27.002 12.658C26.5633 12.8633 26.344 13.204 26.344 13.68C26.344 14.1187 26.5913 14.4453 27.086 14.66C27.5807 14.884 28.136 14.996 28.752 14.996ZM36.1165 12.168C35.2485 12.168 34.5485 11.874 34.0165 11.286C33.4939 10.698 33.2325 9.88133 33.2325 8.836C33.2325 8.23867 33.3492 7.68333 33.5825 7.17C33.8159 6.64733 34.1379 6.232 34.5485 5.924C34.9685 5.60667 35.4352 5.448 35.9485 5.448C36.5179 5.448 36.9845 5.602 37.3485 5.91C37.7125 6.218 37.9739 6.61 38.1325 7.086C38.3005 7.55267 38.3845 8.03333 38.3845 8.528C38.3845 8.63067 38.3519 8.70067 38.2865 8.738C38.2212 8.766 38.1092 8.78 37.9505 8.78H34.4645C34.4645 9.71333 34.5952 10.4553 34.8565 11.006C35.1272 11.5567 35.5659 11.832 36.1725 11.832C36.6019 11.832 37.0032 11.6687 37.3765 11.342C37.7592 11.0153 38.0019 10.5067 38.1045 9.816H38.4405C38.3845 10.4973 38.1465 11.062 37.7265 11.51C37.3159 11.9487 36.7792 12.168 36.1165 12.168ZM37.1805 8.444C37.1805 7.69733 37.0825 7.06733 36.8865 6.554C36.6905 6.04067 36.3685 5.784 35.9205 5.784C35.4445 5.784 35.0805 6.04533 34.8285 6.568C34.5859 7.08133 34.4645 7.70667 34.4645 8.444H37.1805ZM39.532 11.664H40.12C40.232 11.664 40.3113 11.6407 40.358 11.594C40.4047 11.5473 40.428 11.468 40.428 11.356V6.26C40.428 6.148 40.4047 6.06867 40.358 6.022C40.3113 5.97533 40.232 5.952 40.12 5.952H39.532V5.616H41.436V6.764L41.492 6.778C41.7067 6.33 41.9727 5.99867 42.29 5.784C42.6073 5.56 42.9573 5.448 43.34 5.448C44.0213 5.448 44.502 5.658 44.782 6.078C45.0713 6.498 45.216 7.002 45.216 7.59V11.356C45.216 11.468 45.2393 11.5473 45.286 11.594C45.3327 11.6407 45.412 11.664 45.524 11.664H46.112V12H43.312V11.664H43.9C44.012 11.664 44.0913 11.6407 44.138 11.594C44.1847 11.5473 44.208 11.468 44.208 11.356V7.324C44.208 6.91333 44.124 6.56333 43.956 6.274C43.7973 5.98467 43.522 5.84 43.13 5.84C42.8033 5.84 42.5093 5.95667 42.248 6.19C41.996 6.414 41.7953 6.72667 41.646 7.128C41.506 7.52 41.436 7.95867 41.436 8.444V11.356C41.436 11.468 41.4593 11.5473 41.506 11.594C41.5527 11.6407 41.632 11.664 41.744 11.664H42.332V12H39.532V11.664ZM50.1165 12.168C49.2485 12.168 48.5485 11.874 48.0165 11.286C47.4939 10.698 47.2325 9.88133 47.2325 8.836C47.2325 8.23867 47.3492 7.68333 47.5825 7.17C47.8159 6.64733 48.1379 6.232 48.5485 5.924C48.9685 5.60667 49.4352 5.448 49.9485 5.448C50.5179 5.448 50.9845 5.602 51.3485 5.91C51.7125 6.218 51.9739 6.61 52.1325 7.086C52.3005 7.55267 52.3845 8.03333 52.3845 8.528C52.3845 8.63067 52.3519 8.70067 52.2865 8.738C52.2212 8.766 52.1092 8.78 51.9505 8.78H48.4645C48.4645 9.71333 48.5952 10.4553 48.8565 11.006C49.1272 11.5567 49.5659 11.832 50.1725 11.832C50.6019 11.832 51.0032 11.6687 51.3765 11.342C51.7592 11.0153 52.0019 10.5067 52.1045 9.816H52.4405C52.3845 10.4973 52.1465 11.062 51.7265 11.51C51.3159 11.9487 50.7792 12.168 50.1165 12.168ZM51.1805 8.444C51.1805 7.69733 51.0825 7.06733 50.8865 6.554C50.6905 6.04067 50.3685 5.784 49.9205 5.784C49.4445 5.784 49.0805 6.04533 48.8285 6.568C48.5859 7.08133 48.4645 7.70667 48.4645 8.444H51.1805ZM53.532 11.664H54.12C54.232 11.664 54.3113 11.6407 54.358 11.594C54.4047 11.5473 54.428 11.468 54.428 11.356V6.26C54.428 6.148 54.4047 6.06867 54.358 6.022C54.3113 5.97533 54.232 5.952 54.12 5.952H53.532V5.616H55.436V7.016L55.492 7.03C55.688 6.54467 55.94 6.162 56.248 5.882C56.5653 5.59267 56.9013 5.448 57.256 5.448C57.6107 5.448 57.9 5.55067 58.124 5.756C58.348 5.96133 58.46 6.24133 58.46 6.596C58.46 6.80133 58.3853 7.002 58.236 7.198C58.096 7.394 57.914 7.492 57.69 7.492C57.5127 7.492 57.3633 7.44533 57.242 7.352C57.1207 7.25867 57.06 7.128 57.06 6.96C57.06 6.764 57.1533 6.596 57.34 6.456C57.424 6.4 57.4847 6.34867 57.522 6.302C57.5687 6.25533 57.592 6.19467 57.592 6.12C57.592 6.036 57.55 5.97067 57.466 5.924C57.3913 5.868 57.284 5.84 57.144 5.84C56.8547 5.84 56.5747 5.98 56.304 6.26C56.0427 6.54 55.8327 6.904 55.674 7.352C55.5153 7.8 55.436 8.26667 55.436 8.752V11.356C55.436 11.468 55.4593 11.5473 55.506 11.594C55.5527 11.6407 55.632 11.664 55.744 11.664H56.332V12H53.532V11.664ZM61.2062 12.168C60.7115 12.168 60.2822 12.0467 59.9182 11.804C59.5635 11.5613 59.3862 11.132 59.3862 10.516C59.3862 10.04 59.5075 9.66667 59.7502 9.396C59.9929 9.12533 60.2729 8.934 60.5902 8.822C60.9169 8.70067 61.3089 8.598 61.7662 8.514L63.0542 8.276V7.086C63.0542 6.218 62.6202 5.784 61.7522 5.784C61.4349 5.784 61.1455 5.868 60.8842 6.036C60.6229 6.19467 60.4922 6.37667 60.4922 6.582C60.4922 6.67533 60.5062 6.74533 60.5342 6.792C60.5529 6.82 60.5809 6.848 60.6182 6.876C60.6649 6.904 60.7069 6.92267 60.7442 6.932C60.9122 6.97867 61.0382 7.044 61.1222 7.128C61.2155 7.212 61.2622 7.32867 61.2622 7.478C61.2622 7.674 61.2015 7.814 61.0802 7.898C60.9682 7.982 60.8235 8.024 60.6462 8.024C60.4409 8.024 60.2542 7.94467 60.0862 7.786C59.9182 7.62733 59.8342 7.39867 59.8342 7.1C59.8342 6.75467 59.9275 6.456 60.1142 6.204C60.3102 5.952 60.5575 5.76533 60.8562 5.644C61.1642 5.51333 61.4769 5.448 61.7942 5.448C62.4102 5.448 62.9422 5.61133 63.3902 5.938C63.8382 6.25533 64.0622 6.75467 64.0622 7.436V10.88C64.0622 11.3467 64.2069 11.58 64.4962 11.58C64.7295 11.58 64.8975 11.4447 65.0002 11.174C65.1029 10.9033 65.1542 10.572 65.1542 10.18H65.4062C65.4062 10.74 65.3222 11.2113 65.1542 11.594C64.9955 11.9767 64.7062 12.168 64.2862 12.168C63.8849 12.168 63.5815 12.0513 63.3762 11.818C63.1802 11.5753 63.0729 11.244 63.0542 10.824L62.9842 10.796C62.8442 11.1227 62.6155 11.4353 62.2982 11.734C61.9902 12.0233 61.6262 12.168 61.2062 12.168ZM61.4302 11.664C61.8502 11.664 62.1769 11.5007 62.4102 11.174C62.6529 10.838 62.8675 10.4133 63.0542 9.9V8.57L61.8362 8.836C61.3882 8.92933 61.0615 9.116 60.8562 9.396C60.6602 9.66667 60.5622 10.054 60.5622 10.558C60.5622 10.9873 60.6509 11.2813 60.8282 11.44C61.0055 11.5893 61.2062 11.664 61.4302 11.664ZM66.0522 11.664H66.7802C66.8922 11.664 66.9715 11.6407 67.0182 11.594C67.0648 11.5473 67.0882 11.468 67.0882 11.356V2.676C67.0882 2.564 67.0648 2.48467 67.0182 2.438C66.9715 2.39133 66.8922 2.368 66.7802 2.368H66.0522V2.032H68.0962V11.356C68.0962 11.468 68.1195 11.5473 68.1662 11.594C68.2128 11.6407 68.2922 11.664 68.4042 11.664H69.1322V12H66.0522V11.664ZM26.848 20.88C26.6427 20.88 26.47 20.81 26.33 20.67C26.19 20.53 26.12 20.3573 26.12 20.152C26.12 19.9373 26.19 19.7647 26.33 19.634C26.47 19.494 26.6427 19.424 26.848 19.424C27.0627 19.424 27.2353 19.494 27.366 19.634C27.506 19.7647 27.576 19.9373 27.576 20.152C27.576 20.3573 27.506 20.53 27.366 20.67C27.2353 20.81 27.0627 20.88 26.848 20.88ZM25.532 28.664H26.12C26.232 28.664 26.3113 28.6407 26.358 28.594C26.4047 28.5473 26.428 28.468 26.428 28.356V23.26C26.428 23.148 26.4047 23.0687 26.358 23.022C26.3113 22.9753 26.232 22.952 26.12 22.952H25.532V22.616H27.436V28.356C27.436 28.468 27.4593 28.5473 27.506 28.594C27.5527 28.6407 27.632 28.664 27.744 28.664H28.332V29H25.532V28.664ZM29.3054 28.664H29.8934C30.0054 28.664 30.0848 28.6407 30.1314 28.594C30.1781 28.5473 30.2014 28.468 30.2014 28.356V23.26C30.2014 23.148 30.1781 23.0687 30.1314 23.022C30.0848 22.9753 30.0054 22.952 29.8934 22.952H29.3054V22.616H31.2094V23.764L31.2654 23.778C31.4801 23.33 31.7461 22.9987 32.0634 22.784C32.3808 22.56 32.7308 22.448 33.1134 22.448C33.7948 22.448 34.2754 22.658 34.5554 23.078C34.8448 23.498 34.9894 24.002 34.9894 24.59V28.356C34.9894 28.468 35.0128 28.5473 35.0594 28.594C35.1061 28.6407 35.1854 28.664 35.2974 28.664H35.8854V29H33.0854V28.664H33.6734C33.7854 28.664 33.8648 28.6407 33.9114 28.594C33.9581 28.5473 33.9814 28.468 33.9814 28.356V24.324C33.9814 23.9133 33.8974 23.5633 33.7294 23.274C33.5708 22.9847 33.2954 22.84 32.9034 22.84C32.5768 22.84 32.2828 22.9567 32.0214 23.19C31.7694 23.414 31.5688 23.7267 31.4194 24.128C31.2794 24.52 31.2094 24.9587 31.2094 25.444V28.356C31.2094 28.468 31.2328 28.5473 31.2794 28.594C31.3261 28.6407 31.4054 28.664 31.5174 28.664H32.1054V29H29.3054V28.664ZM39.218 29.168C38.798 29.168 38.448 29.0187 38.168 28.72C37.8973 28.4213 37.762 28.0153 37.762 27.502V23.008H36.726V22.616H37.034C37.454 22.616 37.7807 22.392 38.014 21.944C38.2567 21.4867 38.378 20.9827 38.378 20.432V19.928H38.77V22.616H40.506V23.008H38.77V27.572C38.77 27.852 38.826 28.0853 38.938 28.272C39.05 28.4587 39.2413 28.552 39.512 28.552C40.1747 28.552 40.506 27.992 40.506 26.872H40.758C40.758 27.4973 40.6647 28.0387 40.478 28.496C40.3007 28.944 39.8807 29.168 39.218 29.168ZM44.7845 29.168C43.9165 29.168 43.2165 28.874 42.6845 28.286C42.1618 27.698 41.9005 26.8813 41.9005 25.836C41.9005 25.2387 42.0172 24.6833 42.2505 24.17C42.4838 23.6473 42.8058 23.232 43.2165 22.924C43.6365 22.6067 44.1032 22.448 44.6165 22.448C45.1858 22.448 45.6525 22.602 46.0165 22.91C46.3805 23.218 46.6418 23.61 46.8005 24.086C46.9685 24.5527 47.0525 25.0333 47.0525 25.528C47.0525 25.6307 47.0198 25.7007 46.9545 25.738C46.8892 25.766 46.7772 25.78 46.6185 25.78H43.1325C43.1325 26.7133 43.2632 27.4553 43.5245 28.006C43.7952 28.5567 44.2338 28.832 44.8405 28.832C45.2698 28.832 45.6712 28.6687 46.0445 28.342C46.4272 28.0153 46.6698 27.5067 46.7725 26.816H47.1085C47.0525 27.4973 46.8145 28.062 46.3945 28.51C45.9838 28.9487 45.4472 29.168 44.7845 29.168ZM45.8485 25.444C45.8485 24.6973 45.7505 24.0673 45.5545 23.554C45.3585 23.0407 45.0365 22.784 44.5885 22.784C44.1125 22.784 43.7485 23.0453 43.4965 23.568C43.2538 24.0813 43.1325 24.7067 43.1325 25.444H45.8485ZM48.06 28.664H48.788C48.9 28.664 48.9793 28.6407 49.026 28.594C49.0726 28.5473 49.096 28.468 49.096 28.356V19.676C49.096 19.564 49.0726 19.4847 49.026 19.438C48.9793 19.3913 48.9 19.368 48.788 19.368H48.06V19.032H50.104V28.356C50.104 28.468 50.1273 28.5473 50.174 28.594C50.2206 28.6407 50.3 28.664 50.412 28.664H51.14V29H48.06V28.664ZM51.8334 28.664H52.5614C52.6734 28.664 52.7527 28.6407 52.7994 28.594C52.8461 28.5473 52.8694 28.468 52.8694 28.356V19.676C52.8694 19.564 52.8461 19.4847 52.7994 19.438C52.7527 19.3913 52.6734 19.368 52.5614 19.368H51.8334V19.032H53.8774V28.356C53.8774 28.468 53.9007 28.5473 53.9474 28.594C53.9941 28.6407 54.0734 28.664 54.1854 28.664H54.9134V29H51.8334V28.664ZM58.7708 29.168C57.9028 29.168 57.2028 28.874 56.6708 28.286C56.1482 27.698 55.8868 26.8813 55.8868 25.836C55.8868 25.2387 56.0035 24.6833 56.2368 24.17C56.4702 23.6473 56.7922 23.232 57.2028 22.924C57.6228 22.6067 58.0895 22.448 58.6028 22.448C59.1722 22.448 59.6388 22.602 60.0028 22.91C60.3668 23.218 60.6282 23.61 60.7868 24.086C60.9548 24.5527 61.0388 25.0333 61.0388 25.528C61.0388 25.6307 61.0062 25.7007 60.9408 25.738C60.8755 25.766 60.7635 25.78 60.6048 25.78H57.1188C57.1188 26.7133 57.2495 27.4553 57.5108 28.006C57.7815 28.5567 58.2202 28.832 58.8268 28.832C59.2562 28.832 59.6575 28.6687 60.0308 28.342C60.4135 28.0153 60.6562 27.5067 60.7588 26.816H61.0948C61.0388 27.4973 60.8008 28.062 60.3808 28.51C59.9702 28.9487 59.4335 29.168 58.7708 29.168ZM59.8348 25.444C59.8348 24.6973 59.7368 24.0673 59.5408 23.554C59.3448 23.0407 59.0228 22.784 58.5748 22.784C58.0988 22.784 57.7348 23.0453 57.4828 23.568C57.2402 24.0813 57.1188 24.7067 57.1188 25.444H59.8348ZM65.0703 29.168C64.529 29.168 64.0483 29.0187 63.6283 28.72C63.2176 28.4213 62.8956 28.0153 62.6623 27.502C62.4383 26.9887 62.3263 26.424 62.3263 25.808C62.3263 25.192 62.443 24.6273 62.6763 24.114C62.9096 23.6007 63.2316 23.1947 63.6423 22.896C64.0623 22.5973 64.5383 22.448 65.0703 22.448C65.4996 22.448 65.873 22.5413 66.1903 22.728C66.5076 22.9053 66.7503 23.1387 66.9183 23.428C67.0863 23.708 67.1703 23.9927 67.1703 24.282C67.1703 24.5713 67.0956 24.8 66.9463 24.968C66.797 25.1267 66.615 25.206 66.4003 25.206C66.2136 25.206 66.055 25.1453 65.9243 25.024C65.803 24.9027 65.7423 24.758 65.7423 24.59C65.7423 24.422 65.789 24.282 65.8823 24.17C65.9756 24.058 66.0876 23.9833 66.2183 23.946C66.3676 23.8993 66.4423 23.8153 66.4423 23.694C66.4423 23.582 66.391 23.456 66.2883 23.316C66.195 23.176 66.0456 23.0547 65.8403 22.952C65.635 22.84 65.3783 22.784 65.0703 22.784C64.4823 22.784 64.081 23.036 63.8663 23.54C63.661 24.044 63.5583 24.8 63.5583 25.808C63.5583 26.816 63.661 27.572 63.8663 28.076C64.0716 28.58 64.473 28.832 65.0703 28.832C65.6396 28.832 66.0783 28.6313 66.3863 28.23C66.6943 27.8287 66.881 27.3573 66.9463 26.816H67.2823C67.2543 27.1987 67.1563 27.572 66.9883 27.936C66.8203 28.2907 66.573 28.5847 66.2463 28.818C65.9196 29.0513 65.5276 29.168 65.0703 29.168ZM70.636 29.168C70.216 29.168 69.866 29.0187 69.586 28.72C69.3153 28.4213 69.18 28.0153 69.18 27.502V23.008H68.144V22.616H68.452C68.872 22.616 69.1986 22.392 69.432 21.944C69.6746 21.4867 69.796 20.9827 69.796 20.432V19.928H70.188V22.616H71.924V23.008H70.188V27.572C70.188 27.852 70.244 28.0853 70.356 28.272C70.468 28.4587 70.6593 28.552 70.93 28.552C71.5926 28.552 71.924 27.992 71.924 26.872H72.176C72.176 27.4973 72.0826 28.0387 71.896 28.496C71.7186 28.944 71.2986 29.168 70.636 29.168ZM74.4945 20.88C74.2892 20.88 74.1165 20.81 73.9765 20.67C73.8365 20.53 73.7665 20.3573 73.7665 20.152C73.7665 19.9373 73.8365 19.7647 73.9765 19.634C74.1165 19.494 74.2892 19.424 74.4945 19.424C74.7092 19.424 74.8818 19.494 75.0125 19.634C75.1525 19.7647 75.2225 19.9373 75.2225 20.152C75.2225 20.3573 75.1525 20.53 75.0125 20.67C74.8818 20.81 74.7092 20.88 74.4945 20.88ZM73.1785 28.664H73.7665C73.8785 28.664 73.9578 28.6407 74.0045 28.594C74.0512 28.5473 74.0745 28.468 74.0745 28.356V23.26C74.0745 23.148 74.0512 23.0687 74.0045 23.022C73.9578 22.9753 73.8785 22.952 73.7665 22.952H73.1785V22.616H75.0825V28.356C75.0825 28.468 75.1058 28.5473 75.1525 28.594C75.1992 28.6407 75.2785 28.664 75.3905 28.664H75.9785V29H73.1785V28.664ZM79.8919 29.168C79.3786 29.168 78.9073 29.0187 78.4779 28.72C78.0486 28.412 77.7079 28.0013 77.4559 27.488C77.2133 26.9747 77.0919 26.4147 77.0919 25.808C77.0919 25.2013 77.2133 24.6413 77.4559 24.128C77.7079 23.6147 78.0486 23.2087 78.4779 22.91C78.9073 22.602 79.3786 22.448 79.8919 22.448C80.4053 22.448 80.8766 22.602 81.3059 22.91C81.7353 23.2087 82.0713 23.6147 82.3139 24.128C82.5659 24.6413 82.6919 25.2013 82.6919 25.808C82.6919 26.4147 82.5659 26.9747 82.3139 27.488C82.0713 28.0013 81.7353 28.412 81.3059 28.72C80.8766 29.0187 80.4053 29.168 79.8919 29.168ZM79.8919 28.832C80.4519 28.832 80.8533 28.5707 81.0959 28.048C81.3386 27.516 81.4599 26.7693 81.4599 25.808C81.4599 24.8467 81.3386 24.1047 81.0959 23.582C80.8533 23.05 80.4519 22.784 79.8919 22.784C79.3319 22.784 78.9306 23.05 78.6879 23.582C78.4453 24.1047 78.3239 24.8467 78.3239 25.808C78.3239 26.7693 78.4453 27.516 78.6879 28.048C78.9306 28.5707 79.3319 28.832 79.8919 28.832ZM83.8972 28.664H84.4852C84.5972 28.664 84.6766 28.6407 84.7232 28.594C84.7699 28.5473 84.7932 28.468 84.7932 28.356V23.26C84.7932 23.148 84.7699 23.0687 84.7232 23.022C84.6766 22.9753 84.5972 22.952 84.4852 22.952H83.8972V22.616H85.8012V23.764L85.8572 23.778C86.0719 23.33 86.3379 22.9987 86.6552 22.784C86.9726 22.56 87.3226 22.448 87.7052 22.448C88.3866 22.448 88.8672 22.658 89.1472 23.078C89.4366 23.498 89.5812 24.002 89.5812 24.59V28.356C89.5812 28.468 89.6046 28.5473 89.6512 28.594C89.6979 28.6407 89.7772 28.664 89.8892 28.664H90.4772V29H87.6772V28.664H88.2652C88.3772 28.664 88.4566 28.6407 88.5032 28.594C88.5499 28.5473 88.5732 28.468 88.5732 28.356V24.324C88.5732 23.9133 88.4892 23.5633 88.3212 23.274C88.1626 22.9847 87.8872 22.84 87.4952 22.84C87.1686 22.84 86.8746 22.9567 86.6132 23.19C86.3612 23.414 86.1606 23.7267 86.0112 24.128C85.8712 24.52 85.8012 24.9587 85.8012 25.444V28.356C85.8012 28.468 85.8246 28.5473 85.8712 28.594C85.9179 28.6407 85.9972 28.664 86.1092 28.664H86.6972V29H83.8972V28.664Z" fill="black"/>
<path d="M20.1602 22.2793V23.2402H19.2002V22.2793H20.1602ZM16.3203 19.3994V18.4395H18.2402V19.3994H20.1602V20.3594H18.2402V21.3193H19.2002V22.2793H18.2402V21.3193H16.3203V20.3594H14.4004V19.3994H16.3203ZM20.1602 16.5195V17.4795H19.2002V16.5195H20.1602ZM20.1602 10.7598V11.7197H19.2002V10.7598H20.1602ZM16.3203 7.87891V6.91895H18.2402V7.87891H20.1602V8.83887H18.2402V9.79883H19.2002V10.7598H18.2402V9.79883H16.3203V8.83887H14.4004V7.87891H16.3203ZM20.1602 4.99902V5.95898H19.2002V4.99902H20.1602ZM19.2002 17.4795V18.4395H18.2402V17.4795H19.2002ZM19.2002 5.95898V6.91895H18.2402V5.95898H19.2002ZM16.3203 21.3193V22.2793H15.3604V21.3193H16.3203ZM16.3203 17.4795V18.4395H15.3604V17.4795H16.3203ZM16.3203 9.79883V10.7598H15.3604V9.79883H16.3203ZM16.3203 5.95898V6.91895H15.3604V5.95898H16.3203ZM15.3604 28.04V29H14.4004V28.04H15.3604ZM11.5205 25.1602V24.2002H13.4404V25.1602H15.3604V26.1201H13.4404V27.0801H14.4004V28.04H13.4404V27.0801H11.5205V26.1201H9.59961V25.1602H11.5205ZM15.3604 22.2793V23.2402H14.4004V22.2793H15.3604ZM15.3604 16.5195V17.4795H14.4004V16.5195H15.3604ZM11.5205 13.6396V12.6797H13.4404V13.6396L15.3604 13.6396L15.3604 14.5996L13.4404 14.5996V15.5596H14.4004V16.5195H13.4404V15.5596H11.5205V14.5996H9.59961L9.59961 13.6396H11.5205ZM15.3604 10.7598V11.7197H14.4004V10.7598H15.3604ZM15.3604 4.99902V5.95898H14.4004V4.99902H15.3604ZM14.4004 23.2402V24.2002H13.4404V23.2402H14.4004ZM14.4004 11.7197V12.6797H13.4404V11.7197H14.4004ZM11.5205 27.0801V28.04H10.5605V27.0801H11.5205ZM11.5205 23.2402V24.2002H10.5605V23.2402H11.5205ZM11.5205 15.5596V16.5195H10.5605V15.5596H11.5205ZM11.5205 11.7197V12.6797H10.5605V11.7197H11.5205ZM10.5605 28.04V29H9.59961V28.04H10.5605ZM9.59961 22.2803L10.5605 22.2793V23.2402H9.59961V22.2803ZM6.71973 19.3994V18.4395H8.63965V19.3994H10.5605V20.3594H8.63965V21.3193H9.60059V22.2793H8.63965V21.3193H6.71973V20.3594H4.7998V19.3994H6.71973ZM10.5605 16.5195V17.4795H9.59961V16.5195H10.5605ZM10.5605 10.7598V11.7197H9.59961V10.7598H10.5605ZM6.71973 7.87891L6.71973 6.91895H8.63965V7.87891H10.5605V8.83887H8.63965V9.79883H9.60059V10.7598H8.63965V9.79883H6.71973V8.83887H4.7998V7.87891H6.71973ZM10.5605 4.99902V5.95898H9.60059V4.99902H10.5605ZM9.60059 17.4795V18.4395H8.63965V17.4795H9.60059ZM9.60059 5.95898V6.91895H8.63965V5.95898H9.60059ZM6.71973 21.3193L6.71973 22.2793H5.75977L5.75977 21.3193H6.71973ZM6.71973 17.4795V18.4395H5.75977V17.4795H6.71973ZM6.71973 9.79883V10.7598H5.75977V9.79883H6.71973ZM6.71973 5.95898V6.91895H5.75977V5.95898H6.71973ZM5.75977 28.04V29H4.7998V28.04H5.75977ZM1.91992 25.1602V24.2002H3.83984V25.1602H5.75977V26.1201H3.83984V27.0801H4.7998V28.04H3.83984V27.0801H1.91992V26.1201H0L0 25.1602H1.91992ZM5.75977 22.2793V23.2402H4.7998V22.2793H5.75977ZM5.75977 16.5195V17.4795H4.7998V16.5195H5.75977ZM1.91992 13.6396L1.91992 12.6797H3.83984V13.6396H5.75977V14.5996H3.83984V15.5596H4.7998V16.5195H3.83984V15.5596H1.91992V14.5996H0L0 13.6396H1.91992ZM5.75977 10.7598V11.7197H4.7998V10.7598H5.75977ZM5.75977 4.99902V5.95898H4.7998V4.99902H5.75977ZM4.7998 23.2402V24.2002H3.83984V23.2402H4.7998ZM4.7998 11.7197V12.6797H3.83984V11.7197H4.7998ZM1.91992 27.0801L1.91992 28.04H0.959961V27.0801H1.91992ZM0.959961 23.2402H1.91992L1.91992 24.2002H0.959961V23.2402ZM1.91992 15.5596L1.91992 16.5195H0.959961V15.5596H1.91992ZM1.91992 11.7197V12.6797H0.959961L0.959961 11.7197H1.91992ZM0.959961 28.04L0.959961 29H0L0 28.04H0.959961ZM0.959961 22.2803L0.959961 23.2402H0L0 22.2803H0.959961ZM0.959961 16.5195L0.959961 17.4795H0L0 16.5195H0.959961ZM0.959961 10.7598V11.7197H0L0 10.7598H0.959961Z" fill="black"/>
</svg>
