<svg width="15" height="15" viewBox="0 0 15 15" fill="none" xmlns="http://www.w3.org/2000/svg">
<path d="M4.76614 0.00113163C5.1665 -0.0126737 5.48675 0.0998275 5.7261 0.339022C5.85032 0.463235 5.91478 0.592333 5.91946 0.725741C5.92867 0.854641 5.88751 0.965701 5.79544 1.05777C5.69879 1.15434 5.57647 1.2023 5.42923 1.2023C5.28194 1.20222 5.08395 1.11446 4.83548 0.939608C4.65628 0.815594 4.50904 0.760937 4.39407 0.774569C4.24216 0.78838 4.10556 0.855072 3.98587 0.974764C3.71912 1.24168 3.58779 1.61675 3.59232 2.09976C3.59692 2.46341 3.76804 2.9192 4.10403 3.46695C4.44468 4.01014 5.11173 4.77932 6.10599 5.77359C6.31125 5.97886 6.52056 6.1804 6.7324 6.37912C6.74164 6.38778 6.75674 6.38098 6.75638 6.36832C6.74336 6.06887 6.73685 5.77259 6.73685 5.47965C6.73685 3.83913 6.8443 2.68019 7.05911 2.00308C7.27393 1.32608 7.5963 0.827959 8.02591 0.508944C8.46205 0.189975 8.91465 0.0304696 9.38333 0.0304285C9.78044 0.0304285 10.1223 0.170434 10.4087 0.45035C10.7017 0.723788 10.8482 1.02978 10.8482 1.36832C10.8482 1.54406 10.8026 1.68084 10.7115 1.77848C10.6268 1.87604 10.5193 1.92496 10.3892 1.92496C10.2525 1.92491 10.132 1.87283 10.0279 1.76871C9.92373 1.66454 9.84556 1.46265 9.79349 1.16324C9.75443 0.948397 9.68932 0.805168 9.59818 0.733554C9.481 0.635933 9.33773 0.587069 9.16849 0.587069C8.79095 0.587124 8.43276 0.75965 8.09427 1.10465C7.84042 1.36508 7.63851 1.80788 7.4888 2.43277C7.34559 3.05778 7.27396 4.07349 7.27396 5.47965C7.27396 5.77163 7.27907 6.0636 7.28843 6.35557C7.28885 6.36872 7.30488 6.37487 7.314 6.36539C7.51655 6.14442 7.72109 5.92997 7.92825 5.72281C9.08834 4.56272 9.98409 3.81919 10.6148 3.49234C11.2453 3.16561 11.8257 3.04105 12.355 3.1193C12.8888 3.2022 13.3215 3.41 13.6529 3.74137C13.9335 4.02211 14.076 4.36251 14.0806 4.76285C14.0944 5.16331 13.982 5.48344 13.7427 5.72281C13.6185 5.84706 13.4894 5.91152 13.356 5.91617C13.2271 5.92538 13.116 5.88422 13.024 5.79215C12.9273 5.69549 12.8794 5.5732 12.8794 5.42594C12.8794 5.27862 12.9672 5.08078 13.1421 4.83219C13.2664 4.65268 13.321 4.50488 13.3072 4.3898C13.2933 4.23801 13.2266 4.10219 13.107 3.98258C12.84 3.71575 12.4651 3.58448 11.982 3.58902C11.6184 3.59362 11.1624 3.76387 10.6148 4.09976C10.0716 4.44043 9.3025 5.10834 8.30814 6.10269C8.10537 6.30546 7.90599 6.51161 7.7096 6.72075C7.69865 6.73242 7.70718 6.7515 7.72318 6.75113C8.01608 6.73811 8.30917 6.7316 8.60208 6.7316C10.2426 6.7316 11.4015 6.84231 12.0786 7.06363C12.7622 7.27847 13.2603 7.60401 13.5728 8.04019C13.8918 8.46988 14.0513 8.9191 14.0513 9.38785C14.0513 9.77844 13.9113 10.1203 13.6314 10.4132C13.358 10.6996 13.0552 10.8429 12.7232 10.8429C12.5345 10.8429 12.3911 10.8006 12.2935 10.716C12.2024 10.6314 12.1568 10.5206 12.1568 10.3839C12.1568 10.2473 12.2089 10.13 12.313 10.0324C12.4172 9.92824 12.6224 9.84683 12.9283 9.78824C13.1365 9.74269 13.2765 9.6775 13.3482 9.59293C13.4458 9.47576 13.4946 9.33247 13.4947 9.16324C13.4947 8.78564 13.3221 8.42756 12.9771 8.08902C12.7232 7.84165 12.2837 7.64305 11.6587 7.49332C11.0402 7.3436 10.018 7.26871 8.59232 7.26871C8.31065 7.26871 8.02676 7.27387 7.7406 7.28295C7.72479 7.28345 7.71749 7.30281 7.72903 7.31363C7.94527 7.51146 8.15676 7.71403 8.3638 7.92105C9.52381 9.08106 10.2651 9.97913 10.5874 10.6144C10.9189 11.2497 11.0411 11.8321 10.9536 12.3615C10.8754 12.8908 10.6707 13.3211 10.3394 13.6525C10.0632 13.9287 9.72204 14.072 9.31693 14.0812C8.92121 14.0904 8.60633 13.977 8.37161 13.7423C8.23811 13.6088 8.16598 13.4777 8.15677 13.3488C8.15222 13.2246 8.19881 13.1144 8.29544 13.0177C8.39202 12.9212 8.51132 12.8746 8.65384 12.8791C8.80115 12.8791 9.00444 12.9668 9.26224 13.1418C9.44159 13.2567 9.58639 13.3101 9.69681 13.3009C9.84858 13.2871 9.98443 13.2202 10.104 13.1007C10.371 12.8337 10.5022 12.4581 10.4976 11.9748C10.493 11.6203 10.3229 11.1691 9.98685 10.6212C9.65536 10.078 8.98518 9.3022 7.97708 8.2941C7.77774 8.09476 7.57309 7.89758 7.36412 7.70149C7.35186 7.68998 7.33184 7.69918 7.33255 7.71598C7.34557 8.00892 7.35208 8.30194 7.35208 8.59488C7.35208 10.2355 7.2414 11.3944 7.02005 12.0714C6.80521 12.755 6.47966 13.2531 6.04349 13.5656C5.61385 13.8845 5.16452 14.0441 4.69583 14.0441C4.30528 14.0441 3.96336 13.9041 3.67044 13.6242C3.38404 13.3508 3.24078 13.048 3.24075 12.716C3.24075 12.5273 3.28315 12.3839 3.36771 12.2863C3.4523 12.1952 3.5631 12.1496 3.69974 12.1496C3.83644 12.1496 3.95365 12.2017 4.0513 12.3058C4.15547 12.41 4.23685 12.6151 4.29544 12.9211C4.341 13.1293 4.40615 13.2694 4.49075 13.341C4.6079 13.4386 4.75125 13.4874 4.92044 13.4875C5.298 13.4875 5.65616 13.3148 5.99466 12.9699C6.24204 12.716 6.44063 12.2765 6.59036 11.6515C6.7401 11.033 6.81497 10.0109 6.81497 8.58512C6.81497 8.30472 6.80894 8.02206 6.79985 7.7372C6.79933 7.72077 6.779 7.71343 6.7681 7.72574C6.57027 7.94197 6.3677 8.15348 6.16068 8.36051C5.00058 9.5206 4.10261 10.2619 3.46732 10.5841C2.83204 10.9156 2.24965 11.0378 1.72025 10.9504C1.19086 10.8721 0.760676 10.6666 0.42923 10.3351C0.15311 10.0589 0.00973039 9.71867 0.000519061 9.31363C-0.00868806 8.91773 0.104605 8.60212 0.339386 8.36734C0.472829 8.23395 0.604098 8.16268 0.732941 8.15348C0.857042 8.1489 0.967432 8.19478 1.064 8.29117C1.16064 8.38781 1.20724 8.5079 1.20267 8.65055C1.20267 8.79781 1.1148 9.00028 0.939972 9.25797C0.824883 9.43751 0.771585 9.58303 0.780792 9.69351C0.794611 9.84528 0.861484 9.98114 0.980988 10.1007C1.24798 10.3677 1.62362 10.4989 2.10696 10.4943C2.46143 10.4897 2.91268 10.3196 3.46048 9.98355C4.0037 9.6521 4.77945 8.98197 5.78763 7.97379C5.98949 7.77193 6.18872 7.56423 6.38723 7.35248C6.39644 7.34264 6.38898 7.3266 6.37552 7.3273C6.0761 7.34032 5.77976 7.34683 5.48685 7.34683C3.84632 7.34683 2.68734 7.2394 2.01028 7.02457C1.33327 6.80973 0.835133 6.48743 0.516144 6.05777C0.197168 5.62161 0.0376483 5.16906 0.0376284 4.70035C0.0376284 4.30328 0.177691 3.96139 0.45755 3.67496C0.730939 3.38204 1.03705 3.23556 1.37552 3.23551C1.55127 3.23551 1.68802 3.28111 1.78568 3.37223C1.88333 3.45686 1.93216 3.56428 1.93216 3.69449C1.93214 3.83117 1.88005 3.95167 1.77591 4.05582C1.6717 4.15992 1.46979 4.23813 1.17044 4.29019C0.955703 4.32926 0.812347 4.39439 0.740753 4.48551C0.643175 4.60267 0.594269 4.74599 0.594269 4.91519C0.594296 5.29275 0.766854 5.65091 1.11185 5.98941C1.37224 6.2433 1.81505 6.44515 2.43997 6.59488C3.06495 6.7381 4.08069 6.80972 5.48685 6.80973C5.77743 6.80973 6.06814 6.80369 6.35873 6.79434C6.37245 6.7939 6.37874 6.77707 6.36868 6.76773C6.14777 6.56522 5.93321 6.36059 5.7261 6.15348C4.56612 4.99347 3.82247 4.0976 3.49564 3.46695C3.16908 2.83665 3.0445 2.25683 3.12259 1.72769C3.20545 1.19368 3.4132 0.760322 3.74466 0.428866C4.02535 0.148246 4.36588 0.00582418 4.76614 0.00113163Z" fill="black"/>
</svg>
