<svg width="100" height="17" viewBox="0 0 100 17" fill="none" xmlns="http://www.w3.org/2000/svg">
<path d="M1 13H0V12H1V13ZM5 13H3V12H5V13ZM9 13H7V12H9V13ZM12 13H11V12H12V13ZM3 11H2V10H3V11ZM7 11H5V10H7V11ZM10 11H9V10H10V11ZM1 10H0V8H1V10ZM12 10H11V8H12V10ZM5 9H4V8H5V9ZM8 9H7V8H8V9ZM3 8H2V6H3V8ZM10 8H9V6H10V8ZM1 6H0V4H1V6ZM5 6H4V5H5V6ZM8 6H7V5H8V6ZM12 6H11V4H12V6ZM3 4H2V3H3V4ZM7 4H5V3H7V4ZM10 4H9V3H10V4ZM1 2H0V1H1V2ZM5 2H3V1H5V2ZM9 2H7V1H9V2ZM12 2H11V1H12V2Z" fill="black"/>
<path d="M55.999 3.06055C56.2484 3.06055 56.4527 3.13489 56.6113 3.28223C56.7812 3.42954 56.8662 3.62774 56.8662 3.87695C56.8662 4.11491 56.7866 4.31303 56.6279 4.47168C56.4806 4.61897 56.271 4.69238 55.999 4.69238C55.6818 4.69233 55.4385 4.57916 55.2686 4.35254H55.2168V5.20312C55.3415 5.37312 55.4724 5.59421 55.6084 5.86621C55.7443 6.13816 55.8125 6.48944 55.8125 6.91992C55.8125 7.36187 55.7276 7.76432 55.5576 8.12695C55.3876 8.48962 55.1488 8.79559 54.8428 9.04492C54.5482 9.2941 54.1916 9.4871 53.7725 9.62305C53.3646 9.759 52.9168 9.82711 52.4297 9.82715C52.1124 9.82715 51.8116 9.7926 51.5283 9.72461C51.2338 9.78125 50.9674 9.90609 50.7295 10.0986C50.4915 10.2799 50.3721 10.5011 50.3721 10.7617C50.3721 11.045 50.48 11.2431 50.6953 11.3564C50.9106 11.4698 51.2732 11.5273 51.7832 11.5273H53.7891C54.7862 11.5273 55.523 11.7308 55.999 12.1387C56.4863 12.5353 56.7304 13.1077 56.7305 13.8555C56.7305 14.6941 56.3617 15.3636 55.625 15.8623C54.8884 16.3608 53.8004 16.6094 52.3613 16.6094C51.6813 16.6094 51.103 16.559 50.627 16.457C50.1513 16.3551 49.7662 16.2134 49.4717 16.0322C49.1771 15.8509 48.9612 15.6297 48.8252 15.3691C48.7005 15.1085 48.6387 14.8192 48.6387 14.502C48.6387 14.2754 48.6891 14.0656 48.791 13.873C48.893 13.6805 49.0293 13.5106 49.1992 13.3633C49.3692 13.216 49.562 13.0913 49.7773 12.9893C49.9927 12.8759 50.2138 12.7901 50.4404 12.7334V12.666C49.7264 12.4167 49.3691 11.9347 49.3691 11.2207C49.3692 10.7674 49.5106 10.4101 49.7939 10.1494C50.0886 9.88878 50.4291 9.70746 50.8145 9.60547V9.52051C50.2818 9.29384 49.8564 8.95958 49.5391 8.51758C49.2332 8.07565 49.0801 7.5431 49.0801 6.91992C49.0801 6.47792 49.1597 6.08083 49.3184 5.72949C49.4883 5.36698 49.7211 5.06078 50.0156 4.81152C50.3215 4.56237 50.6782 4.36934 51.0859 4.2334C51.4939 4.0974 51.9424 4.03027 52.4297 4.03027C52.9621 4.03032 53.4152 4.10371 53.7891 4.25098C54.1742 4.38692 54.4972 4.55685 54.7578 4.76074C54.7692 4.1037 54.894 3.65602 55.1318 3.41797C55.3811 3.18002 55.6704 3.0606 55.999 3.06055ZM94.0957 5.01562H92.8721L95.2344 11.4414H95.3027L97.5977 5.01562H96.374V4.2334H99.4678V5.01562H98.584L94.9463 14.4678C94.7083 15.0911 94.3846 15.6014 93.9766 15.998C93.5799 16.4059 93.0925 16.6094 92.5146 16.6094C91.9369 16.6093 91.5175 16.4855 91.2568 16.2363C90.9962 15.9984 90.8663 15.6807 90.8662 15.2842C90.8662 14.9897 90.9451 14.7516 91.1035 14.5703C91.2622 14.389 91.4895 14.2979 91.7842 14.2979C92.0446 14.2979 92.243 14.3714 92.3789 14.5186C92.5262 14.6771 92.5995 14.887 92.5996 15.1475C92.5996 15.3399 92.549 15.4932 92.4473 15.6064C92.3566 15.7311 92.254 15.8107 92.1406 15.8447V15.8955C92.2653 15.9408 92.413 15.9639 92.583 15.9639C92.8776 15.9638 93.1669 15.8339 93.4502 15.5732C93.7335 15.3239 93.9882 14.9099 94.2148 14.332L94.5723 13.3633L91.3418 5.01562H90.458V4.2334H94.0957V5.01562ZM50.916 12.9043C50.5535 13.0629 50.2871 13.2726 50.1172 13.5332C49.9586 13.7938 49.8789 14.0884 49.8789 14.417C49.8789 14.8701 50.0719 15.2099 50.457 15.4365C50.8537 15.6632 51.3808 15.7773 52.0381 15.7773H52.8369C53.6869 15.7773 54.3502 15.6349 54.8262 15.3516C55.3134 15.0682 55.5576 14.6888 55.5576 14.2129C55.5576 13.7822 55.4099 13.4532 55.1152 13.2266C54.8206 13.0113 54.3048 12.9043 53.5684 12.9043H50.916ZM43.4678 4.03027C44.0457 4.03027 44.5614 4.13201 45.0146 4.33594C45.468 4.53994 45.8483 4.82913 46.1543 5.20312C46.4715 5.56569 46.7148 6.00195 46.8848 6.51172C47.0548 7.02168 47.1396 7.57712 47.1396 8.17773V8.56934H41.1045V9.01074C41.1045 9.97408 41.3433 10.7337 41.8193 11.2891C42.3066 11.8442 42.9524 12.122 43.7568 12.1221C44.4593 12.1221 45.0149 11.9805 45.4229 11.6973C45.8422 11.4026 46.1712 11.0223 46.4092 10.5576L46.9697 10.915C46.8564 11.2096 46.6981 11.499 46.4941 11.7822C46.3016 12.0541 46.0634 12.2975 45.7803 12.5127C45.4969 12.7167 45.1679 12.8812 44.7939 13.0059C44.42 13.1418 44.0007 13.2099 43.5361 13.21C42.9128 13.21 42.3512 13.1021 41.8525 12.8867C41.3655 12.6601 40.9522 12.3485 40.6123 11.9521C40.2723 11.5555 40.0114 11.0735 39.8301 10.5068C39.6488 9.94024 39.5576 9.31135 39.5576 8.62012C39.5576 7.94012 39.654 7.32193 39.8467 6.7666C40.0507 6.19999 40.3231 5.71265 40.6631 5.30469C41.0144 4.89676 41.4284 4.58542 41.9043 4.37012C42.3802 4.14353 42.9012 4.0303 43.4678 4.03027ZM69.1797 4.03027C70.0976 4.03032 70.8113 4.26819 71.3213 4.74414C71.8426 5.22014 72.1035 5.88871 72.1035 6.75V12.2744H73.3779V12.8701C73.2533 12.9607 73.0832 13.0395 72.8682 13.1074C72.6643 13.1754 72.4323 13.2099 72.1719 13.21C71.7299 13.21 71.3894 13.0853 71.1514 12.8359C70.9134 12.5866 70.794 12.2523 70.7939 11.833V11.7139H70.709C70.6297 11.9063 70.5225 12.0933 70.3867 12.2744C70.2621 12.4557 70.0975 12.615 69.8936 12.751C69.6896 12.887 69.4402 12.9949 69.1455 13.0742C68.8622 13.1649 68.5278 13.2099 68.1426 13.21C67.3267 13.21 66.6863 13.0002 66.2217 12.5811C65.7684 12.1504 65.5411 11.5666 65.541 10.8301C65.541 10.4107 65.6091 10.0419 65.7451 9.72461C65.8811 9.3961 66.1024 9.12446 66.4082 8.90918C66.7255 8.69385 67.1341 8.52935 67.6328 8.41602C68.1314 8.30275 68.7374 8.24611 69.4512 8.24609H70.709V6.9541C70.709 6.26277 70.5392 5.73571 70.1992 5.37305C69.8706 4.99905 69.3718 4.81152 68.7031 4.81152C68.4087 4.81154 68.1369 4.83989 67.8877 4.89648C67.6384 4.94181 67.434 5.00995 67.2754 5.10059V5.13477C67.4 5.20276 67.5195 5.30446 67.6328 5.44043C67.7574 5.57637 67.8193 5.76937 67.8193 6.01855C67.8193 6.3132 67.7344 6.54582 67.5645 6.71582C67.3945 6.87442 67.1679 6.95403 66.8848 6.9541C66.6128 6.9541 66.3854 6.87449 66.2041 6.71582C66.0342 6.54582 65.9492 6.29633 65.9492 5.96777C65.9492 5.71856 66.0227 5.48047 66.1699 5.25391C66.3173 5.01591 66.5278 4.80633 66.7998 4.625C67.0718 4.44373 67.4062 4.30217 67.8027 4.2002C68.2107 4.0869 68.6698 4.03027 69.1797 4.03027ZM36.0469 4.2334H38.3076V5.06641H36.0469V12.1729H38.3076V12.7334C38.2057 12.79 38.0756 12.8414 37.917 12.8867C37.7698 12.932 37.5997 12.9719 37.4072 13.0059C37.226 13.0398 37.033 13.0629 36.8291 13.0742C36.6251 13.0969 36.4261 13.1074 36.2334 13.1074C35.6332 13.1074 35.2198 12.9888 34.9932 12.751C34.7665 12.5017 34.6524 12.0823 34.6523 11.4932V5.06641H33.5312V4.2334H33.6836C33.9216 4.2334 34.1091 4.21662 34.2451 4.18262C34.3923 4.14863 34.5057 4.1035 34.585 4.04688C34.6756 3.97889 34.7375 3.89923 34.7715 3.80859C34.8168 3.70662 34.8566 3.59338 34.8906 3.46875L35.2822 1.95605H36.0469V4.2334ZM87.6777 4.2334H89.9385V5.06641H87.6777V12.1729H89.9385V12.7334C89.8365 12.79 89.7064 12.8414 89.5479 12.8867C89.4006 12.932 89.2306 12.9719 89.0381 13.0059C88.8568 13.0398 88.6639 13.0629 88.46 13.0742C88.256 13.0969 88.0569 13.1074 87.8643 13.1074C87.264 13.1074 86.8507 12.9888 86.624 12.751C86.3974 12.5017 86.2832 12.0823 86.2832 11.4932V5.06641H85.1621V4.2334H85.3145C85.5525 4.2334 85.74 4.21662 85.876 4.18262C86.0231 4.14863 86.1365 4.1035 86.2158 4.04688C86.3064 3.97889 86.3684 3.89923 86.4023 3.80859C86.4477 3.70662 86.4875 3.59338 86.5215 3.46875L86.9131 1.95605H87.6777V4.2334ZM21.0127 1.92188H19.7373V12.2236H21.0127V13.0059H17V12.2236H18.2754V1.92188H17V1.13965H21.0127V1.92188ZM27.9941 4.03027C29.0481 4.03027 29.8025 4.30795 30.2559 4.86328C30.7203 5.40728 30.9521 6.22911 30.9521 7.32812V12.2236H32.21V13.0059H28.3008V12.2236H29.5586V7.44727C29.5586 5.81527 28.8723 4.99902 27.501 4.99902C27.2518 4.99906 27.0021 5.03262 26.7529 5.10059C26.5152 5.16856 26.2946 5.27668 26.0908 5.42383C25.8982 5.57116 25.7389 5.75244 25.6143 5.96777C25.501 6.183 25.4444 6.43794 25.4443 6.73242V12.2236H26.7021V13.0059H22.792V12.2236H24.0508V5.33887L22.792 5.11816V4.54004L25.4102 4.03027V5.55957H25.4785C25.5465 5.38976 25.6484 5.21432 25.7842 5.0332C25.9315 4.85187 26.1075 4.68737 26.3115 4.54004C26.5269 4.39271 26.7762 4.27328 27.0596 4.18262C27.3428 4.0807 27.6543 4.0303 27.9941 4.03027ZM62.8662 4.03027C63.3649 4.03027 63.762 4.14872 64.0566 4.38672C64.3625 4.62471 64.5156 4.97058 64.5156 5.42383C64.5156 5.76363 64.4305 6.03002 64.2607 6.22266C64.0908 6.41524 63.8695 6.51163 63.5977 6.51172C63.2917 6.51172 63.0475 6.4321 62.8662 6.27344C62.6851 6.10349 62.5947 5.88844 62.5947 5.62793C62.5947 5.40127 62.6398 5.21998 62.7305 5.08398C62.8325 4.93666 62.9457 4.85178 63.0703 4.8291V4.79492C63.025 4.78359 62.9683 4.77833 62.9004 4.77832C62.8324 4.76699 62.7474 4.76075 62.6455 4.76074C62.4075 4.76074 62.1696 4.82361 61.9316 4.94824C61.6936 5.06158 61.4778 5.21456 61.2852 5.40723C61.1039 5.5885 60.9508 5.79824 60.8262 6.03613C60.7129 6.27404 60.6562 6.51209 60.6562 6.75V12.2236H62.2539V13.0059H58.0039V12.2236H59.2627V5.33887L58.0039 5.11816V4.54004L60.6221 4.03027V5.55957H60.707C60.7864 5.37829 60.8828 5.19691 60.9961 5.01562C61.1208 4.83432 61.2685 4.66978 61.4385 4.52246C61.6197 4.37524 61.8242 4.25663 62.0508 4.16602C62.2887 4.07545 62.5604 4.03028 62.8662 4.03027ZM77.2188 12.2236H78.4766V13.0059H74.5664V12.2236H75.8242V1.39453L74.5664 1.17383V0.579102L77.2188 0.0859375V12.2236ZM82.5703 12.2236H83.8281V13.0059H79.918V12.2236H81.1768V5.33887L79.918 5.11816V4.54004L82.5703 4.03027V12.2236ZM69.6045 8.92578C69.1174 8.92578 68.7095 8.96566 68.3809 9.04492C68.0522 9.11292 67.7913 9.22083 67.5986 9.36816C67.406 9.50414 67.2645 9.67397 67.1738 9.87793C67.0945 10.0819 67.0547 10.3198 67.0547 10.5918V10.9492C67.0548 11.3795 67.2017 11.708 67.4961 11.9346C67.7907 12.1612 68.2047 12.2744 68.7373 12.2744C69.2813 12.2744 69.7465 12.1392 70.1318 11.8672C70.517 11.5839 70.7089 11.153 70.709 10.5752V8.92578H69.6045ZM52.4463 4.76074C51.823 4.76074 51.3525 4.92524 51.0352 5.25391C50.7292 5.58253 50.5762 6.03013 50.5762 6.59668V7.25977C50.5762 7.82631 50.7293 8.27389 51.0352 8.60254C51.3525 8.93121 51.823 9.0957 52.4463 9.0957C53.0696 9.09569 53.5339 8.93118 53.8398 8.60254C54.1572 8.27387 54.3164 7.82643 54.3164 7.25977V6.59668C54.3164 6.0301 54.1571 5.58254 53.8398 5.25391C53.5339 4.92536 53.0695 4.76075 52.4463 4.76074ZM43.4678 4.8291C43.0826 4.82912 42.7428 4.89725 42.4482 5.0332C42.1536 5.1692 41.9042 5.36199 41.7002 5.61133C41.5076 5.86062 41.3598 6.1552 41.2578 6.49512C41.1559 6.82371 41.1045 7.18645 41.1045 7.58301V7.78711H45.6777V7.61719C45.6777 7.22052 45.6327 6.85172 45.542 6.51172C45.4627 6.17188 45.3326 5.87718 45.1514 5.62793C44.9701 5.37862 44.7374 5.1858 44.4541 5.0498C44.1821 4.90247 43.8531 4.8291 43.4678 4.8291ZM81.873 0.324219C82.1677 0.324219 82.395 0.414369 82.5537 0.595703C82.7123 0.76563 82.791 0.975431 82.791 1.22461V1.30957C82.791 1.55887 82.7123 1.77473 82.5537 1.95605C82.395 2.12605 82.1677 2.21094 81.873 2.21094C81.5786 2.21088 81.352 2.12592 81.1934 1.95605C81.046 1.77472 80.9727 1.5589 80.9727 1.30957V1.22461C80.9727 0.975386 81.0461 0.765646 81.1934 0.595703C81.352 0.414492 81.5786 0.324283 81.873 0.324219Z" fill="black"/>
</svg>
