<svg width="700" height="700" viewBox="0 0 700 700" fill="none" xmlns="http://www.w3.org/2000/svg">
<rect x="300" y="200" width="100" height="100" fill="black"/>
<rect x="200" y="400" width="100" height="100" fill="black"/>
<rect x="100" y="400" width="100" height="100" fill="black"/>
<rect y="400" width="100" height="100" fill="black"/>
<rect y="400" width="300" height="100" fill="black"/>
<rect x="200" y="600" width="400" height="100" fill="black"/>
<rect x="200" y="600" width="100" height="100" fill="black"/>
<rect x="300" y="600" width="100" height="100" fill="black"/>
<rect x="400" y="600" width="100" height="100" fill="black"/>
<rect x="500" y="600" width="100" height="100" fill="black"/>
<rect x="500" y="500" width="100" height="100" fill="black"/>
<rect x="100" y="400" width="100" height="200" fill="black"/>
<rect x="500" y="400" width="100" height="100" fill="black"/>
<rect x="600" y="400" width="100" height="100" fill="black"/>
<rect x="400" y="400" width="300" height="100" fill="black"/>
<rect x="200" y="100" width="100" height="100" fill="black"/>
<rect x="400" y="100" width="100" height="100" fill="black"/>
<rect x="300" width="100" height="100" fill="black"/>
</svg>
