<svg width="641" height="125" viewBox="0 0 641 125" fill="none" xmlns="http://www.w3.org/2000/svg">
<rect x="37.7266" y="36.1406" width="12.5717" height="12.5717" fill="black"/>
<rect x="25.1406" y="61.2734" width="12.5717" height="12.5717" fill="black"/>
<rect x="12.5781" y="61.2734" width="12.5717" height="12.5717" fill="black"/>
<rect y="61.2734" width="12.5717" height="12.5717" fill="black"/>
<rect y="61.2734" width="37.7152" height="12.5717" fill="black"/>
<rect x="25.1406" y="86.4297" width="50.2869" height="12.5717" fill="black"/>
<rect x="25.1406" y="86.4297" width="12.5717" height="12.5717" fill="black"/>
<rect x="37.7266" y="86.4297" width="12.5717" height="12.5717" fill="black"/>
<rect x="50.2812" y="86.4297" width="12.5717" height="12.5717" fill="black"/>
<rect x="62.8516" y="86.4297" width="12.5717" height="12.5717" fill="black"/>
<rect x="62.8516" y="73.8516" width="12.5717" height="12.5717" fill="black"/>
<rect x="12.5781" y="61.2734" width="12.5717" height="25.1434" fill="black"/>
<rect x="62.8516" y="61.2734" width="12.5717" height="12.5717" fill="black"/>
<rect x="75.4297" y="61.2734" width="12.5717" height="12.5717" fill="black"/>
<rect x="50.2812" y="61.2734" width="37.7152" height="12.5717" fill="black"/>
<rect x="25.1406" y="23.5703" width="12.5717" height="12.5717" fill="black"/>
<rect x="50.2812" y="23.5703" width="12.5717" height="12.5717" fill="black"/>
<rect x="37.7266" y="11" width="12.5717" height="12.5717" fill="black"/>
<path d="M131.725 99V31.992H144.301V88.632H173.965V99H131.725ZM211.56 41.784C208.68 41.784 206.632 41.176 205.416 39.96C204.264 38.744 203.688 37.272 203.688 35.544V33.24C203.688 31.512 204.264 30.04 205.416 28.824C206.632 27.608 208.68 27 211.56 27C214.44 27 216.456 27.608 217.608 28.824C218.824 30.04 219.432 31.512 219.432 33.24V35.544C219.432 37.272 218.824 38.744 217.608 39.96C216.456 41.176 214.44 41.784 211.56 41.784ZM189.096 89.304H205.416V59.16H189.096V49.464H217.704V89.304H232.872V99H189.096V89.304ZM292.546 104.184C292.546 109.368 290.37 113.176 286.018 115.608C281.73 118.104 275.01 119.352 265.858 119.352C261.378 119.352 257.634 119.064 254.626 118.488C251.618 117.976 249.186 117.208 247.33 116.184C245.538 115.16 244.258 113.912 243.49 112.44C242.722 111.032 242.338 109.432 242.338 107.64C242.338 104.888 243.138 102.776 244.738 101.304C246.338 99.832 248.578 98.744 251.458 98.04V97.272C249.538 96.632 248.002 95.736 246.85 94.584C245.762 93.432 245.218 91.832 245.218 89.784C245.218 87.352 246.018 85.528 247.618 84.312C249.282 83.096 251.458 82.168 254.146 81.528V81.048C251.202 79.64 248.898 77.656 247.234 75.096C245.57 72.536 244.738 69.432 244.738 65.784C244.738 63.032 245.218 60.6 246.178 58.488C247.202 56.312 248.61 54.488 250.402 53.016C252.258 51.48 254.466 50.328 257.026 49.56C259.586 48.728 262.434 48.312 265.57 48.312C268.898 48.312 271.906 48.76 274.594 49.656V47.544C274.594 45.624 275.202 44.024 276.418 42.744C277.698 41.464 279.458 40.824 281.698 40.824H290.626V50.04H278.914V51.672C281.346 53.144 283.202 55.064 284.482 57.432C285.826 59.736 286.498 62.52 286.498 65.784C286.498 68.536 285.986 71 284.962 73.176C284.002 75.352 282.594 77.176 280.738 78.648C278.946 80.12 276.738 81.272 274.114 82.104C271.554 82.872 268.706 83.256 265.57 83.256C264.29 83.256 263.042 83.224 261.826 83.16C260.674 83.032 259.554 82.808 258.466 82.488C257.57 82.808 256.706 83.32 255.874 84.024C255.042 84.728 254.626 85.656 254.626 86.808C254.626 88.344 255.362 89.304 256.834 89.688C258.306 90.008 260.066 90.168 262.114 90.168H273.346C276.802 90.168 279.746 90.52 282.178 91.224C284.61 91.864 286.594 92.824 288.13 94.104C289.666 95.32 290.786 96.792 291.49 98.52C292.194 100.248 292.546 102.136 292.546 104.184ZM281.026 105.048C281.026 103.576 280.418 102.392 279.202 101.496C278.05 100.664 275.874 100.248 272.674 100.248H255.586C253.666 101.336 252.706 102.936 252.706 105.048C252.706 106.776 253.41 108.216 254.818 109.368C256.29 110.52 258.754 111.096 262.21 111.096H270.178C277.41 111.096 281.026 109.08 281.026 105.048ZM265.57 75.192C268.706 75.192 271.01 74.456 272.482 72.984C273.954 71.448 274.69 69.464 274.69 67.032V64.536C274.69 62.104 273.954 60.152 272.482 58.68C271.01 57.144 268.706 56.376 265.57 56.376C262.498 56.376 260.226 57.144 258.754 58.68C257.282 60.152 256.546 62.104 256.546 64.536V67.032C256.546 69.464 257.282 71.448 258.754 72.984C260.226 74.456 262.498 75.192 265.57 75.192ZM302.013 27.96H314.301V58.2H314.781C315.869 55.512 317.533 53.208 319.773 51.288C322.077 49.304 325.245 48.312 329.277 48.312C334.141 48.312 338.077 49.944 341.085 53.208C344.157 56.408 345.693 61.016 345.693 67.032V99H333.405V68.76C333.405 61.592 330.301 58.008 324.093 58.008C322.813 58.008 321.597 58.168 320.445 58.488C319.293 58.808 318.237 59.32 317.277 60.024C316.381 60.664 315.645 61.464 315.069 62.424C314.557 63.384 314.301 64.536 314.301 65.88V99H302.013V27.96ZM384.535 99C379.799 99 376.311 97.752 374.071 95.256C371.831 92.76 370.711 89.528 370.711 85.56V59.16H356.311V49.464H366.103C368.087 49.464 369.495 49.08 370.327 48.312C371.159 47.48 371.575 46.04 371.575 43.992V31.992H382.999V49.464H403.159V59.16H382.999V89.304H403.159V99H384.535ZM438.546 100.152C433.106 100.152 428.402 99.32 424.434 97.656C420.466 95.928 417.362 93.624 415.122 90.744L422.322 84.216C424.37 86.456 426.706 88.184 429.33 89.4C432.018 90.616 435.122 91.224 438.642 91.224C441.714 91.224 444.178 90.712 446.034 89.688C447.89 88.664 448.818 87.096 448.818 84.984C448.818 83.192 448.178 81.976 446.898 81.336C445.682 80.696 444.05 80.216 442.002 79.896L434.034 78.648C431.986 78.328 429.97 77.88 427.986 77.304C426.066 76.664 424.338 75.8 422.802 74.712C421.33 73.624 420.146 72.248 419.25 70.584C418.354 68.856 417.906 66.776 417.906 64.344C417.906 59.16 419.826 55.192 423.666 52.44C427.57 49.688 432.914 48.312 439.698 48.312C444.498 48.312 448.562 48.984 451.89 50.328C455.282 51.672 458.066 53.56 460.242 55.992L453.81 63.096C452.402 61.56 450.514 60.216 448.146 59.064C445.842 57.848 442.898 57.24 439.314 57.24C433.042 57.24 429.906 59.192 429.906 63.096C429.906 64.888 430.546 66.136 431.826 66.84C433.106 67.48 434.77 67.96 436.818 68.28L444.69 69.528C446.802 69.848 448.818 70.328 450.738 70.968C452.722 71.544 454.45 72.376 455.922 73.464C457.458 74.552 458.674 75.928 459.57 77.592C460.466 79.256 460.914 81.304 460.914 83.736C460.914 88.856 458.93 92.888 454.962 95.832C451.058 98.712 445.586 100.152 438.546 100.152ZM474.7 27.96H486.988V58.2H487.468C488.556 55.512 490.22 53.208 492.46 51.288C494.764 49.304 497.932 48.312 501.964 48.312C506.828 48.312 510.764 49.944 513.772 53.208C516.844 56.408 518.38 61.016 518.38 67.032V99H506.092V68.76C506.092 61.592 502.988 58.008 496.78 58.008C495.5 58.008 494.284 58.168 493.132 58.488C491.98 58.808 490.924 59.32 489.964 60.024C489.068 60.664 488.332 61.464 487.756 62.424C487.244 63.384 486.988 64.536 486.988 65.88V99H474.7V27.96ZM556.935 41.784C554.055 41.784 552.007 41.176 550.791 39.96C549.639 38.744 549.062 37.272 549.062 35.544V33.24C549.062 31.512 549.639 30.04 550.791 28.824C552.007 27.608 554.055 27 556.935 27C559.815 27 561.831 27.608 562.983 28.824C564.199 30.04 564.807 31.512 564.807 33.24V35.544C564.807 37.272 564.199 38.744 562.983 39.96C561.831 41.176 559.815 41.784 556.935 41.784ZM534.471 89.304H550.791V59.16H534.471V49.464H563.079V89.304H578.247V99H534.471V89.304ZM589.249 49.464H601.537V58.2H602.209C603.553 55.192 605.377 52.792 607.681 51C610.049 49.208 613.153 48.312 616.993 48.312C619.809 48.312 622.369 48.856 624.673 49.944C627.041 50.968 629.057 52.568 630.721 54.744C632.385 56.856 633.665 59.544 634.561 62.808C635.457 66.072 635.905 69.88 635.905 74.232C635.905 78.584 635.457 82.392 634.561 85.656C633.665 88.92 632.385 91.64 630.721 93.816C629.057 95.928 627.041 97.528 624.673 98.616C622.369 99.64 619.809 100.152 616.993 100.152C613.153 100.152 610.049 99.256 607.681 97.464C605.377 95.672 603.553 93.272 602.209 90.264H601.537V118.2H589.249V49.464ZM611.809 90.36C615.393 90.36 618.145 89.272 620.065 87.096C622.049 84.92 623.041 81.944 623.041 78.168V70.296C623.041 66.52 622.049 63.544 620.065 61.368C618.145 59.192 615.393 58.104 611.809 58.104C608.993 58.104 606.561 58.808 604.513 60.216C602.529 61.56 601.537 63.64 601.537 66.456V82.008C601.537 84.824 602.529 86.936 604.513 88.344C606.561 89.688 608.993 90.36 611.809 90.36Z" fill="black"/>
</svg>
