<svg width="119" height="18" viewBox="0 0 119 18" fill="none" xmlns="http://www.w3.org/2000/svg">
<path d="M115.551 7.35938H115.167C115.071 7.3594 114.983 7.38751 114.903 7.44336C114.823 7.49133 114.783 7.55955 114.783 7.64746C114.783 7.78346 114.807 7.91595 114.855 8.04395L116.104 11.7275L117.099 8.43945C117.131 8.34346 117.16 8.23522 117.184 8.11523C117.215 7.99574 117.231 7.89997 117.231 7.82812C117.231 7.69212 117.191 7.57921 117.111 7.49121C117.031 7.4033 116.927 7.35938 116.799 7.35938H116.511V7.07129H118.695V7.35938H118.419C118.243 7.35941 118.079 7.42008 117.927 7.54004C117.783 7.65203 117.671 7.82769 117.591 8.06738L115.659 14.2119C115.571 14.5077 115.403 14.7795 115.155 15.0273C114.907 15.2753 114.599 15.3993 114.231 15.3994C113.919 15.3994 113.663 15.2996 113.463 15.0996C113.359 15.0037 113.275 14.8878 113.211 14.752C113.155 14.624 113.127 14.4877 113.127 14.3438C113.127 14.2399 113.143 14.1398 113.175 14.0439C113.215 13.9559 113.263 13.8878 113.319 13.8398C113.439 13.7199 113.576 13.6592 113.728 13.6592C113.911 13.6593 114.047 13.7162 114.135 13.8281C114.231 13.9481 114.279 14.0956 114.279 14.2715C114.279 14.3674 114.247 14.4796 114.184 14.6074C114.136 14.6874 114.111 14.7639 114.111 14.8359C114.111 14.9557 114.192 15.0156 114.352 15.0156C114.591 15.0155 114.791 14.9194 114.951 14.7275C115.119 14.5436 115.243 14.3233 115.323 14.0674L115.647 13.0234L113.943 8.06738C113.847 7.81146 113.755 7.63132 113.667 7.52734C113.579 7.41555 113.435 7.35942 113.235 7.35938H112.839V7.07129H115.551V7.35938ZM55.5068 6.92773C55.8827 6.92779 56.2309 7.05558 56.5508 7.31152C56.8787 7.55952 57.1391 7.90378 57.3311 8.34375C57.523 8.78367 57.6182 9.27173 57.6182 9.80762C57.6182 10.3435 57.523 10.8316 57.3311 11.2715C57.1391 11.7114 56.8787 12.0594 56.5508 12.3154C56.2309 12.5634 55.8827 12.6874 55.5068 12.6875C55.195 12.6875 54.9149 12.5875 54.667 12.3877C54.419 12.1797 54.2343 11.9316 54.1143 11.6436L54.0664 11.6553V14.752C54.0664 14.8478 54.087 14.9161 54.127 14.9561C54.167 14.9958 54.2354 15.0156 54.3311 15.0156H54.9541V15.3037H52.3145V15.0156H52.9385C53.0343 15.0156 53.1026 14.9959 53.1426 14.9561C53.1825 14.9161 53.2021 14.8478 53.2021 14.752V7.62402C53.2021 7.52814 53.1825 7.45994 53.1426 7.41992C53.1026 7.37992 53.0345 7.35938 52.9385 7.35938H52.3145V7.07129H54.0664V7.95996L54.1143 7.97168C54.2662 7.65176 54.4585 7.39981 54.6904 7.21582C54.9304 7.02382 55.2028 6.92773 55.5068 6.92773ZM33.6953 6.92773C34.1832 6.92778 34.5836 7.05928 34.8955 7.32324C35.2075 7.58724 35.4314 7.92405 35.5674 8.33203C35.7112 8.73181 35.7832 9.14363 35.7832 9.56738C35.7832 9.65538 35.7552 9.71605 35.6992 9.74805C35.6432 9.77204 35.5471 9.7832 35.4111 9.7832H32.4229C32.4229 10.583 32.5349 11.2194 32.7588 11.6914C32.9907 12.1633 33.3669 12.3993 33.8867 12.3994C34.2547 12.3994 34.5989 12.2595 34.9189 11.9795C35.2469 11.6995 35.4549 11.2638 35.543 10.6719H35.8311C35.783 11.2558 35.5787 11.7401 35.2188 12.124C34.8668 12.4998 34.4067 12.6875 33.8389 12.6875C33.095 12.6875 32.495 12.4356 32.0391 11.9316C31.5911 11.4277 31.3673 10.7278 31.3672 9.83203C31.3672 9.32003 31.467 8.84332 31.667 8.40332C31.867 7.95548 32.1432 7.59988 32.4951 7.33594C32.8551 7.06394 33.2553 6.92773 33.6953 6.92773ZM44.1602 6.92773C44.5281 6.92773 44.8481 7.00802 45.1201 7.16797C45.392 7.31993 45.6001 7.51967 45.7441 7.76758C45.8881 8.00758 45.9609 8.252 45.9609 8.5C45.9609 8.74783 45.8965 8.94396 45.7686 9.08789C45.6406 9.22375 45.4846 9.29192 45.3008 9.29199C45.1408 9.29199 45.0046 9.23968 44.8926 9.13574C44.7886 9.03175 44.7363 8.90766 44.7363 8.76367C44.7363 8.61967 44.7764 8.49932 44.8564 8.40332C44.9364 8.30742 45.0326 8.2439 45.1445 8.21191C45.2723 8.17197 45.3367 8.09985 45.3369 7.99609C45.3369 7.90009 45.2921 7.79187 45.2041 7.67188C45.1241 7.55188 44.9963 7.44737 44.8203 7.35938C44.6444 7.26346 44.424 7.21582 44.1602 7.21582C43.6565 7.21591 43.3129 7.43168 43.1289 7.86328C42.9529 8.29528 42.8643 8.94363 42.8643 9.80762C42.8643 10.6716 42.9529 11.32 43.1289 11.752C43.3049 12.1836 43.6485 12.3993 44.1602 12.3994C44.648 12.3994 45.0241 12.2276 45.2881 11.8838C45.552 11.5398 45.7125 11.1358 45.7686 10.6719H46.0566C46.0326 10.9998 45.9487 11.3199 45.8047 11.6318C45.6607 11.9357 45.4488 12.1877 45.1689 12.3877C44.8889 12.5877 44.5522 12.6875 44.1602 12.6875C43.6964 12.6874 43.2847 12.5595 42.9248 12.3037C42.5729 12.0477 42.2967 11.6997 42.0967 11.2598C41.9047 10.8198 41.8086 10.3356 41.8086 9.80762C41.8086 9.27963 41.9084 8.79546 42.1084 8.35547C42.3084 7.91552 42.5846 7.5675 42.9365 7.31152C43.2964 7.05562 43.7043 6.9278 44.1602 6.92773ZM49.3633 6.92773C49.8512 6.92778 50.2515 7.05928 50.5635 7.32324C50.8754 7.58724 51.0994 7.92405 51.2354 8.33203C51.3792 8.73181 51.4511 9.14363 51.4512 9.56738C51.4512 9.65538 51.4232 9.71605 51.3672 9.74805C51.3112 9.77204 51.2151 9.7832 51.0791 9.7832H48.0908C48.0908 10.583 48.2029 11.2194 48.4268 11.6914C48.6587 12.1633 49.0349 12.3993 49.5547 12.3994C49.9227 12.3994 50.2669 12.2595 50.5869 11.9795C50.9149 11.6995 51.1229 11.2638 51.2109 10.6719H51.499C51.451 11.2558 51.2467 11.7401 50.8867 12.124C50.5348 12.4998 50.0747 12.6875 49.5068 12.6875C48.7629 12.6875 48.163 12.4356 47.707 11.9316C47.2591 11.4277 47.0352 10.7278 47.0352 9.83203C47.0352 9.32003 47.135 8.84332 47.335 8.40332C47.5349 7.95548 47.8112 7.59988 48.1631 7.33594C48.5231 7.06394 48.9233 6.92773 49.3633 6.92773ZM60.2773 7.07129H61.7656V7.40723H60.2773V11.3193C60.2773 11.5593 60.3259 11.7599 60.4219 11.9199C60.5178 12.0796 60.6815 12.1591 60.9131 12.1592C61.4811 12.1592 61.7656 11.6797 61.7656 10.7197H61.9814C61.9814 11.2556 61.9012 11.7194 61.7412 12.1113C61.5892 12.4953 61.2291 12.6875 60.6611 12.6875C60.3014 12.6874 60.0016 12.5595 59.7617 12.3037C59.5297 12.0477 59.4131 11.6997 59.4131 11.2598V7.40723H58.5254V7.07129H58.7891C59.149 7.07129 59.4299 6.87996 59.6299 6.49609C59.8379 6.10409 59.9414 5.67122 59.9414 5.19922V4.76758H60.2773V7.07129ZM68.4268 7.35938H68.0908C67.995 7.35945 67.907 7.38748 67.8271 7.44336C67.7472 7.49133 67.7071 7.55955 67.707 7.64746C67.707 7.78346 67.7313 7.91595 67.7793 8.04395L69.123 11.2832L70.0947 8.43945C70.1267 8.34346 70.1557 8.23522 70.1797 8.11523C70.2115 7.99574 70.2275 7.89997 70.2275 7.82812C70.2275 7.69212 70.1874 7.57921 70.1074 7.49121C70.0274 7.4033 69.9229 7.35938 69.7949 7.35938H69.5068V7.07129H71.6914V7.35938H71.415C71.2391 7.35941 71.0748 7.42008 70.9229 7.54004C70.7791 7.65203 70.6668 7.82769 70.5869 8.06738L69.0029 12.6875H68.7871L66.8076 7.95996C66.7277 7.75223 66.6435 7.59993 66.5557 7.50391C66.4757 7.40798 66.3514 7.35945 66.1836 7.35938H65.835V7.07129H68.4268V7.35938ZM74.3125 6.92773C74.8004 6.92778 75.2007 7.05928 75.5127 7.32324C75.8247 7.58724 76.0486 7.92405 76.1846 8.33203C76.3284 8.73181 76.4004 9.14363 76.4004 9.56738C76.4004 9.65538 76.3724 9.71605 76.3164 9.74805C76.2604 9.77204 76.1643 9.7832 76.0283 9.7832H73.04C73.04 10.583 73.1521 11.2194 73.376 11.6914C73.6079 12.1633 73.9841 12.3993 74.5039 12.3994C74.8719 12.3994 75.2161 12.2595 75.5361 11.9795C75.8641 11.6995 76.0721 11.2638 76.1602 10.6719H76.4482C76.4002 11.2558 76.1959 11.7401 75.8359 12.124C75.484 12.4998 75.0239 12.6875 74.4561 12.6875C73.7122 12.6875 73.1122 12.4356 72.6562 11.9316C72.2083 11.4277 71.9844 10.7278 71.9844 9.83203C71.9844 9.32003 72.0842 8.84332 72.2842 8.40332C72.4841 7.95548 72.7604 7.59988 73.1123 7.33594C73.4723 7.06394 73.8725 6.92773 74.3125 6.92773ZM90.2432 6.92773C90.7711 6.92776 91.2274 7.06768 91.6113 7.34766C91.9952 7.61966 92.1875 8.04794 92.1875 8.63184V11.584C92.1876 11.9835 92.3109 12.1834 92.5586 12.1836C92.7585 12.1836 92.9032 12.0678 92.9912 11.8359C93.0792 11.6039 93.123 11.3194 93.123 10.9834H93.3389C93.3389 11.4633 93.267 11.8674 93.123 12.1953C92.987 12.5233 92.7389 12.6875 92.3789 12.6875C92.035 12.6875 91.7746 12.5877 91.5986 12.3877C91.4307 12.1797 91.3392 11.8951 91.3232 11.5352L91.2627 11.5117C91.1427 11.7917 90.9467 12.0595 90.6748 12.3154C90.4109 12.5634 90.0992 12.6874 89.7393 12.6875C89.3153 12.6875 88.9468 12.584 88.6348 12.376C88.3308 12.168 88.1787 11.7995 88.1787 11.2715C88.1787 10.8636 88.2832 10.5435 88.4912 10.3115C88.6992 10.0796 88.939 9.91531 89.2109 9.81934C89.4909 9.71536 89.8269 9.62765 90.2188 9.55566L91.3232 9.35156V8.33203C91.3232 7.58804 90.951 7.21583 90.207 7.21582C89.935 7.21582 89.6869 7.28764 89.4629 7.43164C89.239 7.56757 89.1271 7.72353 89.127 7.89941C89.127 7.97941 89.1391 8.04008 89.1631 8.08008C89.1791 8.10397 89.2035 8.12748 89.2354 8.15137C89.2752 8.17524 89.3109 8.1912 89.3428 8.19922C89.4866 8.23917 89.595 8.2953 89.667 8.36719C89.747 8.43919 89.7871 8.53997 89.7871 8.66797C89.787 8.83578 89.7348 8.95539 89.6309 9.02734C89.5349 9.09934 89.4108 9.13574 89.2588 9.13574C89.0829 9.13568 88.9232 9.06749 88.7793 8.93164C88.6353 8.79566 88.5635 8.5997 88.5635 8.34375C88.5635 8.04775 88.6427 7.7912 88.8027 7.5752C88.9707 7.35927 89.1835 7.19968 89.4395 7.0957C89.7033 6.9838 89.9713 6.92773 90.2432 6.92773ZM96.4844 6.92773C96.8523 6.92773 97.1724 7.00802 97.4443 7.16797C97.7163 7.31993 97.9244 7.51967 98.0684 7.76758C98.2124 8.00758 98.2852 8.252 98.2852 8.5C98.2851 8.74783 98.2207 8.94396 98.0928 9.08789C97.9649 9.22375 97.8088 9.29192 97.625 9.29199C97.465 9.29199 97.3288 9.23968 97.2168 9.13574C97.1128 9.03175 97.0606 8.90766 97.0605 8.76367C97.0605 8.61967 97.1007 8.49932 97.1807 8.40332C97.2606 8.30742 97.3568 8.2439 97.4688 8.21191C97.5966 8.17197 97.6609 8.09985 97.6611 7.99609C97.6611 7.90009 97.6163 7.79187 97.5283 7.67188C97.4483 7.55188 97.3205 7.44737 97.1445 7.35938C96.9686 7.26346 96.7483 7.21582 96.4844 7.21582C95.9807 7.21591 95.6371 7.43168 95.4531 7.86328C95.2771 8.29528 95.1885 8.94363 95.1885 9.80762C95.1885 10.6716 95.2771 11.32 95.4531 11.752C95.6291 12.1836 95.9727 12.3993 96.4844 12.3994C96.9722 12.3994 97.3483 12.2276 97.6123 11.8838C97.8763 11.5398 98.0367 11.1358 98.0928 10.6719H98.3809C98.3568 10.9998 98.2729 11.3199 98.1289 11.6318C97.985 11.9357 97.773 12.1877 97.4932 12.3877C97.2132 12.5877 96.8764 12.6875 96.4844 12.6875C96.0206 12.6874 95.6089 12.5595 95.249 12.3037C94.8971 12.0477 94.6209 11.6997 94.4209 11.2598C94.2289 10.8198 94.1328 10.3356 94.1328 9.80762C94.1328 9.27963 94.2326 8.79546 94.4326 8.35547C94.6326 7.91552 94.9088 7.5675 95.2607 7.31152C95.6206 7.05562 96.0285 6.9278 96.4844 6.92773ZM100.799 11.0801C100.799 11.4318 100.867 11.7316 101.003 11.9795C101.147 12.2275 101.388 12.3516 101.724 12.3516C102.003 12.3515 102.251 12.2553 102.467 12.0635C102.691 11.8635 102.863 11.5957 102.983 11.2598C103.111 10.9159 103.175 10.5359 103.175 10.1201V7.62402C103.175 7.52812 103.155 7.45994 103.115 7.41992C103.075 7.37992 103.007 7.35938 102.911 7.35938H102.407V7.07129H104.039V11.9912C104.039 12.0872 104.06 12.1553 104.1 12.1953C104.14 12.2353 104.208 12.2559 104.304 12.2559H104.808V12.5439H103.175V11.5596L103.127 11.5479C102.943 11.9317 102.715 12.2202 102.443 12.4121C102.171 12.596 101.871 12.6875 101.543 12.6875C100.959 12.6874 100.543 12.5074 100.295 12.1475C100.055 11.7875 99.9355 11.3554 99.9355 10.8516V7.62402C99.9355 7.52803 99.915 7.45992 99.875 7.41992C99.835 7.37992 99.7669 7.35938 99.6709 7.35938H99.167V7.07129H100.799V11.0801ZM110.516 7.07129H112.004V7.40723H110.516V11.3193C110.516 11.5593 110.564 11.7599 110.66 11.9199C110.756 12.0796 110.92 12.1591 111.151 12.1592C111.719 12.1592 112.004 11.6797 112.004 10.7197H112.22C112.22 11.2556 112.139 11.7194 111.979 12.1113C111.827 12.4953 111.467 12.6875 110.899 12.6875C110.54 12.6874 110.24 12.5595 110 12.3037C109.768 12.0477 109.651 11.6997 109.651 11.2598V7.40723H108.764V7.07129H109.027C109.387 7.07129 109.668 6.87996 109.868 6.49609C110.076 6.10409 110.18 5.67122 110.18 5.19922V4.76758H110.516V7.07129ZM28.0078 4C28.5678 4 29.0641 4.09609 29.4961 4.28809C29.9359 4.47208 30.2757 4.73616 30.5156 5.08008C30.7635 5.41599 30.8877 5.79959 30.8877 6.23145C30.8877 6.67139 30.7636 7.06326 30.5156 7.40723C30.2757 7.75119 29.936 8.02364 29.4961 8.22363C29.0641 8.41563 28.5678 8.51172 28.0078 8.51172H26.292V11.8359C26.292 11.9478 26.3163 12.0319 26.3643 12.0879C26.4123 12.1357 26.4965 12.1592 26.6162 12.1592H27.6719V12.5439H24V12.1592H24.8643C25.0799 12.1591 25.1874 12.0516 25.1875 11.8359V4.70801C25.1875 4.59601 25.1595 4.51577 25.1035 4.46777C25.0556 4.41191 24.976 4.38385 24.8643 4.38379H24V4H28.0078ZM39.959 6.92773C40.2626 6.92781 40.5103 7.0157 40.7021 7.19141C40.8941 7.36741 40.9902 7.60811 40.9902 7.91211C40.9901 8.08793 40.9267 8.2599 40.7988 8.42773C40.6789 8.5956 40.5229 8.67956 40.3311 8.67969C40.1791 8.67969 40.0503 8.63957 39.9463 8.55957C39.8424 8.47958 39.791 8.36752 39.791 8.22363C39.791 8.05577 39.8705 7.91193 40.0303 7.79199C40.1023 7.74399 40.1545 7.69918 40.1865 7.65918C40.2263 7.61926 40.247 7.56768 40.2471 7.50391C40.2471 7.43196 40.2106 7.37593 40.1387 7.33594C40.0747 7.28794 39.9823 7.26367 39.8623 7.26367C39.6144 7.26377 39.3745 7.38412 39.1426 7.62402C38.9187 7.86399 38.7385 8.17571 38.6025 8.55957C38.4665 8.94357 38.3984 9.34377 38.3984 9.75977V11.9912C38.3984 12.0872 38.419 12.1553 38.459 12.1953C38.499 12.2353 38.5671 12.2559 38.6631 12.2559H39.167V12.5439H36.7666V12.2559H37.2705C37.3665 12.2559 37.4346 12.2353 37.4746 12.1953C37.5145 12.1553 37.5342 12.0871 37.5342 11.9912V7.62402C37.5342 7.52814 37.5145 7.45994 37.4746 7.41992C37.4346 7.37992 37.3665 7.35938 37.2705 7.35938H36.7666V7.07129H38.3984V8.27148L38.4463 8.2832C38.6143 7.86734 38.8308 7.53975 39.0947 7.2998C39.3667 7.0518 39.655 6.92773 39.959 6.92773ZM64.4727 11.9912C64.4727 12.0872 64.4932 12.1553 64.5332 12.1953C64.5732 12.2353 64.6413 12.2559 64.7373 12.2559H65.2412V12.5439H62.8408V12.2559H63.3447C63.4407 12.2559 63.5088 12.2353 63.5488 12.1953C63.5887 12.1553 63.6084 12.0871 63.6084 11.9912V7.62402C63.6084 7.52814 63.5887 7.45994 63.5488 7.41992C63.5088 7.37992 63.4407 7.35938 63.3447 7.35938H62.8408V7.07129H64.4727V11.9912ZM87.7793 7H87.4795C87.4795 6.84 87.4431 6.56759 87.3711 6.18359C87.3071 5.79961 87.1746 5.45536 86.9746 5.15137C86.6386 4.63964 86.1664 4.38379 85.5586 4.38379H83.6514C83.5394 4.38379 83.4554 4.41184 83.3994 4.46777C83.3514 4.51577 83.3271 4.59601 83.3271 4.70801V7.93555H84.251C84.6588 7.93555 84.9509 7.7198 85.127 7.28809C85.311 6.84809 85.4033 6.38723 85.4033 5.90723H85.7148V10.3477H85.4033C85.4033 9.86766 85.311 9.41149 85.127 8.97949C84.9509 8.53961 84.6589 8.31934 84.251 8.31934H83.3271V11.7637C83.3272 11.8837 83.3514 11.9798 83.3994 12.0518C83.4554 12.1236 83.5395 12.1592 83.6514 12.1592H84.707V12.5439H81.0352V12.1592H81.8994C82.1151 12.1591 82.2226 12.0516 82.2227 11.8359V4.70801C82.2227 4.59601 82.1947 4.51577 82.1387 4.46777C82.0907 4.41191 82.0112 4.38385 81.8994 4.38379H81.0352V4H87.7314L87.7793 7ZM107.281 11.9912C107.281 12.0872 107.302 12.1553 107.342 12.1953C107.382 12.2353 107.45 12.2559 107.546 12.2559H108.169V12.5439H105.529V12.2559H106.153C106.249 12.2559 106.317 12.2353 106.357 12.1953C106.397 12.1553 106.417 12.0871 106.417 11.9912V4.55176C106.417 4.45576 106.397 4.38766 106.357 4.34766C106.317 4.30766 106.249 4.28809 106.153 4.28809H105.529V4H107.281V11.9912ZM55.375 7.26367C55.1351 7.26367 54.9148 7.35152 54.7148 7.52734C54.5148 7.70334 54.3544 7.94777 54.2344 8.25977C54.1224 8.56372 54.0664 8.89593 54.0664 9.25586V10.3594C54.0664 10.7192 54.1225 11.0553 54.2344 11.3672C54.3544 11.6712 54.5148 11.9119 54.7148 12.0879C54.9148 12.2637 55.1351 12.3516 55.375 12.3516C55.7668 12.3514 56.0628 12.1312 56.2627 11.6914C56.4626 11.2514 56.5625 10.6235 56.5625 9.80762C56.5625 8.99175 56.4626 8.36381 56.2627 7.92383C56.0628 7.48399 55.7668 7.26383 55.375 7.26367ZM90.2793 9.83203C89.8954 9.912 89.6155 10.0717 89.4395 10.3115C89.2715 10.5435 89.1875 10.8756 89.1875 11.3076C89.1875 11.6756 89.2631 11.9275 89.415 12.0635C89.5669 12.1914 89.7388 12.2558 89.9307 12.2559C90.2907 12.2559 90.5715 12.1159 90.7715 11.8359C90.9795 11.5479 91.1632 11.1831 91.3232 10.7432V9.60352L90.2793 9.83203ZM33.6709 7.21582C33.263 7.21589 32.9513 7.4398 32.7354 7.8877C32.5274 8.3277 32.4229 8.86409 32.4229 9.49609H34.751C34.751 8.85623 34.667 8.31593 34.499 7.87598C34.331 7.43598 34.0549 7.21582 33.6709 7.21582ZM49.3389 7.21582C48.931 7.21589 48.6193 7.4398 48.4033 7.8877C48.1953 8.3277 48.0908 8.86409 48.0908 9.49609H50.4189C50.4189 8.85623 50.3349 8.31593 50.167 7.87598C49.999 7.43598 49.7229 7.21582 49.3389 7.21582ZM74.2881 7.21582C73.8802 7.21589 73.5685 7.4398 73.3525 7.8877C73.1445 8.3277 73.04 8.86409 73.04 9.49609H75.3682C75.3682 8.85623 75.2841 8.31593 75.1162 7.87598C74.9482 7.43598 74.6721 7.21582 74.2881 7.21582ZM26.6162 4.38379C26.5043 4.38379 26.4203 4.41184 26.3643 4.46777C26.3163 4.51577 26.292 4.59601 26.292 4.70801V8.12793H28.1641C28.596 8.12789 28.944 7.94316 29.208 7.5752C29.4798 7.19926 29.6162 6.75129 29.6162 6.23145C29.6162 5.71155 29.4837 5.27578 29.2197 4.92383C28.9558 4.56387 28.604 4.38383 28.1641 4.38379H26.6162ZM63.9688 4.33594C64.1528 4.33594 64.3011 4.39563 64.4131 4.51562C64.533 4.62761 64.5928 4.77603 64.5928 4.95996C64.5927 5.13568 64.5328 5.28344 64.4131 5.40332C64.3011 5.52332 64.1528 5.58398 63.9688 5.58398C63.7928 5.58397 63.6444 5.5233 63.5244 5.40332C63.4047 5.28346 63.3448 5.13564 63.3447 4.95996C63.3447 4.77607 63.4046 4.6276 63.5244 4.51562C63.6444 4.39564 63.7928 4.33595 63.9688 4.33594Z" fill="black"/>
<path d="M5.51465 17.5098H4.79492V16.79H5.51465V17.5098ZM12.7148 17.5098H11.9951V16.79H12.7148V17.5098ZM6.71484 16.3105H5.99512V15.5898H6.71484V16.3105ZM11.5146 16.3105H10.7949V15.5898H11.5146V16.3105ZM7.91504 15.1104H7.19531V14.3906H7.91504V15.1104ZM9.11523 15.1104H8.39551V14.3906H9.11523V15.1104ZM10.3154 15.1104H9.59473V14.3906H10.3154V15.1104ZM0.719727 12.7148H0V11.9951H0.719727V12.7148ZM17.5098 12.7148H16.79V11.9951H17.5098V12.7148ZM1.91992 11.5146H1.19922V10.7949H1.91992V11.5146ZM6.71484 11.5146H5.99512V10.7949H6.71484V11.5146ZM11.5146 11.5146H10.7949V10.7949H11.5146V11.5146ZM16.3105 11.5146H15.5898V10.7949H16.3105V11.5146ZM3.11914 10.3154H2.39941V9.59473H3.11914V10.3154ZM7.91504 10.3154H7.19531V9.59473H7.91504V10.3154ZM10.3145 10.3154H9.59473V9.59473H10.3145V10.3154ZM15.1104 10.3154H14.3906V9.59473H15.1104V10.3154ZM3.11914 9.11523H2.39941V8.39551H3.11914V9.11523ZM6.71484 9.11523H5.99512V8.39551H6.71484V9.11523ZM7.91504 9.11523H7.19531V8.39551H7.91504V9.11523ZM9.11523 9.11523H8.39453V8.39551H9.11523V9.11523ZM10.3145 9.11523H9.59473V8.39551H10.3145V9.11523ZM11.5146 9.11523H10.7949V8.39551H11.5146V9.11523ZM15.1104 9.11523H14.3906V8.39551H15.1104V9.11523ZM3.11914 7.91504H2.39941V7.19531H3.11914V7.91504ZM7.91504 7.91504H7.19531V7.19531H7.91504V7.91504ZM10.3145 7.91504H9.59473V7.19531H10.3145V7.91504ZM15.1104 7.91504H14.3906V7.19531H15.1104V7.91504ZM1.91992 6.71484H1.19922V5.99512H1.91992V6.71484ZM6.71484 6.71484H5.99512V5.99512H6.71484V6.71484ZM11.5146 6.71484H10.7949V5.99512H11.5146V6.71484ZM16.3105 6.71484H15.5898V5.99512H16.3105V6.71484ZM0.719727 5.51465H0V4.79492H0.719727V5.51465ZM17.5098 5.51465H16.79V4.79492H17.5098V5.51465ZM7.91504 3.11914H7.19531V2.39941H7.91504V3.11914ZM9.11523 3.11914H8.39551V2.39941H9.11523V3.11914ZM10.3154 3.11914H9.59473V2.39941H10.3154V3.11914ZM6.71484 1.91992H5.99512V1.19922H6.71484V1.91992ZM11.5146 1.91992H10.7949V1.19922H11.5146V1.91992ZM5.51465 0.719727H4.79492V0H5.51465V0.719727ZM12.7148 0.719727H11.9951V0H12.7148V0.719727Z" fill="black"/>
</svg>
