<svg width="26" height="12" viewBox="0 0 26 12" fill="none" xmlns="http://www.w3.org/2000/svg">
<path d="M1 12H0V11H1V12ZM5 12H3V11H5V12ZM9 12H7V11H9V12ZM12 12H11V11H12V12ZM2.99805 9.99805H1.99805V8.99805H2.99805V9.99805ZM6.99805 9.99805H4.99805V8.99805H6.99805V9.99805ZM9.99805 9.99805H8.99805V8.99805H9.99805V9.99805ZM1 9H0V7H1V9ZM12 9H11V7H12V9ZM5.00195 8.00195H4.00195V7.00195H5.00195V8.00195ZM8.00195 8.00195H7.00195V7.00195H8.00195V8.00195ZM2.99805 6.99805H1.99805V4.99805H2.99805V6.99805ZM9.99805 6.99805H8.99805V4.99805H9.99805V6.99805ZM5.00195 5.00195H4.00195V4.00195H5.00195V5.00195ZM8.00195 5.00195H7.00195V4.00195H8.00195V5.00195ZM1 5H0V3H1V5ZM12 5H11V3H12V5ZM2.99805 2.99805H1.99805V1.99805H2.99805V2.99805ZM6.99805 2.99805H4.99805V1.99805H6.99805V2.99805ZM9.99805 2.99805H8.99805V1.99805H9.99805V2.99805ZM1 1H0V0H1V1ZM5 1H3V0H5V1ZM9 1H7V0H9V1ZM12 1H11V0H12V1Z" fill="black"/>
<g style="mix-blend-mode:luminosity">
<rect x="19.5" width="1" height="12" fill="black"/>
</g>
<g style="mix-blend-mode:luminosity">
<rect x="14" y="6.5" width="1" height="12" transform="rotate(-90 14 6.5)" fill="black"/>
</g>
<g style="mix-blend-mode:luminosity">
<rect x="15.4062" y="2.10938" width="1" height="12" transform="rotate(-45 15.4062 2.10938)" fill="black"/>
</g>
</svg>
