<svg width="60" height="76" viewBox="0 0 60 76" fill="none" xmlns="http://www.w3.org/2000/svg">
<path d="M60 76H0V68.5H60V76ZM19.7998 27.2002L20.2705 27.208C22.6025 27.29 24.6123 27.9874 26.2998 29.2998C28.0331 30.7665 29.8665 32.6337 31.7998 34.9004C33.2324 36.7737 34.5301 38.3039 35.6895 39.4941C35.9347 39.7457 36.1709 39.9822 36.4004 40.2002C36.4835 40.2792 36.5665 40.3556 36.6494 40.4297C36.9819 40.7268 37.3123 40.9843 37.6406 41.2021C37.7224 41.2564 37.8042 41.3081 37.8857 41.3574C38.2131 41.5555 38.5382 41.7142 38.8613 41.833C38.9418 41.8626 39.0223 41.8894 39.1025 41.9141C39.344 41.9883 39.5841 42.0406 39.8232 42.0703C39.9826 42.0901 40.1415 42.0996 40.2998 42.0996C42.4998 42.0329 44.2333 40.7665 45.5 38.2998C46.6843 35.9312 47.6937 32.8342 48.5283 29.0088C48.5858 28.7436 48.6433 28.4741 48.7002 28.2002L54.7998 29.5996C53.9476 34.2116 52.7553 38.0318 51.2246 41.0605C50.5337 42.4729 49.7927 43.6527 49 44.5996C48.9918 44.6092 48.9828 44.6184 48.9746 44.6279C46.7881 47.321 43.9765 48.7099 40.5381 48.7949C40.426 48.7979 40.3134 48.7998 40.2002 48.7998L39.7295 48.792C37.3975 48.71 35.3877 48.0126 33.7002 46.7002C31.9669 45.2335 30.1335 43.3663 28.2002 41.0996C26.4669 38.833 24.9329 37.0664 23.5996 35.7998C23.5165 35.7208 23.4335 35.6444 23.3506 35.5703C23.0181 35.2732 22.6877 35.0157 22.3594 34.7979C22.2776 34.7436 22.1958 34.6919 22.1143 34.6426C21.7869 34.4445 21.4618 34.2858 21.1387 34.167C21.0582 34.1374 20.9777 34.1106 20.8975 34.0859C20.656 34.0117 20.4159 33.9594 20.1768 33.9297C20.0969 33.9198 20.0171 33.9122 19.9375 33.9072L19.7002 33.9004C17.5002 33.9671 15.7667 35.2335 14.5 37.7002C13.2334 40.2335 12.1664 43.6 11.2998 47.7998L5.2002 46.4004C6.05357 41.7821 7.2475 37.9575 8.78125 34.9268C9.47037 33.52 10.2097 32.3444 11 31.4004C11.0082 31.3908 11.0162 31.3806 11.0244 31.3711C13.2108 28.6783 16.023 27.2893 19.4609 27.2041C19.5733 27.2011 19.6863 27.2002 19.7998 27.2002ZM60 7.5H0V0H60V7.5Z" fill="black"/>
</svg>
