<svg width="583" height="124" viewBox="0 0 583 124" fill="none" xmlns="http://www.w3.org/2000/svg">
<path d="M17 62.5996C19.2667 62.5996 21.3335 63.0337 23.2002 63.9004C25.0667 64.8337 26.8005 66.0664 28.4004 67.5996C30.0004 69.1996 31.6002 71.033 33.2002 73.0996C34.5334 74.8995 35.7332 76.3997 36.7998 77.5996C37.8665 78.8663 38.9004 79.8004 39.9004 80.4004C40.9001 81.0668 41.9666 81.4003 43.0996 81.4004C44.8329 81.4004 46.2671 80.7667 47.4004 79.5C48.5336 78.3 49.4 76.4665 50 74C50.6 71.5334 50.9333 68.4334 51 64.7002L59.4004 64.9004C59.4004 68.2335 59.1 71.3666 58.5 74.2998C57.9 77.2998 56.9669 79.9335 55.7002 82.2002C54.4335 84.5335 52.7668 86.3669 50.7002 87.7002C48.5669 89.0335 46.0329 89.7002 43.0996 89.7002C40.8332 89.7001 38.7999 89.267 37 88.4004C35.2 87.5337 33.5004 86.3331 31.9004 84.7998C30.3004 83.3331 28.7335 81.5996 27.2002 79.5996C25.8004 77.7999 24.5336 76.2336 23.4004 74.9004C22.2671 73.6338 21.2002 72.6667 20.2002 72C19.2002 71.3333 18.1333 71 17 71C15.2668 71 13.8335 71.5999 12.7002 72.7998C11.5002 73.9998 10.6 75.8332 10 78.2998C9.4 80.8331 9.09961 83.9669 9.09961 87.7002L0.700195 87.5C0.700195 84.1667 0.999619 81 1.59961 78C2.19961 75.0667 3.13372 72.4329 4.40039 70.0996C5.66703 67.7665 7.33387 65.9329 9.40039 64.5996C11.467 63.2665 14.0002 62.5996 17 62.5996ZM60 44.5H0V37H60V44.5Z" fill="black"/>
<path d="M137.1 89.8C134.3 89.8 131.533 89.2 128.8 88C126.133 86.7333 123.8 85.3667 121.8 83.9C119 81.7667 117.333 80.7 116.8 80.7C115.467 80.7 114.6 82.1333 114.2 85L113.8 89H111.5L110.8 57.4H113.2C113.6 62.3333 114.967 67.0667 117.3 71.6C119.7 76.0667 122.667 79.7 126.2 82.5C129.733 85.2333 133.367 86.6 137.1 86.6C142.567 86.6 146.533 85.2667 149 82.6C151.533 79.9333 152.8 76.7333 152.8 73C152.8 69.7333 151.833 67.1667 149.9 65.3C148.033 63.4333 145.267 61.7667 141.6 60.3L126.4 54.2C121.133 52.0667 117.233 49.3333 114.7 46C112.233 42.6 111 38.5333 111 33.8C111 27.4 112.867 22.6667 116.6 19.6C120.333 16.5333 125 15 130.6 15C135 15 139.867 17 145.2 21C145.867 21.4667 146.533 21.9 147.2 22.3C147.867 22.6333 148.467 22.8 149 22.8C150.133 22.8 150.8 22 151 20.4L151.4 16.8H153.8L154.8 42.8H152.4C151.333 38 149.633 33.7333 147.3 30C145.033 26.2667 142.367 23.3667 139.3 21.3C136.233 19.2333 133.067 18.2 129.8 18.2C126.067 18.2 123 19.4333 120.6 21.9C118.2 24.3 117 27.6667 117 32C117 35 117.767 37.3333 119.3 39C120.833 40.6667 123.1 42.1 126.1 43.3L145.4 51C149.867 52.8 153.2 55.3667 155.4 58.7C157.667 62.0333 158.8 65.5333 158.8 69.2C158.8 72.7333 158 76.0667 156.4 79.2C154.867 82.3333 152.467 84.9 149.2 86.9C146 88.8333 141.967 89.8 137.1 89.8ZM187.012 89.2C182.145 89.2 178.678 87.7 176.612 84.7C174.612 81.7 173.612 78.1 173.612 73.9V47C173.612 46.2 173.445 45.6333 173.112 45.3C172.778 44.9667 172.212 44.8 171.412 44.8H167.212V42.4H180.812V75.8C180.812 78.7333 181.378 81.2333 182.512 83.3C183.712 85.3667 185.712 86.4 188.512 86.4C190.845 86.4 192.912 85.6 194.712 84C196.578 82.3333 198.012 80.1 199.012 77.3C200.078 74.4333 200.612 71.2667 200.612 67.8V47C200.612 46.2 200.445 45.6333 200.112 45.3C199.778 44.9667 199.212 44.8 198.412 44.8H194.212V42.4H207.812V83.4C207.812 84.2 207.978 84.7667 208.312 85.1C208.645 85.4333 209.212 85.6 210.012 85.6H214.212V88H200.612V79.8L200.212 79.7C198.678 82.9 196.778 85.3 194.512 86.9C192.245 88.4333 189.745 89.2 187.012 89.2ZM246.23 89.2C243.563 89.2 241.096 88.3 238.83 86.5C236.563 84.7 234.763 82.3333 233.43 79.4H233.03L228.83 88H227.03V21.4C227.03 20.6 226.863 20.0333 226.53 19.7C226.196 19.3667 225.63 19.2 224.83 19.2H219.63V16.8H234.23V49.8L234.63 49.9C235.63 47.5 237.163 45.4667 239.23 43.8C241.296 42.0667 243.63 41.2 246.23 41.2C249.363 41.2 252.263 42.2667 254.93 44.4C257.663 46.4667 259.83 49.3333 261.43 53C263.03 56.6667 263.83 60.7333 263.83 65.2C263.83 69.6667 263.03 73.7333 261.43 77.4C259.83 81.0667 257.663 83.9667 254.93 86.1C252.263 88.1667 249.363 89.2 246.23 89.2ZM245.13 86.4C248.396 86.4 250.863 84.5667 252.53 80.9C254.196 77.2333 255.03 72 255.03 65.2C255.03 58.4 254.196 53.1667 252.53 49.5C250.863 45.8333 248.396 44 245.13 44C243.13 44 241.296 44.7333 239.63 46.2C237.963 47.6667 236.63 49.7 235.63 52.3C234.696 54.8333 234.23 57.6 234.23 60.6V69.8C234.23 72.8 234.696 75.6 235.63 78.2C236.63 80.7333 237.963 82.7333 239.63 84.2C241.296 85.6667 243.13 86.4 245.13 86.4ZM293.002 89.2C289.135 89.2 285.702 88.1333 282.702 86C279.768 83.8667 277.468 80.9667 275.802 77.3C274.202 73.6333 273.402 69.6 273.402 65.2C273.402 60.8 274.235 56.7667 275.902 53.1C277.568 49.4333 279.868 46.5333 282.802 44.4C285.802 42.2667 289.202 41.2 293.002 41.2C296.068 41.2 298.735 41.8667 301.002 43.2C303.268 44.4667 305.002 46.1333 306.202 48.2C307.402 50.2 308.002 52.2333 308.002 54.3C308.002 56.3667 307.468 58 306.402 59.2C305.335 60.3333 304.035 60.9 302.502 60.9C301.168 60.9 300.035 60.4667 299.102 59.6C298.235 58.7333 297.802 57.7 297.802 56.5C297.802 55.3 298.135 54.3 298.802 53.5C299.468 52.7 300.268 52.1667 301.202 51.9C302.268 51.5667 302.802 50.9667 302.802 50.1C302.802 49.3 302.435 48.4 301.702 47.4C301.035 46.4 299.968 45.5333 298.502 44.8C297.035 44 295.202 43.6 293.002 43.6C288.802 43.6 285.935 45.4 284.402 49C282.935 52.6 282.202 58 282.202 65.2C282.202 72.4 282.935 77.8 284.402 81.4C285.868 85 288.735 86.8 293.002 86.8C297.068 86.8 300.202 85.3667 302.402 82.5C304.602 79.6333 305.935 76.2667 306.402 72.4H308.802C308.602 75.1333 307.902 77.8 306.702 80.4C305.502 82.9333 303.735 85.0333 301.402 86.7C299.068 88.3667 296.268 89.2 293.002 89.2ZM335.156 89.2C330.29 89.2 326.823 87.7 324.756 84.7C322.756 81.7 321.756 78.1 321.756 73.9V47C321.756 46.2 321.59 45.6333 321.256 45.3C320.923 44.9667 320.356 44.8 319.556 44.8H315.356V42.4H328.956V75.8C328.956 78.7333 329.523 81.2333 330.656 83.3C331.856 85.3667 333.856 86.4 336.656 86.4C338.99 86.4 341.056 85.6 342.856 84C344.723 82.3333 346.156 80.1 347.156 77.3C348.223 74.4333 348.756 71.2667 348.756 67.8V47C348.756 46.2 348.59 45.6333 348.256 45.3C347.923 44.9667 347.356 44.8 346.556 44.8H342.356V42.4H355.956V83.4C355.956 84.2 356.123 84.7667 356.456 85.1C356.79 85.4333 357.356 85.6 358.156 85.6H362.356V88H348.756V79.8L348.356 79.7C346.823 82.9 344.923 85.3 342.656 86.9C340.39 88.4333 337.89 89.2 335.156 89.2ZM369.374 85.6H373.574C374.374 85.6 374.941 85.4333 375.274 85.1C375.608 84.7667 375.774 84.2 375.774 83.4V47C375.774 46.2 375.608 45.6333 375.274 45.3C374.941 44.9667 374.374 44.8 373.574 44.8H369.374V42.4H382.974V52.4L383.374 52.5C384.774 49.0333 386.574 46.3 388.774 44.3C391.041 42.2333 393.441 41.2 395.974 41.2C398.508 41.2 400.574 41.9333 402.174 43.4C403.774 44.8667 404.574 46.8667 404.574 49.4C404.574 50.8667 404.041 52.3 402.974 53.7C401.974 55.1 400.674 55.8 399.074 55.8C397.808 55.8 396.741 55.4667 395.874 54.8C395.008 54.1333 394.574 53.2 394.574 52C394.574 50.6 395.241 49.4 396.574 48.4C397.174 48 397.608 47.6333 397.874 47.3C398.208 46.9667 398.374 46.5333 398.374 46C398.374 45.4 398.074 44.9333 397.474 44.6C396.941 44.2 396.174 44 395.174 44C393.108 44 391.108 45 389.174 47C387.308 49 385.808 51.6 384.674 54.8C383.541 58 382.974 61.3333 382.974 64.8V83.4C382.974 84.2 383.141 84.7667 383.474 85.1C383.808 85.4333 384.374 85.6 385.174 85.6H389.374V88H369.374V85.6ZM410.39 85.6H414.59C415.39 85.6 415.957 85.4333 416.29 85.1C416.623 84.7667 416.79 84.2 416.79 83.4V47C416.79 46.2 416.623 45.6333 416.29 45.3C415.957 44.9667 415.39 44.8 414.59 44.8H410.39V42.4H423.99V52.4L424.39 52.5C425.79 49.0333 427.59 46.3 429.79 44.3C432.057 42.2333 434.457 41.2 436.99 41.2C439.523 41.2 441.59 41.9333 443.19 43.4C444.79 44.8667 445.59 46.8667 445.59 49.4C445.59 50.8667 445.057 52.3 443.99 53.7C442.99 55.1 441.69 55.8 440.09 55.8C438.823 55.8 437.757 55.4667 436.89 54.8C436.023 54.1333 435.59 53.2 435.59 52C435.59 50.6 436.257 49.4 437.59 48.4C438.19 48 438.623 47.6333 438.89 47.3C439.223 46.9667 439.39 46.5333 439.39 46C439.39 45.4 439.09 44.9333 438.49 44.6C437.957 44.2 437.19 44 436.19 44C434.123 44 432.123 45 430.19 47C428.323 49 426.823 51.6 425.69 54.8C424.557 58 423.99 61.3333 423.99 64.8V83.4C423.99 84.2 424.157 84.7667 424.49 85.1C424.823 85.4333 425.39 85.6 426.19 85.6H430.39V88H410.39V85.6ZM473.005 89.2C466.805 89.2 461.805 87.1 458.005 82.9C454.272 78.7 452.405 72.8667 452.405 65.4C452.405 61.1333 453.239 57.1667 454.905 53.5C456.572 49.7667 458.872 46.8 461.805 44.6C464.805 42.3333 468.139 41.2 471.805 41.2C475.872 41.2 479.205 42.3 481.805 44.5C484.405 46.7 486.272 49.5 487.405 52.9C488.605 56.2333 489.205 59.6667 489.205 63.2C489.205 63.9333 488.972 64.4333 488.505 64.7C488.039 64.9 487.239 65 486.105 65H461.205C461.205 71.6667 462.139 76.9667 464.005 80.9C465.939 84.8333 469.072 86.8 473.405 86.8C476.472 86.8 479.339 85.6333 482.005 83.3C484.739 80.9667 486.472 77.3333 487.205 72.4H489.605C489.205 77.2667 487.505 81.3 484.505 84.5C481.572 87.6333 477.739 89.2 473.005 89.2ZM480.605 62.6C480.605 57.2667 479.905 52.7667 478.505 49.1C477.105 45.4333 474.805 43.6 471.605 43.6C468.205 43.6 465.605 45.4667 463.805 49.2C462.072 52.8667 461.205 57.3333 461.205 62.6H480.605ZM497.402 85.6H501.602C502.402 85.6 502.968 85.4333 503.302 85.1C503.635 84.7667 503.802 84.2 503.802 83.4V47C503.802 46.2 503.635 45.6333 503.302 45.3C502.968 44.9667 502.402 44.8 501.602 44.8H497.402V42.4H511.002V50.6L511.402 50.7C512.935 47.5 514.835 45.1333 517.102 43.6C519.368 42 521.868 41.2 524.602 41.2C529.468 41.2 532.902 42.7 534.902 45.7C536.968 48.7 538.002 52.3 538.002 56.5V83.4C538.002 84.2 538.168 84.7667 538.502 85.1C538.835 85.4333 539.402 85.6 540.202 85.6H544.402V88H524.402V85.6H528.602C529.402 85.6 529.968 85.4333 530.302 85.1C530.635 84.7667 530.802 84.2 530.802 83.4V54.6C530.802 51.6667 530.202 49.1667 529.002 47.1C527.868 45.0333 525.902 44 523.102 44C520.768 44 518.668 44.8333 516.802 46.5C515.002 48.1 513.568 50.3333 512.502 53.2C511.502 56 511.002 59.1333 511.002 62.6V83.4C511.002 84.2 511.168 84.7667 511.502 85.1C511.835 85.4333 512.402 85.6 513.202 85.6H517.402V88H497.402V85.6ZM568.205 89.2C565.205 89.2 562.705 88.1333 560.705 86C558.772 83.8667 557.805 80.9667 557.805 77.3V45.2H550.405V42.4H552.605C555.605 42.4 557.939 40.8 559.605 37.6C561.339 34.3333 562.205 30.7333 562.205 26.8V23.2H565.005V42.4H577.405V45.2H565.005V77.8C565.005 79.8 565.405 81.4667 566.205 82.8C567.005 84.1333 568.372 84.8 570.305 84.8C575.039 84.8 577.405 80.8 577.405 72.8H579.205C579.205 77.2667 578.539 81.1333 577.205 84.4C575.939 87.6 572.939 89.2 568.205 89.2Z" fill="black"/>
</svg>
