<svg width="1057" height="208" viewBox="0 0 1057 208" fill="none" xmlns="http://www.w3.org/2000/svg">
<path d="M452.298 83.4004C453.231 83.4004 453.898 83.7338 454.298 84.4004C454.831 85.0671 455.099 85.8006 455.099 86.6006C455.099 87.5338 454.831 88.3334 454.298 89C453.898 89.6667 453.231 90 452.298 90C450.565 90.0002 448.498 91.134 446.099 93.4004C443.699 95.5337 441.365 99.5338 439.099 105.4C438.699 106.334 437.765 108.667 436.298 112.4C434.965 116.134 433.298 120.601 431.298 125.801C429.298 130.867 427.298 136 425.298 141.2C423.298 146.4 421.498 151 419.898 155C418.299 158.866 417.232 161.533 416.698 163C413.232 171.267 409.765 178.734 406.298 185.4C402.831 192.2 398.965 197.534 394.698 201.4C390.432 205.4 385.298 207.4 379.298 207.4C374.765 207.4 371.298 206.267 368.898 204C366.498 201.733 365.298 199.133 365.298 196.2C365.298 192.734 366.365 190 368.498 188C370.631 186 373.231 185 376.298 185C378.565 185 380.231 185.601 381.298 186.801C382.498 188.001 383.432 189.334 384.099 190.801C384.765 192.267 385.365 193.601 385.898 194.801C386.565 196.001 387.498 196.601 388.698 196.601C390.565 196.601 392.431 195.6 394.298 193.601C396.164 191.601 397.898 189.2 399.498 186.4C401.098 183.6 402.498 180.867 403.698 178.2C404.898 175.667 405.765 173.734 406.298 172.4C407.631 169.201 407.765 166.334 406.698 163.801C406.432 163.001 405.565 161.001 404.099 157.801C402.765 154.601 401.099 150.734 399.099 146.2C397.232 141.667 395.232 136.933 393.099 132C390.965 126.933 388.898 122.134 386.898 117.601C384.898 113.067 383.232 109.2 381.898 106C380.565 102.8 379.698 100.8 379.298 100C377.831 96.5336 376.298 94.0003 374.698 92.4004C373.232 90.8004 371.232 90 368.698 90C367.765 90 367.031 89.6667 366.498 89C366.098 88.3335 365.898 87.5337 365.898 86.6006C365.898 85.8006 366.098 85.067 366.498 84.4004C367.031 83.7337 367.765 83.4004 368.698 83.4004C370.165 83.4004 372.299 83.5341 375.099 83.8008C378.032 83.9341 381.098 84 384.298 84C387.498 84 390.831 83.9341 394.298 83.8008C397.898 83.5341 400.365 83.4004 401.698 83.4004C402.632 83.4004 403.298 83.7337 403.698 84.4004C404.232 85.0671 404.498 85.8006 404.498 86.6006C404.498 87.5337 404.231 88.3334 403.698 89C403.298 89.6667 402.632 90 401.698 90C398.765 90 396.832 90.6008 395.898 91.8008C395.101 92.8259 394.839 93.9969 395.112 95.3139C395.208 95.7775 395.405 96.2111 395.596 96.6444C396.065 97.7121 396.833 99.6308 397.898 102.4C399.365 105.867 401.032 109.934 402.898 114.601C404.898 119.134 406.832 123.667 408.698 128.2C410.565 132.734 412.165 136.601 413.498 139.801C414.831 142.866 415.565 144.599 415.698 145C416.365 146.6 417.032 146.667 417.698 145.2C417.965 144.4 418.632 142.733 419.698 140.2C420.765 137.534 421.965 134.467 423.298 131C424.764 127.4 426.165 123.8 427.498 120.2C428.831 116.6 430.032 113.467 431.099 110.801C432.165 108.001 432.832 106.067 433.099 105C434.698 99.9336 434.431 96.2007 432.298 93.8008C430.298 91.2674 427.765 90 424.698 90C423.765 90 423.031 89.6667 422.498 89C422.098 88.3335 421.898 87.5337 421.898 86.6006C421.898 85.8006 422.098 85.067 422.498 84.4004C423.031 83.7337 423.765 83.4004 424.698 83.4004C426.165 83.4004 428.031 83.5341 430.298 83.8008C432.564 83.9341 435.298 84 438.498 84C441.565 84 444.298 83.9341 446.698 83.8008C449.098 83.5341 450.965 83.4004 452.298 83.4004ZM297.099 21.8008C301.232 21.8008 305.499 22.4006 309.898 23.6006C314.432 24.6672 318.631 26.0006 322.498 27.6006C326.365 29.0672 329.298 30.4006 331.298 31.6006C334.364 33.3339 336.898 33.4007 338.898 31.8008C339.565 31.1341 340.299 30.5333 341.099 30C341.898 29.3335 342.565 28.8003 343.099 28.4004C344.432 27.4672 345.632 27.2675 346.698 27.8008C347.898 28.3341 348.498 29.4003 348.498 31V63C348.498 64.5999 347.632 65.6 345.898 66C344.165 66.2667 343.031 65.7337 342.498 64.4004C339.965 57.7338 336.499 51.7337 332.099 46.4004C327.699 41.0671 322.565 36.8674 316.698 33.8008C310.832 30.6008 304.298 29.0001 297.099 29C291.365 29 286.098 30.2006 281.298 32.6006C276.498 34.8672 272.631 38.067 269.698 42.2002C266.898 46.3335 265.498 51.0671 265.498 56.4004C265.498 62.5335 267.165 67.4 270.498 71C273.831 74.4667 278.232 77.2002 283.698 79.2002C289.165 81.2002 295.165 82.9337 301.698 84.4004C308.365 85.7337 314.965 87.2667 321.498 89C328.165 90.7333 334.232 93.2004 339.698 96.4004C345.165 99.6004 349.565 103.934 352.898 109.4C356.232 114.867 357.898 122.067 357.898 131C357.898 137.4 356.431 143.134 353.498 148.2C350.565 153.267 346.698 157.6 341.898 161.2C337.099 164.667 331.765 167.334 325.898 169.2C320.032 170.934 314.165 171.801 308.298 171.801C303.098 171.801 297.764 171.067 292.298 169.601C286.831 168.134 281.898 166.534 277.498 164.801C273.232 163.068 270.099 161.8 268.099 161C265.032 159.533 262.365 159.867 260.099 162C259.165 162.933 258.165 163.867 257.099 164.801C256.032 165.601 255.165 166.333 254.498 167C253.165 168.067 251.898 168.4 250.698 168C249.498 167.467 248.899 166.4 248.898 164.801V128.4C248.898 126.8 249.765 125.867 251.498 125.601C253.231 125.201 254.298 125.734 254.698 127.2C257.098 134.267 261.031 140.6 266.498 146.2C272.098 151.667 278.632 155.933 286.099 159C293.565 162.067 301.365 163.601 309.498 163.601C316.431 163.601 322.365 162.133 327.298 159.2C332.365 156.134 336.299 152.4 339.099 148C341.898 143.467 343.298 139.067 343.298 134.801C343.298 128.267 341.631 123.067 338.298 119.2C334.965 115.334 330.565 112.333 325.099 110.2C319.632 108.067 313.632 106.333 307.099 105C300.565 103.533 294.031 102 287.498 100.4C280.965 98.6671 274.965 96.4006 269.498 93.6006C264.031 90.6673 259.631 86.6672 256.298 81.6006C252.965 76.534 251.298 69.8671 251.298 61.6006C251.298 54.0006 253.098 47.2002 256.698 41.2002C260.432 35.2003 265.698 30.4666 272.498 27C279.298 23.5333 287.499 21.8008 297.099 21.8008ZM636.095 24.2002C639.028 24.2002 640.495 25.8003 640.495 29V90.6006C640.495 90.7304 640.505 90.8527 640.526 90.9674C640.68 91.8433 641.841 92.1842 642.537 91.6314C642.79 91.431 643.042 91.1542 643.295 90.8008C644.895 89.0675 647.495 87.0005 651.095 84.6006C654.695 82.2006 659.695 81 666.095 81C669.695 81 673.495 81.7335 677.495 83.2002C681.628 84.5335 685.429 86.8669 688.896 90.2002C692.362 93.5335 695.162 98.0675 697.295 103.801C699.561 109.401 700.695 116.534 700.695 125.2C700.695 134 699.362 141.4 696.695 147.4C694.162 153.267 690.829 158.001 686.695 161.601C682.562 165.2 678.295 167.8 673.896 169.4C669.496 171 665.495 171.801 661.896 171.801C655.362 171.801 650.162 170.533 646.295 168C642.429 165.334 639.562 162.934 637.695 160.801C637.304 160.354 636.948 160.012 636.627 159.776C635.969 159.291 635.008 159.344 634.389 159.878C634.225 160.021 634.06 160.195 633.896 160.4C633.362 161.2 632.295 162.734 630.695 165C629.229 167.267 628.162 168.867 627.495 169.801C626.962 170.734 625.895 171.001 624.295 170.601C622.828 170.201 622.162 169.333 622.295 168C622.428 166.533 622.762 163.467 623.295 158.801C623.828 154.001 624.095 148.667 624.095 142.801V40.8008C624.095 37.4674 623.761 35.2669 623.095 34.2002C622.672 33.2487 621.872 32.6324 620.694 32.3515C620.04 32.1956 619.372 32.0971 618.712 31.9677C617.929 31.8141 616.99 31.6918 615.896 31.6006C614.296 31.3339 613.095 31.1333 612.295 31C610.562 30.8666 609.695 29.8004 609.695 27.8008C609.695 27.0009 609.895 26.2672 610.295 25.6006C610.828 24.9339 611.562 24.6006 612.495 24.6006H616.295C618.428 24.4673 620.895 24.4004 623.695 24.4004H631.295C633.695 24.2671 635.295 24.2002 636.095 24.2002ZM757.782 81C765.515 81 772.516 83.067 778.782 87.2002C785.182 91.3335 790.249 96.8674 793.982 103.801C797.716 110.601 799.583 118.134 799.583 126.4C799.583 134.667 797.716 142.267 793.982 149.2C790.249 156 785.182 161.467 778.782 165.601C772.516 169.734 765.515 171.801 757.782 171.801C750.182 171.801 743.182 169.734 736.782 165.601C730.516 161.467 725.516 156 721.782 149.2C718.049 142.267 716.183 134.667 716.183 126.4C716.183 118.134 718.049 110.601 721.782 103.801C725.516 96.8675 730.516 91.3335 736.782 87.2002C743.182 83.0669 750.182 81.0001 757.782 81ZM911.688 81C919.422 81 926.422 83.067 932.688 87.2002C939.088 91.3335 944.155 96.8674 947.889 103.801C951.622 110.601 953.489 118.134 953.489 126.4C953.489 134.667 951.622 142.267 947.889 149.2C944.155 156 939.088 161.467 932.688 165.601C926.422 169.734 919.422 171.801 911.688 171.801C904.089 171.801 897.088 169.734 890.688 165.601C884.422 161.467 879.422 156 875.688 149.2C871.955 142.267 870.089 134.667 870.089 126.4C870.089 118.134 871.955 110.601 875.688 103.801C879.422 96.8675 884.422 91.3335 890.688 87.2002C897.088 83.0669 904.089 81.0001 911.688 81ZM120.2 39.2002C120.2 44.723 124.677 49.2002 130.2 49.2002H159.399C164.922 49.2002 169.399 53.6773 169.399 59.2002V159.4C169.399 164.923 164.922 169.4 159.399 169.4H59.2002C53.6773 169.4 49.2002 164.923 49.2002 159.4V130.2C49.2002 124.677 44.723 120.2 39.2002 120.2H10C4.47715 120.2 0 115.723 0 110.2V10C0 4.47715 4.47715 0 10 0H110.2C115.723 0 120.2 4.47715 120.2 10V39.2002ZM568.573 81C575.373 81 580.973 83.067 585.373 87.2002C589.906 91.2002 592.173 98.4008 592.173 108.801V152.601C592.173 156.467 592.64 159.201 593.573 160.801C594.64 162.267 596.374 163 598.773 163C600.507 163 601.373 164.067 601.373 166.2C601.373 168.333 600.507 169.4 598.773 169.4C597.44 169.4 595.44 169.334 592.773 169.2C590.107 169.067 587.173 169 583.974 169C580.774 169 577.64 169.067 574.573 169.2C571.507 169.334 569.307 169.4 567.974 169.4C566.107 169.4 565.173 168.334 565.173 166.2C565.173 164.067 566.107 163 567.974 163C571.173 163 573.239 162.267 574.173 160.801C575.24 159.334 575.773 156.733 575.773 153V111.801C575.773 104.734 574.64 99.8 572.373 97C570.106 94.2002 566.706 92.8008 562.173 92.8008C558.706 92.8009 555.506 94.0005 552.573 96.4004C549.773 98.6671 547.507 101.734 545.773 105.601C544.04 109.334 543.173 113.534 543.173 118.2V152.601C543.173 156.467 543.774 159.201 544.974 160.801C546.174 162.267 548.24 163 551.173 163C553.039 163 553.974 164.067 553.974 166.2C553.974 168.334 553.04 169.4 551.173 169.4C549.839 169.4 547.573 169.334 544.373 169.2C541.173 169.067 537.973 169 534.773 169C531.707 169 528.44 169.067 524.974 169.2C521.64 169.334 519.24 169.4 517.773 169.4C515.907 169.4 514.974 168.334 514.974 166.2C514.974 164.067 515.907 163 517.773 163C521.773 163 524.239 162.267 525.173 160.801C526.24 159.334 526.773 156.733 526.773 153V111.801C526.773 105.001 525.507 100.067 522.974 97C520.44 93.9334 516.906 92.4004 512.373 92.4004C507.173 92.4004 502.84 94.5342 499.373 98.8008C496.04 103.067 494.373 108.334 494.373 114.601V152.601C494.373 156.467 494.973 159.201 496.173 160.801C497.373 162.267 499.64 163 502.974 163C504.707 163 505.573 164.067 505.573 166.2C505.573 168.333 504.707 169.4 502.974 169.4C501.64 169.4 499.307 169.334 495.974 169.2C492.64 169.067 489.373 169 486.173 169C482.973 169 479.573 169.067 475.974 169.2C472.374 169.334 469.84 169.4 468.373 169.4C466.507 169.4 465.573 168.333 465.573 166.2C465.573 164.067 466.507 163 468.373 163C472.373 163 474.973 162.267 476.173 160.801C477.373 159.334 477.974 156.733 477.974 153V99.6006C477.974 97.0672 477.773 95.2 477.373 94C476.973 92.6669 475.973 91.8003 474.373 91.4004C473.44 91.1338 472.307 90.9341 470.974 90.8008C469.774 90.6675 468.774 90.5337 467.974 90.4004C466.24 90.0004 465.373 88.9335 465.373 87.2002C465.373 86.267 465.574 85.4674 465.974 84.8008C466.507 84.1342 467.24 83.8009 468.173 83.8008H471.573C473.44 83.6674 475.574 83.6006 477.974 83.6006H484.573C486.707 83.4673 488.174 83.4004 488.974 83.4004C491.907 83.4005 493.373 85.0005 493.373 88.2002V94.8008C493.373 95.2006 493.574 95.4673 493.974 95.6006C494.373 95.7336 494.773 95.5331 495.173 95C497.439 91.6668 500.44 88.5338 504.173 85.6006C508.04 82.5339 512.907 81 518.773 81C523.44 81 527.84 82.1338 531.974 84.4004C536.107 86.6671 539.24 90.6672 541.373 96.4004C541.64 97.0669 541.973 97.4003 542.373 97.4004C542.773 97.4004 543.106 97.1338 543.373 96.6006C544.573 94.4673 546.24 92.2007 548.373 89.8008C550.506 87.4008 553.24 85.3339 556.573 83.6006C559.907 81.8673 563.907 81 568.573 81ZM838.672 24.2002C841.738 24.2003 843.271 25.8003 843.271 29V152.601C843.272 156.467 843.871 159.201 845.071 160.801C846.405 162.267 849.205 163 853.472 163C855.338 163 856.271 164.067 856.271 166.2C856.271 168.334 855.338 169.4 853.472 169.4C852.138 169.4 849.472 169.334 845.472 169.2C841.605 169.067 838.138 169 835.071 169C831.871 169 828.271 169.067 824.271 169.2C820.405 169.334 817.738 169.4 816.271 169.4C814.405 169.4 813.472 168.333 813.472 166.2C813.472 164.067 814.405 163 816.271 163C820.938 163 823.871 162.267 825.071 160.801C826.271 159.334 826.872 156.733 826.872 153V40.8008C826.872 37.4675 826.539 35.2669 825.872 34.2002C825.342 33.2463 824.475 32.6294 823.271 32.3495C822.616 32.1973 821.948 32.0971 821.288 31.9677C820.505 31.8141 819.567 31.6918 818.472 31.6006C816.872 31.4673 815.672 31.3335 814.872 31.2002C813.139 30.8002 812.272 29.6672 812.271 27.8008C812.271 27.0009 812.538 26.2672 813.071 25.6006C813.605 24.934 814.271 24.6007 815.071 24.6006H818.872C821.139 24.4673 823.672 24.4004 826.472 24.4004H834.071C836.471 24.2671 838.005 24.2002 838.672 24.2002ZM1020.98 81C1025.24 81 1029.31 81.8004 1033.18 83.4004C1037.04 84.8671 1040.18 87.6006 1042.58 91.6006C1045.11 95.6006 1046.38 101.334 1046.38 108.801V152.601C1046.38 156.467 1046.91 159.201 1047.98 160.801C1049.04 162.267 1051.04 163 1053.98 163C1055.84 163 1056.78 164.067 1056.78 166.2C1056.78 168.334 1055.84 169.4 1053.98 169.4C1052.64 169.4 1050.44 169.334 1047.38 169.2C1044.31 169.067 1041.24 169 1038.18 169C1034.98 169 1031.84 169.067 1028.78 169.2C1025.84 169.334 1023.64 169.4 1022.18 169.4C1020.31 169.4 1019.38 168.333 1019.38 166.2C1019.38 164.067 1020.31 163 1022.18 163C1025.79 163 1027.97 162.312 1028.71 160.936L1028.92 160.512C1029.63 159.004 1029.98 156.5 1029.98 153V111.2C1029.98 104.4 1028.71 99.6008 1026.18 96.8008C1023.78 93.8675 1020.24 92.4004 1015.58 92.4004C1012.11 92.4004 1008.78 93.4673 1005.58 95.6006C1002.38 97.7339 999.778 100.6 997.778 104.2C995.778 107.667 994.778 111.534 994.778 115.801V152.601C994.778 156.467 995.244 159.201 996.178 160.801C997.111 162.267 998.978 163 1001.78 163C1003.64 163 1004.58 164.067 1004.58 166.2C1004.58 168.333 1003.64 169.4 1001.78 169.4C1000.45 169.4 998.378 169.334 995.578 169.2C992.778 169.067 989.778 169 986.578 169C983.378 169 979.911 169.067 976.178 169.2C972.578 169.334 970.112 169.4 968.778 169.4C966.912 169.4 965.978 168.334 965.978 166.2C965.978 164.067 966.912 163 968.778 163C972.778 163 975.378 162.267 976.578 160.801C977.778 159.334 978.378 156.733 978.378 153V99.6006C978.378 97.3339 978.244 95.5335 977.978 94.2002C977.711 92.7338 976.645 91.8004 974.778 91.4004C973.845 91.1337 972.711 90.9341 971.378 90.8008C970.178 90.5341 969.178 90.3335 968.378 90.2002C966.645 90.0669 965.778 89 965.778 87C965.778 86.2003 965.978 85.4673 966.378 84.8008C966.911 84.1341 967.645 83.8008 968.578 83.8008H971.978C973.978 83.6674 976.178 83.6006 978.578 83.6006H985.578C987.711 83.4673 989.112 83.4004 989.778 83.4004C992.845 83.4005 994.378 85.0005 994.378 88.2002V95.4004C994.378 96.0228 995.139 96.2217 995.646 95.86C995.722 95.8055 995.8 95.7445 995.879 95.6769C996.086 95.5016 996.257 95.2901 996.42 95.0733C998.926 91.7281 1002.25 88.5706 1006.38 85.6006C1010.64 82.534 1015.51 81.0001 1020.98 81ZM757.782 87.2002C750.449 87.2003 744.849 90.8003 740.982 98C737.249 105.2 735.383 114.667 735.383 126.4C735.383 138.134 737.249 147.601 740.982 154.801C744.849 162.001 750.449 165.6 757.782 165.601C765.249 165.601 770.85 162.001 774.583 154.801C778.316 147.601 780.183 138.134 780.183 126.4C780.183 114.667 778.316 105.2 774.583 98C770.85 90.8001 765.249 87.2002 757.782 87.2002ZM911.688 87.2002C904.355 87.2003 898.755 90.8003 894.889 98C891.155 105.2 889.289 114.667 889.289 126.4C889.289 138.134 891.155 147.601 894.889 154.801C898.755 162.001 904.355 165.6 911.688 165.601C919.155 165.601 924.756 162.001 928.489 154.801C932.223 147.601 934.089 138.134 934.089 126.4C934.089 114.667 932.223 105.2 928.489 98C924.756 90.8001 919.155 87.2002 911.688 87.2002ZM662.095 87.8008C659.028 87.8009 655.761 88.734 652.295 90.6006C648.962 92.4673 646.095 95.4673 643.695 99.6006C641.429 103.734 640.295 109.2 640.295 116V134.2C640.295 145.134 642.228 153.001 646.095 157.801C649.961 162.601 654.762 165 660.495 165C665.295 165 669.295 163.8 672.495 161.4C675.828 159 678.296 154.934 679.896 149.2C681.629 143.334 682.495 135.333 682.495 125.2C682.495 115.067 681.562 107.333 679.695 102C677.962 96.6668 675.562 93 672.495 91C669.428 88.8668 665.961 87.8008 662.095 87.8008ZM120.2 110.2C120.2 115.723 115.723 120.2 110.2 120.2H72.2002C66.6773 120.2 62.2002 124.677 62.2002 130.2V146.4C62.2002 151.923 66.6773 156.4 72.2002 156.4H146.399C151.922 156.4 156.399 151.923 156.399 146.4V72.2002C156.399 66.6773 151.922 62.2002 146.399 62.2002H130.2C124.677 62.2002 120.2 66.6773 120.2 72.2002V110.2ZM13 97.2002C13 102.723 17.4772 107.2 23 107.2H39.2002C44.723 107.2 49.2002 102.723 49.2002 97.2002V59.2002C49.2002 53.6773 53.6773 49.2002 59.2002 49.2002H97.2002C102.723 49.2002 107.2 44.723 107.2 39.2002V23C107.2 17.4772 102.723 13 97.2002 13H23C17.4772 13 13 17.4772 13 23V97.2002ZM62.2002 97.2002C62.2002 102.723 66.6773 107.2 72.2002 107.2H97.2002C102.723 107.2 107.2 102.723 107.2 97.2002V72.2002C107.2 66.6773 102.723 62.2002 97.2002 62.2002H72.2002C66.6773 62.2002 62.2002 66.6773 62.2002 72.2002V97.2002Z" fill="black"/>
</svg>
