<svg width="69" height="13" viewBox="0 0 69 13" fill="none" xmlns="http://www.w3.org/2000/svg">
<path d="M-0.00128122 9.34488V0.560874H8.78272V9.34488H-0.00128122ZM12.4138 9.29688V9.17687H12.5698C12.7538 9.17687 12.9178 9.15687 13.0618 9.11687C13.2138 9.07687 13.3338 8.99687 13.4218 8.87687C13.5098 8.74887 13.5538 8.56087 13.5538 8.31287V2.98487H12.4618V2.86487H13.5538V2.50487C13.5538 2.00887 13.6538 1.57287 13.8538 1.19687C14.0618 0.820874 14.3778 0.528874 14.8018 0.320875C15.2258 0.104875 15.7658 -0.00312543 16.4218 -0.00312543C16.7978 -0.00312543 17.1258 0.0208745 17.4058 0.0688744C17.6858 0.116875 17.9178 0.184875 18.1018 0.272875C18.2858 0.360874 18.4258 0.464875 18.5218 0.584875C18.6178 0.704875 18.6658 0.840875 18.6658 0.992875C18.6658 1.22487 18.5658 1.41687 18.3658 1.56887C18.1658 1.71287 17.9018 1.78487 17.5738 1.78487C17.5738 1.48087 17.5338 1.20487 17.4538 0.956874C17.3738 0.708875 17.2338 0.508875 17.0338 0.356874C16.8418 0.204874 16.5698 0.128874 16.2178 0.128874C15.8098 0.128874 15.4938 0.228874 15.2698 0.428875C15.0458 0.628875 14.8898 0.908875 14.8018 1.26887C14.7218 1.62087 14.6818 2.03688 14.6818 2.51688V2.86487H18.7498V8.31287C18.7498 8.56087 18.7938 8.74887 18.8818 8.87687C18.9698 8.99687 19.0898 9.07687 19.2418 9.11687C19.3938 9.15687 19.5578 9.17687 19.7338 9.17687H19.8898V9.29688H16.6018V9.17687H16.6378C16.8138 9.17687 16.9738 9.16087 17.1178 9.12887C17.2698 9.08887 17.3898 9.01287 17.4778 8.90088C17.5738 8.78087 17.6218 8.60487 17.6218 8.37287V2.98487H14.6818V8.31287C14.6818 8.56087 14.7258 8.74887 14.8138 8.87687C14.9018 8.99687 15.0218 9.07687 15.1738 9.11687C15.3258 9.15687 15.4898 9.17687 15.6658 9.17687H15.8818V9.29688H12.4138ZM22.8189 12.1769C21.9869 12.1769 21.3629 12.0249 20.9469 11.7209C20.5309 11.4249 20.3229 11.0289 20.3229 10.5329C20.3229 10.2529 20.3869 10.0089 20.5149 9.80088C20.6429 9.60088 20.8389 9.44088 21.1029 9.32088C21.3669 9.20087 21.6989 9.14087 22.0989 9.14087C21.7869 9.04487 21.5509 8.88887 21.3909 8.67287C21.2389 8.45687 21.1629 8.22887 21.1629 7.98887C21.1629 7.75687 21.2389 7.53687 21.3909 7.32887C21.5509 7.11287 21.7949 6.94887 22.1229 6.83687C21.7389 6.70087 21.4309 6.47687 21.1989 6.16487C20.9749 5.84487 20.8629 5.44487 20.8629 4.96487C20.8629 4.27687 21.0509 3.73687 21.4269 3.34487C21.8029 2.94487 22.3669 2.74487 23.1189 2.74487C23.3989 2.74487 23.6509 2.78087 23.8749 2.85287C24.0989 2.91687 24.2989 3.01287 24.4749 3.14087C24.5549 3.05287 24.6509 2.96087 24.7629 2.86487C24.8829 2.76087 25.0189 2.67287 25.1709 2.60087C25.3229 2.52887 25.4869 2.49287 25.6629 2.49287C25.8949 2.49287 26.0669 2.55687 26.1789 2.68488C26.2989 2.80487 26.3589 2.95287 26.3589 3.12888C26.3589 3.28887 26.3069 3.42087 26.2029 3.52487C26.1069 3.62887 25.9469 3.68087 25.7229 3.68087C25.7229 3.42487 25.6789 3.23687 25.5909 3.11687C25.5109 2.99687 25.3789 2.93687 25.1949 2.93687C25.0909 2.93687 24.9949 2.95687 24.9069 2.99687C24.8189 3.02887 24.7069 3.10087 24.5709 3.21287C24.8029 3.40487 24.9789 3.64887 25.0989 3.94487C25.2189 4.24087 25.2789 4.56887 25.2789 4.92887C25.2789 5.52087 25.0989 6.01287 24.7389 6.40487C24.3869 6.79687 23.8469 6.99287 23.1189 6.99287C22.9669 6.99287 22.8189 6.98487 22.6749 6.96887C22.5389 6.94487 22.4069 6.91687 22.2789 6.88487C22.0869 6.96487 21.9549 7.06087 21.8829 7.17287C21.8109 7.28487 21.7749 7.40887 21.7749 7.54487C21.7749 7.75287 21.8469 7.90487 21.9909 8.00087C22.1429 8.09687 22.3669 8.14487 22.6629 8.14487H24.0189C24.4989 8.14487 24.8829 8.22487 25.1709 8.38487C25.4589 8.53687 25.6669 8.74887 25.7949 9.02087C25.9309 9.28487 25.9989 9.58888 25.9989 9.93288C25.9989 10.6209 25.7389 11.1649 25.2189 11.5649C24.7069 11.9729 23.9069 12.1769 22.8189 12.1769ZM22.9149 12.0569C23.4189 12.0569 23.8349 11.9929 24.1629 11.8649C24.4909 11.7449 24.7349 11.5649 24.8949 11.3249C25.0549 11.0849 25.1349 10.7849 25.1349 10.4249C25.1349 10.0089 25.0229 9.70088 24.7989 9.50088C24.5829 9.30888 24.2469 9.21287 23.7909 9.21287H22.4949C22.2789 9.21287 22.0709 9.25287 21.8709 9.33288C21.6789 9.41288 21.5189 9.55288 21.3909 9.75288C21.2709 9.95288 21.2109 10.2289 21.2109 10.5809C21.2109 10.9089 21.2789 11.1809 21.4149 11.3969C21.5509 11.6209 21.7429 11.7849 21.9909 11.8889C22.2469 12.0009 22.5549 12.0569 22.9149 12.0569ZM23.0829 6.87287C23.3469 6.87287 23.5549 6.80487 23.7069 6.66887C23.8669 6.53287 23.9789 6.32087 24.0429 6.03287C24.1149 5.74487 24.1509 5.37687 24.1509 4.92887C24.1509 4.45687 24.1149 4.06887 24.0429 3.76487C23.9709 3.46087 23.8549 3.23687 23.6949 3.09287C23.5429 2.94087 23.3349 2.86487 23.0709 2.86487C22.8149 2.86487 22.6069 2.94487 22.4469 3.10487C22.2869 3.25687 22.1709 3.48487 22.0989 3.78887C22.0269 4.09287 21.9909 4.47687 21.9909 4.94087C21.9909 5.38087 22.0269 5.74487 22.0989 6.03287C22.1789 6.32087 22.2989 6.53287 22.4589 6.66887C22.6189 6.80487 22.8269 6.87287 23.0829 6.87287ZM29.8999 9.41688C29.1959 9.41688 28.6679 9.23287 28.3159 8.86487C27.9719 8.48887 27.7999 7.88887 27.7999 7.06487V4.06487C27.7999 3.79287 27.7679 3.58087 27.7039 3.42887C27.6479 3.26887 27.5479 3.15687 27.4039 3.09287C27.2599 3.02087 27.0639 2.98487 26.8159 2.98487H26.7799V2.86487H28.9279V7.12487C28.9279 7.63687 28.9639 8.04887 29.0359 8.36087C29.1079 8.66487 29.2279 8.88887 29.3959 9.03287C29.5719 9.17687 29.8039 9.24887 30.0919 9.24887C30.4519 9.24887 30.7479 9.15687 30.9799 8.97287C31.2199 8.78087 31.3999 8.50487 31.5199 8.14487C31.6399 7.77687 31.6999 7.33687 31.6999 6.82487V4.06487C31.6999 3.79287 31.6679 3.58087 31.6039 3.42887C31.5479 3.26887 31.4479 3.15687 31.3039 3.09287C31.1599 3.02087 30.9639 2.98487 30.7159 2.98487H30.6799V2.86487H32.8279V8.10887C32.8279 8.38087 32.8559 8.59687 32.9119 8.75687C32.9759 8.90887 33.0799 9.01687 33.2239 9.08087C33.3679 9.14487 33.5639 9.17687 33.8119 9.17687H33.8479V9.29688H31.7839V7.65287H31.7599C31.6959 8.06087 31.5919 8.38487 31.4479 8.62487C31.3119 8.85687 31.1519 9.02887 30.9679 9.14087C30.7919 9.25287 30.6079 9.32488 30.4159 9.35688C30.2319 9.39688 30.0599 9.41688 29.8999 9.41688ZM34.3971 9.29688V9.17687H34.5531C34.7931 9.17687 34.9851 9.14487 35.1291 9.08087C35.2731 9.01687 35.3771 8.91687 35.4411 8.78087C35.5051 8.64487 35.5371 8.46887 35.5371 8.25287V3.92087C35.5371 3.69687 35.5051 3.51687 35.4411 3.38087C35.3771 3.24487 35.2731 3.14487 35.1291 3.08087C34.9851 3.01687 34.7931 2.98487 34.5531 2.98487H34.5171V2.86487H36.6531V4.06487H36.6771C36.7331 3.85687 36.8171 3.65287 36.9291 3.45287C37.0411 3.25287 37.2091 3.08487 37.4331 2.94887C37.6651 2.81287 37.9731 2.74487 38.3571 2.74487C38.7571 2.74487 39.0611 2.82487 39.2691 2.98487C39.4851 3.13687 39.5931 3.35287 39.5931 3.63287C39.5931 3.87287 39.5051 4.07287 39.3291 4.23287C39.1611 4.39287 38.8771 4.47287 38.4771 4.47287C38.4771 4.13687 38.4371 3.87687 38.3571 3.69287C38.2851 3.50087 38.1851 3.36487 38.0571 3.28487C37.9371 3.20487 37.8051 3.16487 37.6611 3.16487C37.4291 3.16487 37.2451 3.24887 37.1091 3.41687C36.9731 3.57687 36.8731 3.78887 36.8091 4.05287C36.7451 4.30887 36.7051 4.57687 36.6891 4.85687C36.6731 5.12887 36.6651 5.38087 36.6651 5.61287V8.19287C36.6651 8.43287 36.6971 8.62487 36.7611 8.76887C36.8251 8.91287 36.9291 9.01687 37.0731 9.08087C37.2251 9.14487 37.4171 9.17687 37.6491 9.17687H37.8051V9.29688H34.3971ZM42.1152 9.41688C41.7072 9.41688 41.3552 9.34488 41.0592 9.20087C40.7632 9.05687 40.5352 8.85287 40.3752 8.58887C40.2152 8.32487 40.1352 8.00887 40.1352 7.64087C40.1352 7.02487 40.3592 6.56487 40.8072 6.26087C41.2632 5.95687 41.9512 5.78887 42.8712 5.75687L43.8672 5.72087V4.82087C43.8672 4.37287 43.8432 4.00487 43.7952 3.71687C43.7472 3.42887 43.6432 3.21687 43.4832 3.08087C43.3232 2.93687 43.0792 2.86487 42.7512 2.86487C42.4472 2.86487 42.2152 2.92887 42.0552 3.05687C41.8952 3.18487 41.7872 3.38087 41.7312 3.64487C41.6832 3.90087 41.6592 4.23687 41.6592 4.65287C41.3232 4.65287 41.0672 4.59687 40.8912 4.48487C40.7232 4.37287 40.6392 4.18887 40.6392 3.93287C40.6392 3.64487 40.7352 3.41687 40.9272 3.24887C41.1272 3.07287 41.3912 2.94487 41.7192 2.86487C42.0472 2.78487 42.4072 2.74487 42.7992 2.74487C43.5352 2.74487 44.0832 2.90087 44.4432 3.21287C44.8112 3.52487 44.9952 4.06087 44.9952 4.82087V8.40887C44.9952 8.60087 45.0192 8.75287 45.0672 8.86487C45.1152 8.97687 45.1952 9.05687 45.3072 9.10487C45.4192 9.15287 45.5632 9.17687 45.7392 9.17687H45.7752V9.29688H43.9632V8.03687H43.9392C43.8592 8.35687 43.7312 8.62087 43.5552 8.82887C43.3792 9.02887 43.1672 9.17687 42.9192 9.27287C42.6792 9.36888 42.4112 9.41688 42.1152 9.41688ZM42.3552 9.24887C42.6512 9.24887 42.9112 9.17287 43.1352 9.02087C43.3672 8.86887 43.5472 8.66487 43.6752 8.40887C43.8032 8.15287 43.8672 7.87687 43.8672 7.58087V5.85287L43.0992 5.88887C42.6432 5.90487 42.2832 5.97687 42.0192 6.10487C41.7632 6.23287 41.5792 6.43287 41.4672 6.70487C41.3552 6.96887 41.2992 7.32487 41.2992 7.77287C41.2992 8.09287 41.3352 8.36487 41.4072 8.58887C41.4872 8.80487 41.6072 8.96887 41.7672 9.08087C41.9272 9.19287 42.1232 9.24887 42.3552 9.24887ZM49.1769 9.41688C48.5689 9.41688 48.1249 9.28088 47.8449 9.00887C47.5729 8.72887 47.4369 8.24487 47.4369 7.55687V2.98487H46.5249V2.86487C46.8129 2.86487 47.0609 2.84087 47.2689 2.79287C47.4849 2.73687 47.6689 2.65287 47.8209 2.54087C47.9809 2.42887 48.1089 2.27687 48.2049 2.08487C48.3089 1.89287 48.3889 1.66087 48.4449 1.38887H48.5649V2.86487H50.2449V2.98487H48.5649V8.00087C48.5649 8.41687 48.6449 8.72887 48.8049 8.93687C48.9649 9.14487 49.2009 9.24887 49.5129 9.24887C49.6249 9.24887 49.7409 9.23687 49.8609 9.21287C49.9809 9.18887 50.1089 9.15287 50.2449 9.10487V9.22487C50.1409 9.27287 49.9849 9.31688 49.7769 9.35688C49.5689 9.39688 49.3689 9.41688 49.1769 9.41688ZM50.7916 9.29688V9.17687H50.9476C51.1876 9.17687 51.3796 9.14487 51.5236 9.08087C51.6676 9.01687 51.7716 8.91687 51.8356 8.78087C51.8996 8.64487 51.9316 8.46887 51.9316 8.25287V3.92087C51.9316 3.69687 51.8996 3.51687 51.8356 3.38087C51.7716 3.24487 51.6676 3.14487 51.5236 3.08087C51.3796 3.01687 51.1876 2.98487 50.9476 2.98487H50.9116V2.86487H53.0596V8.19287C53.0596 8.43287 53.0916 8.62487 53.1556 8.76887C53.2196 8.91287 53.3236 9.01687 53.4676 9.08087C53.6196 9.14487 53.8116 9.17687 54.0436 9.17687H54.1996V9.29688H50.7916ZM52.4356 1.71287C52.2836 1.71287 52.1556 1.66487 52.0516 1.56887C51.9556 1.46487 51.9076 1.28887 51.9076 1.04087C51.9076 0.784875 51.9556 0.608875 52.0516 0.512874C52.1556 0.416875 52.2836 0.368875 52.4356 0.368875C52.5796 0.368875 52.7036 0.416875 52.8076 0.512874C52.9116 0.608875 52.9636 0.784875 52.9636 1.04087C52.9636 1.28887 52.9116 1.46487 52.8076 1.56887C52.7036 1.66487 52.5796 1.71287 52.4356 1.71287ZM57.8034 9.41688C56.9394 9.41688 56.2594 9.14087 55.7634 8.58887C55.2674 8.03687 55.0194 7.19687 55.0194 6.06887C55.0194 4.94887 55.2554 4.11687 55.7274 3.57287C56.2074 3.02087 56.9114 2.74487 57.8394 2.74487C58.7034 2.74487 59.3834 3.02087 59.8794 3.57287C60.3754 4.11687 60.6234 4.94887 60.6234 6.06887C60.6234 7.19687 60.3834 8.03687 59.9034 8.58887C59.4314 9.14087 58.7314 9.41688 57.8034 9.41688ZM57.8274 9.29688C58.2194 9.29688 58.5354 9.18887 58.7754 8.97287C59.0154 8.75687 59.1874 8.41287 59.2914 7.94087C59.4034 7.46887 59.4594 6.84487 59.4594 6.06887C59.4594 5.30087 59.4034 4.68087 59.2914 4.20887C59.1874 3.73687 59.0154 3.39687 58.7754 3.18887C58.5354 2.97287 58.2154 2.86487 57.8154 2.86487C57.4234 2.86487 57.1074 2.97287 56.8674 3.18887C56.6274 3.39687 56.4514 3.73687 56.3394 4.20887C56.2354 4.68087 56.1834 5.30087 56.1834 6.06887C56.1834 6.84487 56.2354 7.46887 56.3394 7.94087C56.4514 8.41287 56.6274 8.75687 56.8674 8.97287C57.1154 9.18887 57.4354 9.29688 57.8274 9.29688ZM61.6212 9.29688V9.17687H61.7172C61.9652 9.17687 62.1612 9.14487 62.3052 9.08087C62.4492 9.00887 62.5492 8.89287 62.6052 8.73287C62.6692 8.57287 62.7012 8.35287 62.7012 8.07287V4.06487C62.7012 3.79287 62.6692 3.58087 62.6052 3.42887C62.5492 3.26887 62.4532 3.15687 62.3172 3.09287C62.1812 3.02087 61.9892 2.98487 61.7412 2.98487H61.6812V2.86487H63.8172V3.99287H63.8412C63.9532 3.61687 64.1092 3.34087 64.3092 3.16487C64.5092 2.98887 64.7252 2.87687 64.9572 2.82887C65.1972 2.77287 65.4172 2.74487 65.6172 2.74487C66.3292 2.74487 66.8572 2.93287 67.2012 3.30887C67.5532 3.67687 67.7292 4.27287 67.7292 5.09687V8.07287C67.7292 8.35287 67.7572 8.57287 67.8132 8.73287C67.8692 8.89287 67.9612 9.00887 68.0892 9.08087C68.2252 9.14487 68.4052 9.17687 68.6292 9.17687H68.6892V9.29688H66.6012V4.68887C66.6012 4.16887 66.5052 3.74487 66.3132 3.41687C66.1212 3.08887 65.7892 2.92487 65.3172 2.92487C64.9412 2.92487 64.6452 3.02487 64.4292 3.22487C64.2132 3.42487 64.0572 3.68487 63.9612 4.00487C63.8732 4.31687 63.8292 4.64487 63.8292 4.98887V8.07287C63.8292 8.35287 63.8572 8.57287 63.9132 8.73287C63.9772 8.89287 64.0772 9.00887 64.2132 9.08087C64.3572 9.14487 64.5492 9.17687 64.7892 9.17687H64.8492V9.29688H61.6212Z" fill="black"/>
</svg>
