<svg width="64" height="13" viewBox="0 0 64 13" fill="none" xmlns="http://www.w3.org/2000/svg">
<path d="M-0.00128122 9.34488V0.560874H8.78272V9.34488H-0.00128122ZM12.4138 9.29688V9.17687H12.5698C12.7538 9.17687 12.9178 9.15687 13.0618 9.11687C13.2138 9.07687 13.3338 8.99687 13.4218 8.87687C13.5098 8.74887 13.5538 8.56087 13.5538 8.31287V2.98487H12.4618V2.86487H13.5538V2.50487C13.5538 2.00887 13.6538 1.57287 13.8538 1.19687C14.0618 0.820874 14.3778 0.528874 14.8018 0.320875C15.2258 0.104875 15.7658 -0.00312543 16.4218 -0.00312543C16.7978 -0.00312543 17.1258 0.0208745 17.4058 0.0688744C17.6858 0.116875 17.9178 0.184875 18.1018 0.272875C18.2858 0.360874 18.4258 0.464875 18.5218 0.584875C18.6178 0.704875 18.6658 0.840875 18.6658 0.992875C18.6658 1.22487 18.5658 1.41687 18.3658 1.56887C18.1658 1.71287 17.9018 1.78487 17.5738 1.78487C17.5738 1.48087 17.5338 1.20487 17.4538 0.956874C17.3738 0.708875 17.2338 0.508875 17.0338 0.356874C16.8418 0.204874 16.5698 0.128874 16.2178 0.128874C15.8098 0.128874 15.4938 0.228874 15.2698 0.428875C15.0458 0.628875 14.8898 0.908875 14.8018 1.26887C14.7218 1.62087 14.6818 2.03688 14.6818 2.51688V2.86487H18.7498V8.31287C18.7498 8.56087 18.7938 8.74887 18.8818 8.87687C18.9698 8.99687 19.0898 9.07687 19.2418 9.11687C19.3938 9.15687 19.5578 9.17687 19.7338 9.17687H19.8898V9.29688H16.6018V9.17687H16.6378C16.8138 9.17687 16.9738 9.16087 17.1178 9.12887C17.2698 9.08887 17.3898 9.01287 17.4778 8.90088C17.5738 8.78087 17.6218 8.60487 17.6218 8.37287V2.98487H14.6818V8.31287C14.6818 8.56087 14.7258 8.74887 14.8138 8.87687C14.9018 8.99687 15.0218 9.07687 15.1738 9.11687C15.3258 9.15687 15.4898 9.17687 15.6658 9.17687H15.8818V9.29688H12.4138ZM22.8189 12.1769C21.9869 12.1769 21.3629 12.0249 20.9469 11.7209C20.5309 11.4249 20.3229 11.0289 20.3229 10.5329C20.3229 10.2529 20.3869 10.0089 20.5149 9.80088C20.6429 9.60088 20.8389 9.44088 21.1029 9.32088C21.3669 9.20087 21.6989 9.14087 22.0989 9.14087C21.7869 9.04487 21.5509 8.88887 21.3909 8.67287C21.2389 8.45687 21.1629 8.22887 21.1629 7.98887C21.1629 7.75687 21.2389 7.53687 21.3909 7.32887C21.5509 7.11287 21.7949 6.94887 22.1229 6.83687C21.7389 6.70087 21.4309 6.47687 21.1989 6.16487C20.9749 5.84487 20.8629 5.44487 20.8629 4.96487C20.8629 4.27687 21.0509 3.73687 21.4269 3.34487C21.8029 2.94487 22.3669 2.74487 23.1189 2.74487C23.3989 2.74487 23.6509 2.78087 23.8749 2.85287C24.0989 2.91687 24.2989 3.01287 24.4749 3.14087C24.5549 3.05287 24.6509 2.96087 24.7629 2.86487C24.8829 2.76087 25.0189 2.67287 25.1709 2.60087C25.3229 2.52887 25.4869 2.49287 25.6629 2.49287C25.8949 2.49287 26.0669 2.55687 26.1789 2.68488C26.2989 2.80487 26.3589 2.95287 26.3589 3.12888C26.3589 3.28887 26.3069 3.42087 26.2029 3.52487C26.1069 3.62887 25.9469 3.68087 25.7229 3.68087C25.7229 3.42487 25.6789 3.23687 25.5909 3.11687C25.5109 2.99687 25.3789 2.93687 25.1949 2.93687C25.0909 2.93687 24.9949 2.95687 24.9069 2.99687C24.8189 3.02887 24.7069 3.10087 24.5709 3.21287C24.8029 3.40487 24.9789 3.64887 25.0989 3.94487C25.2189 4.24087 25.2789 4.56887 25.2789 4.92887C25.2789 5.52087 25.0989 6.01287 24.7389 6.40487C24.3869 6.79687 23.8469 6.99287 23.1189 6.99287C22.9669 6.99287 22.8189 6.98487 22.6749 6.96887C22.5389 6.94487 22.4069 6.91687 22.2789 6.88487C22.0869 6.96487 21.9549 7.06087 21.8829 7.17287C21.8109 7.28487 21.7749 7.40887 21.7749 7.54487C21.7749 7.75287 21.8469 7.90487 21.9909 8.00087C22.1429 8.09687 22.3669 8.14487 22.6629 8.14487H24.0189C24.4989 8.14487 24.8829 8.22487 25.1709 8.38487C25.4589 8.53687 25.6669 8.74887 25.7949 9.02087C25.9309 9.28487 25.9989 9.58888 25.9989 9.93288C25.9989 10.6209 25.7389 11.1649 25.2189 11.5649C24.7069 11.9729 23.9069 12.1769 22.8189 12.1769ZM22.9149 12.0569C23.4189 12.0569 23.8349 11.9929 24.1629 11.8649C24.4909 11.7449 24.7349 11.5649 24.8949 11.3249C25.0549 11.0849 25.1349 10.7849 25.1349 10.4249C25.1349 10.0089 25.0229 9.70088 24.7989 9.50088C24.5829 9.30888 24.2469 9.21287 23.7909 9.21287H22.4949C22.2789 9.21287 22.0709 9.25287 21.8709 9.33288C21.6789 9.41288 21.5189 9.55288 21.3909 9.75288C21.2709 9.95288 21.2109 10.2289 21.2109 10.5809C21.2109 10.9089 21.2789 11.1809 21.4149 11.3969C21.5509 11.6209 21.7429 11.7849 21.9909 11.8889C22.2469 12.0009 22.5549 12.0569 22.9149 12.0569ZM23.0829 6.87287C23.3469 6.87287 23.5549 6.80487 23.7069 6.66887C23.8669 6.53287 23.9789 6.32087 24.0429 6.03287C24.1149 5.74487 24.1509 5.37687 24.1509 4.92887C24.1509 4.45687 24.1149 4.06887 24.0429 3.76487C23.9709 3.46087 23.8549 3.23687 23.6949 3.09287C23.5429 2.94087 23.3349 2.86487 23.0709 2.86487C22.8149 2.86487 22.6069 2.94487 22.4469 3.10487C22.2869 3.25687 22.1709 3.48487 22.0989 3.78887C22.0269 4.09287 21.9909 4.47687 21.9909 4.94087C21.9909 5.38087 22.0269 5.74487 22.0989 6.03287C22.1789 6.32087 22.2989 6.53287 22.4589 6.66887C22.6189 6.80487 22.8269 6.87287 23.0829 6.87287ZM29.8999 9.41688C29.1959 9.41688 28.6679 9.23287 28.3159 8.86487C27.9719 8.48887 27.7999 7.88887 27.7999 7.06487V4.06487C27.7999 3.79287 27.7679 3.58087 27.7039 3.42887C27.6479 3.26887 27.5479 3.15687 27.4039 3.09287C27.2599 3.02087 27.0639 2.98487 26.8159 2.98487H26.7799V2.86487H28.9279V7.12487C28.9279 7.63687 28.9639 8.04887 29.0359 8.36087C29.1079 8.66487 29.2279 8.88887 29.3959 9.03287C29.5719 9.17687 29.8039 9.24887 30.0919 9.24887C30.4519 9.24887 30.7479 9.15687 30.9799 8.97287C31.2199 8.78087 31.3999 8.50487 31.5199 8.14487C31.6399 7.77687 31.6999 7.33687 31.6999 6.82487V4.06487C31.6999 3.79287 31.6679 3.58087 31.6039 3.42887C31.5479 3.26887 31.4479 3.15687 31.3039 3.09287C31.1599 3.02087 30.9639 2.98487 30.7159 2.98487H30.6799V2.86487H32.8279V8.10887C32.8279 8.38087 32.8559 8.59687 32.9119 8.75687C32.9759 8.90887 33.0799 9.01687 33.2239 9.08087C33.3679 9.14487 33.5639 9.17687 33.8119 9.17687H33.8479V9.29688H31.7839V7.65287H31.7599C31.6959 8.06087 31.5919 8.38487 31.4479 8.62487C31.3119 8.85687 31.1519 9.02887 30.9679 9.14087C30.7919 9.25287 30.6079 9.32488 30.4159 9.35688C30.2319 9.39688 30.0599 9.41688 29.8999 9.41688ZM34.3971 9.29688V9.17687H34.5531C34.7931 9.17687 34.9851 9.14487 35.1291 9.08087C35.2731 9.01687 35.3771 8.91687 35.4411 8.78087C35.5051 8.64487 35.5371 8.46887 35.5371 8.25287V3.92087C35.5371 3.69687 35.5051 3.51687 35.4411 3.38087C35.3771 3.24487 35.2731 3.14487 35.1291 3.08087C34.9851 3.01687 34.7931 2.98487 34.5531 2.98487H34.5171V2.86487H36.6531V4.06487H36.6771C36.7331 3.85687 36.8171 3.65287 36.9291 3.45287C37.0411 3.25287 37.2091 3.08487 37.4331 2.94887C37.6651 2.81287 37.9731 2.74487 38.3571 2.74487C38.7571 2.74487 39.0611 2.82487 39.2691 2.98487C39.4851 3.13687 39.5931 3.35287 39.5931 3.63287C39.5931 3.87287 39.5051 4.07287 39.3291 4.23287C39.1611 4.39287 38.8771 4.47287 38.4771 4.47287C38.4771 4.13687 38.4371 3.87687 38.3571 3.69287C38.2851 3.50087 38.1851 3.36487 38.0571 3.28487C37.9371 3.20487 37.8051 3.16487 37.6611 3.16487C37.4291 3.16487 37.2451 3.24887 37.1091 3.41687C36.9731 3.57687 36.8731 3.78887 36.8091 4.05287C36.7451 4.30887 36.7051 4.57687 36.6891 4.85687C36.6731 5.12887 36.6651 5.38087 36.6651 5.61287V8.19287C36.6651 8.43287 36.6971 8.62487 36.7611 8.76887C36.8251 8.91287 36.9291 9.01687 37.0731 9.08087C37.2251 9.14487 37.4171 9.17687 37.6491 9.17687H37.8051V9.29688H34.3971ZM42.1152 9.41688C41.7072 9.41688 41.3552 9.34488 41.0592 9.20087C40.7632 9.05687 40.5352 8.85287 40.3752 8.58887C40.2152 8.32487 40.1352 8.00887 40.1352 7.64087C40.1352 7.02487 40.3592 6.56487 40.8072 6.26087C41.2632 5.95687 41.9512 5.78887 42.8712 5.75687L43.8672 5.72087V4.82087C43.8672 4.37287 43.8432 4.00487 43.7952 3.71687C43.7472 3.42887 43.6432 3.21687 43.4832 3.08087C43.3232 2.93687 43.0792 2.86487 42.7512 2.86487C42.4472 2.86487 42.2152 2.92887 42.0552 3.05687C41.8952 3.18487 41.7872 3.38087 41.7312 3.64487C41.6832 3.90087 41.6592 4.23687 41.6592 4.65287C41.3232 4.65287 41.0672 4.59687 40.8912 4.48487C40.7232 4.37287 40.6392 4.18887 40.6392 3.93287C40.6392 3.64487 40.7352 3.41687 40.9272 3.24887C41.1272 3.07287 41.3912 2.94487 41.7192 2.86487C42.0472 2.78487 42.4072 2.74487 42.7992 2.74487C43.5352 2.74487 44.0832 2.90087 44.4432 3.21287C44.8112 3.52487 44.9952 4.06087 44.9952 4.82087V8.40887C44.9952 8.60087 45.0192 8.75287 45.0672 8.86487C45.1152 8.97687 45.1952 9.05687 45.3072 9.10487C45.4192 9.15287 45.5632 9.17687 45.7392 9.17687H45.7752V9.29688H43.9632V8.03687H43.9392C43.8592 8.35687 43.7312 8.62087 43.5552 8.82887C43.3792 9.02887 43.1672 9.17687 42.9192 9.27287C42.6792 9.36888 42.4112 9.41688 42.1152 9.41688ZM42.3552 9.24887C42.6512 9.24887 42.9112 9.17287 43.1352 9.02087C43.3672 8.86887 43.5472 8.66487 43.6752 8.40887C43.8032 8.15287 43.8672 7.87687 43.8672 7.58087V5.85287L43.0992 5.88887C42.6432 5.90487 42.2832 5.97687 42.0192 6.10487C41.7632 6.23287 41.5792 6.43287 41.4672 6.70487C41.3552 6.96887 41.2992 7.32487 41.2992 7.77287C41.2992 8.09287 41.3352 8.36487 41.4072 8.58887C41.4872 8.80487 41.6072 8.96887 41.7672 9.08087C41.9272 9.19287 42.1232 9.24887 42.3552 9.24887ZM50.5929 9.41688C50.0729 9.41688 49.6609 9.26888 49.3569 8.97287C49.0529 8.67687 48.8449 8.22087 48.7329 7.60487H48.7089V9.29688H46.5129V9.17687H46.6089C46.8489 9.17687 47.0409 9.14487 47.1849 9.08087C47.3289 9.01687 47.4329 8.91687 47.4969 8.78087C47.5609 8.64487 47.5929 8.46887 47.5929 8.25287V1.23287C47.5929 1.00887 47.5609 0.828875 47.4969 0.692875C47.4329 0.556875 47.3289 0.456875 47.1849 0.392874C47.0409 0.328874 46.8489 0.296874 46.6089 0.296874H46.5729V0.176874H48.7209V2.38487C48.7209 2.52087 48.7209 2.70487 48.7209 2.93687C48.7209 3.16087 48.7169 3.41287 48.7089 3.69287C48.7089 3.96487 48.7049 4.24487 48.6969 4.53287H48.7209C48.8329 3.92487 49.0409 3.47687 49.3449 3.18887C49.6569 2.89287 50.0809 2.74487 50.6169 2.74487C51.4009 2.74487 51.9929 3.02487 52.3929 3.58487C52.8009 4.14487 53.0049 4.97287 53.0049 6.06887C53.0049 6.79687 52.9129 7.41287 52.7289 7.91687C52.5449 8.41287 52.2729 8.78887 51.9129 9.04487C51.5609 9.29287 51.1209 9.41688 50.5929 9.41688ZM50.3889 9.23687C50.7409 9.23687 51.0209 9.13287 51.2289 8.92487C51.4449 8.70887 51.6009 8.36887 51.6969 7.90487C51.7929 7.43287 51.8409 6.81687 51.8409 6.05687C51.8409 5.30487 51.7929 4.70087 51.6969 4.24487C51.6009 3.78087 51.4449 3.44487 51.2289 3.23688C51.0129 3.02887 50.7289 2.92487 50.3769 2.92487C49.7929 2.92487 49.3689 3.18887 49.1049 3.71687C48.8489 4.24487 48.7209 5.02887 48.7209 6.06887C48.7209 6.78087 48.7809 7.37287 48.9009 7.84487C49.0209 8.31687 49.2049 8.66887 49.4529 8.90088C49.7009 9.12487 50.0129 9.23687 50.3889 9.23687ZM53.824 9.29688V9.17687H53.98C54.22 9.17687 54.412 9.14487 54.556 9.08087C54.7 9.01687 54.804 8.91687 54.868 8.78087C54.932 8.64487 54.964 8.46887 54.964 8.25287V1.23287C54.964 1.00887 54.932 0.828875 54.868 0.692875C54.804 0.556875 54.7 0.456875 54.556 0.392874C54.412 0.328874 54.22 0.296874 53.98 0.296874H53.824V0.176874H56.092V8.19287C56.092 8.43287 56.124 8.62487 56.188 8.76887C56.252 8.91287 56.356 9.01687 56.5 9.08087C56.644 9.14487 56.836 9.17687 57.076 9.17687H57.232V9.29688H53.824ZM60.8868 9.41688C59.9908 9.41688 59.2908 9.12887 58.7868 8.55287C58.2908 7.97687 58.0428 7.16887 58.0428 6.12888C58.0428 5.00887 58.2748 4.16487 58.7388 3.59687C59.2028 3.02887 59.8588 2.74487 60.7068 2.74487C61.4828 2.74487 62.0908 2.98487 62.5308 3.46487C62.9788 3.94487 63.2028 4.66087 63.2028 5.61287V5.90087H59.2068C59.2148 6.71687 59.2748 7.37287 59.3868 7.86887C59.4988 8.36487 59.6788 8.72887 59.9268 8.96087C60.1828 9.18487 60.5148 9.29688 60.9228 9.29688C61.2268 9.29688 61.4948 9.24087 61.7268 9.12887C61.9668 9.01687 62.1668 8.85287 62.3268 8.63687C62.4868 8.41287 62.5948 8.14087 62.6508 7.82087C62.7468 7.83687 62.8188 7.88487 62.8668 7.96487C62.9148 8.04487 62.9388 8.12887 62.9388 8.21687C62.9388 8.37687 62.8628 8.55287 62.7108 8.74487C62.5588 8.92887 62.3308 9.08887 62.0268 9.22487C61.7308 9.35288 61.3508 9.41688 60.8868 9.41688ZM61.9908 5.78087C61.9908 5.07687 61.9468 4.51287 61.8588 4.08887C61.7708 3.66487 61.6308 3.35687 61.4388 3.16487C61.2468 2.96487 60.9948 2.86487 60.6828 2.86487C60.3548 2.86487 60.0868 2.96487 59.8788 3.16487C59.6708 3.35687 59.5148 3.66487 59.4108 4.08887C59.3068 4.51287 59.2388 5.07687 59.2068 5.78087H61.9908Z" fill="white"/>
</svg>
