<svg width="94" height="97" viewBox="0 0 94 97" fill="none" xmlns="http://www.w3.org/2000/svg">
<path d="M0.784 88.368C0.784 85.7227 1.424 83.8027 2.704 82.608C3.984 81.328 5.776 80.688 8.08 80.688C10.4693 80.688 12.304 81.328 13.584 82.608C14.864 83.8027 15.504 85.7227 15.504 88.368C15.504 90.928 14.864 92.848 13.584 94.128C12.304 95.408 10.4693 96.048 8.08 96.048C5.776 96.048 3.984 95.408 2.704 94.128C1.424 92.848 0.784 90.928 0.784 88.368ZM77.456 88.368C77.456 85.7227 78.096 83.8027 79.376 82.608C80.656 81.328 82.448 80.688 84.752 80.688C87.1413 80.688 88.976 81.328 90.256 82.608C91.536 83.8027 92.176 85.7227 92.176 88.368C92.176 90.928 91.536 92.848 90.256 94.128C88.976 95.408 87.1413 96.048 84.752 96.048C82.448 96.048 80.656 95.408 79.376 94.128C78.096 92.848 77.456 90.928 77.456 88.368ZM0.784 8.49599C0.784 5.85066 1.424 3.93066 2.704 2.73599C3.984 1.45599 5.776 0.815994 8.08 0.815994C10.4693 0.815994 12.304 1.45599 13.584 2.73599C14.864 3.93066 15.504 5.85066 15.504 8.49599C15.504 10.9707 14.864 12.848 13.584 14.128C12.304 15.408 10.4693 16.048 8.08 16.048C5.776 16.048 3.984 15.408 2.704 14.128C1.424 12.848 0.784 10.9707 0.784 8.49599ZM78.608 8.49599C78.608 5.85066 79.248 3.93066 80.528 2.73599C81.808 1.45599 83.6 0.815994 85.904 0.815994C88.2933 0.815994 90.128 1.45599 91.408 2.73599C92.688 3.93066 93.328 5.85066 93.328 8.49599C93.328 10.9707 92.688 12.848 91.408 14.128C90.128 15.408 88.2933 16.048 85.904 16.048C83.6 16.048 81.808 15.408 80.528 14.128C79.248 12.848 78.608 10.9707 78.608 8.49599Z" fill="black"/>
</svg>
