<svg width="27" height="26" viewBox="0 0 27 26" fill="none" xmlns="http://www.w3.org/2000/svg">
<defs>
  <linearGradient id="gradient" x1="0%" y1="0%" x2="100%" y2="0%">
    <stop offset="0%" style="stop-color:#EC4899"/>
    <stop offset="50%" style="stop-color:#A855F7"/>
    <stop offset="100%" style="stop-color:#3B82F6"/>
  </linearGradient>
</defs>
<path d="M7.50391 22.3164V10.4805C7.50391 9.34766 7.79297 8.49609 8.37109 7.92578C8.94922 7.35547 9.8125 7.07031 10.9609 7.07031H22.7383C23.8789 7.07031 24.7383 7.35547 25.3164 7.92578C25.8945 8.49609 26.1836 9.34766 26.1836 10.4805V22.3164C26.1836 23.4492 25.8945 24.3008 25.3164 24.8711C24.7383 25.4492 23.8789 25.7383 22.7383 25.7383H10.9609C9.8125 25.7383 8.94922 25.4492 8.37109 24.8711C7.79297 24.3008 7.50391 23.4492 7.50391 22.3164ZM10.9609 5.71094C9.95312 5.71094 9.08984 5.89844 8.37109 6.27344C7.65234 6.64844 7.10156 7.19531 6.71875 7.91406C6.34375 8.625 6.15625 9.48047 6.15625 10.4805V18.543C4.97656 18.082 3.92969 17.418 3.01562 16.5508C2.10156 15.6758 1.38672 14.6523 0.871094 13.4805C0.355469 12.3086 0.0976562 11.0508 0.0976562 9.70703C0.0976562 8.39453 0.339844 7.16797 0.824219 6.02734C1.31641 4.87891 1.99609 3.875 2.86328 3.01562C3.73828 2.14844 4.74609 1.46875 5.88672 0.976562C7.02734 0.484375 8.25391 0.238281 9.56641 0.238281C10.8242 0.238281 12.0117 0.472656 13.1289 0.941406C14.2461 1.40234 15.2305 2.04297 16.082 2.86328C16.9414 3.68359 17.6211 4.63281 18.1211 5.71094H10.9609Z" fill="url(#gradient)"/>
</svg>
